<svg xmlns="http://www.w3.org/2000/svg" width="436.534" height="455.869" viewBox="0 0 436.534 455.869"><g id="XMLID_1_" transform="translate(0 0.258)" opacity="0.4"><g id="XMLID_69_" transform="translate(2.065 0)"><g id="XMLID_70_"><g id="Group_960" data-name="Group 960"><g id="Group_959" data-name="Group 959"><g id="Group_954" data-name="Group 954" transform="translate(0 227.689)"><g id="Group_953" data-name="Group 953" transform="translate(46.112 65.933)"><path id="Path_3294" data-name="Path 3294" d="M377.868,458.05l-.844.6c-.56.376-1.338.995-2.416,1.655-1.062.685-2.357,1.513-3.837,2.458s-3.143,2.04-5.041,3.085a178.7,178.7,0,0,1-28.615,13.7,186.276,186.276,0,0,1-30.555,8.544c-2.132.376-4.088.727-5.818,1.037-1.739.276-3.269.435-4.514.6-2.508.318-3.937.5-3.937.5" transform="translate(-101.012 -372.313)" fill="none" stroke="#fff" stroke-miterlimit="10" stroke-width="0.517"></path><path id="Path_3295" data-name="Path 3295" d="M180.792,464.818s-.635-.151-1.781-.56c-1.154-.393-2.842-.961-4.991-1.689-2.165-.677-4.723-1.714-7.666-2.876-2.968-1.1-6.195-2.625-9.739-4.222a182.255,182.255,0,0,1-23.148-13.008,188.248,188.248,0,0,1-23.892-18.843A183.979,183.979,0,0,1,74.49,378.939c-1-1.672-1.839-3.336-2.642-4.916s-1.572-3.076-2.291-4.481c-1.354-2.851-2.458-5.384-3.4-7.448s-1.521-3.754-1.99-4.874c-.443-1.129-.686-1.73-.686-1.73" transform="translate(-63.48 -355.49)" fill="none" stroke="#fff" stroke-miterlimit="10" stroke-width="0.517"></path><path id="Path_3296" data-name="Path 3296" d="M300.221,476.734s-1.43.326-3.929.9c-1.254.259-2.759.7-4.523.986-1.764.318-3.745.669-5.91,1.053a176.084,176.084,0,0,1-64.194-1.638c-2.148-.493-4.113-.945-5.852-1.354-1.747-.393-3.227-.894-4.464-1.22-2.474-.7-3.879-1.1-3.879-1.1" transform="translate(-87.099 -374.988)" fill="none" stroke="#fff" stroke-miterlimit="10" stroke-width="0.517"></path><path id="Path_3297" data-name="Path 3297" d="M424.8,382.48l-.769,1.321c-.535.836-1.329,2.073-2.332,3.637s-2.2,3.486-3.737,5.576c-1.513,2.107-3.152,4.531-5.175,7q-1.48,1.881-3.076,3.912-1.693,1.944-3.486,4.029c-.6.694-1.2,1.388-1.814,2.1-.644.677-1.3,1.371-1.956,2.065q-1.994,2.082-4.063,4.247a173.933,173.933,0,0,1-39.943,29.76c-3.561,1.781-6.939,3.662-10.307,5.091-1.664.744-3.277,1.5-4.857,2.182q-2.395.94-4.631,1.822c-2.943,1.229-5.743,2.09-8.192,2.934-2.441.878-4.623,1.471-6.412,1.973s-3.193.911-4.155,1.179-1.488.36-1.488.36" transform="translate(-105.297 -359.917)" fill="none" stroke="#fff" stroke-miterlimit="10" stroke-width="0.517"></path><path id="Path_3298" data-name="Path 3298" d="M449.863,392.02s-1.212,2.1-3.336,5.76c-1.145,1.781-2.533,3.946-4.121,6.429s-3.595,5.141-5.676,8.117c-1.037,1.488-2.257,2.934-3.453,4.489-1.229,1.521-2.424,3.16-3.787,4.732-2.725,3.143-5.534,6.512-8.727,9.739-3.068,3.344-6.521,6.512-9.965,9.806-3.595,3.118-7.189,6.362-11.051,9.288-3.754,3.06-7.766,5.777-11.653,8.527-4.013,2.575-7.917,5.166-11.9,7.357-3.9,2.341-7.842,4.255-11.545,6.161-1.856.945-3.728,1.722-5.5,2.55-1.789.786-3.494,1.63-5.183,2.282-3.386,1.312-6.454,2.617-9.246,3.57s-5.233,1.772-7.24,2.449c-2.023.635-3.636,1.053-4.723,1.379-1.1.309-1.672.477-1.672.477" transform="translate(-107.375 -361.482)" fill="none" stroke="#fff" stroke-miterlimit="10" stroke-width="0.517"></path><path id="Path_3299" data-name="Path 3299" d="M202.188,454.856s-.493-.117-1.43-.326c-.468-.109-1.037-.242-1.714-.393-.669-.184-1.43-.4-2.291-.644-1.714-.5-3.8-1.053-6.178-1.781-2.341-.819-5.016-1.664-7.883-2.708a166.391,166.391,0,0,1-71.76-51.939c-1.889-2.408-3.653-4.581-5.049-6.646-1.413-2.04-2.75-3.753-3.678-5.275-1.923-3-3.026-4.715-3.026-4.715" transform="translate(-69.336 -359.581)" fill="none" stroke="#fff" stroke-miterlimit="10" stroke-width="0.517"></path><g id="Group_951" data-name="Group 951" transform="translate(104.312 119.218)"><path id="Path_3300" data-name="Path 3300" d="M293.575,505.908s-1.647.292-4.523.811c-1.446.234-3.185.61-5.2.869s-4.3.543-6.788.861a203.584,203.584,0,0,1-36.649.685,199.642,199.642,0,0,1-36.2-6.052c-2.416-.685-4.623-1.312-6.587-1.873-1.965-.543-3.628-1.187-5.016-1.63-2.767-.936-4.355-1.48-4.355-1.48" transform="translate(-188.26 -498.1)" fill="none" stroke="#fff" stroke-miterlimit="10" stroke-width="0.517"></path></g><g id="Group_952" data-name="Group 952" transform="translate(150.441 81.164)"><path id="Path_3301" data-name="Path 3301" d="M328.843,452.58s-4.957,2.307-12.7,4.966a157.784,157.784,0,0,1-29.125,7.031,161.29,161.29,0,0,1-29.978,1.488c-2.057-.017-3.921-.268-5.584-.36-1.655-.134-3.11-.209-4.3-.343-2.366-.3-3.72-.477-3.72-.477" transform="translate(-243.44 -452.58)" fill="none" stroke="#fff" stroke-miterlimit="10" stroke-width="0.517"></path></g></g><path id="Path_3302" data-name="Path 3302" d="M84.38,444.69s5.91.6,11.578.92c5.8.242,11.394.184,11.394.184l.46.435c.293.293.736.7,1.329,1.2,1.162,1.012,2.834,2.449,4.832,4.18.986.878,2.1,1.781,3.3,2.709,1.187.936,2.449,1.923,3.745,2.943,1.279,1.045,2.675,2.031,4.1,3.035l4.289,3.043c2.918,1.981,5.919,3.837,8.694,5.626,2.867,1.647,5.542,3.185,7.833,4.506,4.706,2.416,7.841,4.029,7.841,4.029s.109.293.3.819c.2.5.493,1.229.836,2.09.7,1.73,1.672,4.063,2.692,6.4.518,1.179,1.045,2.358,1.53,3.461.527,1.078,1.012,2.082,1.43,2.943.869,1.731,1.446,2.884,1.446,2.884s1.053.418,2.9,1.137c1.831.769,4.531,1.638,7.741,2.734a199.471,199.471,0,0,0,48.712,9.873c3.386.251,6.2.5,8.176.5,1.973.05,3.1.084,3.1.084" transform="translate(-20.796 -304.189)" fill="none" stroke="#fff" stroke-miterlimit="10" stroke-width="0.517"></path><path id="Path_3303" data-name="Path 3303" d="M237.7,427.344s-.594.017-1.622.042c-.518.008-1.145.05-1.864.042s-1.53-.042-2.416-.067c-1.772-.075-3.845-.033-6.052-.2-2.207-.184-4.556-.326-6.905-.543-2.341-.293-4.673-.593-6.863-.869-2.174-.385-4.2-.752-5.935-1.062-1.747-.268-3.16-.677-4.171-.886l-1.572-.368s-2.266-4.523-4.08-9.246c-.928-2.341-1.8-4.589-2.383-6.353-.568-1.764-.953-2.943-.953-2.943l-1.371-.46c-.878-.334-2.232-.669-3.845-1.363a128.486,128.486,0,0,1-13.317-5.91,132.652,132.652,0,0,1-35.462-26.325,134.944,134.944,0,0,1-14.855-18.442,128.4,128.4,0,0,1-10.048-18.007c-.627-1.371-1.221-2.692-1.789-3.946q-.752-1.918-1.421-3.636c-.961-2.257-1.572-4.305-2.148-5.969-.284-.828-.543-1.572-.761-2.224s-.343-1.212-.477-1.663c-.251-.9-.393-1.388-.393-1.388l-1.931-.711c-1.212-.468-3.051-1.129-5.091-2.031a144.553,144.553,0,0,1-15.148-7.574c-1.363-.777-2.742-1.588-4.1-2.4-1.321-.819-2.592-1.655-3.837-2.483-2.483-1.655-4.84-3.285-6.83-4.732-3.845-2.918-6.437-5.049-6.437-5.049" transform="translate(-17.393 -278.91)" fill="none" stroke="#fff" stroke-miterlimit="10" stroke-width="0.517"></path><path id="Path_3304" data-name="Path 3304" d="M324.46,413.3s.945-.318,2.6-.869c1.622-.644,3.946-1.563,6.721-2.667a157.051,157.051,0,0,0,19.478-10.124,140.357,140.357,0,0,0,17.748-12.966c1.137-.978,2.174-1.881,3.1-2.675s1.655-1.572,2.3-2.165c1.271-1.2,1.99-1.9,1.99-1.9s1.212.176,3.009.368c1.781.167,4.188.368,6.638.527s4.957.267,6.788.267c1.864,0,3.1.008,3.1.008s.426-.493,1.179-1.354q.564-.652,1.354-1.555c.493-.627,1.045-1.338,1.647-2.107,2.474-3.043,5.568-7.265,8.46-11.62.7-1.1,1.413-2.2,2.107-3.285.711-1.078,1.388-2.148,1.973-3.219,1.2-2.132,2.391-4.088,3.31-5.818,1.789-3.486,2.976-5.81,2.976-5.81s.468-.109,1.237-.334,1.881-.568,3.219-.97,2.909-.911,4.6-1.48,3.528-1.187,5.275-1.881c3.536-1.371,7.164-2.867,9.848-4.071l4.406-2.107s.3-.886.828-2.441c.251-.777.6-1.714.92-2.809s.66-2.341,1.045-3.687.8-2.817,1.237-4.364c.359-1.572.744-3.227,1.145-4.932.861-3.411,1.48-7.106,2.132-10.792.368-1.839.585-3.7.811-5.534s.46-3.628.685-5.375c.276-3.5.527-6.771.744-9.572.142-5.618.234-9.363.234-9.363" transform="translate(-60.177 -276.622)" fill="none" stroke="#fff" stroke-miterlimit="10" stroke-width="0.517"></path><path id="Path_3305" data-name="Path 3305" d="M496.858,282.95s-.025.869-.059,2.383c-.025.761-.05,1.68-.075,2.734-.075,1.053-.167,2.249-.259,3.544-.318,5.2-1.07,12.113-2.182,18.977q-.464,2.571-.911,5.108c-.151.844-.3,1.68-.451,2.5-.184.819-.368,1.63-.544,2.424-.752,3.177-1.371,6.153-2.065,8.669-1.429,5.016-2.374,8.368-2.374,8.368s2.316,5.133,4.489,10.6c1.129,2.734,2.015,5.459,2.759,7.566.71,2.107,1.179,3.519,1.179,3.519l-.46,1.162c-.3.752-.719,1.873-1.363,3.244-.627,1.379-1.379,3.06-2.249,4.982-.435.961-.9,1.981-1.4,3.06q-.8,1.58-1.68,3.327c-1.2,2.3-2.424,4.84-3.887,7.432-1.488,2.575-3.051,5.292-4.681,8.109-1.747,2.734-3.561,5.551-5.4,8.427-1.948,2.792-3.962,5.609-5.977,8.427a215.679,215.679,0,0,1-25.3,28.348c-7.557,7.114-13.024,11.361-13.024,11.361" transform="translate(-77.645 -277.658)" fill="none" stroke="#fff" stroke-miterlimit="10" stroke-width="0.517"></path><path id="Path_3306" data-name="Path 3306" d="M438.47,286.74s-.167,2.14-.41,5.359c-.075,1.613-.36,3.469-.61,5.467s-.477,4.13-.911,6.236c-.41,2.107-.694,4.238-1.162,6.195-.451,1.956-.869,3.787-1.237,5.35-.343,1.572-.786,2.842-1.02,3.745-.259.9-.4,1.421-.4,1.421s-1.739.777-4.314,1.839c-2.667,1.037-6.2,2.324-9.664,3.453-3.5,1.129-7.089,2.048-9.672,2.692-1.3.326-2.366.577-3.16.727-.777.159-1.221.242-1.221.242s-.276.594-.744,1.638c-.5,1.037-1.07,2.575-2.031,4.305-.936,1.73-1.864,3.845-3.16,5.944-.61,1.07-1.246,2.174-1.889,3.3-.677,1.1-1.413,2.19-2.115,3.31-1.354,2.257-2.976,4.339-4.372,6.378-1.438,2.006-2.943,3.762-4.13,5.342-2.575,3-4.3,5-4.3,5" transform="translate(-69.607 -278.28)" fill="none" stroke="#fff" stroke-miterlimit="10" stroke-width="0.517"></path><path id="Path_3307" data-name="Path 3307" d="M69.663,389.9s-1.271-1.781-3.168-4.456c-.978-1.313-1.956-2.968-3.085-4.681-1.087-1.739-2.341-3.536-3.411-5.442-2.19-3.787-4.4-7.565-5.827-10.525-.744-1.463-1.371-2.675-1.806-3.528s-.677-1.346-.677-1.346-2.04-.794-5.141-2.09-7.306-3.11-11.361-5.2c-2.048-1.028-4.113-2.1-6.052-3.126-1.956-1.028-3.662-2.065-5.191-2.951-3.026-1.789-5.066-3.06-5.066-3.06s-.359-1-.911-2.784c-.51-1.789-1.237-4.347-2.115-7.415-.217-.769-.443-1.572-.669-2.4-.2-.836-.4-1.705-.61-2.591-.41-1.781-.844-3.662-1.3-5.6-.477-1.939-.836-3.962-1.2-6.027s-.736-4.155-1.112-6.245c-.61-4.2-1.137-8.427-1.58-12.381-.309-3.963-.619-7.666-.794-10.843-.159-6.353-.268-10.592-.268-10.592" transform="translate(-8.32 -276.62)" fill="none" stroke="#fff" stroke-miterlimit="10" stroke-width="0.517"></path><path id="Path_3308" data-name="Path 3308" d="M362.706,493.99l-2.75,1.58c-1.73,1.045-4.305,2.341-7.382,3.921a214.459,214.459,0,0,1-23.257,10.115c-4.38,1.455-8.711,3.068-12.9,4.171-2.081.585-4.1,1.154-6,1.7-1.931.451-3.753.878-5.442,1.279-1.689.384-3.235.744-4.606,1.053-1.379.284-2.583.476-3.578.669-1.99.359-3.118.56-3.118.56l-2.717,3.3c-1.655,1.973-3.937,4.464-6.312,7.022s-4.832,5.091-6.738,6.872l-3.2,3.034s-1.087.084-2.993.226c-1.906.184-4.623.234-7.883.318-1.63.042-3.4.075-5.267.125-1.873.025-3.837-.059-5.877-.1-2.04-.058-4.146-.117-6.287-.176-2.14-.125-4.314-.3-6.487-.46-2.173-.184-4.347-.292-6.487-.56s-4.23-.535-6.261-.786c-4.071-.46-7.825-1.2-11.052-1.764-1.613-.3-3.093-.568-4.4-.811-1.3-.293-2.433-.552-3.369-.761-1.864-.426-2.934-.677-2.934-.677" transform="translate(-40.649 -312.276)" fill="none" stroke="#fff" stroke-miterlimit="10" stroke-width="0.517"></path></g><g id="Group_958" data-name="Group 958" transform="translate(14.989)"><g id="Group_957" data-name="Group 957" transform="translate(30.613 30.955)"><path id="Path_3309" data-name="Path 3309" d="M141.39,88.845l.844-.6c.56-.376,1.338-.995,2.416-1.655,1.062-.685,2.357-1.513,3.837-2.458s3.143-2.04,5.041-3.085a178.694,178.694,0,0,1,28.615-13.7A186.267,186.267,0,0,1,212.7,58.8c2.132-.376,4.088-.727,5.818-1.037,1.739-.276,3.269-.435,4.514-.6,2.508-.318,3.937-.5,3.937-.5" transform="translate(-75.75 -43.806)" fill="none" stroke="#fff" stroke-miterlimit="10" stroke-width="0.517"></path><path id="Path_3310" data-name="Path 3310" d="M332.24,66.94s.635.15,1.781.56c1.154.393,2.842.961,4.991,1.689,2.165.677,4.723,1.714,7.666,2.876,2.968,1.1,6.194,2.625,9.739,4.222a182.251,182.251,0,0,1,23.148,13.008,188.249,188.249,0,0,1,23.892,18.843,183.977,183.977,0,0,1,35.086,44.683c1,1.672,1.839,3.336,2.642,4.916s1.572,3.076,2.291,4.481c1.354,2.851,2.458,5.384,3.4,7.449s1.521,3.754,1.99,4.874c.443,1.129.685,1.73.685,1.73" transform="translate(-107.055 -45.492)" fill="none" stroke="#fff" stroke-miterlimit="10" stroke-width="0.517"></path><path id="Path_3311" data-name="Path 3311" d="M217.62,75s1.43-.326,3.929-.9c1.254-.259,2.759-.7,4.523-.986,1.764-.318,3.745-.669,5.91-1.053A176.083,176.083,0,0,1,296.176,73.7c2.148.493,4.113.945,5.852,1.354,1.747.393,3.227.894,4.464,1.221,2.474.7,3.879,1.1,3.879,1.1" transform="translate(-88.254 -45.972)" fill="none" stroke="#fff" stroke-miterlimit="10" stroke-width="0.517"></path><path id="Path_3312" data-name="Path 3312" d="M90.37,155.193l.769-1.321c.535-.836,1.329-2.073,2.332-3.636s2.2-3.486,3.737-5.576c1.513-2.107,3.152-4.531,5.175-7q1.48-1.881,3.076-3.912c1.129-1.3,2.291-2.642,3.486-4.029.6-.694,1.2-1.388,1.814-2.1.644-.677,1.3-1.371,1.956-2.065q1.994-2.082,4.063-4.247a173.933,173.933,0,0,1,39.943-29.76c3.561-1.781,6.939-3.662,10.307-5.091,1.664-.744,3.277-1.5,4.857-2.182q2.4-.94,4.631-1.822c2.943-1.229,5.743-2.09,8.193-2.934,2.441-.878,4.623-1.471,6.412-1.973s3.193-.911,4.155-1.179,1.48-.359,1.48-.359" transform="translate(-67.381 -46.98)" fill="none" stroke="#fff" stroke-miterlimit="10" stroke-width="0.517"></path><path id="Path_3313" data-name="Path 3313" d="M62.87,142.93s1.212-2.1,3.336-5.76c1.145-1.781,2.533-3.946,4.121-6.429S73.922,125.6,76,122.624c1.037-1.488,2.257-2.934,3.453-4.489,1.229-1.521,2.424-3.16,3.787-4.732,2.725-3.143,5.534-6.512,8.728-9.739,3.068-3.344,6.529-6.512,9.965-9.806,3.595-3.118,7.189-6.362,11.051-9.288,3.754-3.06,7.766-5.777,11.653-8.527,4.013-2.575,7.917-5.166,11.9-7.357,3.9-2.341,7.841-4.255,11.545-6.161,1.856-.945,3.728-1.722,5.5-2.55,1.789-.786,3.494-1.63,5.183-2.282,3.386-1.312,6.454-2.617,9.246-3.57s5.233-1.772,7.239-2.449c2.023-.635,3.636-1.053,4.723-1.379,1.1-.309,1.672-.477,1.672-.477" transform="translate(-62.87 -42.684)" fill="none" stroke="#fff" stroke-miterlimit="10" stroke-width="0.517"></path><path id="Path_3314" data-name="Path 3314" d="M313.64,83.75s.493.117,1.43.326c.468.109,1.037.242,1.714.393.669.184,1.429.4,2.29.644,1.714.5,3.8,1.053,6.178,1.781,2.341.819,5.016,1.664,7.883,2.709a166.391,166.391,0,0,1,71.759,51.939c1.889,2.408,3.653,4.581,5.049,6.646,1.413,2.04,2.75,3.754,3.678,5.275,1.923,3,3.026,4.715,3.026,4.715" transform="translate(-104.004 -48.249)" fill="none" stroke="#fff" stroke-miterlimit="10" stroke-width="0.517"></path><g id="Group_955" data-name="Group 955" transform="translate(132.861)"><path id="Path_3315" data-name="Path 3315" d="M221.8,45.034s1.647-.293,4.523-.811c1.446-.234,3.185-.61,5.2-.869s4.3-.543,6.788-.861a203.59,203.59,0,0,1,36.649-.685,199.635,199.635,0,0,1,36.2,6.052c2.416.685,4.623,1.312,6.587,1.873,1.965.543,3.628,1.187,5.016,1.63,2.767.936,4.355,1.48,4.355,1.48" transform="translate(-221.8 -41.284)" fill="none" stroke="#fff" stroke-miterlimit="10" stroke-width="0.517"></path></g><g id="Group_956" data-name="Group 956" transform="translate(106.653 35.958)"><path id="Path_3316" data-name="Path 3316" d="M190.45,97.951s4.957-2.307,12.7-4.966a157.787,157.787,0,0,1,29.125-7.03,161.278,161.278,0,0,1,29.978-1.488c2.056.017,3.921.268,5.584.359,1.655.134,3.11.209,4.3.343,2.366.3,3.72.477,3.72.477" transform="translate(-190.45 -84.297)" fill="none" stroke="#fff" stroke-miterlimit="10" stroke-width="0.517"></path></g></g><path id="Path_3317" data-name="Path 3317" d="M422.579,95.621s-5.91-.6-11.578-.92c-5.8-.242-11.394-.184-11.394-.184l-.46-.435c-.293-.293-.736-.7-1.329-1.2-1.162-1.012-2.834-2.449-4.832-4.18-.986-.886-2.1-1.781-3.3-2.709-1.187-.936-2.449-1.923-3.745-2.943-1.279-1.045-2.675-2.031-4.1-3.035l-4.289-3.043c-2.918-1.981-5.919-3.837-8.694-5.626-2.867-1.647-5.542-3.185-7.833-4.506-4.707-2.416-7.841-4.029-7.841-4.029s-.109-.293-.3-.819c-.2-.5-.493-1.229-.836-2.09-.7-1.73-1.672-4.063-2.692-6.4-.518-1.179-1.045-2.357-1.53-3.461-.527-1.078-1.012-2.082-1.429-2.943-.869-1.73-1.446-2.884-1.446-2.884s-1.053-.418-2.9-1.137c-1.831-.769-4.531-1.639-7.741-2.734A199.459,199.459,0,0,0,285.6,30.465c-3.386-.251-6.2-.5-8.176-.5-1.973-.05-3.1-.084-3.1-.084" transform="translate(-66.941 -8.458)" fill="none" stroke="#fff" stroke-miterlimit="10" stroke-width="0.517"></path><path id="Path_3318" data-name="Path 3318" d="M264.19,99.015s.594-.017,1.622-.042c.518-.008,1.145-.05,1.864-.033s1.53.042,2.416.067c1.772.075,3.845.033,6.052.2,2.207.184,4.556.326,6.905.543,2.341.293,4.673.594,6.863.869,2.174.385,4.2.752,5.935,1.062,1.747.268,3.16.677,4.171.886l1.58.368s2.265,4.523,4.08,9.246c.928,2.341,1.8,4.589,2.382,6.353.568,1.764.953,2.943.953,2.943l1.371.46c.878.334,2.232.669,3.845,1.363a128.467,128.467,0,0,1,13.317,5.91,132.653,132.653,0,0,1,35.462,26.325,134.956,134.956,0,0,1,14.855,18.441,128.879,128.879,0,0,1,10.048,18.007c.627,1.371,1.221,2.692,1.789,3.946q.752,1.919,1.421,3.636c.961,2.257,1.572,4.305,2.148,5.969.284.828.543,1.572.761,2.224s.343,1.212.477,1.664c.251.9.393,1.388.393,1.388l1.931.711c1.212.468,3.051,1.129,5.091,2.031a144.558,144.558,0,0,1,15.148,7.574c1.371.777,2.742,1.588,4.1,2.4,1.321.819,2.591,1.655,3.837,2.483,2.483,1.655,4.84,3.285,6.83,4.732,3.845,2.918,6.437,5.049,6.437,5.049" transform="translate(-65.28 -19.785)" fill="none" stroke="#fff" stroke-miterlimit="10" stroke-width="0.517"></path><path id="Path_3319" data-name="Path 3319" d="M185.132,113.09s-.945.318-2.6.869c-1.622.644-3.946,1.563-6.721,2.667a157.048,157.048,0,0,0-19.478,10.124,140.352,140.352,0,0,0-17.748,12.966c-1.137.978-2.174,1.881-3.1,2.675s-1.655,1.572-2.3,2.165c-1.271,1.2-1.99,1.9-1.99,1.9s-1.212-.176-3.009-.368c-1.781-.167-4.188-.368-6.638-.527s-4.957-.268-6.788-.268c-1.864,0-3.1-.008-3.1-.008s-.426.493-1.179,1.354q-.564.652-1.354,1.555c-.493.627-1.045,1.338-1.647,2.107-2.474,3.043-5.568,7.265-8.46,11.62-.7,1.1-1.413,2.2-2.107,3.285-.711,1.078-1.379,2.148-1.973,3.218-1.2,2.132-2.391,4.088-3.31,5.818-1.789,3.486-2.976,5.81-2.976,5.81s-.468.109-1.237.334-1.881.568-3.218.97-2.909.911-4.6,1.48-3.528,1.187-5.275,1.881c-3.536,1.371-7.164,2.867-9.848,4.071l-4.406,2.107s-.3.886-.828,2.441c-.251.777-.6,1.714-.92,2.809s-.66,2.341-1.045,3.687-.8,2.817-1.237,4.364c-.368,1.572-.744,3.227-1.145,4.932-.861,3.411-1.48,7.106-2.132,10.792-.368,1.839-.585,3.7-.811,5.534s-.46,3.628-.685,5.375c-.276,3.5-.527,6.771-.744,9.572-.142,5.618-.234,9.363-.234,9.363" transform="translate(-30.193 -22.107)" fill="none" stroke="#fff" stroke-miterlimit="10" stroke-width="0.517"></path><path id="Path_3320" data-name="Path 3320" d="M26.25,238.028s.025-.869.059-2.383c.025-.761.05-1.68.075-2.734.075-1.053.167-2.249.259-3.545.318-5.2,1.07-12.113,2.182-18.976q.464-2.571.911-5.108c.15-.844.3-1.68.451-2.5.184-.819.368-1.63.543-2.424.752-3.177,1.371-6.153,2.065-8.669,1.43-5.016,2.374-8.368,2.374-8.368s-2.316-5.133-4.489-10.6c-1.129-2.734-2.015-5.459-2.759-7.565-.711-2.107-1.179-3.519-1.179-3.519l.46-1.162c.3-.752.719-1.873,1.363-3.244.627-1.379,1.379-3.06,2.249-4.982.435-.961.9-1.981,1.4-3.06.535-1.053,1.1-2.165,1.68-3.327,1.2-2.3,2.424-4.84,3.887-7.432,1.488-2.575,3.06-5.292,4.681-8.109,1.747-2.734,3.561-5.551,5.4-8.427,1.948-2.792,3.962-5.609,5.977-8.427a215.689,215.689,0,0,1,25.3-28.348C86.691,78.007,92.158,73.76,92.158,73.76" transform="translate(-26.25 -15.656)" fill="none" stroke="#fff" stroke-miterlimit="10" stroke-width="0.517"></path><path id="Path_3321" data-name="Path 3321" d="M86.49,251.186s.167-2.14.41-5.359c.075-1.613.359-3.469.61-5.467s.477-4.13.911-6.236c.41-2.107.694-4.238,1.162-6.195.451-1.956.878-3.787,1.237-5.35.343-1.572.786-2.842,1.02-3.745.259-.9.4-1.421.4-1.421s1.739-.777,4.314-1.839c2.667-1.037,6.2-2.324,9.664-3.453,3.5-1.129,7.089-2.048,9.672-2.692,1.3-.326,2.366-.577,3.16-.727.777-.159,1.22-.242,1.22-.242s.276-.594.744-1.639c.5-1.037,1.07-2.575,2.031-4.305.936-1.73,1.864-3.845,3.16-5.944.61-1.07,1.246-2.174,1.889-3.3.677-1.1,1.413-2.19,2.115-3.31,1.354-2.257,2.976-4.339,4.372-6.378,1.438-2.006,2.943-3.762,4.13-5.342,2.575-3,4.3-5,4.3-5" transform="translate(-36.131 -31.973)" fill="none" stroke="#fff" stroke-miterlimit="10" stroke-width="0.517"></path><path id="Path_3322" data-name="Path 3322" d="M454.35,141.08s1.271,1.781,3.168,4.456c.978,1.312,1.956,2.968,3.085,4.681,1.087,1.739,2.341,3.536,3.411,5.442,2.19,3.787,4.4,7.565,5.827,10.525.744,1.463,1.371,2.675,1.806,3.528s.677,1.346.677,1.346,2.04.794,5.141,2.09,7.306,3.11,11.361,5.2c2.048,1.028,4.113,2.1,6.052,3.127,1.956,1.028,3.662,2.065,5.191,2.951,3.026,1.789,5.066,3.06,5.066,3.06s.359,1,.911,2.784c.51,1.789,1.237,4.347,2.115,7.415.217.769.443,1.572.669,2.4.2.836.4,1.705.61,2.591.41,1.781.844,3.662,1.3,5.6.477,1.939.836,3.962,1.2,6.027s.736,4.155,1.112,6.245c.61,4.2,1.137,8.427,1.58,12.381.309,3.962.619,7.666.794,10.843.159,6.353.268,10.592.268,10.592" transform="translate(-96.472 -26.698)" fill="none" stroke="#fff" stroke-miterlimit="10" stroke-width="0.517"></path><path id="Path_3323" data-name="Path 3323" d="M142.48,50.2l2.75-1.58c1.73-1.045,4.305-2.341,7.382-3.921a214.455,214.455,0,0,1,23.257-10.115c4.38-1.455,8.711-3.068,12.9-4.171,2.082-.585,4.1-1.154,6-1.7,1.931-.451,3.754-.878,5.442-1.279,1.689-.385,3.235-.744,4.606-1.053,1.379-.284,2.583-.477,3.578-.669,1.99-.359,3.118-.56,3.118-.56l2.717-3.3c1.655-1.973,3.937-4.464,6.312-7.022s4.832-5.091,6.738-6.872l3.2-3.035s1.087-.084,2.993-.226c1.906-.184,4.623-.234,7.883-.318,1.63-.042,3.4-.075,5.267-.125,1.873-.025,3.837.059,5.877.1,2.04.059,4.146.117,6.286.176,2.14.125,4.314.3,6.487.46,2.174.184,4.347.293,6.487.56s4.23.535,6.261.786c4.071.46,7.825,1.2,11.051,1.764,1.613.3,3.093.568,4.4.811,1.3.293,2.433.552,3.369.761,1.864.426,2.934.677,2.934.677" transform="translate(-45.315 -4.254)" fill="none" stroke="#fff" stroke-miterlimit="10" stroke-width="0.517"></path></g></g></g></g></g><path id="XMLID_68_" d="M302.944,33.193l-6.312-.66a.667.667,0,0,1-.594-.736l.192-1.864a.667.667,0,0,1,.736-.594l6.312.66a.667.667,0,0,1,.593.736L303.68,32.6A.667.667,0,0,1,302.944,33.193Z" transform="translate(-53.449 -8.368)" fill="#5ec0d9"></path><path id="XMLID_67_" d="M205.711,65.419l-6.077,1.831a.67.67,0,0,1-.836-.451l-.543-1.8a.67.67,0,0,1,.451-.836l6.077-1.831a.67.67,0,0,1,.836.451l.543,1.8A.683.683,0,0,1,205.711,65.419Z" transform="translate(-37.406 -13.777)" fill="#5ec0d9"></path><path id="XMLID_66_" d="M13.839,339.7l-1.471-7.741a.841.841,0,0,1,.66-.978l2.291-.435a.841.841,0,0,1,.978.66l1.471,7.741a.841.841,0,0,1-.66.978l-2.291.435A.826.826,0,0,1,13.839,339.7Z" transform="translate(-6.917 -57.774)" fill="#5ec0d9"></path><path id="XMLID_65_" d="M258.713,484.273l-5.735-.334a.6.6,0,0,1-.569-.644l.1-1.7a.6.6,0,0,1,.644-.568l5.735.334a.6.6,0,0,1,.568.644l-.1,1.7A.608.608,0,0,1,258.713,484.273Z" transform="translate(-46.293 -82.46)" fill="#5ec0d9"></path><path id="XMLID_64_" d="M480.058,315.669l.995-5.71a.615.615,0,0,1,.71-.5l1.689.293a.615.615,0,0,1,.5.711l-.995,5.71a.615.615,0,0,1-.711.5l-1.689-.293A.62.62,0,0,1,480.058,315.669Z" transform="translate(-83.634 -54.316)" fill="#5ec0d9"></path><path id="XMLID_63_" d="M418.45,119.065l-4.33-3.845a.609.609,0,0,1-.05-.861l1.137-1.279a.619.619,0,0,1,.869-.05l4.33,3.845a.609.609,0,0,1,.05.861l-1.137,1.279A.627.627,0,0,1,418.45,119.065Z" transform="translate(-72.785 -22.072)" fill="#5ec0d9"></path><path id="XMLID_62_" d="M398.578,469.934l4.773-3.285a.609.609,0,0,1,.853.159l.97,1.413a.609.609,0,0,1-.159.853l-4.773,3.285a.609.609,0,0,1-.853-.159l-.97-1.413A.617.617,0,0,1,398.578,469.934Z" transform="translate(-70.226 -80.084)" fill="#5ec0d9"></path><path id="XMLID_61_" d="M65.708,113.929l-3.57,4.564a.613.613,0,0,1-.861.109l-1.354-1.053a.613.613,0,0,1-.109-.861l3.57-4.564a.613.613,0,0,1,.861-.109l1.354,1.053A.613.613,0,0,1,65.708,113.929Z" transform="translate(-14.681 -21.909)" fill="#5ec0d9"></path><path id="XMLID_60_" d="M106.646,73.268A2.048,2.048,0,1,1,104.6,71.22,2.051,2.051,0,0,1,106.646,73.268Z" transform="translate(-21.712 -15.239)" fill="#5ebfd9"></path><path id="XMLID_59_" d="M332.966,66.148a2.048,2.048,0,1,1-2.048-2.048A2.051,2.051,0,0,1,332.966,66.148Z" transform="translate(-58.835 -14.071)" fill="#5ebfd9"></path><path id="XMLID_58_" d="M63.856,162.068a2.048,2.048,0,1,1-2.048-2.048A2.051,2.051,0,0,1,63.856,162.068Z" transform="translate(-14.693 -29.805)" fill="#5ebfd9"></path><path id="XMLID_31_" d="M455.066,138.678a2.048,2.048,0,1,1-2.048-2.048A2.051,2.051,0,0,1,455.066,138.678Z" transform="translate(-78.864 -25.968)" fill="#5ebfd9"></path><path id="XMLID_30_" d="M351.266,55.248a2.048,2.048,0,1,1-2.048-2.048A2.051,2.051,0,0,1,351.266,55.248Z" transform="translate(-61.837 -12.283)" fill="#5ebfd9"></path><path id="XMLID_29_" d="M448.056,380.408a2.048,2.048,0,1,1-2.048-2.048A2.051,2.051,0,0,1,448.056,380.408Z" transform="translate(-77.714 -65.619)" fill="#5ebfd9"></path><path id="XMLID_28_" d="M451.206,284.648a2.048,2.048,0,1,1-2.048-2.048A2.052,2.052,0,0,1,451.206,284.648Z" transform="translate(-78.231 -49.912)" fill="#5ebfd9"></path><path id="XMLID_27_" d="M274.886,453.748a2.048,2.048,0,1,1-2.048-2.048A2.052,2.052,0,0,1,274.886,453.748Z" transform="translate(-49.308 -77.65)" fill="#5ebfd9"></path><path id="XMLID_26_" d="M188.706,496.988a2.048,2.048,0,1,1-2.048-2.048A2.051,2.051,0,0,1,188.706,496.988Z" transform="translate(-35.172 -84.742)" fill="#5ebfd9"></path><path id="XMLID_25_" d="M292.146,496.268a2.048,2.048,0,1,1-2.048-2.048A2.051,2.051,0,0,1,292.146,496.268Z" transform="translate(-52.14 -84.624)" fill="#5ebfd9"></path><path id="XMLID_24_" d="M431,480.108a2.048,2.048,0,1,1-2.048-2.048A2.051,2.051,0,0,1,431,480.108Z" transform="translate(-74.915 -81.974)" fill="#5ebfd9"></path><path id="XMLID_23_" d="M9.946,274.048A2.048,2.048,0,1,1,7.9,272,2.051,2.051,0,0,1,9.946,274.048Z" transform="translate(-5.85 -48.173)" fill="#5ebfd9"></path><path id="XMLID_21_" d="M84.446,413.578A2.048,2.048,0,1,1,82.4,411.53,2.051,2.051,0,0,1,84.446,413.578Z" transform="translate(-18.07 -71.061)" fill="#5ebfd9"></path><path id="XMLID_17_" d="M83.666,443.778a2.048,2.048,0,1,1-2.048-2.048A2.051,2.051,0,0,1,83.666,443.778Z" transform="translate(-17.942 -76.014)" fill="none" stroke="#5ebfd9" stroke-miterlimit="10" stroke-width="0.517"></path><path id="XMLID_16_" d="M63.416,288.528a2.048,2.048,0,1,1-2.048-2.048A2.051,2.051,0,0,1,63.416,288.528Z" transform="translate(-14.621 -50.548)" fill="none" stroke="#5ebfd9" stroke-miterlimit="10" stroke-width="0.517"></path><path id="XMLID_15_" d="M215.506,111.428a2.048,2.048,0,1,1-2.048-2.048A2.051,2.051,0,0,1,215.506,111.428Z" transform="translate(-39.568 -21.498)" fill="none" stroke="#5ebfd9" stroke-miterlimit="10" stroke-width="0.517"></path><path id="XMLID_14_" d="M334.526,12.078a2.048,2.048,0,1,1-2.048-2.048A2.051,2.051,0,0,1,334.526,12.078Z" transform="translate(-59.091 -5.202)" fill="none" stroke="#5ebfd9" stroke-miterlimit="10" stroke-width="0.517"></path><path id="XMLID_13_" d="M263.606,98.728a2.048,2.048,0,1,1-2.048-2.048A2.051,2.051,0,0,1,263.606,98.728Z" transform="translate(-47.458 -19.415)" fill="none" stroke="#5ebfd9" stroke-miterlimit="10" stroke-width="0.517"></path><path id="XMLID_6_" d="M455.7,108.408a2.048,2.048,0,1,1-2.048-2.048A2.052,2.052,0,0,1,455.7,108.408Z" transform="translate(-78.967 -21.003)" fill="none" stroke="#5ebfd9" stroke-miterlimit="10" stroke-width="0.517"></path><path id="XMLID_5_" d="M439.726,174.428a2.048,2.048,0,1,1-2.048-2.048A2.051,2.051,0,0,1,439.726,174.428Z" transform="translate(-76.347 -31.832)" fill="none" stroke="#5ebfd9" stroke-miterlimit="10" stroke-width="0.517"></path><path id="XMLID_4_" d="M511.226,280.368a2.048,2.048,0,1,1-2.048-2.048A2.051,2.051,0,0,1,511.226,280.368Z" transform="translate(-88.076 -49.21)" fill="none" stroke="#5ebfd9" stroke-miterlimit="10" stroke-width="0.517"></path><path id="XMLID_3_" d="M475.086,199.418a2.048,2.048,0,1,1-2.048-2.048A2.052,2.052,0,0,1,475.086,199.418Z" transform="translate(-82.148 -35.932)" fill="none" stroke="#5ebfd9" stroke-miterlimit="10" stroke-width="0.517"></path><path id="XMLID_2_" d="M324.146,440.568a2.048,2.048,0,1,1-2.048-2.048A2.051,2.051,0,0,1,324.146,440.568Z" transform="translate(-57.389 -75.488)" fill="none" stroke="#5ebfd9" stroke-miterlimit="10" stroke-width="0.517"></path></g></svg>