<svg xmlns="http://www.w3.org/2000/svg" width="273" height="240" viewBox="0 0 273 240" fill="none"><path d="M270.306 125.046L209.423 232.336C208.374 234.192 206.855 235.738 205.017 236.818C203.179 237.897 201.089 238.472 198.957 238.484L75.6252 239.418C73.4937 239.438 71.3948 238.895 69.5406 237.843C67.6865 236.791 66.1429 235.269 65.066 233.429L2.56664 127.074C1.49129 125.235 0.916918 123.147 0.900784 121.017C0.884651 118.886 1.42732 116.789 2.4747 114.934L63.3551 7.64402C64.4039 5.78806 65.9242 4.2419 67.7621 3.16188C69.6001 2.08185 71.6906 1.50625 73.8224 1.49325L197.155 0.559148C199.287 0.539306 201.386 1.08296 203.24 2.13509C205.094 3.18722 206.637 4.71049 207.713 6.55068L265.637 105.121L270.214 112.907C271.289 114.745 271.863 116.834 271.88 118.964C271.896 121.094 271.353 123.191 270.306 125.046Z" fill="#EF7F12"></path><g style="mix-blend-mode:multiply"><path d="M270.305 125.047L209.422 232.336C208.374 234.192 206.854 235.738 205.016 236.818C203.178 237.898 201.088 238.472 198.956 238.484L112.091 239.142L85.5272 212.978C86.9882 213.559 88.5479 213.851 90.1201 213.838L184.076 213.126C186.206 213.108 188.294 212.53 190.131 211.45C191.968 210.371 193.489 208.828 194.542 206.976L240.877 125.265C241.936 123.414 242.485 121.316 242.469 119.183C242.453 117.05 241.872 114.96 240.785 113.125L195.526 36.0671L265.632 105.119L270.209 112.903C271.285 114.742 271.861 116.831 271.878 118.962C271.895 121.093 271.352 123.191 270.305 125.047V125.047Z" fill="#EA5F30"></path></g><path d="M240.17 125.515L193.835 207.225C192.782 209.077 191.261 210.62 189.425 211.7C187.588 212.779 185.5 213.357 183.369 213.376L89.4096 214.087C87.8374 214.1 86.2776 213.808 84.8167 213.227C84.8034 213.213 84.7854 213.203 84.766 213.201C82.2893 212.194 80.2119 210.401 78.8528 208.099L77.8198 206.335L54.1319 166.041L31.2819 127.1C30.1951 125.265 29.614 123.175 29.5978 121.043C29.5817 118.91 30.1311 116.811 31.19 114.96L77.5253 33.25C78.5777 31.3975 80.0985 29.8542 81.9353 28.7747C83.7721 27.6952 85.8604 27.1174 87.9909 27.0992L181.951 26.3876C184.081 26.3735 186.178 26.9197 188.031 27.9712C189.884 29.0228 191.428 30.5428 192.508 32.3791L194.822 36.3189L240.081 113.378C241.167 115.213 241.747 117.302 241.763 119.434C241.779 121.566 241.229 123.664 240.17 125.515Z" fill="white"></path><path d="M135.935 175.3C134.064 174.017 131.997 173.08 130.028 171.968C127.996 170.817 125.941 169.702 123.871 168.615C122.894 168.102 122.473 167.355 122.496 166.269C122.528 164.724 122.485 163.176 122.513 161.631C122.525 160.996 122.335 160.564 121.781 160.201C117.699 157.508 113.629 154.799 109.573 152.066C108.979 151.665 108.507 151.677 107.901 152.014C105.01 153.62 102.07 155.139 99.2072 156.796C97.9101 157.549 96.8435 157.592 95.5117 156.825C91.9949 154.796 88.4146 152.87 84.8142 150.988C83.543 150.322 82.9722 149.469 83.001 148.013C83.0702 144.418 83.05 140.821 83.0097 137.226C82.9982 136.015 83.4334 135.208 84.5087 134.606C87.9304 132.697 91.303 130.697 94.7276 128.794C95.5059 128.362 95.751 127.863 95.7452 127.004C95.7106 122.112 95.7019 117.223 95.751 112.332C95.7596 111.406 95.4396 110.905 94.6469 110.484C91.2829 108.694 87.9678 106.814 84.5951 105.039C83.4623 104.442 82.9924 103.643 83.0097 102.378C83.0558 98.7111 83.05 95.0415 83.0126 91.3748C83.001 90.2074 83.396 89.4175 84.4395 88.8352C88.2964 86.6675 92.1332 84.468 95.9556 82.2455C96.9444 81.6719 97.8092 81.7064 98.7806 82.2714C102.447 84.4046 106.111 86.5464 109.83 88.5844C111.13 89.2964 111.801 90.1728 111.623 91.6688C111.565 92.1589 111.614 92.6605 111.614 93.1476C112.078 93.2572 112.3 92.9718 112.56 92.8104C115.581 90.928 118.584 89.0197 121.626 87.1662C122.306 86.7511 122.522 86.261 122.516 85.4971C122.487 81.8304 122.525 78.1608 122.49 74.4941C122.479 73.367 122.859 72.6031 123.865 72.0381C127.754 69.8559 131.62 67.6392 135.477 65.4022C136.382 64.8776 137.192 64.8603 138.103 65.3849C141.96 67.619 145.828 69.8329 149.714 72.0208C150.708 72.58 151.118 73.3381 151.109 74.471C151.072 78.1752 151.098 81.8794 151.095 85.5836C151.095 86.0938 151.092 86.5752 151.614 86.901C154.995 89.0139 158.368 91.1384 161.853 93.3293C162.086 92.4962 161.98 91.7524 161.977 91.026C161.971 90.0603 162.372 89.3973 163.208 88.9217C167.177 86.6675 171.141 84.396 175.101 82.1273C175.891 81.6747 176.652 81.6805 177.448 82.136C181.406 84.4104 185.369 86.679 189.342 88.9303C190.224 89.429 190.59 90.1439 190.584 91.1384C190.567 94.9493 190.561 98.763 190.587 102.574C190.596 103.718 190.108 104.445 189.114 104.978C185.721 106.791 182.366 108.671 178.97 110.478C178.18 110.899 177.843 111.386 177.851 112.317C177.9 117.206 177.892 122.098 177.857 126.99C177.851 127.843 178.088 128.348 178.869 128.78C182.296 130.68 185.666 132.683 189.088 134.591C190.16 135.191 190.604 135.995 190.593 137.209C190.555 140.876 190.552 144.545 190.596 148.212C190.61 149.483 190.1 150.279 188.987 150.87C185.211 152.879 181.455 154.928 177.719 157.01C176.69 157.583 175.796 157.549 174.784 156.984C171.775 155.297 168.725 153.677 165.71 152C165.099 151.659 164.629 151.662 164.038 152.06C160.014 154.773 155.975 157.465 151.919 160.132C151.297 160.541 151.075 161.011 151.092 161.731C151.132 163.204 151.066 164.68 151.115 166.153C151.155 167.332 150.688 168.108 149.645 168.667C146.062 170.584 142.504 172.544 138.942 174.493C138.503 174.732 138.016 174.902 137.67 175.291C137.088 175.3 136.511 175.3 135.935 175.3ZM122.502 120.129C122.502 118.547 122.485 116.967 122.51 115.384C122.519 114.819 122.314 114.447 121.842 114.142C117.74 111.487 113.643 108.823 109.559 106.14C109.037 105.797 108.619 105.788 108.08 106.088C105.382 107.593 102.675 109.08 99.951 110.539C99.3052 110.885 99.0112 111.308 99.017 112.061C99.04 117.128 99.0372 122.196 99.0228 127.261C99.0199 127.95 99.262 128.388 99.8731 128.731C102.88 130.423 105.875 132.132 108.85 133.874C109.524 134.269 110.055 134.289 110.712 133.819C114.396 131.187 118.103 128.587 121.813 125.992C122.303 125.649 122.528 125.257 122.516 124.652C122.482 123.147 122.502 121.64 122.502 120.129ZM174.571 119.651C174.571 117.134 174.554 114.618 174.582 112.101C174.591 111.369 174.346 110.91 173.686 110.556C170.959 109.097 168.255 107.604 165.551 106.102C165.024 105.808 164.603 105.785 164.072 106.134C160.017 108.8 155.946 111.444 151.864 114.07C151.276 114.447 151.077 114.903 151.083 115.583C151.112 118.567 151.112 121.553 151.083 124.537C151.077 125.223 151.305 125.661 151.867 126.056C155.586 128.644 159.29 131.25 162.977 133.882C163.559 134.297 163.995 134.335 164.62 133.969C167.627 132.205 170.656 130.475 173.698 128.768C174.349 128.402 174.591 127.932 174.585 127.203C174.554 124.687 174.571 122.167 174.571 119.651ZM161.982 143.369C161.982 141.608 161.962 139.846 161.994 138.085C162.006 137.442 161.781 137.027 161.25 136.655C157.535 134.067 153.83 131.464 150.146 128.829C149.527 128.385 149.042 128.385 148.394 128.748C145.35 130.446 142.291 132.118 139.218 133.761C138.593 134.096 138.365 134.499 138.371 135.202C138.402 138.474 138.405 141.746 138.368 145.015C138.359 145.759 138.601 146.194 139.25 146.557C142.444 148.353 145.58 150.261 148.812 151.985C150.409 152.836 151.415 153.824 151.106 155.756C150.979 156.551 151.317 156.606 151.936 156.191C155.038 154.104 158.146 152.028 161.27 149.976C161.821 149.616 162.008 149.183 161.997 148.543C161.962 146.822 161.985 145.096 161.982 143.369ZM111.614 143.285C111.614 145.012 111.646 146.736 111.6 148.463C111.58 149.198 111.83 149.65 112.441 150.051C115.48 152.04 118.489 154.069 121.516 156.07C121.767 156.237 122.02 156.618 122.349 156.416C122.649 156.231 122.531 155.808 122.487 155.511C122.26 153.873 123.038 152.951 124.436 152.193C127.783 150.38 131.058 148.428 134.367 146.54C134.854 146.263 135.229 145.984 135.223 145.315C135.194 141.864 135.203 138.414 135.217 134.963C135.22 134.424 135.013 134.11 134.546 133.859C131.383 132.153 128.227 130.437 125.085 128.691C124.497 128.365 124.061 128.405 123.522 128.789C119.833 131.415 116.131 134.023 112.413 136.606C111.81 137.024 111.58 137.497 111.597 138.218C111.643 139.907 111.614 141.596 111.614 143.285ZM161.985 100.4C161.985 99.8267 161.925 99.2444 162 98.6765C162.132 97.6446 161.7 97.0652 160.821 96.529C156.984 94.1969 153.185 91.8043 149.403 89.3887C148.705 88.9419 148.175 88.9102 147.451 89.3195C144.733 90.8617 141.988 92.3549 139.236 93.8279C138.619 94.1566 138.365 94.5486 138.374 95.2577C138.408 98.3105 138.414 101.366 138.371 104.419C138.359 105.211 138.645 105.65 139.319 106.03C142.389 107.751 145.439 109.507 148.477 111.285C149.117 111.66 149.593 111.669 150.227 111.242C153.245 109.227 156.234 107.163 159.359 105.33C161.348 104.159 162.726 102.911 161.985 100.4ZM135.214 99.9478C135.214 98.3306 135.194 96.7164 135.226 95.0992C135.237 94.5198 135.018 94.1796 134.514 93.9087C131.637 92.3578 128.772 90.7896 125.915 89.2042C125.428 88.9332 125.039 88.8785 124.534 89.1984C120.467 91.7697 116.388 94.3209 112.303 96.8605C111.778 97.1862 111.6 97.5984 111.611 98.1951C111.64 99.7028 111.643 101.213 111.611 102.721C111.6 103.329 111.816 103.715 112.326 104.044C116.068 106.457 119.801 108.884 123.525 111.323C123.992 111.628 124.378 111.718 124.9 111.415C128.097 109.556 131.305 107.717 134.522 105.895C135.07 105.586 135.24 105.183 135.229 104.583C135.194 103.038 135.214 101.493 135.214 99.9478ZM88.2359 90.4726C88.3858 90.6397 88.4406 90.7406 88.5242 90.7896C91.2973 92.3059 94.0761 93.8107 96.8435 95.3356C97.2499 95.5604 97.5699 95.4855 97.9446 95.2779C100.525 93.8568 103.102 92.4299 105.699 91.0462C106.42 90.6628 106.443 90.4408 105.719 90.0373C103.151 88.596 100.597 87.1287 98.0513 85.647C97.5122 85.3328 97.0654 85.3847 96.5523 85.696C95.382 86.3994 94.1857 87.0566 93.0009 87.734C91.4241 88.6392 89.8502 89.5443 88.2359 90.4726ZM167.148 90.4899C167.37 90.6772 167.462 90.7868 167.581 90.8502C170.287 92.3347 173.006 93.8049 175.704 95.3096C176.203 95.5864 176.566 95.4422 176.995 95.2059C179.261 93.9577 181.541 92.7383 183.801 91.4844C184.311 91.2019 184.908 91.0203 185.387 90.4783C182.752 88.9649 180.169 87.5553 177.667 86.016C176.632 85.3789 175.836 85.3703 174.836 86.0477C173.62 86.8721 172.291 87.5236 171.014 88.2587C169.748 88.9822 168.489 89.7144 167.148 90.4899ZM88.184 136.309C88.4233 136.494 88.5242 136.595 88.6424 136.661C91.3203 138.128 94.007 139.578 96.6734 141.066C97.2413 141.383 97.6766 141.236 98.1753 140.962C100.695 139.578 103.214 138.2 105.748 136.843C106.342 136.526 106.572 136.324 105.811 135.897C103.272 134.476 100.747 133.029 98.2387 131.559C97.6103 131.193 97.0943 131.161 96.4543 131.55C94.8573 132.519 93.22 133.421 91.6028 134.349C90.4901 134.983 89.3832 135.62 88.184 136.309ZM167.171 136.278C167.315 136.445 167.367 136.552 167.454 136.598C170.195 138.097 172.945 139.581 175.678 141.095C176.208 141.389 176.623 141.23 177.082 140.979C179.601 139.596 182.118 138.209 184.654 136.86C185.375 136.477 185.384 136.249 184.663 135.851C182.683 134.756 180.639 133.741 178.794 132.45C177.03 131.216 175.583 131.178 173.79 132.424C171.706 133.862 169.411 134.992 167.171 136.278ZM127.564 113.669C130.472 115.26 133.159 116.702 135.814 118.206C136.52 118.607 137.068 118.63 137.788 118.218C140.063 116.912 142.383 115.69 144.681 114.422C145.076 114.202 145.543 114.07 145.866 113.563C142.951 111.896 140.06 110.242 137.169 108.593C136.892 108.434 136.618 108.486 136.35 108.639C133.49 110.276 130.628 111.914 127.564 113.669ZM127.719 73.6379C127.861 73.808 127.91 73.9147 127.993 73.9608C130.761 75.4857 133.537 76.9991 136.301 78.5327C136.757 78.7863 137.105 78.6336 137.5 78.4174C139.008 77.5814 140.53 76.7714 142.04 75.9412C143.315 75.2407 144.583 74.5316 146.033 73.7244C142.974 71.9775 140.112 70.346 137.252 68.7086C136.984 68.5558 136.707 68.5155 136.434 68.6711C133.539 70.3171 130.648 71.9689 127.719 73.6379ZM127.662 154.185C127.907 154.369 128.031 154.49 128.178 154.571C130.853 156.041 133.537 157.494 136.2 158.984C136.785 159.313 137.212 159.085 137.693 158.82C139.927 157.592 142.17 156.378 144.404 155.153C144.894 154.885 145.373 154.6 146.018 154.228C143.692 152.893 141.449 151.806 139.44 150.397C137.558 149.077 136.021 149.097 134.145 150.406C132.133 151.812 129.899 152.902 127.662 154.185ZM135.214 86.0275C135.214 84.8774 135.183 83.7272 135.226 82.5799C135.252 81.9111 134.984 81.5393 134.404 81.2308C131.807 79.8414 129.224 78.426 126.65 76.9933C126.071 76.6705 125.834 76.6849 125.84 77.4315C125.863 79.8385 125.857 82.2455 125.843 84.6525C125.84 85.1743 126.013 85.5346 126.48 85.7883C129.132 87.2267 131.781 88.6709 134.424 90.1266C135.099 90.4985 135.226 90.1987 135.217 89.5847C135.203 88.3971 135.214 87.2123 135.214 86.0275ZM147.748 81.0521C147.748 79.8673 147.719 78.6797 147.757 77.4949C147.783 76.7022 147.543 76.6589 146.903 77.0164C144.332 78.4519 141.746 79.8616 139.152 81.2539C138.613 81.5421 138.365 81.8909 138.371 82.5165C138.397 84.8514 138.4 87.1863 138.371 89.5213C138.359 90.3659 138.63 90.4293 139.308 90.0546C141.853 88.645 144.407 87.2555 146.973 85.8834C147.555 85.5721 147.78 85.1512 147.757 84.4997C147.722 83.3524 147.748 82.2023 147.748 81.0521ZM86.368 97.8348C86.368 99.0196 86.3853 100.207 86.3593 101.392C86.3478 101.954 86.5179 102.323 87.0396 102.603C89.6974 104.03 92.3408 105.482 94.9813 106.944C95.5751 107.273 95.7337 107.079 95.7308 106.474C95.7192 104.032 95.7192 101.588 95.7279 99.1464C95.7308 98.7054 95.5665 98.3883 95.1802 98.1779C92.4705 96.6991 89.7579 95.2203 87.0511 93.7299C86.5034 93.4273 86.3564 93.6204 86.3622 94.171C86.3795 95.3932 86.3708 96.6155 86.368 97.8348ZM177.869 102.853C177.869 104.038 177.88 105.226 177.863 106.411C177.854 107.028 177.967 107.313 178.65 106.932C181.288 105.465 183.934 104.021 186.589 102.588C187.064 102.332 187.237 101.989 187.232 101.464C187.217 99.0571 187.22 96.6501 187.229 94.243C187.232 93.6809 187.136 93.3984 186.502 93.7501C183.833 95.2289 181.152 96.6904 178.468 98.1461C177.99 98.4056 177.849 98.7832 177.86 99.2963C177.883 100.481 177.872 101.669 177.869 102.853ZM95.7192 153.135C95.7192 150.218 95.7164 147.5 95.7221 144.781C95.7221 144.361 95.4742 144.136 95.1398 143.954C92.5224 142.53 89.8992 141.115 87.2904 139.673C86.5669 139.273 86.3535 139.466 86.3622 140.247C86.3853 142.545 86.3881 144.845 86.3593 147.145C86.3507 147.805 86.5813 148.195 87.1693 148.503C89.0142 149.469 90.8332 150.483 92.6636 151.478C93.6264 152.003 94.5921 152.524 95.7192 153.135ZM177.869 148.673C177.869 149.858 177.9 151.045 177.857 152.227C177.828 152.988 178.019 153.095 178.684 152.723C181.288 151.273 183.908 149.849 186.537 148.448C187.108 148.146 187.24 147.722 187.237 147.134C187.22 144.871 187.206 142.608 187.243 140.345C187.257 139.42 187.001 139.284 186.205 139.728C183.697 141.129 181.175 142.501 178.635 143.848C178.036 144.165 177.837 144.577 177.86 145.223C177.898 146.373 177.869 147.523 177.869 148.673ZM135.214 125.99C135.214 124.805 135.194 123.617 135.223 122.432C135.237 121.865 135.047 121.498 134.534 121.222C131.876 119.792 129.227 118.348 126.589 116.883C126.013 116.563 125.84 116.673 125.843 117.316C125.857 119.76 125.857 122.202 125.846 124.646C125.843 125.128 126.016 125.462 126.445 125.696C129.097 127.137 131.744 128.581 134.387 130.037C134.975 130.36 135.232 130.262 135.22 129.55C135.197 128.362 135.214 127.174 135.214 125.99ZM147.751 121.014C147.751 119.864 147.728 118.714 147.76 117.566C147.78 116.808 147.708 116.483 146.846 116.973C144.318 118.411 141.755 119.792 139.189 121.161C138.61 121.47 138.362 121.844 138.371 122.513C138.405 124.813 138.408 127.111 138.371 129.411C138.356 130.357 138.688 130.339 139.374 129.959C141.888 128.567 144.41 127.192 146.941 125.831C147.512 125.525 147.783 125.133 147.76 124.465C147.719 123.314 147.748 122.164 147.751 121.014ZM138.382 166.479C138.382 167.629 138.408 168.779 138.374 169.927C138.348 170.731 138.524 170.996 139.331 170.547C141.87 169.131 144.43 167.747 146.99 166.37C147.52 166.084 147.762 165.707 147.757 165.084C147.731 162.714 147.734 160.342 147.757 157.972C147.762 157.318 147.641 157.116 146.984 157.482C144.346 158.947 141.697 160.385 139.042 161.815C138.575 162.066 138.368 162.392 138.379 162.925C138.402 164.107 138.385 165.294 138.382 166.479ZM135.211 166.473C135.211 165.289 135.194 164.104 135.22 162.919C135.232 162.386 135.021 162.06 134.554 161.806C131.899 160.379 129.247 158.941 126.61 157.48C125.944 157.111 125.834 157.333 125.84 157.975C125.86 160.345 125.86 162.714 125.843 165.087C125.84 165.649 126.013 166.035 126.52 166.312C129.141 167.727 131.758 169.151 134.367 170.593C135.076 170.985 135.234 170.719 135.22 170.031C135.197 168.843 135.214 167.658 135.211 166.473ZM108.27 97.8982C108.27 96.676 108.259 95.4538 108.276 94.2315C108.285 93.6262 108.129 93.433 107.532 93.7674C104.926 95.2145 102.309 96.6472 99.6886 98.0683C99.2217 98.322 99.0256 98.6708 99.0256 99.1954C99.0343 101.568 99.04 103.94 99.0199 106.31C99.0141 107.033 99.2101 107.224 99.8933 106.843C102.372 105.462 104.857 104.087 107.365 102.761C108.074 102.387 108.319 101.902 108.282 101.13C108.233 100.057 108.27 98.9763 108.27 97.8982ZM174.568 102.787C174.568 101.637 174.545 100.487 174.577 99.3367C174.597 98.6765 174.335 98.2845 173.755 97.9732C171.224 96.6126 168.708 95.2231 166.197 93.8251C165.609 93.4964 165.306 93.459 165.318 94.2949C165.349 96.6673 165.341 99.0369 165.321 101.409C165.315 101.977 165.505 102.343 166.015 102.62C168.607 104.018 171.193 105.433 173.767 106.863C174.435 107.235 174.58 106.967 174.571 106.341C174.559 105.16 174.568 103.975 174.568 102.787ZM108.27 143.781C108.27 142.669 108.276 141.556 108.267 140.443C108.259 139.302 108.184 139.247 107.23 139.763C104.768 141.095 102.32 142.455 99.8529 143.778C99.2793 144.087 99.0141 144.487 99.0199 145.142C99.04 147.439 99.0343 149.737 99.0199 152.034C99.0141 152.755 99.1525 153.058 99.9337 152.622C102.47 151.204 105.027 149.82 107.59 148.445C108.109 148.166 108.282 147.785 108.273 147.229C108.256 146.079 108.27 144.931 108.27 143.781ZM174.571 148.581C174.571 147.468 174.551 146.355 174.58 145.243C174.597 144.562 174.372 144.101 173.747 143.764C171.244 142.429 168.757 141.069 166.278 139.697C165.615 139.33 165.315 139.382 165.323 140.23C165.349 142.565 165.341 144.897 165.326 147.232C165.323 147.791 165.494 148.169 166.012 148.445C168.575 149.817 171.132 151.201 173.669 152.622C174.461 153.066 174.588 152.738 174.577 152.028C174.557 150.878 174.571 149.728 174.571 148.581Z" fill="#EE7F22"></path></svg>