<svg xmlns="http://www.w3.org/2000/svg" xmlns:xlink="http://www.w3.org/1999/xlink" width="56.339" height="37.5" viewBox="0 0 56.339 37.5"><defs><linearGradient id="linear-gradient" x1="0.099" y1="-0.384" x2="0.893" y2="0.768" gradientUnits="objectBoundingBox"><stop offset="0" stop-color="#bebddc"></stop><stop offset="0.206" stop-color="#acacd3"></stop><stop offset="0.615" stop-color="#7f84bd"></stop><stop offset="1" stop-color="#525eaa"></stop></linearGradient><linearGradient id="linear-gradient-2" y1="0.5" x2="1" y2="0.5" gradientUnits="objectBoundingBox"><stop offset="0" stop-color="#eae9ef"></stop><stop offset="0.349" stop-color="#d4d2e5"></stop><stop offset="0.701" stop-color="#c6c3df"></stop><stop offset="1" stop-color="#c1bfdc"></stop></linearGradient></defs><g id="Group_1021" data-name="Group 1021" opacity="0.3"><path id="Path_3349" data-name="Path 3349" d="M355.135,432.987V428.08l-1.354-.758c-.382,2.313-3.111,3.842-5.39,4.157l-15.52,9.078L326.1,443l-21.621-11.156.5-.288c-1.85-.865-2.843-2.836-3.841-4.639l-1.455.865-.865.241v5.035h0a3.236,3.236,0,0,0,1.9,2.655l21.661,12.5a10.2,10.2,0,0,0,9.2,0l21.661-12.5a3.257,3.257,0,0,0,1.9-2.608.373.373,0,0,1-.013-.121Z" transform="translate(-298.81 -411.832)" fill="url(#linear-gradient)"></path><path id="Path_3350" data-name="Path 3350" d="M362.233,431.72l-15.52,9.077-5.893,2.132v6.637a9.426,9.426,0,0,0,4.6-1.1l21.661-12.5a3.258,3.258,0,0,0,1.9-2.608v-.127h0v-4.908l-1.24-.691h-.128C367.181,429.9,364.486,431.4,362.233,431.72Z" transform="translate(-312.652 -412.066)" fill="#12084c" opacity="0.3"></path><g id="Group_976" data-name="Group 976"><path id="Path_3351" data-name="Path 3351" d="M322.367,435.828l-21.661-12.5c-2.534-1.461-2.534-3.848,0-5.31l21.661-12.5a10.2,10.2,0,0,1,9.2,0l21.661,12.5c2.534,1.462,2.534,3.848,0,5.31l-21.661,12.5A10.2,10.2,0,0,1,322.367,435.828Z" transform="translate(-298.805 -404.415)" fill="url(#linear-gradient-2)"></path></g><g id="Group_977" data-name="Group 977" opacity="0.3"><path id="Path_3352" data-name="Path 3352" d="M322.367,435.828l-21.661-12.5c-2.534-1.461-2.534-3.848,0-5.31l21.661-12.5a10.2,10.2,0,0,1,9.2,0l21.661,12.5c2.534,1.462,2.534,3.848,0,5.31l-21.661,12.5A10.2,10.2,0,0,1,322.367,435.828Z" transform="translate(-298.805 -404.415)" fill="#12084c"></path></g></g></svg>