<svg xmlns="http://www.w3.org/2000/svg" width="26.853" height="40.036" viewBox="0 0 26.853 40.036"><g id="Group_1022" data-name="Group 1022" opacity="0.81"><path id="Path_3377" data-name="Path 3377" d="M234.968,96.76c4.986-7,6.142-19.007,2.576-26.823-1.788-3.915-4.416-6.038-7.227-6.3h0l-2.939-.264.561.486a11.129,11.129,0,0,0-5.883,4.59c-4.986,7-6.142,19.007-2.576,26.823a11.419,11.419,0,0,0,4.651,5.505l-.443.524,2.986.269a.1.1,0,0,1,.038,0l.123.009,0,0C229.591,101.784,232.515,100.2,234.968,96.76Z" transform="translate(-212.763 -62.319)" fill="#ef7f12"></path><ellipse id="Ellipse_36" data-name="Ellipse 36" cx="19.054" cy="11.001" rx="19.054" ry="11.001" transform="translate(0 37.932) rotate(-84.514)" fill="#ea5f30"></ellipse></g></svg>