<svg xmlns="http://www.w3.org/2000/svg" width="92.47" height="112.385" viewBox="0 0 92.47 112.385"><g id="Group_798" data-name="Group 798" transform="translate(-4.569 -21.595)"><path id="Path_703" data-name="Path 703" d="M165.714,297.875a3.357,3.357,0,0,0-.255-.5,3.5,3.5,0,0,0-.354-.423,2.917,2.917,0,0,0-4.005,0,2.548,2.548,0,0,0-.354.423,3.358,3.358,0,0,0-.255.5,3.187,3.187,0,0,0-.17.524,3.647,3.647,0,0,0-.057.552,2.815,2.815,0,0,0,.835,2.01,3.06,3.06,0,0,0,.92.607,2.777,2.777,0,0,0,1.076.214,2.861,2.861,0,0,0,2.01-.821,5.327,5.327,0,0,0,.354-.439,3.144,3.144,0,0,0,.255-.483,2.337,2.337,0,0,0,.212-1.088,2.437,2.437,0,0,0-.057-.552A2.21,2.21,0,0,0,165.714,297.875Z" transform="translate(-155.696 -274.564)" fill="#db3004"></path><ellipse id="Ellipse_21" data-name="Ellipse 21" cx="2.83" cy="2.83" rx="2.83" ry="2.83" transform="translate(4.569 34.901)" fill="#db3004"></ellipse><ellipse id="Ellipse_22" data-name="Ellipse 22" cx="2.83" cy="2.83" rx="2.83" ry="2.83" transform="translate(4.569 74.937)" fill="#db3004"></ellipse><ellipse id="Ellipse_23" data-name="Ellipse 23" cx="2.83" cy="2.83" rx="2.83" ry="2.83" transform="translate(4.569 61.592)" fill="#db3004"></ellipse><ellipse id="Ellipse_24" data-name="Ellipse 24" cx="2.83" cy="2.83" rx="2.83" ry="2.83" transform="translate(4.569 48.247)" fill="#db3004"></ellipse><ellipse id="Ellipse_25" data-name="Ellipse 25" cx="2.83" cy="2.83" rx="2.83" ry="2.83" transform="translate(4.569 88.283)" fill="#db3004"></ellipse><ellipse id="Ellipse_26" data-name="Ellipse 26" cx="2.83" cy="2.83" rx="2.83" ry="2.83" transform="translate(4.569 114.973)" fill="#db3004"></ellipse><ellipse id="Ellipse_27" data-name="Ellipse 27" cx="2.83" cy="2.83" rx="2.83" ry="2.83" transform="translate(4.569 101.628)" fill="#db3004"></ellipse><path id="Path_704" data-name="Path 704" d="M165.714,373.314a3.255,3.255,0,0,0-.255-.494,3.513,3.513,0,0,0-.354-.425,2.917,2.917,0,0,0-4.005,0,2.558,2.558,0,0,0-.354.425,3.255,3.255,0,0,0-.255.494,3.775,3.775,0,0,0-.17.525,3.617,3.617,0,0,0-.057.566,2.842,2.842,0,0,0,4.84,2,3.8,3.8,0,0,0,.354-.439,2.588,2.588,0,0,0,.255-.481,3.234,3.234,0,0,0,.17-.524,3.622,3.622,0,0,0,.042-.552,2.966,2.966,0,0,0-.212-1.091Z" transform="translate(-155.696 -243.242)" fill="#db3004"></path><path id="Path_705" data-name="Path 705" d="M171.856,371.572a2.83,2.83,0,1,0,2.845,2.83A2.839,2.839,0,0,0,171.856,371.572Z" transform="translate(-152.059 -243.253)" fill="#db3004"></path><ellipse id="Ellipse_28" data-name="Ellipse 28" cx="2.83" cy="2.83" rx="2.83" ry="2.83" transform="translate(78.966 128.319)" fill="#db3004"></ellipse><ellipse id="Ellipse_29" data-name="Ellipse 29" cx="2.83" cy="2.83" rx="2.83" ry="2.83" transform="translate(66.57 128.319)" fill="#db3004"></ellipse><ellipse id="Ellipse_30" data-name="Ellipse 30" cx="2.83" cy="2.83" rx="2.83" ry="2.83" transform="translate(54.173 128.319)" fill="#db3004"></ellipse><ellipse id="Ellipse_31" data-name="Ellipse 31" cx="2.83" cy="2.83" rx="2.83" ry="2.83" transform="translate(91.378 128.319)" fill="#db3004"></ellipse><ellipse id="Ellipse_32" data-name="Ellipse 32" cx="2.83" cy="2.83" rx="2.83" ry="2.83" transform="translate(41.775 128.319)" fill="#db3004"></ellipse><ellipse id="Ellipse_33" data-name="Ellipse 33" cx="2.83" cy="2.83" rx="2.83" ry="2.83" transform="translate(29.378 128.319)" fill="#db3004"></ellipse></g></svg>