<svg xmlns="http://www.w3.org/2000/svg" xmlns:xlink="http://www.w3.org/1999/xlink" id="Layer_1" x="0px" y="0px" viewBox="0 0 60 60" style="enable-background:new 0 0 60 60;" xml:space="preserve"><style type="text/css">	.st0{fill:none;stroke:#F15C27;stroke-width:3;stroke-miterlimit:10;}</style><g>	<path class="st0" d="M36.4,13c-3.6,2.6-6.1,6.1-7.5,10.5c-1.4-1-3-1.6-4.8-1.6c-4.4,0-7.9,3.6-7.9,8.1s3.6,8.1,7.9,8.1  c1.8,0,3.4-0.6,4.8-1.6c1.4,4.4,4,7.9,7.5,10.5c-3.4,2.6-7.7,4-12.3,4C12.7,51,3.3,41.5,3.3,30S12.7,9,24.2,9  C28.9,9,33.1,10.4,36.4,13z"></path>	<ellipse class="st0" cx="48.7" cy="30" rx="7.9" ry="8.1"></ellipse></g></svg>