<svg xmlns="http://www.w3.org/2000/svg" xmlns:xlink="http://www.w3.org/1999/xlink" id="Layer_1" x="0px" y="0px" viewBox="0 0 60 60" style="enable-background:new 0 0 60 60;" xml:space="preserve"><style type="text/css">	.st0{fill:#F15D2A;stroke:#F15D2A;stroke-width:0.5;stroke-miterlimit:10;}	.st1{fill:#F15D2A;}</style><g>	<g transform="translate(6 5)">		<path class="st0" d="M24-3.2c-3.5,0-6.3,12.7-6.3,28.2s2.8,28.2,6.3,28.2s6.3-12.7,6.3-28.2S27.3-3.2,24-3.2z M24.4,51.6   c-0.6,0.6-0.7,0.2-0.7,0.2c-1.7-1.8-2.4-5.4-2.4-5.4C18.5,37.4,19,18,19,18c1.3-15.3,3.7-19,4.6-19.7c0.2-0.2,0.6-0.2,0.6,0   c1.1,0.7,2.2,4.2,2.2,4.2c3,10.9,2.8,21,2.8,21c0.4,8.9-1.5,18.8-1.5,18.8C26.2,50.1,24.4,51.6,24.4,51.6z"></path>		<path class="st0" d="M48.6,11c-1.7-3-14,0.7-27.7,8.5S-2.2,36.1-0.5,39c1.7,3,14-0.7,27.7-8.5S50.2,14.1,48.6,11L48.6,11z    M1.1,38.7c-0.6-0.2-0.6-0.6-0.6-0.6c0.7-2.4,3.3-4.8,3.3-4.8c6.5-6.8,23.6-15.9,23.6-15.9c14-6.5,18.5-6.3,19.6-5.9   c0.2,0,0.4,0.4,0.4,0.6c-0.2,1.5-2.8,4.1-2.8,4.1c-7.9,7.9-17,12.9-17,12.9c-7.6,4.6-17.2,8.1-17.2,8.1   C3.3,39.6,1.1,38.7,1.1,38.7z"></path>		<path class="st0" d="M48.4,39.2c1.7-3-7.8-11.8-21.2-19.7C13.7,11.7,1.3,7.7-0.5,10.8s7.8,11.8,21.2,19.7   C34.2,38.3,46.5,42.3,48.4,39.2z M0.6,12.1c-0.2-0.7,0.4-0.9,0.4-0.9c2.4-0.6,5.9,0.6,5.9,0.6c9.2,2,25.7,12.4,25.7,12.4   c12.7,8.9,14.6,12.9,14.9,14c0,0.2,0,0.6-0.4,0.6c-1.3,0.6-5-0.4-5-0.4c-10.7-3-19.6-8.3-19.6-8.3C14.8,25.7,7,19.3,7,19.3   C1.1,14.5,0.6,12.1,0.6,12.1L0.6,12.1L0.6,12.1z"></path>		<circle class="st1" cx="24" cy="25" r="3.3"></circle>		<circle class="st0" cx="37.5" cy="12.1" r="2.8"></circle>		<circle class="st0" cx="5.9" cy="18.9" r="2.8"></circle>		<circle class="st0" cx="20" cy="43.5" r="2.8"></circle>	</g></g></svg>