<svg xmlns="http://www.w3.org/2000/svg" xmlns:xlink="http://www.w3.org/1999/xlink" id="Layer_1" x="0px" y="0px" viewBox="0 0 60 60" style="enable-background:new 0 0 60 60;" xml:space="preserve"><style type="text/css">	.st0{fill:#F15B25;}</style><path class="st0" d="M30,0.9c-0.4,0-0.7,0.2-1,0.5c0,0,0,0-0.1,0.1L12,28.1c0,0,0,0.1,0,0.1c0,0.1-0.1,0.2-0.1,0.2 c0,0.1,0,0.1,0,0.2c0,0.1,0,0.2,0,0.2c0,0,0,0.1,0,0.1c0,0,0,0.1,0,0.1c0,0,0,0.1,0,0.1c0,0,0.1,0.1,0.1,0.1c0,0.1,0.1,0.1,0.1,0.2 c0.1,0.1,0.1,0.1,0.2,0.2c0,0,0.1,0.1,0.1,0.1l17,9.7c0,0,0.1,0,0.1,0c0,0,0.1,0,0.1,0c0.1,0,0.3,0.1,0.4,0.1c0.1,0,0.3,0,0.4-0.1 c0,0,0.1,0,0.1,0c0,0,0.1,0,0.1,0l17-9.7c0,0,0,0,0,0c0.1-0.1,0.2-0.2,0.3-0.3c0,0,0-0.1,0.1-0.1c0-0.1,0.1-0.1,0.1-0.2 c0,0,0-0.1,0-0.1c0,0,0-0.1,0-0.1c0,0,0-0.1,0-0.1c0-0.1,0-0.2,0-0.2c0-0.1,0-0.1,0-0.2c0-0.1,0-0.2-0.1-0.2c0,0,0-0.1,0-0.1L31,1.4 c0,0,0,0-0.1-0.1C30.7,1.1,30.4,0.9,30,0.9z M30,4v18.7l14.3,6.2L30,37.3V22.7L14.9,28L30,4z M12.8,33.7c-0.3,0-0.5,0.2-0.7,0.4 c-0.4,0.4-0.4,1.1-0.1,1.5l17,23.1c0,0,0,0,0.1,0c0.1,0.1,0.2,0.2,0.3,0.2c0,0,0.1,0.1,0.1,0.1c0.2,0.1,0.3,0.1,0.5,0.1 s0.4,0,0.5-0.1c0,0,0.1-0.1,0.1-0.1c0.1-0.1,0.2-0.1,0.3-0.2c0,0,0,0,0.1,0l17-23.1c0.3-0.5,0.3-1.1-0.1-1.5c-0.4-0.4-1-0.5-1.5-0.2 L30,43.2l-16.4-9.4C13.4,33.7,13.1,33.6,12.8,33.7z M17.4,38.8L30,46.2v9.5L17.4,38.8z"></path></svg>