<svg xmlns="http://www.w3.org/2000/svg" width="1369.029" height="1267.74" viewBox="0 0 1369.029 1267.74"><g id="Group_1760" data-name="Group 1760" transform="matrix(0.999, -0.035, 0.035, 0.999, -549.138, -1875.751)"><path id="Polygon_3" data-name="Polygon 3" d="M817.989,0A76,76,0,0,1,883.26,37.069l241.72,405.263a76,76,0,0,1,0,77.863L883.26,925.457a76,76,0,0,1-65.271,37.069H330.212a76,76,0,0,1-65.271-37.069L23.221,520.194a76,76,0,0,1,0-77.862L264.94,37.069A76,76,0,0,1,330.212,0Z" transform="translate(471.388 2236.065) rotate(-14)" fill="#ef7f12" opacity="0.06"></path><path id="Polygon_13" data-name="Polygon 13" d="M777.491,0a76,76,0,0,1,65.268,37.062l228.209,382.525a76,76,0,0,1,0,77.875L842.759,879.987a76,76,0,0,1-65.268,37.062H316.706a76,76,0,0,1-65.268-37.062L23.23,497.462a76,76,0,0,1,0-77.875L251.439,37.062A76,76,0,0,1,316.706,0Z" transform="translate(537.221 2197.44) rotate(-14)" fill="#ef7f12" opacity="0.06"></path></g></svg>