<svg xmlns="http://www.w3.org/2000/svg" width="70" height="70" viewBox="0 0 70 70" fill="none"><path d="M54.8768 21.2143L35.7185 10.7931C35.4978 10.673 35.2476 10.6099 34.9928 10.6099C34.7381 10.6099 34.4878 10.673 34.2672 10.7931L15.11 21.2143C14.8894 21.3344 14.7061 21.507 14.5786 21.7149C14.4512 21.9227 14.384 22.1586 14.3838 22.3986V43.2423C14.3838 43.4824 14.451 43.7182 14.5785 43.9261C14.706 44.134 14.8893 44.3066 15.11 44.4266L34.2672 54.8489C34.4878 54.9691 34.738 55.0323 34.9928 55.0323C35.2476 55.0323 35.4979 54.9691 35.7185 54.8489L54.8756 44.4266C55.0963 44.3066 55.2797 44.134 55.4071 43.9261C55.5346 43.7182 55.6018 43.4824 55.6018 43.2423V22.3986C55.6018 22.1587 55.5348 21.9229 55.4075 21.7151C55.2802 21.5072 55.0972 21.3345 54.8768 21.2143ZM34.9934 13.5557L51.248 22.3986L34.9934 31.2416L18.7341 22.3986L34.9934 13.5557ZM36.4447 51.295V45.1274C36.4447 44.7647 36.2918 44.4169 36.0196 44.1604C35.7474 43.904 35.3783 43.7599 34.9934 43.7599C34.6085 43.7599 34.2394 43.904 33.9672 44.1604C33.695 44.4169 33.5421 44.7647 33.5421 45.1274V51.295L17.2875 42.452V24.7672L34.2719 34.0053C34.4924 34.1254 34.7427 34.1887 34.9975 34.1887C35.2523 34.1887 35.5026 34.1254 35.7231 34.0053L52.7075 24.7672V42.4531L36.4447 51.295Z" fill="#F15B24"></path><path d="M34.9877 37.6079C34.6519 37.6079 34.3265 37.7175 34.0669 37.9182C33.8073 38.1188 33.6296 38.3981 33.5641 38.7084C33.4985 39.0187 33.5492 39.3408 33.7074 39.6199C33.8656 39.8989 34.1217 40.1176 34.4318 40.2387C34.742 40.3598 35.0872 40.3759 35.4085 40.2841C35.7298 40.1923 36.0074 39.9983 36.194 39.7353C36.3806 39.4723 36.4646 39.1564 36.4317 38.8415C36.3989 38.5267 36.2511 38.2323 36.0138 38.0086C35.7408 37.7532 35.3723 37.6093 34.9877 37.6079V37.6079Z" fill="#F15B24"></path><path d="M70 17.0976C70.0009 15.9515 69.6376 14.8314 68.9569 13.8816C68.2762 12.9317 67.3093 12.1957 66.1808 11.7682C65.0522 11.3407 63.8136 11.2415 62.6247 11.4831C61.4357 11.7248 60.3507 12.2964 59.5095 13.1243L35.7174 0.183211C35.4968 0.0631872 35.2465 0 34.9918 0C34.737 0 34.4868 0.0631872 34.2661 0.183211L10.4822 13.1243C9.82758 12.4825 9.02351 11.993 8.13355 11.6945C7.24359 11.396 6.29214 11.2967 5.35441 11.4043C4.41668 11.5119 3.51837 11.8236 2.73049 12.3147C1.94261 12.8058 1.28675 13.4629 0.814761 14.2339C0.342771 15.005 0.0675853 15.8689 0.0109552 16.7574C-0.045675 17.646 0.117803 18.5347 0.488467 19.3535C0.859131 20.1722 1.42682 20.8985 2.14666 21.4749C2.86651 22.0513 3.71877 22.4621 4.63609 22.6747V48.548C4.63627 48.788 4.70347 49.0239 4.83094 49.2317C4.95841 49.4396 5.14167 49.6122 5.36232 49.7323L29.1404 62.6689C28.8785 63.5236 28.8311 64.4241 29.0019 65.2991C29.1728 66.174 29.5571 66.9996 30.1247 67.7106C30.6922 68.4216 31.4274 68.9985 32.2722 69.3959C33.117 69.7932 34.0482 70 34.9924 70C35.9365 70 36.8678 69.7932 37.7126 69.3959C38.5573 68.9985 39.2925 68.4216 39.8601 67.7106C40.4276 66.9996 40.812 66.174 40.9828 65.2991C41.1536 64.4241 41.1062 63.5236 40.8443 62.6689L64.6294 49.7323C64.8502 49.6123 65.0335 49.4397 65.161 49.2318C65.2885 49.0239 65.3556 48.7881 65.3557 48.548V22.6758C66.6796 22.3684 67.8562 21.6522 68.6979 20.6415C69.5396 19.6307 69.998 18.3835 70 17.0987V17.0976ZM2.89549 17.0976C2.89549 16.5023 3.08291 15.9204 3.43403 15.4255C3.78514 14.9306 4.28418 14.545 4.86797 14.3174C5.45177 14.0898 6.09409 14.0306 6.71364 14.1471C7.33319 14.2637 7.90212 14.5508 8.34845 14.9721C8.79477 15.3934 9.09842 15.93 9.22096 16.514C9.3435 17.098 9.27943 17.7032 9.03686 18.2528C8.79429 18.8025 8.38411 19.272 7.85825 19.602C7.33238 19.9319 6.71446 20.1074 6.08269 20.1064C5.23694 20.1043 4.42651 19.7865 3.82891 19.2226C3.23131 18.6587 2.89525 17.8946 2.89432 17.0976H2.89549ZM34.99 67.2835C34.3585 67.2835 33.7411 67.1071 33.2161 66.7765C32.691 66.4459 32.2817 65.976 32.04 65.4262C31.7983 64.8764 31.7351 64.2715 31.8583 63.6878C31.9815 63.1042 32.2856 62.5681 32.7322 62.1473C33.1787 61.7265 33.7477 61.44 34.3671 61.3239C34.9865 61.2078 35.6285 61.2674 36.2119 61.4951C36.7954 61.7228 37.2941 62.1085 37.645 62.6032C37.9958 63.098 38.1831 63.6797 38.1831 64.2748C38.1821 65.0719 37.8459 65.8362 37.2481 66.4001C36.6502 66.9641 35.8395 67.2818 34.9935 67.2835H34.99ZM39.3884 60.3047C38.8205 59.7447 38.1381 59.299 37.3824 58.9945C36.6266 58.6899 35.8132 58.5329 34.9912 58.5329C34.1692 58.5329 33.3558 58.6899 32.6 58.9945C31.8442 59.299 31.1618 59.7447 30.594 60.3047L7.53866 47.7588V22.6758C8.33781 22.4917 9.0891 22.1569 9.74718 21.6917C10.4053 21.2264 10.9565 20.6404 11.3677 19.9689C11.7788 19.2975 12.0413 18.5545 12.1394 17.7848C12.2374 17.0151 12.169 16.2347 11.9382 15.4906L34.9959 2.94691L58.0536 15.4906C57.8228 16.2347 57.7543 17.0151 57.8524 17.7848C57.9504 18.5545 58.213 19.2975 58.6241 19.9689C59.0352 20.6404 59.5865 21.2264 60.2446 21.6917C60.9027 22.1569 61.6539 22.4917 62.4531 22.6758V47.7588L39.3884 60.3047ZM63.9009 20.1075C63.2693 20.1075 62.652 19.931 62.1269 19.6004C61.6018 19.2698 61.1925 18.7999 60.9509 18.2501C60.7092 17.7004 60.646 17.0954 60.7692 16.5118C60.8924 15.9281 61.1965 15.392 61.643 14.9712C62.0896 14.5505 62.6585 14.2639 63.2779 14.1478C63.8973 14.0317 64.5393 14.0913 65.1228 14.319C65.7062 14.5468 66.2049 14.9324 66.5558 15.4272C66.9067 15.922 67.0939 16.5037 67.0939 17.0987C67.0927 17.8957 66.7563 18.6597 66.1585 19.2234C65.5607 19.7871 64.7501 20.1046 63.9044 20.1064L63.9009 20.1075Z" fill="#F15B24"></path></svg>