<svg xmlns="http://www.w3.org/2000/svg" xmlns:xlink="http://www.w3.org/1999/xlink" id="Layer_1" x="0px" y="0px" viewBox="0 0 500 500" style="enable-background:new 0 0 500 500;" xml:space="preserve"><style type="text/css">	.st0{fill:#F15B24;stroke:#F15B24;stroke-width:3;stroke-miterlimit:10;}	.st1{fill:#F15B24;}</style><g>	<path class="st0" d="M-955.72,522.21c-11.48,0-22.95,0.02-34.43-0.01c-4.59-0.01-6.09-1.39-6.62-5.75  c-2.94-23.97-5.91-47.94-8.84-71.91c-2.27-18.53-4.53-37.07-6.77-55.61c-0.75-6.18,1.08-8.39,7.26-8.42  c14.22-0.07,28.44-0.06,42.66,0c5.68,0.02,6.91,1.02,8.56,6.35c1.21,3.93,2.56,7.83,3.55,11.81c0.82,3.27,2.33,3.45,5.1,2.12  c4.8-2.31,8.84-5.6,12.63-9.24c10.47-10.06,22.86-16.32,37.15-18.78c15.35-2.64,30.09-0.47,43.97,6.5  c8.12,4.08,16.51,6.14,25.59,5.74c4.61-0.21,9.27-0.41,13.84,0.04c8.96,0.89,16.94-1.27,24.36-6.27c3.19-2.15,6.73-3.79,10.14-5.63  c11.77-6.36,23.36-6.23,34.67,1.1c1.71,1.11,3.08,1.6,5.09,0.51c10.14-5.52,19.53-3.5,28.04,3.54c2.23,1.84,3.71,2.32,6.45,1.03  c12.38-5.81,27.38-1.61,35.23,9.56c2.98,4.23,2.57,6.73-1.74,9.69c-33.62,23.09-67.16,46.29-100.93,69.17  c-9.6,6.51-20.84,8.67-32.29,9.49c-13.25,0.95-25.97-2.61-38.82-4.86c-13.86-2.43-27.66-5.17-41.51-7.66  c-4.32-0.78-8.43,0.16-12.17,2.53c-8.54,5.4-17.06,10.83-25.65,16.14c-2.03,1.26-2.58,2.49-1.81,4.87  c2.73,8.42,5.22,16.91,7.76,25.39c1.91,6.37,0.27,8.55-6.39,8.55C-933.02,522.21-944.37,522.21-955.72,522.21z M-802.74,467.24  c7.54-0.14,19.19-2.47,29.54-9.72c12.16-8.51,24.46-16.82,36.7-25.22c18.31-12.56,36.61-25.12,54.92-37.69  c3.36-2.31,3.37-3.03-0.09-5.08c-6.16-3.65-12.58-4.03-18.91-0.67c-17.17,9.14-34.26,18.44-51.39,27.67  c-1.35,0.73-2.47,1.48-2.71,3.25c-0.5,3.8-3.01,5.2-6.62,5.04c-7.35-0.32-14.7-0.48-22.04-0.96c-13.21-0.86-26.39-1.05-39.55,0.69  c-3.38,0.45-6.05-1.27-6.49-4.14c-0.44-2.86,1.65-5.29,5.09-5.69c7.42-0.86,14.85-1.61,22.35-1.56  c10.73,0.06,21.42,0.67,32.11,1.43c4.39,0.31,4.97-0.37,3.1-4.49c-4.47-9.86-12.34-14.85-23-15.1  c-11.35-0.27-22.71-0.37-34.05,0.02c-11.77,0.41-22.49-2.43-33.2-7.27c-23.73-10.73-46.15-7.98-66.34,8.88  c-6.61,5.52-12.7,11.67-21.11,14.53c-2.18,0.74-1.41,2.3-0.98,3.69c5.81,19.08,11.7,38.13,17.41,57.23  c0.86,2.88,1.8,2.83,4.04,1.38c7.74-5.02,15.55-9.95,23.43-14.76c5.71-3.48,11.87-4.98,18.61-3.72c13.22,2.47,26.45,4.9,39.7,7.21  C-830.68,464.21-819.33,467.38-802.74,467.24z M-956.79,512.71c8.98,0,17.96-0.1,26.94,0.05c3.05,0.05,3.9-0.48,2.88-3.74  c-4.95-15.68-9.63-31.45-14.43-47.18c-6.87-22.52-13.8-45.03-20.57-67.58c-0.87-2.91-2.21-3.93-5.25-3.87  c-10.35,0.18-20.7,0.15-31.05,0.01c-2.7-0.04-3.83,0.48-3.41,3.5c1.02,7.27,1.73,14.58,2.61,21.87  c2.14,17.67,4.31,35.33,6.48,52.99c1.68,13.59,3.45,27.16,5.02,40.76c0.3,2.64,1.44,3.26,3.85,3.23  C-974.75,512.65-965.77,512.71-956.79,512.71z M-716.84,386.11c-0.08-1.09-0.8-1.42-1.42-1.8c-4.76-2.88-9.61-3.85-14.8-0.98  c-7.29,4.03-14.66,7.91-21.97,11.91c-6.44,3.52-6.35,3.52-2.95,10.1c0.95,1.85,1.73,2.34,3.67,1.27  c11.89-6.51,23.83-12.91,35.75-19.35C-717.94,386.9-717.36,386.45-716.84,386.11z M-750.83,381.64c-8.3-5.69-19.14-3.09-29.04,4.76  c3.33,1.26,6.58,2.46,9.47,4.41c0.64,0.43,1.38,0.6,2.12,0.21C-762.53,387.94-756.8,384.85-750.83,381.64z"></path>	<path class="st0" d="M-740.72,337.28c-11.48,0-22.95,0.11-34.43-0.07c-3.35-0.05-4.59,1.1-4.17,4.32c0.1,0.74,0.01,1.5,0.01,2.24  c-0.02,6.87-1.51,8.4-8.31,8.4c-34.3,0.01-68.61,0.01-102.91,0c-7.3,0-8.82-1.51-8.85-8.7c0-0.75-0.08-1.51,0.01-2.24  c0.38-3.17-1.09-4.03-4.11-4.01c-19.33,0.1-38.67,0.05-58,0.05c-3.87,0-7.74,0.06-11.6-0.03c-4.06-0.1-5.72-1.72-5.74-5.72  c-0.05-10.48-0.22-20.96,0.05-31.43c0.42-16.18,16.72-31.46,32.73-30.98c2,0.06,3.47,1.02,4.81,2.49  c9.06,9.98,21.64,10.37,30.71,0.62c3.13-3.36,6.51-3.18,10.23-2.49c2.94,0.55,5.83,1.47,8.46,2.92c1.62,0.9,2.63,0.61,3.89-0.65  c6.5-6.5,14.37-10.09,23.52-11.12c3.04-0.34,5.28,0.35,7.3,2.63c10.34,11.71,25.5,11.94,36.31,0.51c2.24-2.37,4.49-3.43,7.89-2.94  c8.18,1.16,15.34,4.32,21.25,10.05c1.83,1.78,3.22,2.58,5.73,1.15c2.12-1.21,4.64-1.8,7.04-2.44c4.85-1.3,8.83-0.81,12.7,3.41  c7.55,8.21,20.4,8.15,28.04-0.03c3.66-3.91,7.29-4.42,12.02-3.27c15.68,3.84,26.22,16.98,26.26,33.03c0.02,8.98,0.01,17.96,0,26.94  c-0.01,6.13-1.25,7.34-7.52,7.35C-718.52,337.29-729.62,337.28-740.72,337.28z M-839.52,342.09c15.34,0,30.67-0.06,46,0.05  c2.99,0.02,4.19-0.78,4.16-3.98c-0.15-13.34,0.01-26.68-0.1-40.02c-0.1-12.25-8.84-23.29-20.59-26.41  c-2.21-0.59-3.96-0.34-5.8,1.31c-13.67,12.28-32.05,12.42-45.71,0.19c-2.34-2.1-4.4-2.26-7.06-1.5  c-11.88,3.36-20.57,14.5-20.67,26.85c-0.1,13.09,0.06,26.18-0.1,39.27c-0.04,3.24,0.89,4.34,4.22,4.3  C-869.94,342-854.73,342.09-839.52,342.09z M-744.56,327.2c10.47,0,20.94-0.05,31.4,0.04c2.6,0.02,3.89-0.64,3.81-3.56  c-0.16-6.48,0.08-12.96-0.09-19.44c-0.31-11.51-6.33-20.2-16.12-23.82c-2.71-1-4.74-0.77-7.09,1.28  c-11.31,9.87-28.29,10.03-38.92,0.14c-3.17-2.95-5.85-2.39-9.09-1.17c-1.84,0.69-2.52,1.71-1.71,3.72c1.12,2.76,2,5.61,2.41,8.6  c1.33,9.81,0.51,19.66,0.53,29.49c0.01,3.87,1.25,4.88,4.95,4.79C-764.5,327.05-754.53,327.2-744.56,327.2z M-934.49,327.2  c8.48,0,16.96,0,25.44,0c9.66,0,9.53,0,9.69-9.66c0.2-11.4-1.47-23,3.32-33.97c0.49-1.12-0.13-1.92-1.16-2.4  c-2.9-1.36-5.43-2.23-8.54,0.34c-12.63,10.42-27.33,10.29-39.87-0.16c-2.12-1.77-4.08-2.11-6.51-1.25  c-9.21,3.3-14.98,9.55-16.61,19.36c-1.3,7.81-0.26,15.69-0.69,23.52c-0.18,3.3,0.96,4.34,4.25,4.28  C-954.94,327.09-944.71,327.2-934.49,327.2z"></path>	<path class="st0" d="M-804.75,216.53c0.01,6.1,0.25,11.21-0.94,16.25c-3.76,16.05-18.49,27.2-35.24,26.62  c-15.97-0.55-29.96-12.96-32.38-29.05c-1.28-8.53-1.27-17.16,0.02-25.69c2.47-16.35,16.88-28.67,33.31-28.77  c17.28-0.1,31.56,11.64,34.59,28.22C-804.56,208.6-804.89,213.06-804.75,216.53z M-814.85,218.88c0-3.96,0.06-6.83-0.01-9.7  c-0.3-13.01-11.03-23.23-24.36-23.25c-13.42-0.02-24.38,10.38-24.62,23.46c-0.1,5.11-0.06,10.22-0.02,15.33  c0.09,12.24,9.04,22.88,20.54,24.46c12.92,1.77,24.22-5.58,27.77-18.02C-814.29,226.75-815.12,222.24-814.85,218.88z"></path>	<path class="st0" d="M-895.27,232.07c0.18,6.62,0.18,13.16-2.83,19.37c-5.85,12.09-18.9,19.4-31.81,17.59  c-13.85-1.94-24.5-12.35-26.51-26.12c-1.07-7.3-1.09-14.66,0-21.95c2.4-16.21,16.42-27.37,32.81-26.3  c15.86,1.04,28.25,14.45,28.34,30.69C-895.26,227.59-895.27,229.83-895.27,232.07z M-905.33,232.11c0-2.74,0.12-5.48-0.02-8.21  c-0.57-11.07-9.42-19.24-20.75-19.21c-11.04,0.03-20.33,8.57-20.78,19.35c-0.22,5.22-0.2,10.46,0,15.68  c0.32,8.66,6.71,16.4,15.2,18.74c8.67,2.39,17.67-0.93,22.79-8.06C-904.86,244.79-905.18,238.46-905.33,232.11z"></path>	<path class="st0" d="M-783.48,231.25c0.26-3.6-0.38-7.95,0.61-12.29c3.45-15.09,16.23-24.88,31.92-24.33  c14.18,0.5,26.49,11.77,28.63,26.4c1.06,7.3,1.06,14.65-0.02,21.95c-2.41,16.24-16.6,27.33-33.3,26.15  c-15.37-1.09-27.74-14.61-27.84-30.42C-783.49,236.47-783.48,234.23-783.48,231.25z M-773.45,231.94c0,2.49-0.09,4.98,0.02,7.47  c0.43,10.22,8.11,18.7,17.67,19.59c11.53,1.07,20.66-4.88,23.21-15.44c1.63-6.73,0.95-13.66,0.55-20.45  c-0.5-8.59-7.29-15.89-15.66-17.95c-8.65-2.13-17.56,1.45-22.55,8.76C-774.02,219.5-773.49,225.74-773.45,231.94z"></path>	<path class="st1" d="M-959.07,508.75c-8.54,0.02-14.57-5.98-14.55-14.49c0.02-8.18,6.27-14.44,14.4-14.43  c7.97,0.01,14.49,6.52,14.51,14.48C-944.68,502.48-950.9,508.73-959.07,508.75z M-958.99,489.94c-3.18,0.07-4.62,1.79-4.89,4.41  c-0.25,2.37,2.43,4.98,4.77,4.67c2.6-0.35,4.34-1.79,4.27-4.69C-954.91,491.46-956.54,490.12-958.99,489.94z"></path></g><g>	<path class="st1" d="M480.45,230.64c0,12.58,0,25.15,0,37.73c-0.18,1.02-0.45,2.04-0.54,3.07c-1.44,16.75-4.64,33.18-10.14,49.03  c-26.93,77.64-78.71,129.81-158.14,153.36c-13.5,4-27.43,5.79-41.37,7.42c-14.07,0-28.15,0-42.22,0  c-8.11-1.27-16.3-2.16-24.32-3.87c-51.14-10.89-93.64-36.68-127.54-76.16C23.66,340.06,8.09,269.48,27.73,191.94  C44.18,127.04,84.36,79.57,143.08,48.16c46.92-25.1,97-32.95,149.56-23.62c29.57,5.25,56.8,16.48,81.94,32.8  c3.28,2.13,5.29,1.98,7.99-0.87c6.9-7.28,14.1-14.27,21.23-21.32c3.13-3.09,3.6-2.98,4.49,1.33c2.93,14.2,5.87,28.39,8.55,42.64  c0.7,3.73,2.47,5.19,6.08,5.87c14.24,2.69,28.41,5.77,42.65,8.51c3.92,0.75,3.71,1.97,1.27,4.38c-7.14,7.05-14.07,14.31-21.35,21.2  c-2.97,2.81-3.17,4.9-0.92,8.34c12.21,18.64,21.37,38.73,27.65,60.13C476.36,201.65,478.64,216.1,480.45,230.64z M366.09,160.34  c-0.18,1.65,0.87,2.43,1.56,3.35c26,34.87,34.83,73.76,25.88,116.2c-16.85,79.95-91.91,132.87-175.15,114.28  c-75.84-16.94-125.15-89.71-112.48-167.18c6.77-41.35,28.42-73.55,63.2-96.69c29.55-19.66,62.27-28.05,97.66-24.6  c26.2,2.56,49.84,12.14,70.88,28.04c1.1,0.83,2.17,2.74,3.7,1.72c1.15-0.78,0.18-2.49-0.08-3.78c-1.57-7.77-3.02-15.56-4.72-23.29  c-0.78-3.53-0.19-6.17,2.63-8.74c5.19-4.74,10.01-9.89,14.98-14.86c4.48-4.49,4.49-4.51-1.1-7.79  c-40.55-23.82-84.12-32.86-130.67-25.76c-52.84,8.06-96.88,32.62-130.17,74.37c-44.57,55.88-54.95,119.33-34.63,187.05  c28.6,95.31,127.77,155.09,227.19,138.12c69.23-11.82,119.12-51.47,149.32-114.82c17.45-36.6,21.86-75.61,16.21-115.66  c-3.68-26.08-12.5-50.43-26.25-72.97c-1.91-3.14-3.32-3.61-6-0.77c-5.45,5.76-11.23,11.21-16.75,16.9  c-1.85,1.91-3.7,2.62-6.37,2.03c-7.01-1.54-14.05-2.94-21.11-4.19C371.28,160.83,368.77,159.49,366.09,160.34z M250.84,369.62  c22.72,0.03,44.09-5.41,62.81-18.3c39.48-27.2,57.84-65.02,54.27-113.02c-1.53-20.67-9.39-39.09-21.34-55.89  c-2.3-3.23-3.92-3.64-6.87-0.6c-10.33,10.63-20.84,21.07-31.42,31.45c-2.34,2.3-2.55,4.09-0.95,6.97  c6.95,12.55,9.46,25.92,7.33,40.25c-4.42,29.72-30.53,57.25-67.47,55.91c-31.04-1.13-59.01-27.22-61.48-59.09  c-1.97-25.39,7.7-45.88,29.07-59.82c21.22-13.84,43.69-15.2,66.36-3.22c3.56,1.88,5.47,1.26,8.03-1.36  c9.94-10.17,20.07-20.15,30.12-30.21c4.27-4.27,4.29-4.48-0.61-7.93c-27.8-19.56-58.37-25.92-91.65-19.02  c-62.14,12.89-102.52,70.01-93.77,132.58C141.33,326.17,191.74,369.59,250.84,369.62z M213.81,250.47  c-0.02,22.36,15.57,37.87,38.07,37.33c26.89-0.65,39.44-25.88,33.98-46.42c-0.91-3.43-2.09-3.73-4.62-1.1  c-6.01,6.26-12.3,12.26-18.34,18.49c-2.13,2.19-3.7,2.37-5.88,0.07c-4.53-4.77-9.17-9.46-13.98-13.96  c-2.54-2.38-2.13-3.99,0.17-6.21c6.14-5.92,12.11-12.02,18.13-18.07c3.04-3.06,2.9-3.63-1.04-4.81  C237.87,209.09,213.82,227.02,213.81,250.47z M413,111.71c-5.35-1.1-9.84-2.21-14.4-2.89c-3.52-0.53-5.03-2.32-5.68-5.75  c-0.86-4.57-1.21-9.33-3.24-13.98c-7.41,7.35-14.5,14.39-21.61,21.42c-1.44,1.42-1.65,3.16-1.31,4.98  c0.83,4.4,1.77,8.78,2.63,13.17c0.31,1.57,0.99,3.02,2.58,3.37c5.24,1.14,10.52,2.11,15.8,3.07c1.24,0.23,2.38-0.3,3.26-1.19  C398.17,126.72,405.29,119.51,413,111.71z"></path></g><g>	<path class="st1" d="M-927.16-877.87c7.29,5.22,8.17,10.54,2.59,17.63c-9.3,11.82-18.64,23.63-28.23,35.21  c-2.72,3.28-2.43,5.41,0.14,8.52c9.08,10.99,17.88,22.2,26.78,33.34c0.89,1.11,1.76,2.24,2.59,3.4c2.52,3.52,3.01,7.31,1,11.18  c-1.96,3.77-5.3,5.12-9.46,5.11c-25.18-0.04-50.37-0.02-75.55-0.02c-20.27,0-40.55,0.09-60.82-0.07c-3.94-0.03-5.16,1.21-5.15,5.15  c0.13,34.53,0.09,69.06,0.04,103.59c0,2.66,0.75,4.89,2.12,7.12c18.29,29.65,36.53,59.33,54.79,89c2.59,4.2,2.79,4.19,5.45-0.12  c10.71-17.4,21.37-34.82,32.12-52.19c4.46-7.19,11.48-8.8,16.59-3.82c1.44,1.4,2.51,3.25,3.53,5.02  c20.34,35.06,40.65,70.14,60.96,105.22c18.09,31.24,36.17,62.49,54.25,93.74c1.11,1.92,2.27,3.83,3.11,5.87  c2.93,7.09-1.34,13.71-8.95,14.04c-1.11,0.05-2.22,0.02-3.33,0.02c-153.64,0-307.28-0.02-460.92,0.07c-5.48,0-10.06-0.9-12.85-6.1  c0-2.53,0-5.07,0-7.6c38.95-67.26,77.9-134.52,116.85-201.78c0.79-1.37,1.59-2.74,2.4-4.1c5.68-9.52,14.04-9.68,19.83-0.34  c9.01,14.53,17.96,29.1,26.94,43.65c1.66,2.69,3.33,5.39,4.99,8.08c2.83,4.58,2.95,4.59,5.69,0.14c15.27-24.8,29.95-50,46.05-74.26  c8.2-12.36,11.12-24.78,10.99-39.44c-0.61-64.44-0.22-128.89-0.33-193.34c-0.01-5.28,1.53-9.24,6.1-11.92  C-1033.6-877.87-980.38-877.87-927.16-877.87z M-1083.29-410.6c42.75,0,85.51,0.01,128.26-0.04c1.64,0,3.95,0.94,4.81-0.8  c0.79-1.61-1.1-3.12-1.98-4.55c-42.62-69.31-85.28-138.61-127.94-207.9c-2.77-4.5-2.99-4.5-5.73-0.05  c-42.74,69.43-85.47,138.86-128.19,208.31c-0.8,1.31-2.52,2.73-1.81,4.14c0.91,1.8,3.16,0.84,4.79,0.85  C-1168.48-410.59-1125.89-410.6-1083.29-410.6z M-1270-410.6c7.6,0,15.23-0.33,22.8,0.12c4.83,0.29,7.38-1.62,9.79-5.58  c23.44-38.38,47.02-76.68,70.69-114.92c1.85-2.98,1.94-5.12,0.07-8.1c-9.2-14.61-18.17-29.35-27.22-44.05  c-2.91-4.73-2.94-4.76-5.68-0.02c-20.33,35.07-40.63,70.16-60.95,105.24c-12.06,20.83-24.13,41.65-36.16,62.5  c-0.75,1.3-2.52,2.66-1.55,4.17c0.9,1.41,2.94,0.6,4.46,0.62C-1285.84-410.56-1277.92-410.6-1270-410.6z M-896.45-410.6  c8.24,0,16.47,0.02,24.71-0.01c5.14-0.01,5.14-0.05,2.57-4.48c-12.14-20.97-24.28-41.93-36.43-62.9  c-20.4-35.22-40.78-70.44-61.22-105.63c-0.96-1.65-1.73-5.55-4.46-1.09c-9.59,15.67-19.2,31.32-28.89,46.93  c-1.28,2.06-1.09,3.63,0.15,5.63c24.29,39.35,48.53,78.72,72.7,118.14c1.64,2.67,3.64,3.51,6.62,3.45  C-912.6-410.7-904.52-410.6-896.45-410.6z M-1012.39-858.54c-18.68,0-37.36,0.06-56.05-0.05c-3.33-0.02-4.84,0.78-4.82,4.49  c0.13,22.16,0.11,44.33,0.02,66.5c-0.01,3.2,0.92,4.51,4.31,4.5c37.52-0.08,75.05-0.05,112.57-0.07c1.05,0,2.49,0.51,3.07-0.59  c0.76-1.42-0.79-2.22-1.52-3.15c-6.69-8.43-13.47-16.79-20.14-25.24c-5.38-6.81-5.38-10.57-0.01-17.38  c6.57-8.33,13.25-16.56,19.83-24.88c0.82-1.04,2.67-1.98,1.81-3.49c-0.76-1.34-2.62-0.61-3.98-0.61  C-975.66-858.55-994.03-858.54-1012.39-858.54z"></path>	<path class="st1" d="M-999.09-428.99c-5.01-0.2-7.6-3.03-9.76-6.55c-11.93-19.42-23.88-38.82-35.81-58.22  c-8.04-13.07-16.09-26.14-24.11-39.23c-1.75-2.85-3.43-5.82-2.58-9.34c0.98-4.02,3.56-6.77,7.59-7.69  c4.01-0.92,7.71,0.14,10.1,3.62c3.4,4.95,6.51,10.1,9.66,15.22c17.43,28.29,34.85,56.59,52.23,84.91  c3.91,6.38,3.69,10.69-0.48,14.58C-994.33-429.75-996.76-428.81-999.09-428.99z"></path>	<path class="st1" d="M-1083.15-562.05c-5.64-0.06-9.77-4.34-9.66-10.03c0.11-5.62,4.45-9.71,10.15-9.54  c5.43,0.15,9.43,4.32,9.43,9.8C-1073.24-566.17-1077.47-561.99-1083.15-562.05z"></path></g></svg>