<svg xmlns="http://www.w3.org/2000/svg" width="273" height="240" viewBox="0 0 273 240" fill="none"><path d="M270.306 125.046L209.423 232.336C208.374 234.192 206.855 235.738 205.017 236.818C203.179 237.897 201.089 238.472 198.957 238.484L75.6252 239.418C73.4937 239.438 71.3948 238.895 69.5406 237.843C67.6865 236.791 66.1429 235.269 65.066 233.429L2.56664 127.074C1.49129 125.235 0.916918 123.147 0.900784 121.017C0.884651 118.886 1.42732 116.789 2.4747 114.934L63.3551 7.64402C64.4039 5.78806 65.9242 4.2419 67.7621 3.16188C69.6001 2.08185 71.6906 1.50625 73.8224 1.49325L197.155 0.559148C199.287 0.539306 201.386 1.08296 203.24 2.13509C205.094 3.18722 206.637 4.71049 207.713 6.55068L265.637 105.121L270.214 112.907C271.289 114.745 271.863 116.834 271.88 118.964C271.896 121.094 271.353 123.191 270.306 125.046Z" fill="#EF7F12"></path><g style="mix-blend-mode:multiply"><path d="M270.305 125.047L209.422 232.336C208.374 234.192 206.854 235.738 205.016 236.818C203.178 237.898 201.088 238.472 198.956 238.484L112.091 239.142L85.5272 212.978C86.9882 213.559 88.5479 213.851 90.1201 213.838L184.076 213.126C186.206 213.108 188.294 212.53 190.131 211.45C191.968 210.371 193.489 208.828 194.542 206.976L240.877 125.265C241.936 123.414 242.485 121.316 242.469 119.183C242.453 117.05 241.872 114.96 240.785 113.125L195.526 36.0671L265.632 105.119L270.209 112.903C271.285 114.742 271.861 116.831 271.878 118.962C271.895 121.093 271.352 123.191 270.305 125.047V125.047Z" fill="#EA5F30"></path></g><path d="M240.17 125.515L193.835 207.225C192.782 209.077 191.261 210.62 189.425 211.7C187.588 212.779 185.5 213.357 183.369 213.376L89.4096 214.087C87.8374 214.1 86.2776 213.808 84.8167 213.227C84.8034 213.213 84.7854 213.203 84.766 213.201C82.2893 212.194 80.2119 210.401 78.8528 208.099L77.8198 206.335L54.1319 166.041L31.2819 127.1C30.1951 125.265 29.614 123.175 29.5978 121.043C29.5817 118.91 30.1311 116.811 31.19 114.96L77.5253 33.25C78.5777 31.3975 80.0985 29.8542 81.9353 28.7747C83.7721 27.6952 85.8604 27.1174 87.9909 27.0992L181.951 26.3876C184.081 26.3735 186.178 26.9197 188.031 27.9712C189.884 29.0228 191.428 30.5428 192.508 32.3791L194.822 36.3189L240.081 113.378C241.167 115.213 241.747 117.302 241.763 119.434C241.779 121.566 241.229 123.664 240.17 125.515Z" fill="white"></path><mask id="path-4-inside-1_825_103" fill="white"><path d="M130.708 155.511C130.014 155.511 129.336 155.711 128.759 156.084C128.183 156.457 127.733 156.988 127.468 157.609C127.202 158.229 127.133 158.912 127.268 159.571C127.403 160.23 127.737 160.836 128.228 161.311C128.718 161.786 129.343 162.109 130.023 162.24C130.704 162.371 131.409 162.304 132.05 162.047C132.691 161.79 133.238 161.354 133.624 160.796C134.009 160.237 134.215 159.58 134.215 158.909C134.215 158.008 133.845 157.144 133.187 156.506C132.53 155.869 131.638 155.511 130.708 155.511V155.511ZM130.708 159.844C130.517 159.844 130.331 159.789 130.172 159.687C130.014 159.584 129.89 159.438 129.817 159.268C129.744 159.097 129.725 158.909 129.762 158.728C129.8 158.547 129.891 158.381 130.026 158.25C130.161 158.12 130.333 158.031 130.52 157.995C130.707 157.959 130.9 157.977 131.076 158.048C131.253 158.118 131.403 158.238 131.509 158.392C131.615 158.545 131.671 158.726 131.671 158.91C131.671 159.158 131.569 159.394 131.388 159.569C131.208 159.743 130.963 159.841 130.708 159.841V159.844Z"></path></mask><path d="M130.708 155.511C130.014 155.511 129.336 155.711 128.759 156.084C128.183 156.457 127.733 156.988 127.468 157.609C127.202 158.229 127.133 158.912 127.268 159.571C127.403 160.23 127.737 160.836 128.228 161.311C128.718 161.786 129.343 162.109 130.023 162.24C130.704 162.371 131.409 162.304 132.05 162.047C132.691 161.79 133.238 161.354 133.624 160.796C134.009 160.237 134.215 159.58 134.215 158.909C134.215 158.008 133.845 157.144 133.187 156.506C132.53 155.869 131.638 155.511 130.708 155.511V155.511ZM130.708 159.844C130.517 159.844 130.331 159.789 130.172 159.687C130.014 159.584 129.89 159.438 129.817 159.268C129.744 159.097 129.725 158.909 129.762 158.728C129.8 158.547 129.891 158.381 130.026 158.25C130.161 158.12 130.333 158.031 130.52 157.995C130.707 157.959 130.9 157.977 131.076 158.048C131.253 158.118 131.403 158.238 131.509 158.392C131.615 158.545 131.671 158.726 131.671 158.91C131.671 159.158 131.569 159.394 131.388 159.569C131.208 159.743 130.963 159.841 130.708 159.841V159.844Z" fill="#EF7F12"></path><path d="M134.215 158.909H132.215H134.215ZM130.708 159.844V161.844H132.708V159.844H130.708ZM131.671 158.91L133.671 158.916V158.91L131.671 158.91ZM130.708 159.841L130.708 157.841L128.708 157.841V159.841H130.708ZM130.708 153.511C129.632 153.511 128.576 153.82 127.673 154.405L129.846 157.763C130.096 157.601 130.396 157.511 130.708 157.511V153.511ZM127.673 154.405C126.768 154.99 126.053 155.829 125.629 156.822L129.307 158.395C129.413 158.147 129.597 157.924 129.846 157.763L127.673 154.405ZM125.629 156.822C125.204 157.816 125.091 158.914 125.309 159.974L129.227 159.169C129.174 158.911 129.201 158.642 129.307 158.395L125.629 156.822ZM125.309 159.974C125.526 161.033 126.062 161.997 126.836 162.747L129.619 159.874C129.413 159.674 129.28 159.428 129.227 159.169L125.309 159.974ZM126.836 162.747C127.61 163.497 128.589 164.001 129.645 164.204L130.402 160.276C130.097 160.218 129.826 160.074 129.619 159.874L126.836 162.747ZM129.645 164.204C130.701 164.408 131.796 164.304 132.794 163.903L131.305 160.191C131.022 160.304 130.707 160.335 130.402 160.276L129.645 164.204ZM132.794 163.903C133.793 163.502 134.657 162.82 135.27 161.931L131.977 159.66C131.819 159.889 131.588 160.077 131.305 160.191L132.794 163.903ZM135.27 161.931C135.883 161.043 136.215 159.99 136.215 158.909H132.215C132.215 159.17 132.135 159.432 131.977 159.66L135.27 161.931ZM136.215 158.909C136.215 157.456 135.618 156.077 134.579 155.07L131.796 157.943C132.072 158.21 132.215 158.559 132.215 158.909L136.215 158.909ZM134.579 155.07C133.542 154.065 132.148 153.511 130.708 153.511V157.511C131.128 157.511 131.518 157.674 131.796 157.943L134.579 155.07ZM130.708 157.844C130.899 157.844 131.09 157.898 131.259 158.008L129.086 161.366C129.571 161.68 130.135 161.844 130.708 161.844V157.844ZM131.259 158.008C131.428 158.117 131.57 158.279 131.656 158.481L127.978 160.054C128.211 160.597 128.599 161.051 129.086 161.366L131.259 158.008ZM131.656 158.481C131.743 158.684 131.767 158.911 131.722 159.13L127.803 158.326C127.684 158.908 127.746 159.51 127.978 160.054L131.656 158.481ZM131.722 159.13C131.677 159.35 131.567 159.542 131.418 159.687L128.635 156.814C128.216 157.22 127.923 157.745 127.803 158.326L131.722 159.13ZM131.418 159.687C131.269 159.831 131.087 159.922 130.898 159.959L130.141 156.031C129.578 156.139 129.053 156.408 128.635 156.814L131.418 159.687ZM130.898 159.959C130.709 159.995 130.513 159.977 130.332 159.904L131.821 156.192C131.288 155.978 130.704 155.922 130.141 156.031L130.898 159.959ZM130.332 159.904C130.15 159.831 129.984 159.703 129.863 159.527L133.155 157.256C132.822 156.773 132.355 156.406 131.821 156.192L130.332 159.904ZM129.863 159.527C129.741 159.351 129.671 159.136 129.671 158.91L133.671 158.91C133.671 158.316 133.489 157.74 133.155 157.256L129.863 159.527ZM129.671 158.905C129.672 158.602 129.798 158.325 129.999 158.131L132.778 161.007C133.34 160.464 133.669 159.713 133.671 158.916L129.671 158.905ZM129.999 158.131C130.197 157.939 130.453 157.841 130.708 157.841L130.708 161.841C131.472 161.841 132.218 161.548 132.778 161.007L129.999 158.131ZM128.708 159.841V159.844H132.708V159.841H128.708Z" fill="#EF7F12" mask="url(#path-4-inside-1_825_103)"></path><path d="M109.252 77.595H109.676C109.758 77.595 109.831 77.6268 109.879 77.674C109.927 77.7201 109.948 77.7759 109.948 77.8271C109.948 77.8783 109.927 77.934 109.879 77.9802C109.831 78.0273 109.758 78.0592 109.676 78.0592H109.252C109.17 78.0592 109.097 78.0273 109.049 77.9802C109.001 77.934 108.98 77.8783 108.98 77.8271C108.98 77.7759 109.001 77.7202 109.049 77.674C109.097 77.6268 109.17 77.595 109.252 77.595Z" fill="#EF7F12" stroke="#EF7F12" stroke-width="2"></path><path d="M113.915 77.595H133.413C133.495 77.595 133.568 77.6268 133.617 77.674C133.664 77.7202 133.685 77.7759 133.685 77.8271C133.685 77.8783 133.664 77.934 133.617 77.9801C133.568 78.0273 133.495 78.0592 133.413 78.0592H113.915C113.833 78.0592 113.76 78.0273 113.711 77.9801C113.664 77.934 113.643 77.8783 113.643 77.8271C113.643 77.7759 113.664 77.7202 113.711 77.674C113.76 77.6268 113.833 77.595 113.915 77.595Z" fill="#EF7F12" stroke="#EF7F12" stroke-width="2"></path><path d="M104.449 101.052H94.7506C94.6684 101.052 94.5958 101.02 94.5471 100.972C94.4996 100.926 94.479 100.871 94.479 100.82C94.479 100.769 94.4996 100.714 94.5471 100.668C94.5958 100.621 94.6684 100.589 94.7506 100.589H104.449C104.531 100.589 104.604 100.621 104.652 100.668C104.7 100.714 104.72 100.769 104.72 100.82C104.72 100.871 104.7 100.926 104.652 100.972C104.604 101.02 104.531 101.052 104.449 101.052Z" fill="#EF7F12" stroke="#EF7F12" stroke-width="2"></path><path d="M109.468 100.82L109.468 100.819C109.468 100.793 109.473 100.767 109.484 100.741C109.495 100.715 109.512 100.69 109.536 100.667C109.56 100.644 109.59 100.624 109.625 100.609C109.66 100.595 109.699 100.588 109.739 100.588H121.861C121.943 100.588 122.016 100.62 122.064 100.667C122.112 100.713 122.132 100.768 122.132 100.819C122.132 100.87 122.112 100.926 122.064 100.972C122.016 101.019 121.943 101.051 121.861 101.051H109.739C109.657 101.051 109.584 101.019 109.536 100.972C109.488 100.926 109.468 100.87 109.468 100.82Z" fill="#EF7F12" stroke="#EF7F12" stroke-width="2"></path><path d="M114.419 106.157L114.419 106.157C114.419 106.183 114.414 106.21 114.403 106.235C114.391 106.261 114.374 106.287 114.351 106.31C114.327 106.333 114.297 106.353 114.262 106.367C114.226 106.381 114.187 106.389 114.147 106.389H94.7506C94.6686 106.389 94.596 106.357 94.5473 106.31C94.4997 106.264 94.479 106.208 94.479 106.157C94.479 106.106 94.4997 106.05 94.5473 106.004C94.596 105.957 94.6686 105.925 94.7506 105.925H114.147C114.229 105.925 114.302 105.957 114.351 106.004C114.398 106.05 114.419 106.106 114.419 106.157Z" fill="#EF7F12" stroke="#EF7F12" stroke-width="2"></path><path d="M119.437 105.925H121.861C121.943 105.925 122.016 105.957 122.064 106.004C122.112 106.05 122.133 106.106 122.133 106.157C122.133 106.208 122.112 106.264 122.064 106.31C122.016 106.357 121.943 106.389 121.861 106.389H119.437C119.355 106.389 119.282 106.357 119.233 106.31C119.186 106.264 119.165 106.208 119.165 106.157C119.165 106.106 119.186 106.05 119.233 106.004C119.282 105.957 119.355 105.925 119.437 105.925Z" fill="#EF7F12" stroke="#EF7F12" stroke-width="2"></path><path d="M94.7506 111.262H105.331C105.413 111.262 105.486 111.294 105.534 111.341C105.582 111.387 105.603 111.443 105.603 111.494C105.603 111.546 105.582 111.601 105.534 111.647C105.486 111.695 105.413 111.727 105.331 111.727H94.7506C94.6686 111.727 94.5961 111.695 94.5474 111.647C94.4997 111.601 94.479 111.546 94.479 111.494C94.479 111.443 94.4997 111.387 94.5474 111.341C94.5961 111.294 94.6686 111.262 94.7506 111.262Z" fill="#EF7F12" stroke="#EF7F12" stroke-width="2"></path><path d="M110.62 111.262H121.861C121.943 111.262 122.016 111.294 122.064 111.341C122.112 111.387 122.133 111.443 122.133 111.494C122.133 111.546 122.112 111.601 122.064 111.647C122.016 111.695 121.943 111.727 121.861 111.727H110.62C110.538 111.727 110.466 111.695 110.417 111.647C110.369 111.601 110.349 111.546 110.349 111.494C110.349 111.443 110.369 111.387 110.417 111.341C110.466 111.294 110.538 111.262 110.62 111.262Z" fill="#EF7F12" stroke="#EF7F12" stroke-width="2"></path><path d="M180.556 120.182C180.276 119.293 179.777 118.483 179.101 117.824C178.425 117.164 177.593 116.674 176.678 116.396C175.896 116.151 175.068 116.074 174.252 116.17C173.43 116.26 172.637 116.517 171.925 116.923C171.212 117.329 170.595 117.875 170.114 118.527C169.526 117.639 168.695 116.927 167.714 116.469C166.733 116.01 165.641 115.824 164.557 115.93C163.474 116.037 162.442 116.431 161.576 117.071C160.71 117.71 160.043 118.569 159.65 119.553C159.394 119.382 159.124 119.231 158.843 119.101V78.893C158.831 76.2659 157.746 73.7504 155.824 71.8965C153.903 70.0427 151.302 69.0012 148.59 69H112.826C111.489 69.003 110.166 69.2615 108.932 69.7606C107.698 70.2597 106.578 70.9896 105.636 71.9086C104.694 72.8275 103.949 73.9175 103.442 75.1159C102.936 76.3144 102.678 77.598 102.685 78.893V90.7629H92.6563C91.1562 90.7629 89.7176 91.3401 88.6569 92.3675C87.5962 93.3949 87.0002 94.7884 87 96.2415V115.246C86.9989 115.965 87.1442 116.678 87.4275 117.344C87.7109 118.009 88.1268 118.614 88.6515 119.123C89.1762 119.633 89.7994 120.037 90.4855 120.313C91.1716 120.589 91.9072 120.732 92.6501 120.733H102.685V160.109C102.678 161.404 102.936 162.688 103.442 163.886C103.949 165.085 104.695 166.175 105.637 167.094C106.579 168.013 107.699 168.743 108.933 169.242C110.167 169.741 111.49 169.999 112.827 170.002H148.591C151.303 170 153.904 168.959 155.825 167.105C157.747 165.251 158.832 162.736 158.844 160.109V158.934C162.107 159.97 165.622 160.001 168.905 159.023L174.809 157.271C179.044 156.01 182.589 153.173 184.666 149.382C186.744 145.592 187.185 141.159 185.893 137.054L180.556 120.182ZM105.225 78.893C105.219 77.9214 105.41 76.9582 105.789 76.0585C106.167 75.1588 106.726 74.3403 107.431 73.6501C108.137 72.9599 108.977 72.4114 109.902 72.0362C110.827 71.661 111.82 71.4664 112.823 71.4636H148.587C150.624 71.4644 152.578 72.2461 154.023 73.6381C155.467 75.0301 156.285 76.9193 156.296 78.893V82.1388H105.225V78.893ZM156.299 160.109C156.288 162.083 155.47 163.972 154.026 165.364C152.582 166.756 150.627 167.538 148.59 167.539H112.826C111.823 167.536 110.83 167.341 109.905 166.966C108.98 166.591 108.14 166.042 107.434 165.352C106.729 164.662 106.17 163.844 105.792 162.944C105.413 162.044 105.222 161.081 105.228 160.109V151.115H146.993L150.792 153.441C152.276 155.295 154.157 156.815 156.306 157.897L156.299 160.109ZM138.249 142.846C139.151 141.858 140.376 141.201 141.719 140.985C143.062 140.769 144.441 141.007 145.624 141.659L146.002 141.868L148.033 148.287C148.107 148.525 148.188 148.756 148.272 148.985L138.249 142.846ZM174.062 154.917L168.157 156.669C164.565 157.731 160.684 157.369 157.367 155.662C154.05 153.956 151.567 151.045 150.463 147.567L145.45 131.703C145.351 131.392 145.131 131.131 144.835 130.978C144.539 130.824 144.193 130.79 143.871 130.883C143.71 130.929 143.56 131.006 143.43 131.109C143.3 131.211 143.192 131.338 143.112 131.482C143.033 131.625 142.984 131.783 142.968 131.945C142.951 132.107 142.968 132.27 143.018 132.426L145.021 138.758C143.197 138.255 141.252 138.358 139.497 139.052C137.741 139.746 136.276 140.99 135.337 142.586C135.175 142.861 135.129 143.186 135.208 143.494C135.288 143.801 135.486 144.067 135.763 144.236L142.971 148.652H105.23V120.733H106.949C106.917 125.249 108.981 127.996 110.758 129.516C111.961 130.554 113.377 131.334 114.912 131.804C115.02 131.833 115.131 131.847 115.243 131.848C115.471 131.848 115.696 131.788 115.893 131.675C116.089 131.562 116.251 131.399 116.361 131.205C116.514 130.924 116.553 130.599 116.47 130.291C116.064 128.672 115.411 124.105 117.144 121.962C117.509 121.539 117.973 121.206 118.497 120.992C119.021 120.779 119.591 120.69 120.158 120.733H123.96C125.456 120.733 126.891 120.157 127.949 119.132C129.008 118.107 129.602 116.717 129.602 115.267V96.2308C129.602 94.78 129.007 93.3886 127.948 92.3627C126.889 91.3369 125.453 90.7605 123.955 90.7605H117.093C116.756 90.7605 116.432 90.8903 116.194 91.1213C115.955 91.3523 115.821 91.6656 115.821 91.9923C115.821 92.319 115.955 92.6323 116.194 92.8633C116.432 93.0943 116.756 93.2241 117.093 93.2241H123.955C124.777 93.2241 125.565 93.5404 126.146 94.1034C126.727 94.6663 127.054 95.4299 127.054 96.226V115.233C127.054 116.038 126.724 116.809 126.137 117.378C125.549 117.947 124.753 118.267 123.923 118.267H120.153C119.198 118.218 118.244 118.389 117.371 118.768C116.498 119.147 115.731 119.722 115.133 120.445C113.318 122.695 113.323 126.191 113.587 128.516C111.737 127.376 109.298 124.977 109.5 120.296C109.515 120.038 109.476 119.779 109.385 119.536C109.294 119.293 109.154 119.07 108.972 118.88C108.79 118.691 108.571 118.539 108.327 118.433C108.083 118.328 107.82 118.271 107.553 118.267H92.6514C92.2414 118.266 91.8356 118.187 91.4572 118.034C91.0788 117.881 90.7354 117.658 90.4466 117.376C90.1578 117.094 89.9293 116.759 89.7743 116.392C89.6193 116.024 89.5407 115.63 89.5432 115.233V96.2415C89.5432 95.4415 89.8713 94.6744 90.4552 94.1087C91.0391 93.5431 91.8311 93.2253 92.6569 93.2253H108.193C108.53 93.2253 108.853 93.0955 109.092 92.8645C109.33 92.6335 109.464 92.3202 109.464 91.9935C109.464 91.6668 109.33 91.3535 109.092 91.1225C108.853 90.8915 108.53 90.7617 108.193 90.7617H105.225V84.6018H156.299V118.536C155.406 118.535 154.524 118.73 153.72 119.107C152.917 119.485 152.212 120.035 151.66 120.715L146.207 103.473C145.98 102.755 145.61 102.087 145.116 101.508C144.623 100.929 144.016 100.449 143.332 100.097C142.647 99.7448 141.897 99.5267 141.126 99.4551C140.354 99.3836 139.575 99.4599 138.834 99.6799C138.093 99.8998 137.404 100.259 136.806 100.737C136.208 101.215 135.713 101.802 135.349 102.466C134.986 103.129 134.761 103.855 134.687 104.602C134.613 105.35 134.692 106.104 134.919 106.822L140.408 124.181C140.506 124.492 140.727 124.752 141.023 124.906C141.318 125.06 141.665 125.094 141.986 125.001V125.001C142.147 124.955 142.297 124.878 142.428 124.775C142.558 124.672 142.666 124.546 142.745 124.402C142.825 124.259 142.874 124.101 142.89 123.939C142.906 123.777 142.889 123.614 142.84 123.458L137.351 106.099C137.17 105.526 137.155 104.916 137.308 104.336C137.46 103.755 137.774 103.226 138.215 102.806C138.325 102.698 138.445 102.6 138.573 102.514C139.007 102.208 139.509 102.007 140.039 101.928C140.569 101.848 141.111 101.893 141.62 102.057C142.129 102.221 142.59 102.501 142.965 102.872C143.339 103.244 143.617 103.697 143.775 104.193L153.813 135.936C153.917 136.242 154.141 136.497 154.436 136.645C154.732 136.793 155.075 136.823 155.393 136.729C155.712 136.634 155.979 136.423 156.138 136.14C156.297 135.857 156.335 135.525 156.244 135.215L153.081 125.204C152.949 124.795 152.902 124.364 152.942 123.937C152.983 123.51 153.11 123.095 153.317 122.716C153.524 122.337 153.806 122.001 154.147 121.728C154.488 121.454 154.881 121.249 155.304 121.124C155.728 120.998 156.172 120.955 156.613 120.996C157.053 121.037 157.481 121.163 157.871 121.365C158.262 121.567 158.607 121.842 158.888 122.173C159.168 122.505 159.378 122.887 159.506 123.298L162.671 133.307C162.717 133.465 162.794 133.613 162.9 133.742C163.006 133.87 163.137 133.977 163.285 134.056C163.434 134.135 163.598 134.184 163.767 134.2C163.935 134.217 164.106 134.201 164.268 134.153C164.43 134.105 164.581 134.026 164.711 133.92C164.841 133.815 164.948 133.686 165.026 133.54C165.104 133.394 165.151 133.234 165.164 133.07C165.177 132.907 165.156 132.742 165.103 132.586L161.937 122.577C161.808 122.168 161.764 121.739 161.806 121.313C161.848 120.888 161.976 120.474 162.183 120.097C162.391 119.719 162.672 119.385 163.013 119.113C163.353 118.841 163.746 118.637 164.168 118.512C164.59 118.387 165.033 118.343 165.472 118.384C165.911 118.425 166.338 118.549 166.728 118.75C167.117 118.951 167.462 119.224 167.743 119.553C168.024 119.883 168.235 120.263 168.364 120.672L171.529 130.681C171.633 130.988 171.857 131.242 172.152 131.39C172.448 131.538 172.791 131.568 173.11 131.474C173.428 131.38 173.695 131.168 173.854 130.885C174.013 130.602 174.051 130.27 173.961 129.96L171.7 122.81C171.518 122.235 171.504 121.622 171.659 121.038C171.814 120.455 172.132 119.925 172.577 119.505C172.688 119.397 172.808 119.299 172.937 119.213C173.449 118.859 174.051 118.65 174.678 118.609C175.305 118.569 175.931 118.698 176.487 118.983C176.877 119.182 177.223 119.455 177.504 119.785C177.785 120.114 177.995 120.495 178.123 120.904L183.459 137.777C184.555 141.257 184.181 145.016 182.419 148.229C180.657 151.442 177.652 153.847 174.062 154.916V154.917Z" fill="#EF7F12" stroke="#EF7F12"></path></svg>