<svg xmlns="http://www.w3.org/2000/svg" xmlns:xlink="http://www.w3.org/1999/xlink" width="318.316" height="211.282" viewBox="0 0 318.316 211.282"><defs><linearGradient id="linear-gradient" y1="0.5" x2="1" y2="0.5" gradientUnits="objectBoundingBox"><stop offset="0" stop-color="#bebddc"></stop><stop offset="0.206" stop-color="#999bc9"></stop><stop offset="0.426" stop-color="#7a7fbb"></stop><stop offset="0.637" stop-color="#646cb1"></stop><stop offset="0.834" stop-color="#5662ab"></stop><stop offset="1" stop-color="#525eaa"></stop></linearGradient><linearGradient id="linear-gradient-2" x1="0.643" y1="0.828" x2="0.357" y2="0.172" gradientUnits="objectBoundingBox"><stop offset="0" stop-color="#3cb4c7"></stop><stop offset="0.023" stop-color="#39a9bf"></stop><stop offset="0.132" stop-color="#2f7b9f"></stop><stop offset="0.245" stop-color="#265785"></stop><stop offset="0.359" stop-color="#1f3b72"></stop><stop offset="0.476" stop-color="#1b2663"></stop><stop offset="0.596" stop-color="#171859"></stop><stop offset="0.72" stop-color="#140e51"></stop><stop offset="0.851" stop-color="#13094d"></stop><stop offset="1" stop-color="#12084c"></stop></linearGradient><clipPath id="clip-path"><path id="Path_3332" data-name="Path 3332" d="M111.948,277.347,14.73,221.2c-4.338-2.507-3.795-6.878,1.213-9.768l188.7-108.917c5.008-2.89,12.584-3.2,16.921-.7l97.218,56.148c4.338,2.507,3.795,6.879-1.214,9.768L128.869,276.65C123.861,279.539,116.286,279.854,111.948,277.347Z" transform="translate(-11.801 -100.123)" opacity="0.1"></path></clipPath><clipPath id="clip-path-2"><path id="Path_3383" data-name="Path 3383" d="M247.292,210.477l-12.034,6.939L187.33,189.741V136.53l59.962,34.621Z" transform="translate(-187.33 -136.53)"></path></clipPath></defs><g id="Group_4285" data-name="Group 4285" transform="translate(7213.112 -11067.473)"><g id="Group_961" data-name="Group 961" transform="translate(-7213.112 11094.811)"><path id="Path_3324" data-name="Path 3324" d="M117.322,324.393a15.72,15.72,0,0,1-7.7-1.77L8.808,264.424c-2.025-1.167-3.138-2.789-3.138-4.572,0-2.139,1.6-4.291,4.391-5.9l192.27-111.008c5.229-3.017,13.167-3.345,17.706-.724l100.811,58.206c2.025,1.167,3.138,2.789,3.138,4.572,0,2.139-1.6,4.291-4.391,5.9l-192.27,111A20.554,20.554,0,0,1,117.322,324.393Zm-7.489-2.145c4.418,2.548,12.168,2.226,17.27-.724L319.38,210.515c2.655-1.529,4.17-3.547,4.17-5.524,0-1.622-1.039-3.111-2.916-4.2l-100.811-58.2c-4.418-2.548-12.161-2.226-17.27.724L10.276,254.327c-2.655,1.529-4.17,3.546-4.177,5.524,0,1.622,1.039,3.111,2.916,4.2Z" transform="translate(-5.67 -140.449)" fill="#3cb4c7"></path></g><g id="Group_962" data-name="Group 962" transform="translate(-7212.896 11067.982)"><path id="Path_3325" data-name="Path 3325" d="M323.88,171.626,309.4,174.12l-89.36-51.589c-4.485-2.588-12.316-2.266-17.491.724L31.6,221.954,6,226.359v9.078h.013c-.013,1.656.972,3.238,3.017,4.418L109.842,298.06c4.485,2.588,12.316,2.266,17.491-.724L319.6,186.328c2.789-1.609,4.224-3.66,4.271-5.618h.013v-9.084Z" transform="translate(-5.996 -107.14)" fill="url(#linear-gradient)"></path><path id="Path_3326" data-name="Path 3326" d="M109.833,282.209,9.021,224.01c-4.485-2.588-3.922-7.106,1.254-10.1L202.545,102.9c5.176-2.99,13.006-3.312,17.491-.724l100.811,58.206c4.485,2.588,3.922,7.106-1.254,10.1l-192.27,111C122.148,284.475,114.318,284.8,109.833,282.209Z" transform="translate(-5.994 -100.433)" fill="#24116a"></path><path id="Path_3327" data-name="Path 3327" d="M319.6,202.409,127.33,313.417c-5.176,2.99-13.006,3.312-17.491.724L9.028,255.942a5.428,5.428,0,0,1-2.97-3.821c-.275,1.864.691,3.681,2.97,5l100.811,58.206c4.485,2.588,12.316,2.266,17.491-.724L319.6,203.6c3.1-1.79,4.532-4.13,4.23-6.275C323.563,199.11,322.141,200.947,319.6,202.409Z" transform="translate(-6 -132.365)" fill="#fff"></path><path id="Path_3328" data-name="Path 3328" d="M111.948,281.087,14.73,224.939c-4.338-2.507-3.795-6.879,1.213-9.768l188.7-108.917c5.008-2.89,12.584-3.2,16.921-.7L318.787,161.7c4.338,2.507,3.795,6.879-1.214,9.768l-188.7,108.917C123.861,283.279,116.286,283.594,111.948,281.087Z" transform="translate(-7.908 -101.563)" fill="#dedede"></path></g><g id="Group_963" data-name="Group 963" transform="translate(-7209.317 11067.473)"><path id="Path_3329" data-name="Path 3329" d="M119.14,279.2a15.334,15.334,0,0,1-7.5-1.723L14.414,221.325c-1.991-1.146-3.084-2.755-3.084-4.512,0-2.105,1.569-4.224,4.3-5.8L204.331,102.1c5.088-2.936,12.818-3.252,17.237-.7l97.218,56.148c1.991,1.146,3.084,2.755,3.084,4.512,0,2.105-1.569,4.224-4.3,5.8l-188.7,108.917A20.042,20.042,0,0,1,119.14,279.2Zm-7.194-2.266c4.244,2.454,11.7,2.139,16.613-.7l188.7-108.917c2.534-1.462,3.989-3.379,3.989-5.256,0-1.529-.986-2.936-2.769-3.969l-97.218-56.148c-4.244-2.454-11.7-2.139-16.613.7L15.942,211.557c-2.534,1.461-3.989,3.379-3.989,5.256,0,1.529.986,2.936,2.769,3.969Z" transform="translate(-11.33 -99.671)" opacity="0.8" fill="url(#linear-gradient-2)"></path></g><g id="Group_965" data-name="Group 965" transform="translate(-7209.001 11067.775)" opacity="0.1"><path id="Path_3330" data-name="Path 3330" d="M111.948,277.347,14.73,221.2c-4.338-2.507-3.795-6.878,1.213-9.768l188.7-108.917c5.008-2.89,12.584-3.2,16.921-.7l97.218,56.148c4.338,2.507,3.795,6.879-1.214,9.768L128.869,276.65C123.861,279.539,116.286,279.854,111.948,277.347Z" transform="translate(-11.801 -100.123)" fill="none" opacity="0.1"></path><g id="Group_964" data-name="Group 964" clip-path="url(#clip-path)"><path id="Path_3331" data-name="Path 3331" d="M302.521,315.44c0-12.208-8.575-27.058-19.147-33.166-5.3-3.057-10.09-3.345-13.563-1.327h0l-3.62,2.119,1.053.1c-1.911,2.34-3.024,5.779-3.024,10.17,0,12.208,8.575,27.058,19.147,33.166,3.634,2.1,7.033,2.889,9.929,2.534l-.08.972,3.674-2.152a.3.3,0,0,1,.047-.027l.148-.087h-.007C300.45,325.684,302.521,321.44,302.521,315.44Z" transform="translate(-94.993 -159.294)" fill="#a1dbe0"></path><ellipse id="Ellipse_34" data-name="Ellipse 34" cx="15.634" cy="27.078" rx="15.634" ry="27.078" transform="matrix(0.866, -0.5, 0.5, 0.866, 157.634, 131.6)" fill="#3cb4c7"></ellipse></g></g><path id="Path_3333" data-name="Path 3333" d="M435.541,198.448a5.937,5.937,0,0,1-5.377,0c-1.482-.858-1.482-2.246,0-3.1a5.937,5.937,0,0,1,5.377,0C437.029,196.2,437.029,197.59,435.541,198.448Z" transform="translate(-7358.32 10936.481)" fill="#24116a" opacity="0.4"></path><path id="Path_3334" data-name="Path 3334" d="M405.07,177.753l10.519,6.074c1.287.744,1.126,2.038-.362,2.9h0a5.563,5.563,0,0,1-5.015.208l-10.519-6.074c-1.287-.744-1.126-2.038.362-2.9h0A5.563,5.563,0,0,1,405.07,177.753Z" transform="translate(-7348.357 10942.232)" fill="#24116a" opacity="0.4"></path><path id="Path_3335" data-name="Path 3335" d="M315.56,123.413l10.519,6.074c1.287.744,1.126,2.038-.362,2.9h0a5.563,5.563,0,0,1-5.015.208l-10.519-6.074c-1.287-.744-1.126-2.038.362-2.9h0A5.563,5.563,0,0,1,315.56,123.413Z" transform="translate(-7318.857 10960.142)" fill="#24116a" opacity="0.4"></path><path id="Path_3336" data-name="Path 3336" d="M435.541,192.818a5.937,5.937,0,0,1-5.377,0c-1.482-.858-1.482-2.246,0-3.1a5.937,5.937,0,0,1,5.377,0C437.029,190.572,437.029,191.966,435.541,192.818Z" transform="translate(-7358.32 10938.337)" fill="#3cb4c7"></path><path id="Path_3337" data-name="Path 3337" d="M405.07,172.123l10.519,6.074c1.287.744,1.126,2.038-.362,2.9h0a5.563,5.563,0,0,1-5.015.208l-10.519-6.074c-1.287-.744-1.126-2.038.362-2.9h0A5.563,5.563,0,0,1,405.07,172.123Z" transform="translate(-7348.357 10944.088)" fill="#3cb4c7"></path><path id="Path_3338" data-name="Path 3338" d="M315.56,117.786l10.519,6.074c1.287.744,1.126,2.038-.362,2.9h0a5.563,5.563,0,0,1-5.015.208l-10.519-6.074c-1.287-.744-1.126-2.038.362-2.9h0A5.605,5.605,0,0,1,315.56,117.786Z" transform="translate(-7318.857 10961.995)" fill="#3cb4c7"></path><path id="Path_3379" data-name="Path 3379" d="M206.663,254.395c-13.207,0-26.421-2.9-36.478-8.709-9.781-5.645-15.165-13.167-15.165-21.172s5.383-15.52,15.165-21.165c20.113-11.612,52.836-11.612,72.949,0,9.781,5.645,15.165,13.167,15.165,21.172s-5.383,15.52-15.165,21.165l-.094-.168.094.168C233.084,251.492,219.877,254.395,206.663,254.395Zm0-59.379c-13.14,0-26.281,2.889-36.283,8.662-9.654,5.578-14.977,12.973-14.977,20.837s5.316,15.265,14.977,20.843c20.012,11.558,52.561,11.558,72.573,0h0c9.654-5.578,14.97-12.973,14.977-20.837s-5.316-15.266-14.977-20.843C232.943,197.9,219.8,195.015,206.663,195.015Z" transform="translate(-7268.005 10936.501)" fill="#3cb4c7" opacity="0.4"></path><path id="Path_3380" data-name="Path 3380" d="M199.854,258.466c-16.767,0-33.528-3.681-46.286-11.055-12.4-7.16-19.228-16.687-19.228-26.837s6.832-19.677,19.228-26.837c25.523-14.736,67.049-14.736,92.579,0,12.4,7.16,19.228,16.687,19.228,26.837s-6.832,19.677-19.228,26.837C233.375,254.779,216.614,258.466,199.854,258.466Zm-.007-75.4c-16.694,0-33.387,3.667-46.1,11.008-12.275,7.086-19.04,16.5-19.04,26.5s6.758,19.415,19.04,26.5c25.422,14.676,66.781,14.676,92.2,0,12.275-7.086,19.04-16.5,19.04-26.5s-6.758-19.415-19.04-26.5C233.241,186.738,216.54,183.07,199.847,183.07Z" transform="translate(-7261.189 10940.441)" fill="#3cb4c7" opacity="0.2"></path><path id="Path_3381" data-name="Path 3381" d="M212.038,251.185c-10.412,0-20.823-2.286-28.748-6.865-7.717-4.452-11.96-10.385-11.96-16.707s4.25-12.255,11.96-16.707c15.849-9.151,41.64-9.151,57.489,0,7.717,4.452,11.96,10.385,11.96,16.707s-4.251,12.249-11.96,16.707l-.094-.168.094.168C232.861,248.9,222.45,251.185,212.038,251.185Zm0-46.762c-10.345,0-20.683,2.273-28.553,6.818-7.589,4.385-11.773,10.2-11.773,16.378S175.9,239.613,183.485,244c15.748,9.091,41.365,9.091,57.113,0,7.589-4.385,11.773-10.2,11.773-16.378s-4.183-11.994-11.773-16.378C232.721,206.7,222.383,204.423,212.038,204.423Z" transform="translate(-7273.38 10933.402)" fill="#3cb4c7"></path><g id="Group_1003" data-name="Group 1003" transform="translate(-7174.456 11169.116)"><path id="Path_3384" data-name="Path 3384" d="M125.122,310.238,64.985,275.516a2.656,2.656,0,0,1,0-4.606l9.178-5.343a9.922,9.922,0,0,1,9.916,0l60.137,34.721a2.656,2.656,0,0,1,0,4.606l-9.178,5.343A9.922,9.922,0,0,1,125.122,310.238Z" transform="translate(-63.436 -255.553)" fill="#24116a" opacity="0.4"></path><path id="Path_3385" data-name="Path 3385" d="M105.707,276.634l-9.627-5.558L98,269.97l9.621,5.558Z" transform="translate(-74.124 -257.442)" fill="#3cb4c7"></path><path id="Path_3386" data-name="Path 3386" d="M149.457,302.479l-2.957-1.71,1.917-1.1,2.957,1.7Z" transform="translate(-90.741 -267.23)" fill="#3cb4c7"></path><path id="Path_3387" data-name="Path 3387" d="M117.3,283.456l-2.95-1.71,1.911-1.106,2.957,1.71Z" transform="translate(-80.145 -260.958)" fill="#3cb4c7"></path><path id="Path_3388" data-name="Path 3388" d="M129.977,299.048a10.113,10.113,0,0,1-5.068-1.354L64.771,262.973a2.878,2.878,0,0,1,0-4.988l9.178-5.35a10.172,10.172,0,0,1,10.137,0l60.143,34.728a2.878,2.878,0,0,1,0,4.988l-9.178,5.35A10.2,10.2,0,0,1,129.977,299.048ZM79.018,251.723a9.717,9.717,0,0,0-4.854,1.294l-9.178,5.35a2.449,2.449,0,0,0,0,4.237l60.137,34.721a9.717,9.717,0,0,0,9.7,0l9.178-5.35a2.449,2.449,0,0,0,0-4.237L83.865,253.017A9.638,9.638,0,0,0,79.018,251.723Z" transform="translate(-63.33 -251.283)" fill="#3cb4c7"></path></g><g id="Group_998" data-name="Group 998" transform="translate(-7049.972 11094.811)"><path id="Path_3376" data-name="Path 3376" d="M302.521,195.28c0-12.208-8.575-27.058-19.147-33.166-5.3-3.057-10.09-3.345-13.563-1.327h0l-3.62,2.119,1.053.1c-1.911,2.34-3.024,5.779-3.024,10.17,0,12.208,8.575,27.058,19.147,33.166,3.634,2.1,7.033,2.889,9.929,2.534l-.08.972,3.674-2.152a.293.293,0,0,1,.047-.027l.148-.087h-.007C300.45,205.531,302.521,201.28,302.521,195.28Z" transform="translate(-252.629 -155.1)" fill="#ef7f12"></path><ellipse id="Ellipse_35" data-name="Ellipse 35" cx="15.634" cy="27.078" rx="15.634" ry="27.078" transform="matrix(0.866, -0.5, 0.5, 0.866, 0, 15.634)" fill="#ea5f30"></ellipse></g><path id="Path_4997" data-name="Path 4997" d="M10.725,25.816l-.044-.034-.044-.034-.044-.034-.044-.034c-.006-.047-.014-.093-.023-.14s-.018-.093-.026-.14-.014-.093-.018-.14a.8.8,0,0,1,0-.142q.191-1.722.382-3.428t.38-3.383q.188-1.676.374-3.338t.367-3.294a.867.867,0,0,1,.063-.246.882.882,0,0,1,.139-.224,1.325,1.325,0,0,1,.226-.209,2.459,2.459,0,0,1,.324-.2l4.779-2.518,4.755-2.51q2.37-1.252,4.73-2.5t4.7-2.5a4.386,4.386,0,0,1,.544-.247,2.789,2.789,0,0,1,.519-.139,2.247,2.247,0,0,1,.514-.025,2.45,2.45,0,0,1,.529.1l.045.031L33.9.513l.045.031.045.031c.011.052.024.1.037.156s.027.1.039.155.024.1.032.157a1.217,1.217,0,0,1,.017.159q.051,1.4.1,2.816t.1,2.85q.05,1.437.1,2.885t.094,2.921a.411.411,0,0,0,.032.159.264.264,0,0,0,.093.109.514.514,0,0,0,.165.07,1.664,1.664,0,0,0,.249.041l3.64.361,3.661.366,3.682.371,3.7.376q.694.071,1.388.145l1.387.151,1.39.154,1.393.153.049.034.049.033.049.033.049.033a.641.641,0,0,1,.09.335.576.576,0,0,1-.109.307,1.3,1.3,0,0,1-.292.29,3.57,3.57,0,0,1-.459.287Q52.272,17.8,49.823,19.12t-4.91,2.653q-2.461,1.332-4.927,2.669l-4.944,2.685a3.692,3.692,0,0,1-.444.206,2.958,2.958,0,0,1-.442.131,2.992,2.992,0,0,1-.457.06,3.8,3.8,0,0,1-.492-.006l-4.6-.337-4.574-.332-4.542-.329-4.509-.33q-.537-.04-1.071-.086t-1.064-.095l-1.06-.1Zm2.213-2.182.181-.1.147-.078.124-.066.112-.06,1.374-.733,1.372-.732,1.368-.733q.682-.367,1.361-.736a2.154,2.154,0,0,0,.188-.115,2.08,2.08,0,0,0,.171-.131,1.651,1.651,0,0,0,.146-.14,1.077,1.077,0,0,0,.111-.142q1.349-2.09,2.684-4.162L24.921,11.6,27.527,7.55l2.571-4,.054-.087.056-.094.064-.109.078-.131-.16.073-.125.056-.1.046-.085.042-3.8,2.013L22.26,7.379,18.428,9.4l-3.847,2.031a1.342,1.342,0,0,0-.2.125.693.693,0,0,0-.129.128.5.5,0,0,0-.074.136.623.623,0,0,0-.032.149q-.144,1.376-.29,2.763t-.3,2.794q-.149,1.407-.3,2.825t-.3,2.857c0,.029-.006.057-.007.087s0,.061,0,.094l0,.109C12.942,23.541,12.94,23.585,12.938,23.634Zm1.373.983.088.018.071.016.061.012.058.007L19.224,25l4.67.335,4.705.335,4.742.333A1.075,1.075,0,0,0,33.531,26a1.823,1.823,0,0,0,.212-.038,1.98,1.98,0,0,0,.207-.061,1.31,1.31,0,0,0,.176-.077l3.979-2.142,3.961-2.137,3.945-2.131,3.93-2.124c.029-.016.057-.032.086-.05l.091-.058.108-.071.136-.088-.194.022-.151.017-.123.014-.109.014L42.568,18.1l-7.181,1.006-7.145,1-7.11,1a2.054,2.054,0,0,0-.2.039c-.068.017-.137.037-.2.059s-.133.048-.2.074-.123.055-.179.084l-1.4.742-1.4.745-1.4.748-1.4.749-.1.058-.106.063-.113.069Zm18-6.462c0-.022.009-.041.013-.057l.011-.045c0-.013.006-.025.007-.037a.174.174,0,0,0,0-.032q-.013-.446-.027-.891t-.027-.888q-.013-.443-.024-.885t-.019-.882a.23.23,0,0,0-.033-.123.223.223,0,0,0-.09-.078.55.55,0,0,0-.14-.045,1.768,1.768,0,0,0-.183-.025l-.857-.085-.855-.087-.853-.087-.852-.087-.579-.058-.583-.058-.59-.059-.6-.06-.955,1.487-.958,1.492-.966,1.5-.979,1.524,2.562-.363,2.534-.359,2.521-.357Zm15.793-2.243,0-.021,0-.021,0-.021,0-.021-3.4-.345-3.384-.344L37.957,14.8l-3.381-.343.031.853q.015.423.031.84t.03.834q.015.417.031.836l3.371-.479,3.352-.476,3.343-.475ZM31.947,4.586h-.129L30.6,6.471l-1.222,1.9L28.152,10.29l-1.243,1.934,1.323.133,1.311.131,1.314.132,1.334.134q-.032-1.051-.062-2.086t-.062-2.053q-.03-1.018-.06-2.025T31.947,4.586Z" transform="translate(-7089.533 11145.619)" fill="#ea5f30"></path></g></svg>