<svg xmlns="http://www.w3.org/2000/svg" xmlns:xlink="http://www.w3.org/1999/xlink" id="Layer_1" x="0px" y="0px" viewBox="0 0 60 60" style="enable-background:new 0 0 60 60;" xml:space="preserve"><style type="text/css">	.st0{fill:#F15C27;}</style><path class="st0" d="M57.7,37.2c0,2.4,0,4.7,0,7.1c0,1.1-0.4,1.6-1.3,2.2c-4.2,2.4-8.3,4.7-12.5,7.3c-0.9,0.5-1.6,0.5-2.5,0 c-4.2-2.4-8.3-4.9-12.5-7.3c-0.7-0.4-1.1-1.1-1.1-2c0-1.6,0-3.3,0-4.9c0-1.3,0.7-2.2,2-2.2c1.1,0,1.8,0.9,2,2.2c0,1.1,0,2,0,3.1 c0,0.5,0.2,0.9,0.7,1.3c3.3,1.8,6.3,3.6,9.6,5.4c0.5,0.4,1.1,0.4,1.6,0c3.1-1.8,6.3-3.6,9.4-5.4c0.5-0.4,0.7-0.7,0.7-1.5 c0-3.4,0-6.9,0-10.3c0-0.7-0.2-1.1-0.9-1.5c-3.1-1.8-6.2-3.6-9.2-5.4c-0.7-0.4-1.3-0.4-1.8,0c-7.6,4.4-15,8.7-22.7,13.1 c-1.8,1.1-3.1,1.1-4.7,0c-3.6-2.2-7.3-4.4-10.9-6.3c-1.1-0.7-1.6-1.5-1.6-2.7c0-4.5,0-9.1,0-13.6c0-1.1,0.4-1.8,1.5-2.4 c4-2.4,8-4.5,12-6.9c1.1-0.5,2-0.5,3.1,0c4,2.4,8,4.7,12,6.9c0.9,0.5,1.5,1.3,1.5,2.5c0,1.6,0,3.3,0,4.9c0,1.3-0.7,2.2-2,2.2 s-2-0.7-2-2c0-0.7-0.2-1.3,0-2c0.4-1.8-0.4-2.7-2-3.4c-2.7-1.5-5.4-3.1-8.2-4.7c-0.5-0.4-1.1-0.4-1.6,0c-3.1,1.8-6.2,3.6-9.2,5.3 c-0.7,0.4-0.9,0.9-0.9,1.6c0,3.4,0,6.7,0,10.2c0,0.7,0.2,1.1,0.7,1.5c3.1,1.8,6.3,3.6,9.4,5.4c0.7,0.4,1.3,0.2,1.8-0.2 c7.4-4.4,15-8.7,22.5-13.1c1.8-1.1,3.1-1.1,4.9,0c3.6,2.2,7.3,4.4,10.9,6.3c1.1,0.5,1.6,1.5,1.6,2.7C57.7,32.8,57.7,35,57.7,37.2z"></path></svg>