<svg xmlns="http://www.w3.org/2000/svg" xmlns:xlink="http://www.w3.org/1999/xlink" id="Layer_1" x="0px" y="0px" viewBox="0 0 60 60" style="enable-background:new 0 0 60 60;" xml:space="preserve"><style type="text/css">	.st0{fill-rule:evenodd;clip-rule:evenodd;fill:#F15C27;}</style><path class="st0" d="M30.3,55.8h-0.4c-0.4-0.2-0.6-0.4-1-0.6C21.3,49.5,13.7,43.6,6.2,38c-0.2-0.2-0.4-0.4-0.6-0.8 c-0.2-0.2-0.2-0.6-0.2-1c0-9.9,0-19.7,0-29.6c0-0.4,0-1,0.2-1.5s0.6-0.6,1.3-0.8h0.4C7.6,4.4,8,4.6,8.5,4.8c6.9,4.6,14,9.4,21,14.3 c0.2,0.2,0.4,0.2,0.6,0.2c0.2,0,0.4,0,0.6-0.2c5.5-3.6,10.7-7.3,16.1-10.9c2.1-1.3,4-2.7,6.1-4h0.4c0.4,0.2,0.8,0.4,1,0.8 c0.2,0.4,0.4,0.8,0.2,1.3c0,9.9,0,19.7,0,29.6c0,0.4,0,0.8-0.2,1c-0.2,0.4-0.4,0.6-0.8,0.8c-6.3,4.8-12.6,9.6-18.9,14.5 C33.4,53.5,31.9,54.7,30.3,55.8z M28.6,51.2v-0.8c0-2.7,0-5.5,0-8.4c0-0.4-0.2-0.8-0.4-1.3C21.7,30.8,15.4,21,8.9,11.3 c-0.2-0.2-0.2-0.4-0.6-0.8c0,0.4,0,0.6,0,0.6c0,8,0,15.9,0,23.9c0,0.2,0,0.4,0.2,0.6c0,0.2,0.2,0.4,0.4,0.4 c6.3,4.8,12.6,9.6,18.9,14.5C28,51,28.2,51,28.6,51.2z M31.5,51.2c0.2,0,0.2-0.2,0.4-0.2c6.5-5,13-9.9,19.3-14.9 c0.2-0.2,0.2-0.2,0.2-0.4c0-0.2,0.2-0.4,0.2-0.4c0-8,0-15.9,0-23.9c0-0.2,0-0.4,0-0.6c-0.2,0.2-0.4,0.4-0.4,0.6 c-6.5,9.9-13,19.7-19.5,29.8c-0.2,0.2-0.2,0.6-0.2,1c0,2.7,0,5.7,0,8.4C31.5,50.8,31.5,51,31.5,51.2z M37,27.7l-0.2-0.2 c-2.1-1.5-4.2-2.7-6.3-4.2c-0.2,0-0.2-0.2-0.4-0.2c-0.2,0-0.4,0-0.4,0.2c-1.3,0.8-2.5,1.7-3.8,2.5c-0.8,0.6-1.7,1.3-2.7,1.9 l6.9,10.7L37,27.7z M47.7,11.3L47.7,11.3l-14.9,9.9l5.9,4L47.7,11.3z M12.7,11.1L12.7,11.1l9,14l5.9-4L12.7,11.1z"></path></svg>