<svg xmlns="http://www.w3.org/2000/svg" xmlns:xlink="http://www.w3.org/1999/xlink" id="Layer_1" x="0px" y="0px" viewBox="0 0 60 60" style="enable-background:new 0 0 60 60;" xml:space="preserve"><style type="text/css">	.st0{fill:#F15C27;}</style><path class="st0" d="M43.6,1.3c-2.2,0-4.3,0.6-6.3,1.7c-3.9,2.3-6.1,6.5-6.1,11c0,2.5,0.9,4.8,1.9,6.7c0.3,0.6,0.5,1.5,0.4,2.3 c-0.1,0.8-0.5,1.6-1.7,2.3c-1.5,0.9-3.4,0.4-4.4-1.3c-1.2-2-2.7-3.6-4.8-4.8v0c-2-1.2-4.2-1.7-6.4-1.7c-2.1,0-4.3,0.6-6.2,1.7 C6.3,21.5,3.8,25.5,3.8,30s2.4,8.5,6.3,10.8c1.9,1.1,4.1,1.7,6.3,1.7c2.2,0,4.3-0.6,6.3-1.7c2.1-1.2,3.6-2.9,4.8-4.8 c0.3-0.6,1-1.2,1.7-1.6c0.7-0.3,1.5-0.4,2.7,0.3c1.6,0.9,2.2,2.9,1.3,4.6c-1,2-1.9,4.2-1.9,6.7c0,4.5,2.2,8.7,6.1,11 c3.9,2.3,8.7,2.3,12.6,0c3.9-2.3,6.3-6.5,6.3-11s-2.4-8.7-6.3-11c-2.2-1.3-4.6-1.6-6.8-1.7c-0.6,0-1.5-0.3-2.2-0.8s-1.1-1.2-1.1-2.5 c0-1.8,1.4-3.2,3.3-3.3c2.2-0.1,4.6-0.4,6.8-1.7c3.9-2.3,6.3-6.5,6.3-11c0-4.5-2.4-8.7-6.3-11C48,1.9,45.8,1.3,43.6,1.3z M43.6,3.8 c1.7,0,3.5,0.5,5,1.4c3.1,1.8,5,5.2,5,8.8c0,3.7-1.9,7-5,8.8v0c-1.7,1-3.6,1.3-5.6,1.4c-3.1,0.1-5.7,2.6-5.7,5.8c0,2,0.9,3.5,2,4.5 c1.2,0.9,2.5,1.3,3.6,1.3c2,0.1,4,0.4,5.6,1.3c3.1,1.8,5,5.2,5,8.8s-1.9,7-5,8.8c-3.1,1.8-6.9,1.8-10,0c-3.1-1.8-4.8-5.1-4.8-8.8 c0-1.9,0.7-3.8,1.6-5.6c1.5-2.8,0.4-6.3-2.3-7.9c-1.7-1-3.6-1-4.9-0.4c-1.4,0.6-2.3,1.6-2.9,2.5c-1,1.7-2.2,3-3.9,4 c-1.6,0.9-3.3,1.4-5,1.4c-1.7,0-3.5-0.5-5-1.4v0h0c-3.1-1.8-5-5-5-8.6s1.9-6.7,5-8.6c1.5-0.9,3.2-1.4,4.9-1.4c1.8,0,3.5,0.4,5.1,1.4 c1.7,1,2.9,2.2,3.9,3.9c1.6,2.7,5.1,3.7,7.8,2.1c1.7-1,2.6-2.5,2.9-4c0.3-1.5-0.1-2.8-0.6-3.9c-0.9-1.8-1.6-3.6-1.6-5.6 c0-3.7,1.7-7,4.8-8.8C40.2,4.3,41.9,3.8,43.6,3.8z"></path></svg>