<svg xmlns="http://www.w3.org/2000/svg" width="237.976" height="247.483" viewBox="0 0 237.976 247.483"><g id="XMLID_1_" transform="translate(-12.965 20.311) rotate(-8)"><g id="XMLID_69_" transform="translate(1.095 0)"><g id="XMLID_70_" transform="translate(0)"><g id="Group_960" data-name="Group 960"><g id="Group_959" data-name="Group 959"><g id="Group_954" data-name="Group 954" transform="translate(0 120.795)"><g id="Group_953" data-name="Group 953" transform="translate(24.464 34.979)"><path id="Path_3294" data-name="Path 3294" d="M45.4,0l-.448.319c-.3.2-.71.528-1.282.878s-1.251.8-2.036,1.3-1.668,1.082-2.674,1.637a94.8,94.8,0,0,1-15.181,7.269A98.817,98.817,0,0,1,7.571,15.94c-1.131.2-2.169.386-3.087.55-.922.146-1.734.231-2.395.319L0,17.075" transform="translate(101.478 45.486)" fill="none" stroke="#fff" stroke-miterlimit="10" stroke-width="0.517"></path><path id="Path_3295" data-name="Path 3295" d="M62.237,58s-.337-.08-.945-.3-1.508-.51-2.648-.9c-1.149-.359-2.506-.909-4.067-1.526C53,54.7,51.291,53.89,49.411,53.043a96.688,96.688,0,0,1-12.281-6.9,99.864,99.864,0,0,1-12.675-10A97.6,97.6,0,0,1,5.841,12.44c-.532-.887-.976-1.77-1.4-2.608S3.606,8.2,3.224,7.455C2.506,5.943,1.92,4.6,1.419,3.5S.612,1.512.364.918,0,0,0,0" transform="translate(0 0)" fill="none" stroke="#fff" stroke-miterlimit="10" stroke-width="0.517"></path><path id="Path_3296" data-name="Path 3296" d="M49.207,1.26s-.758.173-2.084.479c-.665.137-1.464.373-2.4.523-.936.169-1.987.355-3.136.559a94.669,94.669,0,0,1-17.07,1.131,93.8,93.8,0,0,1-16.986-2c-1.14-.262-2.182-.5-3.1-.719S2.714.758,2.058.585L0,0" transform="translate(63.86 52.719)" fill="none" stroke="#fff" stroke-miterlimit="10" stroke-width="0.517"></path><path id="Path_3297" data-name="Path 3297" d="M56.445,0l-.408.7L54.8,2.63c-.532.834-1.166,1.849-1.982,2.958s-1.672,2.4-2.745,3.712q-.785,1-1.632,2.076-.9,1.031-1.849,2.138c-.319.368-.639.736-.962,1.113-.341.359-.687.727-1.038,1.1q-1.058,1.1-2.155,2.253a102.006,102.006,0,0,1-10.028,8.657,102.223,102.223,0,0,1-11.163,7.132c-1.889.945-3.681,1.943-5.468,2.7-.883.395-1.739.794-2.577,1.158l-2.457.967C9.181,39.241,7.695,39.7,6.4,40.146c-1.3.466-2.453.781-3.4,1.047s-1.694.483-2.2.625S0,42.009,0,42.009" transform="translate(113.063 11.97)" fill="none" stroke="#fff" stroke-miterlimit="10" stroke-width="0.517"></path><path id="Path_3298" data-name="Path 3298" d="M63.018,0s-.643,1.113-1.77,3.056C60.64,4,59.9,5.149,59.062,6.466s-1.907,2.728-3.011,4.306c-.55.789-1.2,1.557-1.832,2.382-.652.807-1.286,1.676-2.009,2.51-1.446,1.668-2.936,3.455-4.63,5.167-1.628,1.774-3.459,3.455-5.287,5.2-1.907,1.654-3.814,3.375-5.863,4.927-1.991,1.623-4.12,3.065-6.182,4.524-2.129,1.366-4.2,2.741-6.316,3.9-2.067,1.242-4.16,2.257-6.125,3.269-.985.5-1.978.914-2.918,1.353-.949.417-1.854.865-2.75,1.211-1.8.7-3.424,1.388-4.905,1.894s-2.776.94-3.841,1.3c-1.073.337-1.929.559-2.506.732S0,49.4,0,49.4" transform="translate(118.682 16.201)" fill="none" stroke="#fff" stroke-miterlimit="10" stroke-width="0.517"></path><path id="Path_3299" data-name="Path 3299" d="M54.649,39.485s-.262-.062-.758-.173c-.248-.058-.55-.129-.909-.208-.355-.1-.758-.213-1.215-.341-.909-.266-2.018-.559-3.278-.945-1.242-.435-2.661-.883-4.182-1.437a88.942,88.942,0,0,1-20.9-11.194A88.118,88.118,0,0,1,6.236,8.826C5.233,7.548,4.3,6.4,3.557,5.3S2.1,3.309,1.605,2.5C.585.909,0,0,0,0" transform="translate(15.833 11.061)" fill="none" stroke="#fff" stroke-miterlimit="10" stroke-width="0.517"></path><g id="Group_951" data-name="Group 951" transform="translate(55.34 63.248)"><path id="Path_3300" data-name="Path 3300" d="M55.873,4.142s-.874.155-2.4.43c-.767.124-1.69.324-2.759.461s-2.28.288-3.6.457a108.009,108.009,0,0,1-19.443.364,105.9,105.9,0,0,1-19.2-3.211L4.972,1.65C3.929,1.362,3.047,1.02,2.311.785.843.288,0,0,0,0" transform="translate(0 0)" fill="none" stroke="#fff" stroke-miterlimit="10" stroke-width="0.517"></path></g><g id="Group_952" data-name="Group 952" transform="translate(79.813 43.06)"><path id="Path_3301" data-name="Path 3301" d="M45.308,0s-2.63,1.224-6.737,2.634A83.719,83.719,0,0,1,23.12,6.364a85.568,85.568,0,0,1-15.9.789c-1.091-.009-2.08-.142-2.963-.191-.878-.071-1.65-.111-2.28-.182C.719,6.622,0,6.528,0,6.528" transform="translate(0 0)" fill="none" stroke="#fff" stroke-miterlimit="10" stroke-width="0.517"></path></g></g><path id="Path_3302" data-name="Path 3302" d="M0,0S3.136.319,6.143.488c3.078.129,6.045.1,6.045.1l.244.231c.155.155.39.373.705.639.616.537,1.5,1.3,2.563,2.218.523.466,1.113.945,1.752,1.437s1.3,1.02,1.987,1.561,1.419,1.078,2.173,1.61l2.275,1.614c1.548,1.051,3.14,2.036,4.612,2.985,1.521.874,2.94,1.69,4.156,2.39,2.5,1.282,4.16,2.138,4.16,2.138s.058.155.16.435.262.652.444,1.109c.373.918.887,2.155,1.428,3.4.275.625.554,1.251.812,1.836.279.572.537,1.1.758,1.561.461.918.767,1.53.767,1.53s.559.222,1.539.6c.971.408,2.4.869,4.107,1.45a111.528,111.528,0,0,0,12.764,3.428,111.933,111.933,0,0,0,13.079,1.81c1.8.133,3.291.266,4.337.266,1.047.027,1.645.044,1.645.044" transform="translate(33.733 74.54)" fill="none" stroke="#fff" stroke-miterlimit="10" stroke-width="0.517"></path><path id="Path_3303" data-name="Path 3303" d="M92.351,72.557l-.86.022c-.275,0-.608.027-.989.022s-.812-.022-1.282-.035c-.94-.04-2.04-.018-3.211-.106s-2.417-.173-3.663-.288c-1.242-.155-2.479-.315-3.641-.461-1.153-.2-2.226-.4-3.149-.563-.927-.142-1.676-.359-2.213-.47l-.834-.2s-1.2-2.4-2.164-4.905c-.492-1.242-.954-2.435-1.264-3.371s-.506-1.561-.506-1.561l-.727-.244c-.466-.177-1.184-.355-2.04-.723a68.153,68.153,0,0,1-7.065-3.136A70.376,70.376,0,0,1,39.929,42.576a71.6,71.6,0,0,1-7.881-9.784,68.124,68.124,0,0,1-5.331-9.553c-.333-.727-.648-1.428-.949-2.093-.266-.678-.519-1.322-.754-1.929-.51-1.2-.834-2.284-1.14-3.167-.151-.439-.288-.834-.4-1.18s-.182-.643-.253-.883c-.133-.479-.208-.736-.208-.736l-1.024-.377c-.643-.248-1.619-.6-2.7-1.078a76.694,76.694,0,0,1-8.036-4.018c-.723-.412-1.455-.843-2.173-1.273-.7-.435-1.375-.878-2.036-1.317-1.317-.878-2.568-1.743-3.623-2.51C1.375,1.131,0,0,0,0" transform="translate(24.53 6.191)" fill="none" stroke="#fff" stroke-miterlimit="10" stroke-width="0.517"></path><path id="Path_3304" data-name="Path 3304" d="M0,72.509l1.379-.461c.86-.342,2.093-.829,3.566-1.415a83.323,83.323,0,0,0,10.334-5.371,74.469,74.469,0,0,0,9.416-6.879c.6-.519,1.153-1,1.645-1.419s.878-.834,1.22-1.149c.674-.639,1.056-1.007,1.056-1.007s.643.093,1.6.2,2.222.2,3.521.279,2.63.142,3.6.142c.989,0,1.645,0,1.645,0s.226-.262.625-.718q.3-.346.718-.825c.262-.333.554-.71.874-1.118,1.313-1.614,2.954-3.854,4.488-6.165.373-.585.75-1.166,1.118-1.743s.736-1.14,1.047-1.707c.639-1.131,1.268-2.169,1.756-3.087.949-1.849,1.579-3.082,1.579-3.082s.248-.058.656-.177l1.707-.514c.71-.217,1.543-.483,2.439-.785s1.872-.63,2.8-1c1.876-.727,3.8-1.521,5.225-2.16l2.337-1.118.439-1.3c.133-.412.319-.909.488-1.49s.35-1.242.554-1.956.426-1.495.656-2.315c.191-.834.395-1.712.608-2.617.457-1.809.785-3.77,1.131-5.726.2-.976.31-1.965.43-2.936s.244-1.925.364-2.852c.146-1.858.279-3.592.395-5.078.075-2.98.124-4.967.124-4.967" transform="translate(140.21 0.004)" fill="none" stroke="#fff" stroke-miterlimit="10" stroke-width="0.517"></path><path id="Path_3305" data-name="Path 3305" d="M34.966,0s-.013.461-.031,1.264c-.013.4-.027.891-.04,1.45-.04.559-.089,1.193-.137,1.88-.168,2.759-.568,6.426-1.158,10.067q-.246,1.364-.483,2.71c-.08.448-.16.891-.24,1.326-.1.435-.2.865-.288,1.286-.4,1.685-.727,3.264-1.1,4.6-.758,2.661-1.26,4.439-1.26,4.439s1.229,2.723,2.382,5.624c.6,1.45,1.069,2.9,1.464,4.014.377,1.118.625,1.867.625,1.867l-.244.617c-.16.4-.381.993-.723,1.721s-.732,1.623-1.193,2.643c-.231.51-.479,1.051-.741,1.623-.284.559-.581,1.149-.891,1.765-.639,1.22-1.286,2.568-2.062,3.943s-1.619,2.807-2.484,4.3c-.927,1.45-1.889,2.945-2.865,4.471-1.033,1.481-2.1,2.976-3.171,4.471A114.416,114.416,0,0,1,6.91,81.121C2.9,84.9,0,87.149,0,87.149" transform="translate(187.438 2.807)" fill="none" stroke="#fff" stroke-miterlimit="10" stroke-width="0.517"></path><path id="Path_3306" data-name="Path 3306" d="M29.985,0s-.089,1.135-.217,2.843c-.04.856-.191,1.84-.324,2.9s-.253,2.191-.483,3.309-.368,2.249-.616,3.286-.461,2.009-.656,2.838-.417,1.508-.541,1.987-.213.754-.213.754-.922.412-2.289.976c-1.415.55-3.291,1.233-5.127,1.832-1.858.6-3.761,1.087-5.131,1.428-.692.173-1.255.306-1.676.386s-.647.129-.647.129-.146.315-.395.869c-.266.55-.568,1.366-1.078,2.284s-.989,2.04-1.676,3.153c-.324.568-.661,1.153-1,1.752-.359.585-.75,1.162-1.122,1.756-.718,1.2-1.579,2.3-2.32,3.384-.763,1.064-1.561,2-2.191,2.834C.914,40.292,0,41.352,0,41.352" transform="translate(165.707 4.488)" fill="none" stroke="#fff" stroke-miterlimit="10" stroke-width="0.517"></path><path id="Path_3307" data-name="Path 3307" d="M32.544,60.1s-.674-.945-1.681-2.364c-.519-.7-1.038-1.574-1.637-2.484-.577-.923-1.242-1.876-1.809-2.887-1.162-2.009-2.333-4.014-3.091-5.584-.395-.776-.727-1.419-.958-1.872s-.359-.714-.359-.714-1.082-.421-2.728-1.109-3.876-1.65-6.027-2.759c-1.087-.545-2.182-1.113-3.211-1.659S9.1,37.574,8.289,37.1C6.684,36.154,5.6,35.48,5.6,35.48S5.411,34.948,5.118,34C4.848,33.054,4.462,31.7,4,30.07c-.115-.408-.235-.834-.355-1.273s-.213-.9-.324-1.375c-.217-.945-.448-1.943-.687-2.971s-.444-2.1-.639-3.2-.39-2.2-.59-3.313c-.324-2.231-.6-4.471-.838-6.568C.4,9.269.235,7.3.142,5.619.058,2.249,0,0,0,0" fill="none" stroke="#fff" stroke-miterlimit="10" stroke-width="0.517"></path><path id="Path_3308" data-name="Path 3308" d="M83.45,0,81.991.838c-.918.554-2.284,1.242-3.916,2.08A113.775,113.775,0,0,1,65.736,8.285c-2.324.772-4.621,1.628-6.843,2.213-1.1.311-2.173.612-3.184.9-1.024.24-1.991.466-2.887.679s-1.716.395-2.444.559-1.37.253-1.9.355c-1.056.191-1.654.3-1.654.3l-1.441,1.752c-.878,1.047-2.089,2.368-3.349,3.725s-2.563,2.7-3.575,3.646l-1.7,1.61-1.588.12c-1.011.1-2.453.124-4.182.169-.865.022-1.805.04-2.794.067s-2.036-.031-3.118-.053l-3.335-.093c-1.135-.067-2.288-.16-3.442-.244s-2.306-.155-3.442-.3-2.244-.284-3.322-.417c-2.16-.244-4.151-.639-5.863-.936-.856-.16-1.641-.3-2.333-.43-.687-.155-1.291-.293-1.787-.4C.568,21.275,0,21.142,0,21.142" transform="translate(87.41 96.405)" fill="none" stroke="#fff" stroke-miterlimit="10" stroke-width="0.517"></path></g><g id="Group_958" data-name="Group 958" transform="translate(7.952 0)"><g id="Group_957" data-name="Group 957" transform="translate(16.241 16.423)"><path id="Path_3309" data-name="Path 3309" d="M0,17.075l.448-.319c.3-.2.71-.528,1.282-.878s1.251-.8,2.036-1.3,1.668-1.082,2.674-1.637A94.8,94.8,0,0,1,21.621,5.668a98.82,98.82,0,0,1,16.21-4.533C38.962.936,40,.75,40.918.585,41.84.439,42.652.355,43.313.266L45.4,0" transform="translate(34.824 6.819)" fill="none" stroke="#fff" stroke-miterlimit="10" stroke-width="0.517"></path><path id="Path_3310" data-name="Path 3310" d="M0,0S.337.08.945.3s1.508.51,2.648.9C4.741,1.552,6.1,2.1,7.659,2.719c1.574.581,3.286,1.393,5.167,2.24a96.686,96.686,0,0,1,12.281,6.9,99.874,99.874,0,0,1,12.675,10A97.608,97.608,0,0,1,56.4,45.561c.532.887.976,1.77,1.4,2.608s.834,1.632,1.215,2.377c.718,1.512,1.3,2.856,1.8,3.952s.807,1.991,1.056,2.586.364.918.364.918" transform="translate(119.467 11.379)" fill="none" stroke="#fff" stroke-miterlimit="10" stroke-width="0.517"></path><path id="Path_3311" data-name="Path 3311" d="M0,2.726s.758-.173,2.084-.479c.665-.137,1.464-.373,2.4-.523.936-.169,1.987-.355,3.136-.559a93.417,93.417,0,0,1,34.057.869c1.14.262,2.182.5,3.1.718s1.712.475,2.368.648l2.058.585" transform="translate(68.632 12.675)" fill="none" stroke="#fff" stroke-miterlimit="10" stroke-width="0.517"></path><path id="Path_3312" data-name="Path 3312" d="M0,42.009l.408-.7,1.237-1.929c.532-.834,1.166-1.849,1.982-2.958s1.672-2.4,2.745-3.712q.785-1,1.632-2.076c.6-.692,1.215-1.4,1.849-2.138.319-.368.639-.736.962-1.113.342-.359.687-.727,1.038-1.1q1.058-1.1,2.155-2.253a102.012,102.012,0,0,1,10.028-8.657A102.222,102.222,0,0,1,35.2,8.245c1.889-.945,3.681-1.943,5.468-2.7.883-.395,1.739-.794,2.577-1.158L45.7,3.419c1.561-.652,3.047-1.109,4.346-1.557,1.3-.466,2.453-.781,3.4-1.047s1.694-.483,2.2-.625S56.44,0,56.44,0" transform="translate(12.196 15.401)" fill="none" stroke="#fff" stroke-miterlimit="10" stroke-width="0.517"></path><path id="Path_3313" data-name="Path 3313" d="M0,49.4s.643-1.113,1.77-3.056c.608-.945,1.344-2.093,2.186-3.411S5.863,40.2,6.967,38.625c.55-.789,1.2-1.557,1.832-2.382.652-.807,1.286-1.676,2.009-2.51,1.446-1.668,2.936-3.455,4.63-5.167,1.628-1.774,3.464-3.455,5.287-5.2,1.907-1.654,3.814-3.375,5.863-4.927,1.991-1.623,4.12-3.065,6.182-4.524,2.129-1.366,4.2-2.741,6.315-3.9,2.067-1.242,4.16-2.257,6.125-3.269.985-.5,1.978-.914,2.918-1.353.949-.417,1.854-.865,2.75-1.211,1.8-.7,3.424-1.388,4.905-1.894s2.776-.94,3.841-1.3C60.7.648,61.554.426,62.131.253S63.018,0,63.018,0" transform="translate(0 3.786)" fill="none" stroke="#fff" stroke-miterlimit="10" stroke-width="0.517"></path><path id="Path_3314" data-name="Path 3314" d="M0,0S.262.062.758.173c.248.058.55.129.909.208.355.1.758.213,1.215.341.909.266,2.018.559,3.277.945C7.4,2.1,8.821,2.55,10.343,3.1A88.944,88.944,0,0,1,31.24,14.3,88.119,88.119,0,0,1,48.413,30.659c1,1.277,1.938,2.43,2.679,3.526s1.459,1.991,1.951,2.8c1.02,1.592,1.605,2.5,1.605,2.5" transform="translate(111.218 18.834)" fill="none" stroke="#fff" stroke-miterlimit="10" stroke-width="0.517"></path><g id="Group_955" data-name="Group 955" transform="translate(70.486 0)"><path id="Path_3315" data-name="Path 3315" d="M0,1.99s.874-.155,2.4-.43c.767-.124,1.69-.324,2.759-.461S7.438.81,8.759.641A108.008,108.008,0,0,1,28.2.278a105.911,105.911,0,0,1,19.2,3.211l3.495.993c1.042.288,1.925.63,2.661.865,1.468.5,2.311.785,2.311.785" transform="translate(0 0)" fill="none" stroke="#fff" stroke-miterlimit="10" stroke-width="0.517"></path></g><g id="Group_956" data-name="Group 956" transform="translate(56.582 19.077)"><path id="Path_3316" data-name="Path 3316" d="M0,7.244S2.63,6.02,6.737,4.609A83.711,83.711,0,0,1,22.189.879,85.562,85.562,0,0,1,38.093.09c1.091.009,2.08.142,2.963.191.878.071,1.65.111,2.28.182,1.255.16,1.974.253,1.974.253" transform="translate(0 0)" fill="none" stroke="#fff" stroke-miterlimit="10" stroke-width="0.517"></path></g></g><path id="Path_3317" data-name="Path 3317" d="M78.655,34.877s-3.136-.319-6.143-.488c-3.078-.129-6.045-.1-6.045-.1l-.244-.231c-.155-.155-.39-.373-.705-.639-.616-.537-1.5-1.3-2.563-2.218-.523-.47-1.113-.945-1.752-1.437s-1.3-1.02-1.987-1.561S57.8,27.129,57.044,26.6l-2.275-1.614c-1.548-1.051-3.14-2.036-4.612-2.985-1.521-.874-2.94-1.69-4.156-2.39-2.5-1.282-4.16-2.138-4.16-2.138s-.058-.155-.16-.435-.262-.652-.444-1.109c-.373-.918-.887-2.155-1.428-3.4-.275-.625-.554-1.251-.812-1.836-.279-.572-.537-1.1-.758-1.561-.461-.918-.767-1.53-.767-1.53s-.559-.222-1.539-.6c-.971-.408-2.4-.869-4.107-1.45A111.526,111.526,0,0,0,19.062,2.12,111.93,111.93,0,0,0,5.983.31C4.187.177,2.692.044,1.645.044.6.018,0,0,0,0" transform="translate(110.02 11.365)" fill="none" stroke="#fff" stroke-miterlimit="10" stroke-width="0.517"></path><path id="Path_3318" data-name="Path 3318" d="M0,.042.86.02c.275,0,.608-.027.989-.018s.812.022,1.282.035c.94.04,2.04.018,3.211.106s2.417.173,3.663.288c1.242.155,2.479.315,3.641.461,1.153.2,2.226.4,3.149.563.927.142,1.676.359,2.213.47l.838.2s1.2,2.4,2.164,4.905c.492,1.242.953,2.435,1.264,3.371s.506,1.561.506,1.561l.727.244c.466.177,1.184.355,2.04.723a68.162,68.162,0,0,1,7.065,3.136A70.375,70.375,0,0,1,52.427,30.027a71.6,71.6,0,0,1,7.881,9.784,68.379,68.379,0,0,1,5.331,9.553c.333.727.648,1.428.949,2.093q.4,1.018.754,1.929c.51,1.2.834,2.284,1.14,3.167.151.439.288.834.4,1.18s.182.643.253.883c.133.479.208.736.208.736l1.025.377c.643.248,1.619.6,2.7,1.078a76.7,76.7,0,0,1,8.036,4.018c.727.412,1.455.843,2.173,1.273.7.435,1.375.878,2.036,1.317,1.317.878,2.568,1.743,3.623,2.51,2.04,1.548,3.415,2.679,3.415,2.679" transform="translate(105.527 41.991)" fill="none" stroke="#fff" stroke-miterlimit="10" stroke-width="0.517"></path><path id="Path_3319" data-name="Path 3319" d="M71.537,0,70.158.461c-.86.341-2.093.829-3.566,1.415A83.32,83.32,0,0,0,56.259,7.247a74.459,74.459,0,0,0-9.416,6.879c-.6.519-1.153,1-1.645,1.419s-.878.834-1.22,1.149c-.674.639-1.056,1.007-1.056,1.007s-.643-.093-1.6-.2-2.222-.2-3.521-.279-2.63-.142-3.6-.142c-.989,0-1.645,0-1.645,0s-.226.262-.625.718q-.3.346-.718.825c-.262.333-.554.71-.874,1.118-1.313,1.614-2.954,3.854-4.488,6.165-.373.585-.75,1.166-1.118,1.743s-.732,1.14-1.047,1.708c-.639,1.131-1.268,2.169-1.756,3.087-.949,1.849-1.579,3.082-1.579,3.082s-.248.058-.656.177l-1.708.514c-.71.217-1.543.483-2.439.785s-1.872.63-2.8,1c-1.876.727-3.8,1.521-5.224,2.16L5.189,41.277l-.439,1.3c-.133.412-.319.909-.488,1.49s-.35,1.242-.554,1.956-.426,1.495-.656,2.315c-.2.834-.395,1.712-.608,2.617-.457,1.81-.785,3.77-1.131,5.726-.2.976-.31,1.965-.43,2.936S.639,61.536.519,62.463C.373,64.321.239,66.056.124,67.541.049,70.522,0,72.509,0,72.509" transform="translate(10.662 48.269)" fill="none" stroke="#fff" stroke-miterlimit="10" stroke-width="0.517"></path><path id="Path_3320" data-name="Path 3320" d="M0,87.149s.013-.461.031-1.264c.013-.4.027-.891.04-1.45.04-.559.089-1.193.137-1.88C.377,79.8.776,76.128,1.366,72.486q.246-1.364.483-2.71c.08-.448.16-.891.239-1.326.1-.435.2-.865.288-1.286.4-1.685.727-3.264,1.1-4.6.758-2.661,1.26-4.439,1.26-4.439S3.5,55.4,2.351,52.5c-.6-1.45-1.069-2.9-1.464-4.014C.51,47.371.262,46.621.262,46.621L.506,46c.16-.4.381-.993.723-1.721s.732-1.623,1.193-2.643c.231-.51.479-1.051.741-1.623.284-.559.581-1.149.891-1.765.639-1.22,1.286-2.568,2.062-3.943S7.739,31.5,8.6,30.008c.927-1.45,1.889-2.945,2.865-4.471,1.033-1.481,2.1-2.976,3.171-4.471A114.43,114.43,0,0,1,28.056,6.027C32.065,2.253,34.966,0,34.966,0" transform="translate(0 30.826)" fill="none" stroke="#fff" stroke-miterlimit="10" stroke-width="0.517"></path><path id="Path_3321" data-name="Path 3321" d="M0,41.352s.089-1.135.217-2.843c.04-.856.191-1.841.324-2.9s.253-2.191.483-3.309.368-2.249.616-3.286S2.107,27,2.3,26.176s.417-1.508.541-1.987.213-.754.213-.754.923-.412,2.288-.976c1.415-.55,3.291-1.233,5.127-1.832,1.858-.6,3.761-1.087,5.131-1.428.692-.173,1.255-.306,1.676-.386s.648-.129.648-.129.146-.315.395-.869c.266-.55.568-1.366,1.078-2.284s.989-2.04,1.676-3.153c.324-.568.661-1.153,1-1.752.359-.585.75-1.162,1.122-1.756.718-1.2,1.579-2.3,2.32-3.384.763-1.064,1.561-2,2.191-2.834C29.072,1.06,29.985,0,29.985,0" transform="translate(26.717 74.946)" fill="none" stroke="#fff" stroke-miterlimit="10" stroke-width="0.517"></path><path id="Path_3322" data-name="Path 3322" d="M0,0S.674.945,1.681,2.364c.519.7,1.038,1.574,1.637,2.484.577.922,1.242,1.876,1.809,2.887,1.162,2.009,2.333,4.014,3.091,5.584.395.776.727,1.419.958,1.872s.359.714.359.714,1.082.421,2.727,1.109,3.876,1.65,6.027,2.759c1.087.546,2.182,1.113,3.211,1.659s1.943,1.1,2.754,1.566c1.605.949,2.688,1.623,2.688,1.623s.191.532.483,1.477c.27.949.656,2.306,1.122,3.934.115.408.235.834.355,1.273s.213.9.324,1.375c.217.945.448,1.943.687,2.971s.443,2.1.639,3.2.39,2.2.59,3.313c.324,2.231.6,4.471.838,6.568.164,2.1.328,4.067.421,5.752.084,3.371.142,5.619.142,5.619" transform="translate(189.864 60.683)" fill="none" stroke="#fff" stroke-miterlimit="10" stroke-width="0.517"></path><path id="Path_3323" data-name="Path 3323" d="M0,24.377l1.459-.838c.918-.554,2.284-1.242,3.916-2.08a113.771,113.771,0,0,1,12.338-5.366c2.324-.772,4.621-1.628,6.843-2.213,1.1-.31,2.173-.612,3.184-.9,1.024-.239,1.991-.466,2.887-.679s1.716-.395,2.444-.559,1.37-.253,1.9-.355c1.056-.191,1.654-.3,1.654-.3l1.441-1.752c.878-1.047,2.089-2.368,3.348-3.725s2.563-2.7,3.575-3.646l1.7-1.61,1.588-.12c1.011-.1,2.453-.124,4.182-.169C53.323.047,54.263.029,55.252,0s2.036.031,3.118.053L61.7.149c1.135.067,2.288.16,3.442.244s2.306.155,3.442.3,2.244.284,3.322.417c2.16.244,4.151.639,5.863.936.856.16,1.641.3,2.333.43.687.155,1.291.293,1.787.4.989.226,1.557.359,1.557.359" transform="translate(51.549 0)" fill="none" stroke="#fff" stroke-miterlimit="10" stroke-width="0.517"></path></g></g></g></g></g><path id="XMLID_68_" d="M3.666,2.047.317,1.7A.354.354,0,0,1,0,1.306L.1.317A.354.354,0,0,1,.495,0l3.348.35a.354.354,0,0,1,.315.39l-.1.989A.354.354,0,0,1,3.666,2.047Z" transform="translate(128.698 11.123)" fill="#5ec0d9"></path><path id="XMLID_67_" d="M3.972,1.652.747,2.623A.355.355,0,0,1,.3,2.384L.016,1.43A.355.355,0,0,1,.255.987L3.479.016a.355.355,0,0,1,.443.239l.288.954A.362.362,0,0,1,3.972,1.652Z" transform="translate(85.319 25.746)" fill="#5ec0d9"></path><path id="XMLID_66_" d="M.788,4.864.008.757A.446.446,0,0,1,.358.238L1.573.008a.446.446,0,0,1,.519.35l.781,4.107a.446.446,0,0,1-.35.519l-1.215.231A.438.438,0,0,1,.788,4.864Z" transform="translate(2.884 144.706)" fill="#5ec0d9"></path><path id="XMLID_65_" d="M3.345,1.722.3,1.544A.32.32,0,0,1,0,1.2L.054.3A.32.32,0,0,1,.4,0L3.438.178a.32.32,0,0,1,.3.342l-.053.9A.323.323,0,0,1,3.345,1.722Z" transform="translate(109.35 211.451)" fill="#5ec0d9"></path><path id="XMLID_64_" d="M0,3.3.533.271A.326.326,0,0,1,.91,0l.9.155a.326.326,0,0,1,.266.377L1.544,3.566a.327.327,0,0,1-.377.266l-.9-.155A.329.329,0,0,1,0,3.3Z" transform="translate(210.309 135.355)" fill="#5ec0d9"></path><path id="XMLID_63_" d="M2.406,3.284l-2.3-2.04A.323.323,0,0,1,.082.787l.6-.679A.328.328,0,0,1,1.146.082l2.3,2.04a.323.323,0,0,1,.027.457l-.6.679A.333.333,0,0,1,2.406,3.284Z" transform="translate(180.979 48.174)" fill="#5ec0d9"></path><path id="XMLID_62_" d="M.141,1.8,2.673.058a.323.323,0,0,1,.452.084l.514.75a.323.323,0,0,1-.084.452L1.024,3.087A.323.323,0,0,1,.571,3l-.514-.75A.327.327,0,0,1,.141,1.8Z" transform="translate(174.059 205.025)" fill="#5ec0d9"></path><path id="XMLID_61_" d="M3.2,1.084,1.3,3.506a.325.325,0,0,1-.457.058L.126,3a.325.325,0,0,1-.058-.457L1.962.126A.325.325,0,0,1,2.419.069l.718.559A.325.325,0,0,1,3.2,1.084Z" transform="translate(23.876 47.735)" fill="#5ec0d9"></path><path id="XMLID_60_" d="M2.173,1.087A1.087,1.087,0,1,1,1.087,0,1.088,1.088,0,0,1,2.173,1.087Z" transform="translate(42.887 29.699)" fill="#5ebfd9"></path><path id="XMLID_59_" d="M2.173,1.087A1.087,1.087,0,1,1,1.087,0,1.088,1.088,0,0,1,2.173,1.087Z" transform="translate(143.261 26.542)" fill="#5ebfd9"></path><path id="XMLID_58_" d="M2.173,1.087A1.087,1.087,0,1,1,1.087,0,1.088,1.088,0,0,1,2.173,1.087Z" transform="translate(23.909 69.083)" fill="#5ebfd9"></path><path id="XMLID_31_" d="M2.173,1.087A1.087,1.087,0,1,1,1.087,0,1.088,1.088,0,0,1,2.173,1.087Z" transform="translate(197.413 58.709)" fill="#5ebfd9"></path><path id="XMLID_30_" d="M2.173,1.087A1.087,1.087,0,1,1,1.087,0,1.088,1.088,0,0,1,2.173,1.087Z" transform="translate(151.377 21.708)" fill="#5ebfd9"></path><path id="XMLID_29_" d="M2.173,1.087A1.087,1.087,0,1,1,1.087,0,1.088,1.088,0,0,1,2.173,1.087Z" transform="translate(194.304 165.917)" fill="#5ebfd9"></path><path id="XMLID_28_" d="M2.173,1.087A1.087,1.087,0,1,1,1.087,0,1.088,1.088,0,0,1,2.173,1.087Z" transform="translate(195.701 123.447)" fill="#5ebfd9"></path><path id="XMLID_27_" d="M2.173,1.087A1.087,1.087,0,1,1,1.087,0,1.088,1.088,0,0,1,2.173,1.087Z" transform="translate(117.502 198.444)" fill="#5ebfd9"></path><path id="XMLID_26_" d="M2.173,1.087A1.087,1.087,0,1,1,1.087,0,1.088,1.088,0,0,1,2.173,1.087Z" transform="translate(79.281 217.621)" fill="#5ebfd9"></path><path id="XMLID_25_" d="M2.173,1.087A1.087,1.087,0,1,1,1.087,0,1.088,1.088,0,0,1,2.173,1.087Z" transform="translate(125.157 217.302)" fill="#5ebfd9"></path><path id="XMLID_24_" d="M2.173,1.087A1.087,1.087,0,1,1,1.087,0,1.088,1.088,0,0,1,2.173,1.087Z" transform="translate(186.738 210.135)" fill="#5ebfd9"></path><path id="XMLID_23_" d="M2.173,1.087A1.087,1.087,0,1,1,1.087,0,1.088,1.088,0,0,1,2.173,1.087Z" transform="translate(0 118.746)" fill="#5ebfd9"></path><path id="XMLID_21_" d="M2.173,1.087A1.087,1.087,0,1,1,1.087,0,1.088,1.088,0,0,1,2.173,1.087Z" transform="translate(33.041 180.628)" fill="#5ebfd9"></path><path id="XMLID_17_" d="M2.173,1.087A1.087,1.087,0,1,1,1.087,0,1.088,1.088,0,0,1,2.173,1.087Z" transform="translate(32.695 194.022)" fill="none" stroke="#fff" stroke-miterlimit="10" stroke-width="0.517"></path><path id="XMLID_16_" d="M2.173,1.087A1.087,1.087,0,1,1,1.087,0,1.088,1.088,0,0,1,2.173,1.087Z" transform="translate(23.714 125.168)" fill="none" stroke="#fff" stroke-miterlimit="10" stroke-width="0.517"></path><path id="XMLID_15_" d="M2.173,1.087A1.087,1.087,0,1,1,1.087,0,1.088,1.088,0,0,1,2.173,1.087Z" transform="translate(91.167 46.624)" fill="none" stroke="#fff" stroke-miterlimit="10" stroke-width="0.517"></path><path id="XMLID_14_" d="M2.173,1.087A1.087,1.087,0,1,1,1.087,0,1.088,1.088,0,0,1,2.173,1.087Z" transform="translate(143.953 2.561)" fill="none" stroke="#fff" stroke-miterlimit="10" stroke-width="0.517"></path><path id="XMLID_13_" d="M2.173,1.087A1.087,1.087,0,1,1,1.087,0,1.088,1.088,0,0,1,2.173,1.087Z" transform="translate(112.499 40.991)" fill="none" stroke="#fff" stroke-miterlimit="10" stroke-width="0.517"></path><path id="XMLID_6_" d="M2.173,1.087A1.087,1.087,0,1,1,1.087,0,1.088,1.088,0,0,1,2.173,1.087Z" transform="translate(197.692 45.284)" fill="none" stroke="#fff" stroke-miterlimit="10" stroke-width="0.517"></path><path id="XMLID_5_" d="M2.173,1.087A1.087,1.087,0,1,1,1.087,0,1.088,1.088,0,0,1,2.173,1.087Z" transform="translate(190.609 74.564)" fill="none" stroke="#fff" stroke-miterlimit="10" stroke-width="0.517"></path><path id="XMLID_4_" d="M2.173,1.087A1.087,1.087,0,1,1,1.087,0,1.088,1.088,0,0,1,2.173,1.087Z" transform="translate(222.32 121.549)" fill="none" stroke="#fff" stroke-miterlimit="10" stroke-width="0.517"></path><path id="XMLID_3_" d="M2.173,1.087A1.087,1.087,0,1,1,1.087,0,1.088,1.088,0,0,1,2.173,1.087Z" transform="translate(206.292 85.648)" fill="none" stroke="#fff" stroke-miterlimit="10" stroke-width="0.517"></path><path id="XMLID_2_" d="M2.173,1.087A1.087,1.087,0,1,1,1.087,0,1.088,1.088,0,0,1,2.173,1.087Z" transform="translate(139.349 192.599)" fill="none" stroke="#fff" stroke-miterlimit="10" stroke-width="0.517"></path></g></svg>