<svg xmlns="http://www.w3.org/2000/svg" xmlns:xlink="http://www.w3.org/1999/xlink" id="Layer_1" x="0px" y="0px" viewBox="0 0 60 60" style="enable-background:new 0 0 60 60;" xml:space="preserve"><style type="text/css">	.st0{fill:#F15C28;}</style><g>	<path class="st0" d="M10.4,42c0.4-0.4,0.8-0.6,1.3-0.6h46.4c0.8,0,1.3,1,0.7,1.6l-9.2,9.2c-0.4,0.4-0.8,0.6-1.3,0.6H1.9  c-0.8,0-1.3-1-0.7-1.6L10.4,42z"></path>	<path class="st0" d="M10.4,7.8c0.4-0.4,0.8-0.6,1.3-0.6h46.4c0.8,0,1.3,1,0.7,1.6L49.6,18c-0.4,0.4-0.8,0.6-1.3,0.6H1.9  c-0.8,0-1.3-1-0.7-1.6L10.4,7.8z"></path>	<path class="st0" d="M49.6,24.8c-0.4-0.4-0.8-0.6-1.3-0.6H1.9c-0.8,0-1.3,1-0.7,1.6l9.2,9.2c0.4,0.4,0.8,0.6,1.3,0.6h46.4  c0.8,0,1.3-1,0.7-1.6L49.6,24.8z"></path></g></svg>