<svg xmlns="http://www.w3.org/2000/svg" xmlns:xlink="http://www.w3.org/1999/xlink" id="Layer_1" x="0px" y="0px" viewBox="0 0 60 60" style="enable-background:new 0 0 60 60;" xml:space="preserve"><style type="text/css">	.st0{fill:#F15C28;}</style><g id="Layer_2_1_">	<g id="Layer_1-2">		<path class="st0" d="M50.9,11.9l-7,3.6L10,32.7c-0.2-0.9-0.2-1.8-0.2-2.7C9.8,18.9,18.9,9.8,30,9.8c3.4,0,6.8,0.9,9.8,2.5l4.1-2   l0.7-0.2C33.4,2.1,18,4.6,10,15.5C7.1,19.8,5.3,24.8,5.3,30c0,0.7,0,1.4,0,1.8c0.2,1.8-0.9,3.4-2.5,4.3l-2,1.1v5l6.1-3.2l0,0   l2-1.1l2-0.9l0,0l35.6-18.1l4.1-2l8.4-4.3v-5L50.9,11.9z"></path>		<path class="st0" d="M59,17.8L13.2,41.1l-4.1,2L1,47.5v5l8.2-4.1l7-3.6L50,27.5c0.2,0.9,0.2,1.8,0.2,2.7   c0,11.1-9.1,20.2-20.2,20.2c-3.4,0-6.8-0.9-9.8-2.5l-0.5-0.2L15.5,50C26.6,57.9,42,55.4,50,44.5c2.9-4.3,4.8-9.3,4.8-14.5   c0-0.7,0-1.4,0-1.8c-0.2-1.8,0.9-3.4,2.5-4.3l2-1.1v-5H59z"></path>	</g></g></svg>