<svg xmlns="http://www.w3.org/2000/svg" xmlns:xlink="http://www.w3.org/1999/xlink" id="Layer_1" x="0px" y="0px" viewBox="0 0 500 500" style="enable-background:new 0 0 500 500;" xml:space="preserve"><style type="text/css">	.st0{fill:#F15B24;stroke:#F15B24;stroke-width:3;stroke-miterlimit:10;}	.st1{fill:#F15B24;}</style><g>	<path class="st0" d="M93.81,481.91c-15.41,0-30.82,0.02-46.22-0.01c-6.17-0.01-8.17-1.86-8.89-7.72  c-3.95-32.18-7.93-64.35-11.87-96.53c-3.05-24.88-6.08-49.77-9.09-74.65c-1.01-8.3,1.46-11.27,9.74-11.31  c19.09-0.09,38.18-0.08,57.28,0c7.62,0.03,9.27,1.37,11.49,8.52c1.63,5.28,3.43,10.51,4.77,15.86c1.1,4.39,3.13,4.63,6.84,2.85  c6.45-3.11,11.87-7.52,16.95-12.4c14.06-13.5,30.69-21.91,49.87-25.21c20.61-3.54,40.39-0.63,59.03,8.72  c10.91,5.47,22.17,8.24,34.35,7.7c6.18-0.28,12.44-0.55,18.58,0.06c12.03,1.19,22.74-1.7,32.7-8.41c4.29-2.89,9.04-5.09,13.61-7.55  c15.8-8.53,31.36-8.36,46.54,1.48c2.29,1.48,4.13,2.15,6.83,0.68c13.62-7.41,26.23-4.7,37.64,4.75c2.99,2.48,4.98,3.11,8.66,1.38  c16.62-7.8,36.75-2.16,47.3,12.83c3.99,5.68,3.45,9.04-2.34,13.01c-45.13,31-90.17,62.15-135.49,92.87  c-12.89,8.74-27.98,11.64-43.34,12.74c-17.79,1.28-34.86-3.5-52.12-6.52c-18.61-3.26-37.14-6.94-55.73-10.28  c-5.8-1.04-11.31,0.21-16.34,3.39c-11.46,7.25-22.9,14.54-34.44,21.67c-2.73,1.69-3.46,3.35-2.42,6.54  c3.66,11.3,7.01,22.7,10.42,34.08c2.56,8.56,0.37,11.47-8.57,11.48C124.29,481.92,109.05,481.91,93.81,481.91z M299.18,408.12  c10.13-0.19,25.76-3.32,39.66-13.05c16.32-11.43,32.84-22.58,49.27-33.86c24.58-16.86,49.15-33.73,73.72-50.6  c4.51-3.1,4.53-4.07-0.12-6.82c-8.27-4.9-16.89-5.41-25.38-0.89c-23.06,12.27-45.99,24.76-68.99,37.15  c-1.82,0.98-3.32,1.98-3.64,4.37c-0.67,5.11-4.04,6.98-8.89,6.77c-9.86-0.42-19.74-0.64-29.59-1.29  c-17.74-1.16-35.44-1.41-53.1,0.92c-4.54,0.6-8.12-1.71-8.71-5.56c-0.59-3.84,2.22-7.1,6.84-7.63c9.97-1.16,19.94-2.16,30.01-2.1  c14.4,0.09,28.76,0.89,43.11,1.91c5.9,0.42,6.67-0.5,4.16-6.03c-6-13.24-16.57-19.94-30.88-20.27c-15.23-0.36-30.49-0.5-45.72,0.03  c-15.8,0.55-30.19-3.26-44.57-9.76c-31.86-14.4-61.95-10.72-89.06,11.92c-8.87,7.41-17.05,15.67-28.33,19.51  c-2.93,1-1.89,3.09-1.32,4.96c7.8,25.61,15.7,51.19,23.38,76.84c1.16,3.86,2.41,3.8,5.43,1.85c10.39-6.75,20.88-13.36,31.45-19.81  c7.66-4.67,15.93-6.68,24.98-4.99c17.75,3.31,35.51,6.58,53.29,9.67C261.66,404.05,276.9,408.3,299.18,408.12z M92.37,469.16  c12.05,0,24.11-0.13,36.16,0.07c4.1,0.07,5.24-0.64,3.86-5.02c-6.64-21.06-12.93-42.22-19.37-63.34  c-9.22-30.24-18.53-60.45-27.61-90.73c-1.17-3.9-2.96-5.27-7.05-5.2c-13.89,0.24-27.79,0.2-41.69,0.02  c-3.63-0.05-5.15,0.64-4.58,4.7c1.37,9.76,2.32,19.58,3.51,29.36c2.88,23.72,5.78,47.43,8.7,71.14  c2.25,18.24,4.64,36.46,6.74,54.72c0.41,3.55,1.93,4.37,5.16,4.34C68.26,469.08,80.32,469.16,92.37,469.16z M414.5,299.19  c-0.11-1.47-1.07-1.91-1.91-2.42c-6.39-3.86-12.9-5.17-19.87-1.32c-9.79,5.4-19.69,10.61-29.5,15.98  c-8.64,4.73-8.52,4.73-3.96,13.55c1.28,2.48,2.33,3.14,4.93,1.71c15.96-8.73,31.99-17.33,48-25.98  C413.03,300.27,413.8,299.66,414.5,299.19z M368.87,293.19c-11.15-7.64-25.7-4.15-38.99,6.39c4.47,1.69,8.83,3.31,12.72,5.93  c0.86,0.58,1.86,0.81,2.85,0.28C353.16,301.65,360.86,297.5,368.87,293.19z"></path>	<path class="st0" d="M382.44,233.65c-15.41,0-30.82,0.15-46.22-0.09c-4.5-0.07-6.16,1.48-5.6,5.8c0.13,0.99,0.02,2.01,0.02,3.01  c-0.03,9.23-2.03,11.28-11.16,11.28c-46.05,0.01-92.11,0.01-138.16,0c-9.8,0-11.84-2.02-11.88-11.68c0-1-0.11-2.02,0.01-3.01  c0.52-4.25-1.46-5.4-5.52-5.38c-25.96,0.14-51.91,0.07-77.87,0.07c-5.19,0-10.39,0.09-15.57-0.04c-5.45-0.13-7.68-2.31-7.71-7.67  c-0.07-14.07-0.3-28.14,0.06-42.2c0.56-21.72,22.45-42.23,43.94-41.6c2.68,0.08,4.66,1.37,6.46,3.35  c12.17,13.39,29.06,13.92,41.23,0.83c4.2-4.52,8.74-4.27,13.73-3.34c3.95,0.73,7.82,1.97,11.35,3.92c2.18,1.2,3.54,0.81,5.22-0.87  c8.73-8.72,19.29-13.54,31.58-14.93c4.08-0.46,7.09,0.47,9.8,3.54c13.88,15.72,34.23,16.03,48.74,0.68  c3.01-3.18,6.03-4.6,10.6-3.95c10.99,1.56,20.59,5.8,28.53,13.49c2.46,2.38,4.32,3.47,7.69,1.54c2.85-1.63,6.22-2.42,9.44-3.28  c6.51-1.75,11.85-1.08,17.05,4.57c10.14,11.02,27.38,10.94,37.65-0.04c4.91-5.25,9.78-5.94,16.13-4.38  c21.05,5.16,35.19,22.79,35.25,44.34c0.03,12.06,0.02,24.12,0,36.17c-0.01,8.23-1.68,9.86-10.1,9.87  C412.24,233.66,397.34,233.65,382.44,233.65z M249.81,240.1c20.59,0,41.18-0.08,61.76,0.07c4.02,0.03,5.63-1.05,5.58-5.35  c-0.2-17.91,0.02-35.82-0.13-53.73c-0.14-16.44-11.86-31.27-27.64-35.45c-2.96-0.79-5.32-0.45-7.78,1.76  c-18.35,16.49-43.03,16.68-61.36,0.26c-3.14-2.81-5.91-3.03-9.48-2.02c-15.94,4.51-27.62,19.47-27.75,36.05  c-0.14,17.57,0.08,35.15-0.13,52.72c-0.05,4.35,1.19,5.82,5.67,5.77C208.97,239.99,229.39,240.1,249.81,240.1z M377.29,220.11  c14.05,0,28.11-0.07,42.16,0.05c3.49,0.03,5.22-0.85,5.12-4.77c-0.22-8.69,0.11-17.4-0.12-26.1c-0.41-15.45-8.5-27.11-21.64-31.98  c-3.64-1.35-6.36-1.03-9.52,1.72c-15.18,13.25-37.97,13.47-52.25,0.19c-4.25-3.96-7.85-3.21-12.21-1.57  c-2.46,0.93-3.39,2.29-2.29,4.99c1.51,3.71,2.69,7.53,3.23,11.55c1.78,13.17,0.69,26.39,0.72,39.59c0.01,5.2,1.67,6.55,6.64,6.44  C350.52,219.92,363.91,220.12,377.29,220.11z M122.31,220.12c11.39,0,22.77,0,34.16,0c12.97,0,12.79,0,13.01-12.97  c0.26-15.3-1.98-30.88,4.46-45.6c0.66-1.5-0.18-2.58-1.55-3.22c-3.89-1.82-7.29-2.99-11.47,0.46  c-16.96,13.99-36.69,13.82-53.52-0.22c-2.84-2.37-5.48-2.84-8.73-1.67c-12.37,4.43-20.12,12.82-22.3,25.99  c-1.74,10.48-0.34,21.06-0.93,31.57c-0.25,4.43,1.29,5.82,5.7,5.75C94.85,219.97,108.58,220.11,122.31,220.12z"></path>	<path class="st0" d="M296.49,71.54c0.02,8.19,0.33,15.05-1.26,21.81c-5.05,21.54-24.82,36.51-47.3,35.74  c-21.44-0.74-40.22-17.4-43.47-39c-1.72-11.45-1.7-23.03,0.03-34.48c3.32-21.95,22.66-38.49,44.72-38.63  c23.2-0.14,42.37,15.63,46.43,37.89C296.74,60.89,296.29,66.88,296.49,71.54z M282.92,74.7c0-5.32,0.08-9.17-0.01-13.02  c-0.4-17.46-14.81-31.19-32.71-31.22c-18.01-0.03-32.73,13.94-33.06,31.5c-0.13,6.86-0.08,13.72-0.03,20.59  c0.12,16.43,12.14,30.72,27.58,32.84c17.35,2.38,32.51-7.5,37.28-24.19C283.67,85.26,282.56,79.21,282.92,74.7z"></path>	<path class="st0" d="M174.96,92.4c0.24,8.88,0.24,17.67-3.8,26c-7.86,16.23-25.38,26.05-42.71,23.62  c-18.59-2.61-32.89-16.59-35.59-35.07c-1.43-9.8-1.46-19.67-0.01-29.47c3.23-21.76,22.04-36.75,44.05-35.31  c21.29,1.39,37.93,19.4,38.05,41.2C174.97,86.38,174.96,89.39,174.96,92.4z M161.45,92.46c0-3.68,0.16-7.36-0.03-11.03  c-0.76-14.87-12.65-25.83-27.85-25.79c-14.83,0.04-27.29,11.51-27.9,25.98c-0.29,7.01-0.26,14.05,0,21.06  c0.43,11.63,9.01,22.01,20.41,25.16c11.64,3.21,23.73-1.25,30.59-10.82C162.09,109.48,161.65,100.98,161.45,92.46z"></path>	<path class="st0" d="M325.04,91.3c0.35-4.83-0.51-10.68,0.82-16.5c4.63-20.25,21.79-33.41,42.85-32.66  c19.04,0.67,35.57,15.8,38.43,35.44c1.43,9.8,1.43,19.67-0.02,29.47c-3.23,21.81-22.29,36.7-44.7,35.1  c-20.63-1.47-37.24-19.61-37.38-40.83C325.02,98.31,325.04,95.3,325.04,91.3z M338.51,92.23c0,3.34-0.12,6.69,0.02,10.03  c0.58,13.73,10.88,25.1,23.72,26.3c15.48,1.44,27.73-6.56,31.16-20.72c2.19-9.04,1.27-18.34,0.74-27.46  c-0.67-11.53-9.79-21.34-21.02-24.1c-11.61-2.86-23.57,1.95-30.27,11.76C337.74,75.52,338.45,83.9,338.51,92.23z"></path>	<path class="st1" d="M89.31,463.84c-11.47,0.02-19.56-8.03-19.53-19.46c0.02-10.98,8.42-19.39,19.33-19.37  c10.7,0.02,19.46,8.76,19.49,19.44C108.62,455.43,100.28,463.81,89.31,463.84z M89.42,438.59c-4.27,0.1-6.2,2.4-6.57,5.92  c-0.33,3.18,3.26,6.69,6.4,6.27c3.5-0.47,5.83-2.4,5.73-6.29C94.89,440.63,92.71,438.83,89.42,438.59z"></path></g><g>	<path class="st1" d="M-1030.28,1149.22c0,12.58,0,25.15,0,37.73c-0.18,1.02-0.45,2.04-0.54,3.07  c-1.44,16.75-4.64,33.18-10.14,49.03c-26.93,77.64-78.71,129.81-158.14,153.36c-13.5,4-27.43,5.79-41.37,7.42  c-14.07,0-28.15,0-42.22,0c-8.11-1.27-16.3-2.16-24.32-3.87c-51.14-10.89-93.64-36.68-127.54-76.16  c-52.52-61.17-68.08-131.75-48.44-209.28c16.44-64.91,56.63-112.37,115.35-143.78c46.92-25.1,97-32.95,149.56-23.62  c29.57,5.25,56.8,16.48,81.94,32.8c3.28,2.13,5.29,1.98,7.99-0.87c6.9-7.28,14.1-14.27,21.23-21.32c3.13-3.09,3.6-2.98,4.49,1.33  c2.93,14.2,5.87,28.39,8.55,42.64c0.7,3.73,2.47,5.19,6.08,5.87c14.24,2.69,28.41,5.77,42.65,8.51c3.92,0.75,3.71,1.97,1.27,4.38  c-7.14,7.05-14.07,14.31-21.35,21.2c-2.97,2.81-3.17,4.9-0.92,8.34c12.21,18.64,21.37,38.73,27.65,60.13  C-1034.37,1120.23-1032.09,1134.67-1030.28,1149.22z M-1144.64,1078.91c-0.18,1.65,0.87,2.43,1.56,3.35  c26,34.87,34.83,73.76,25.88,116.2c-16.85,79.95-91.91,132.87-175.15,114.28c-75.84-16.94-125.15-89.71-112.48-167.18  c6.77-41.35,28.42-73.55,63.2-96.69c29.55-19.66,62.27-28.05,97.66-24.6c26.2,2.56,49.84,12.14,70.88,28.04  c1.1,0.83,2.17,2.74,3.7,1.72c1.15-0.78,0.18-2.49-0.08-3.78c-1.57-7.77-3.02-15.56-4.72-23.29c-0.78-3.53-0.19-6.17,2.63-8.74  c5.19-4.74,10.01-9.89,14.98-14.86c4.48-4.49,4.49-4.51-1.1-7.79c-40.55-23.82-84.12-32.86-130.67-25.76  c-52.84,8.06-96.88,32.62-130.17,74.37c-44.57,55.88-54.95,119.33-34.63,187.05c28.6,95.31,127.77,155.09,227.19,138.12  c69.23-11.82,119.12-51.47,149.32-114.82c17.45-36.6,21.86-75.61,16.21-115.66c-3.68-26.08-12.5-50.43-26.25-72.97  c-1.91-3.14-3.32-3.61-6-0.77c-5.45,5.76-11.23,11.21-16.75,16.9c-1.85,1.91-3.7,2.62-6.37,2.03c-7.01-1.54-14.05-2.94-21.11-4.19  C-1139.45,1079.41-1141.96,1078.07-1144.64,1078.91z M-1259.89,1288.19c22.72,0.03,44.09-5.41,62.81-18.3  c39.48-27.2,57.84-65.02,54.27-113.02c-1.53-20.67-9.39-39.09-21.34-55.89c-2.3-3.23-3.92-3.64-6.87-0.6  c-10.33,10.63-20.84,21.07-31.42,31.45c-2.34,2.3-2.55,4.09-0.95,6.97c6.95,12.55,9.46,25.92,7.33,40.25  c-4.42,29.72-30.53,57.25-67.47,55.91c-31.04-1.13-59.01-27.22-61.48-59.09c-1.97-25.39,7.7-45.88,29.07-59.82  c21.22-13.84,43.69-15.2,66.36-3.22c3.56,1.88,5.47,1.26,8.03-1.36c9.94-10.17,20.07-20.15,30.12-30.21  c4.27-4.27,4.29-4.48-0.61-7.93c-27.8-19.56-58.37-25.92-91.65-19.02c-62.14,12.89-102.52,70.01-93.77,132.58  C-1369.4,1244.75-1318.99,1288.16-1259.89,1288.19z M-1296.93,1169.05c-0.02,22.36,15.57,37.87,38.07,37.33  c26.89-0.65,39.44-25.88,33.98-46.42c-0.91-3.43-2.09-3.73-4.61-1.1c-6.01,6.26-12.3,12.26-18.34,18.49  c-2.13,2.19-3.7,2.37-5.88,0.07c-4.53-4.77-9.17-9.46-13.98-13.96c-2.54-2.38-2.13-3.99,0.17-6.21  c6.14-5.92,12.11-12.02,18.13-18.07c3.04-3.06,2.9-3.63-1.04-4.81C-1272.86,1127.67-1296.91,1145.6-1296.93,1169.05z   M-1097.73,1030.29c-5.35-1.1-9.84-2.21-14.4-2.89c-3.52-0.53-5.03-2.32-5.68-5.75c-0.86-4.57-1.21-9.33-3.24-13.98  c-7.41,7.35-14.5,14.39-21.61,21.42c-1.44,1.42-1.65,3.16-1.31,4.98c0.83,4.4,1.77,8.78,2.63,13.17c0.31,1.57,0.99,3.02,2.58,3.37  c5.24,1.14,10.52,2.11,15.8,3.07c1.24,0.23,2.38-0.3,3.26-1.19C-1112.56,1045.3-1105.44,1038.09-1097.73,1030.29z"></path></g><g>	<path class="st1" d="M-927.16-877.87c7.29,5.22,8.17,10.54,2.59,17.63c-9.3,11.82-18.64,23.63-28.23,35.21  c-2.72,3.28-2.43,5.41,0.14,8.52c9.08,10.99,17.88,22.2,26.78,33.34c0.89,1.11,1.76,2.24,2.59,3.4c2.52,3.52,3.01,7.31,1,11.18  c-1.96,3.77-5.3,5.12-9.46,5.11c-25.18-0.04-50.37-0.02-75.55-0.02c-20.27,0-40.55,0.09-60.82-0.07c-3.94-0.03-5.16,1.21-5.15,5.15  c0.13,34.53,0.09,69.06,0.04,103.59c0,2.66,0.75,4.89,2.12,7.12c18.29,29.65,36.53,59.33,54.79,89c2.59,4.2,2.79,4.19,5.45-0.12  c10.71-17.4,21.37-34.82,32.12-52.19c4.46-7.19,11.48-8.8,16.59-3.82c1.44,1.4,2.51,3.25,3.53,5.02  c20.34,35.06,40.65,70.14,60.96,105.22c18.09,31.24,36.17,62.49,54.25,93.74c1.11,1.92,2.27,3.83,3.11,5.87  c2.93,7.09-1.34,13.71-8.95,14.04c-1.11,0.05-2.22,0.02-3.33,0.02c-153.64,0-307.28-0.02-460.92,0.07c-5.48,0-10.06-0.9-12.85-6.1  c0-2.53,0-5.07,0-7.6c38.95-67.26,77.9-134.52,116.85-201.78c0.79-1.37,1.59-2.74,2.4-4.1c5.68-9.52,14.04-9.68,19.83-0.34  c9.01,14.53,17.96,29.1,26.94,43.65c1.66,2.69,3.33,5.39,4.99,8.08c2.83,4.58,2.95,4.59,5.69,0.14c15.27-24.8,29.95-50,46.05-74.26  c8.2-12.36,11.12-24.78,10.99-39.44c-0.61-64.44-0.22-128.89-0.33-193.34c-0.01-5.28,1.53-9.24,6.1-11.92  C-1033.6-877.87-980.38-877.87-927.16-877.87z M-1083.29-410.6c42.75,0,85.51,0.01,128.26-0.04c1.64,0,3.95,0.94,4.81-0.8  c0.79-1.61-1.1-3.12-1.98-4.55c-42.62-69.31-85.28-138.61-127.94-207.9c-2.77-4.5-2.99-4.5-5.73-0.05  c-42.74,69.43-85.47,138.86-128.19,208.31c-0.8,1.31-2.52,2.73-1.81,4.14c0.91,1.8,3.16,0.84,4.79,0.85  C-1168.48-410.59-1125.89-410.6-1083.29-410.6z M-1270-410.6c7.6,0,15.23-0.33,22.8,0.12c4.83,0.29,7.38-1.62,9.79-5.58  c23.44-38.38,47.02-76.68,70.69-114.92c1.85-2.98,1.94-5.12,0.07-8.1c-9.2-14.61-18.17-29.35-27.22-44.05  c-2.91-4.73-2.94-4.76-5.68-0.02c-20.33,35.07-40.63,70.16-60.95,105.24c-12.06,20.83-24.13,41.65-36.16,62.5  c-0.75,1.3-2.52,2.66-1.55,4.17c0.9,1.41,2.94,0.6,4.46,0.62C-1285.84-410.56-1277.92-410.6-1270-410.6z M-896.45-410.6  c8.24,0,16.47,0.02,24.71-0.01c5.14-0.01,5.14-0.05,2.57-4.48c-12.14-20.97-24.28-41.93-36.43-62.9  c-20.4-35.22-40.78-70.44-61.22-105.63c-0.96-1.65-1.73-5.55-4.46-1.09c-9.59,15.67-19.2,31.32-28.89,46.93  c-1.28,2.06-1.09,3.63,0.15,5.63c24.29,39.35,48.53,78.72,72.7,118.14c1.64,2.67,3.64,3.51,6.62,3.45  C-912.6-410.7-904.52-410.6-896.45-410.6z M-1012.39-858.54c-18.68,0-37.36,0.06-56.05-0.05c-3.33-0.02-4.84,0.78-4.82,4.49  c0.13,22.16,0.11,44.33,0.02,66.5c-0.01,3.2,0.92,4.51,4.31,4.5c37.52-0.08,75.05-0.05,112.57-0.07c1.05,0,2.49,0.51,3.07-0.59  c0.76-1.42-0.79-2.22-1.52-3.15c-6.69-8.43-13.47-16.79-20.14-25.24c-5.38-6.81-5.38-10.57-0.01-17.38  c6.57-8.33,13.25-16.56,19.83-24.88c0.82-1.04,2.67-1.98,1.81-3.49c-0.76-1.34-2.62-0.61-3.98-0.61  C-975.66-858.55-994.03-858.54-1012.39-858.54z"></path>	<path class="st1" d="M-999.09-428.99c-5.01-0.2-7.6-3.03-9.76-6.55c-11.93-19.42-23.88-38.82-35.81-58.22  c-8.04-13.07-16.09-26.14-24.11-39.23c-1.75-2.85-3.43-5.82-2.58-9.34c0.98-4.02,3.56-6.77,7.59-7.69  c4.01-0.92,7.71,0.14,10.1,3.62c3.4,4.95,6.51,10.1,9.66,15.22c17.43,28.29,34.85,56.59,52.23,84.91  c3.91,6.38,3.69,10.69-0.48,14.58C-994.33-429.75-996.76-428.81-999.09-428.99z"></path>	<path class="st1" d="M-1083.15-562.05c-5.64-0.06-9.77-4.34-9.66-10.03c0.11-5.62,4.45-9.71,10.15-9.54  c5.43,0.15,9.43,4.32,9.43,9.8C-1073.24-566.17-1077.47-561.99-1083.15-562.05z"></path></g></svg>