<svg xmlns="http://www.w3.org/2000/svg" xmlns:xlink="http://www.w3.org/1999/xlink" id="Layer_1" x="0px" y="0px" viewBox="0 0 500 500" style="enable-background:new 0 0 500 500;" xml:space="preserve"><style type="text/css">	.st0{fill:#F15B24;stroke:#F15B24;stroke-width:3;stroke-miterlimit:10;}	.st1{fill:#F15B24;}</style><g>	<path class="st0" d="M-955.72,522.21c-11.48,0-22.95,0.02-34.43-0.01c-4.59-0.01-6.09-1.39-6.62-5.75  c-2.94-23.97-5.91-47.94-8.84-71.91c-2.27-18.53-4.53-37.07-6.77-55.61c-0.75-6.18,1.08-8.39,7.26-8.42  c14.22-0.07,28.44-0.06,42.66,0c5.68,0.02,6.91,1.02,8.56,6.35c1.21,3.93,2.56,7.83,3.55,11.81c0.82,3.27,2.33,3.45,5.1,2.12  c4.8-2.31,8.84-5.6,12.63-9.24c10.47-10.06,22.86-16.32,37.15-18.78c15.35-2.64,30.09-0.47,43.97,6.5  c8.12,4.08,16.51,6.14,25.59,5.74c4.61-0.21,9.27-0.41,13.84,0.04c8.96,0.89,16.94-1.27,24.36-6.27c3.19-2.15,6.73-3.79,10.14-5.63  c11.77-6.36,23.36-6.23,34.67,1.1c1.71,1.11,3.08,1.6,5.09,0.51c10.14-5.52,19.53-3.5,28.04,3.54c2.23,1.84,3.71,2.32,6.45,1.03  c12.38-5.81,27.38-1.61,35.23,9.56c2.98,4.23,2.57,6.73-1.74,9.69c-33.62,23.09-67.16,46.29-100.93,69.17  c-9.6,6.51-20.84,8.67-32.29,9.49c-13.25,0.95-25.97-2.61-38.82-4.86c-13.86-2.43-27.66-5.17-41.51-7.66  c-4.32-0.78-8.43,0.16-12.17,2.53c-8.54,5.4-17.06,10.83-25.65,16.14c-2.03,1.26-2.58,2.49-1.81,4.87  c2.73,8.42,5.22,16.91,7.76,25.39c1.91,6.37,0.27,8.55-6.39,8.55C-933.02,522.21-944.37,522.21-955.72,522.21z M-802.74,467.24  c7.54-0.14,19.19-2.47,29.54-9.72c12.16-8.51,24.46-16.82,36.7-25.22c18.31-12.56,36.61-25.12,54.92-37.69  c3.36-2.31,3.37-3.03-0.09-5.08c-6.16-3.65-12.58-4.03-18.91-0.67c-17.17,9.14-34.26,18.44-51.39,27.67  c-1.35,0.73-2.47,1.48-2.71,3.25c-0.5,3.8-3.01,5.2-6.62,5.04c-7.35-0.32-14.7-0.48-22.04-0.96c-13.21-0.86-26.39-1.05-39.55,0.69  c-3.38,0.45-6.05-1.27-6.49-4.14c-0.44-2.86,1.65-5.29,5.09-5.69c7.42-0.86,14.85-1.61,22.35-1.56  c10.73,0.06,21.42,0.67,32.11,1.43c4.39,0.31,4.97-0.37,3.1-4.49c-4.47-9.86-12.34-14.85-23-15.1  c-11.35-0.27-22.71-0.37-34.05,0.02c-11.77,0.41-22.49-2.43-33.2-7.27c-23.73-10.73-46.15-7.98-66.34,8.88  c-6.61,5.52-12.7,11.67-21.11,14.53c-2.18,0.74-1.41,2.3-0.98,3.69c5.81,19.08,11.7,38.13,17.41,57.23  c0.86,2.88,1.8,2.83,4.04,1.38c7.74-5.02,15.55-9.95,23.43-14.76c5.71-3.48,11.87-4.98,18.61-3.72c13.22,2.47,26.45,4.9,39.7,7.21  C-830.68,464.21-819.33,467.38-802.74,467.24z M-956.79,512.71c8.98,0,17.96-0.1,26.94,0.05c3.05,0.05,3.9-0.48,2.88-3.74  c-4.95-15.68-9.63-31.45-14.43-47.18c-6.87-22.52-13.8-45.03-20.57-67.58c-0.87-2.91-2.21-3.93-5.25-3.87  c-10.35,0.18-20.7,0.15-31.05,0.01c-2.7-0.04-3.83,0.48-3.41,3.5c1.02,7.27,1.73,14.58,2.61,21.87  c2.14,17.67,4.31,35.33,6.48,52.99c1.68,13.59,3.45,27.16,5.02,40.76c0.3,2.64,1.44,3.26,3.85,3.23  C-974.75,512.65-965.77,512.71-956.79,512.71z M-716.84,386.11c-0.08-1.09-0.8-1.42-1.42-1.8c-4.76-2.88-9.61-3.85-14.8-0.98  c-7.29,4.03-14.66,7.91-21.97,11.91c-6.44,3.52-6.35,3.52-2.95,10.1c0.95,1.85,1.73,2.34,3.67,1.27  c11.89-6.51,23.83-12.91,35.75-19.35C-717.94,386.9-717.36,386.45-716.84,386.11z M-750.83,381.64c-8.3-5.69-19.14-3.09-29.04,4.76  c3.33,1.26,6.58,2.46,9.47,4.41c0.64,0.43,1.38,0.6,2.12,0.21C-762.53,387.94-756.8,384.85-750.83,381.64z"></path>	<path class="st0" d="M-740.72,337.28c-11.48,0-22.95,0.11-34.43-0.07c-3.35-0.05-4.59,1.1-4.17,4.32c0.1,0.74,0.01,1.5,0.01,2.24  c-0.02,6.87-1.51,8.4-8.31,8.4c-34.3,0.01-68.61,0.01-102.91,0c-7.3,0-8.82-1.51-8.85-8.7c0-0.75-0.08-1.51,0.01-2.24  c0.38-3.17-1.09-4.03-4.11-4.01c-19.33,0.1-38.67,0.05-58,0.05c-3.87,0-7.74,0.06-11.6-0.03c-4.06-0.1-5.72-1.72-5.74-5.72  c-0.05-10.48-0.22-20.96,0.05-31.43c0.42-16.18,16.72-31.46,32.73-30.98c2,0.06,3.47,1.02,4.81,2.49  c9.06,9.98,21.64,10.37,30.71,0.62c3.13-3.36,6.51-3.18,10.23-2.49c2.94,0.55,5.83,1.47,8.46,2.92c1.62,0.9,2.63,0.61,3.89-0.65  c6.5-6.5,14.37-10.09,23.52-11.12c3.04-0.34,5.28,0.35,7.3,2.63c10.34,11.71,25.5,11.94,36.31,0.51c2.24-2.37,4.49-3.43,7.89-2.94  c8.18,1.16,15.34,4.32,21.25,10.05c1.83,1.78,3.22,2.58,5.73,1.15c2.12-1.21,4.64-1.8,7.04-2.44c4.85-1.3,8.83-0.81,12.7,3.41  c7.55,8.21,20.4,8.15,28.04-0.03c3.66-3.91,7.29-4.42,12.02-3.27c15.68,3.84,26.22,16.98,26.26,33.03c0.02,8.98,0.01,17.96,0,26.94  c-0.01,6.13-1.25,7.34-7.52,7.35C-718.52,337.29-729.62,337.28-740.72,337.28z M-839.52,342.09c15.34,0,30.67-0.06,46,0.05  c2.99,0.02,4.19-0.78,4.16-3.98c-0.15-13.34,0.01-26.68-0.1-40.02c-0.1-12.25-8.84-23.29-20.59-26.41  c-2.21-0.59-3.96-0.34-5.8,1.31c-13.67,12.28-32.05,12.42-45.71,0.19c-2.34-2.1-4.4-2.26-7.06-1.5  c-11.88,3.36-20.57,14.5-20.67,26.85c-0.1,13.09,0.06,26.18-0.1,39.27c-0.04,3.24,0.89,4.34,4.22,4.3  C-869.94,342-854.73,342.09-839.52,342.09z M-744.56,327.2c10.47,0,20.94-0.05,31.4,0.04c2.6,0.02,3.89-0.64,3.81-3.56  c-0.16-6.48,0.08-12.96-0.09-19.44c-0.31-11.51-6.33-20.2-16.12-23.82c-2.71-1-4.74-0.77-7.09,1.28  c-11.31,9.87-28.29,10.03-38.92,0.14c-3.17-2.95-5.85-2.39-9.09-1.17c-1.84,0.69-2.52,1.71-1.71,3.72c1.12,2.76,2,5.61,2.41,8.6  c1.33,9.81,0.51,19.66,0.53,29.49c0.01,3.87,1.25,4.88,4.95,4.79C-764.5,327.05-754.53,327.2-744.56,327.2z M-934.49,327.2  c8.48,0,16.96,0,25.44,0c9.66,0,9.53,0,9.69-9.66c0.2-11.4-1.47-23,3.32-33.97c0.49-1.12-0.13-1.92-1.16-2.4  c-2.9-1.36-5.43-2.23-8.54,0.34c-12.63,10.42-27.33,10.29-39.87-0.16c-2.12-1.77-4.08-2.11-6.51-1.25  c-9.21,3.3-14.98,9.55-16.61,19.36c-1.3,7.81-0.26,15.69-0.69,23.52c-0.18,3.3,0.96,4.34,4.25,4.28  C-954.94,327.09-944.71,327.2-934.49,327.2z"></path>	<path class="st0" d="M-804.75,216.53c0.01,6.1,0.25,11.21-0.94,16.25c-3.76,16.05-18.49,27.2-35.24,26.62  c-15.97-0.55-29.96-12.96-32.38-29.05c-1.28-8.53-1.27-17.16,0.02-25.69c2.47-16.35,16.88-28.67,33.31-28.77  c17.28-0.1,31.56,11.64,34.59,28.22C-804.56,208.6-804.89,213.06-804.75,216.53z M-814.85,218.88c0-3.96,0.06-6.83-0.01-9.7  c-0.3-13.01-11.03-23.23-24.36-23.25c-13.42-0.02-24.38,10.38-24.62,23.46c-0.1,5.11-0.06,10.22-0.02,15.33  c0.09,12.24,9.04,22.88,20.54,24.46c12.92,1.77,24.22-5.58,27.77-18.02C-814.29,226.75-815.12,222.24-814.85,218.88z"></path>	<path class="st0" d="M-895.27,232.07c0.18,6.62,0.18,13.16-2.83,19.37c-5.85,12.09-18.9,19.4-31.81,17.59  c-13.85-1.94-24.5-12.35-26.51-26.12c-1.07-7.3-1.09-14.66,0-21.95c2.4-16.21,16.42-27.37,32.81-26.3  c15.86,1.04,28.25,14.45,28.34,30.69C-895.26,227.59-895.27,229.83-895.27,232.07z M-905.33,232.11c0-2.74,0.12-5.48-0.02-8.21  c-0.57-11.07-9.42-19.24-20.75-19.21c-11.04,0.03-20.33,8.57-20.78,19.35c-0.22,5.22-0.2,10.46,0,15.68  c0.32,8.66,6.71,16.4,15.2,18.74c8.67,2.39,17.67-0.93,22.79-8.06C-904.86,244.79-905.18,238.46-905.33,232.11z"></path>	<path class="st0" d="M-783.48,231.25c0.26-3.6-0.38-7.95,0.61-12.29c3.45-15.09,16.23-24.88,31.92-24.33  c14.18,0.5,26.49,11.77,28.63,26.4c1.06,7.3,1.06,14.65-0.02,21.95c-2.41,16.24-16.6,27.33-33.3,26.15  c-15.37-1.09-27.74-14.61-27.84-30.42C-783.49,236.47-783.48,234.23-783.48,231.25z M-773.45,231.94c0,2.49-0.09,4.98,0.02,7.47  c0.43,10.22,8.11,18.7,17.67,19.59c11.53,1.07,20.66-4.88,23.21-15.44c1.63-6.73,0.95-13.66,0.55-20.45  c-0.5-8.59-7.29-15.89-15.66-17.95c-8.65-2.13-17.56,1.45-22.55,8.76C-774.02,219.5-773.49,225.74-773.45,231.94z"></path>	<path class="st1" d="M-959.07,508.75c-8.54,0.02-14.57-5.98-14.55-14.49c0.02-8.18,6.27-14.44,14.4-14.43  c7.97,0.01,14.49,6.52,14.51,14.48C-944.68,502.48-950.9,508.73-959.07,508.75z M-958.99,489.94c-3.18,0.07-4.62,1.79-4.89,4.41  c-0.25,2.37,2.43,4.98,4.77,4.67c2.6-0.35,4.34-1.79,4.27-4.69C-954.91,491.46-956.54,490.12-958.99,489.94z"></path></g><g>	<path class="st1" d="M1562.93-1024.89c0,8.29,0,16.58,0,24.87c-0.12,0.68-0.3,1.35-0.36,2.03c-0.95,11.04-3.06,21.88-6.69,32.33  c-17.76,51.19-51.9,85.59-104.26,101.11c-8.9,2.64-18.09,3.82-27.28,4.89c-9.28,0-18.56,0-27.84,0  c-5.35-0.84-10.75-1.42-16.03-2.55c-33.72-7.18-61.74-24.19-84.09-50.22c-34.63-40.33-44.89-86.86-31.94-137.98  c10.84-42.79,37.34-74.09,76.05-94.8c30.93-16.55,63.95-21.72,98.6-15.58c19.5,3.46,37.45,10.86,54.02,21.62  c2.16,1.4,3.48,1.3,5.27-0.58c4.55-4.8,9.29-9.41,14-14.05c2.06-2.04,2.37-1.96,2.96,0.87c1.93,9.36,3.87,18.72,5.64,28.11  c0.46,2.46,1.63,3.42,4.01,3.87c9.39,1.77,18.73,3.8,28.12,5.61c2.58,0.5,2.45,1.3,0.84,2.89c-4.71,4.65-9.28,9.43-14.08,13.98  c-1.96,1.85-2.09,3.23-0.6,5.5c8.05,12.29,14.09,25.53,18.23,39.65C1560.24-1044,1561.74-1034.48,1562.93-1024.89z   M1487.54-1071.24c-0.12,1.09,0.57,1.6,1.03,2.21c17.14,22.99,22.96,48.63,17.06,76.61c-11.11,52.71-60.6,87.6-115.48,75.34  c-50-11.17-82.51-59.15-74.16-110.22c4.46-27.26,18.74-48.49,41.67-63.75c19.48-12.96,41.06-18.5,64.39-16.22  c17.27,1.69,32.86,8.01,46.73,18.49c0.72,0.55,1.43,1.81,2.44,1.13c0.76-0.51,0.12-1.64-0.05-2.49  c-1.03-5.12-1.99-10.26-3.11-15.36c-0.51-2.33-0.12-4.07,1.73-5.77c3.42-3.13,6.6-6.52,9.88-9.8c2.95-2.96,2.96-2.97-0.72-5.14  c-26.74-15.7-55.46-21.67-86.15-16.98c-34.84,5.32-63.87,21.51-85.82,49.03c-29.38,36.84-36.23,78.68-22.83,123.33  c18.86,62.84,84.24,102.25,149.79,91.06c45.64-7.79,78.54-33.94,98.45-75.7c11.5-24.13,14.42-49.85,10.69-76.25  c-2.43-17.19-8.24-33.25-17.31-48.11c-1.26-2.07-2.19-2.38-3.95-0.51c-3.59,3.8-7.4,7.39-11.05,11.14  c-1.22,1.26-2.44,1.73-4.2,1.34c-4.62-1.02-9.26-1.94-13.92-2.76C1490.96-1070.92,1489.3-1071.8,1487.54-1071.24z M1411.55-933.26  c14.98,0.02,29.07-3.56,41.41-12.07c26.03-17.93,38.13-42.87,35.78-74.52c-1.01-13.63-6.19-25.77-14.07-36.85  c-1.51-2.13-2.59-2.4-4.53-0.4c-6.81,7.01-13.74,13.89-20.72,20.73c-1.54,1.51-1.68,2.7-0.63,4.6c4.58,8.28,6.24,17.09,4.83,26.54  c-2.91,19.6-20.13,37.75-44.49,36.86c-20.46-0.74-38.91-17.95-40.54-38.96c-1.3-16.74,5.07-30.25,19.17-39.44  c13.99-9.13,28.81-10.02,43.75-2.12c2.35,1.24,3.61,0.83,5.29-0.9c6.55-6.71,13.23-13.29,19.86-19.92  c2.81-2.82,2.83-2.95-0.41-5.23c-18.33-12.89-38.48-17.09-60.42-12.54c-40.97,8.5-67.59,46.16-61.82,87.41  C1339.35-961.9,1372.59-933.28,1411.55-933.26z M1387.13-1011.82c-0.01,14.74,10.27,24.97,25.1,24.61  c17.73-0.43,26-17.06,22.41-30.6c-0.6-2.26-1.38-2.46-3.04-0.73c-3.96,4.13-8.11,8.08-12.09,12.19c-1.4,1.45-2.44,1.56-3.88,0.05  c-2.99-3.15-6.05-6.24-9.22-9.2c-1.67-1.57-1.41-2.63,0.11-4.09c4.05-3.9,7.99-7.92,11.95-11.91c2.01-2.02,1.91-2.39-0.69-3.17  C1403-1039.1,1387.15-1027.28,1387.13-1011.82z M1518.47-1103.3c-3.53-0.72-6.49-1.45-9.49-1.91c-2.32-0.35-3.32-1.53-3.74-3.79  c-0.57-3.02-0.8-6.15-2.14-9.22c-4.89,4.84-9.56,9.49-14.25,14.12c-0.95,0.94-1.09,2.08-0.86,3.28c0.55,2.9,1.17,5.79,1.74,8.68  c0.2,1.04,0.66,1.99,1.7,2.22c3.46,0.75,6.94,1.39,10.42,2.03c0.82,0.15,1.57-0.2,2.15-0.78  C1508.69-1093.41,1513.38-1098.16,1518.47-1103.3z"></path></g><g>	<path class="st1" d="M405.69,5.34c7.29,5.22,8.17,10.54,2.59,17.63c-9.3,11.82-18.64,23.63-28.23,35.21  c-2.72,3.28-2.43,5.41,0.14,8.52c9.08,10.99,17.88,22.2,26.78,33.34c0.89,1.11,1.76,2.24,2.59,3.4c2.52,3.52,3.01,7.31,1,11.18  c-1.96,3.77-5.3,5.12-9.46,5.11c-25.18-0.04-50.37-0.02-75.55-0.02c-20.27,0-40.55,0.09-60.82-0.07c-3.94-0.03-5.16,1.21-5.15,5.15  c0.13,34.53,0.09,69.06,0.04,103.59c0,2.66,0.75,4.89,2.12,7.12c18.29,29.65,36.53,59.33,54.79,89c2.59,4.2,2.79,4.19,5.45-0.12  c10.71-17.4,21.37-34.82,32.12-52.19c4.46-7.19,11.48-8.8,16.59-3.82c1.44,1.4,2.51,3.25,3.53,5.02  c20.34,35.06,40.65,70.14,60.96,105.22c18.09,31.24,36.17,62.49,54.25,93.74c1.11,1.92,2.27,3.83,3.11,5.87  c2.93,7.09-1.34,13.71-8.95,14.04c-1.11,0.05-2.22,0.02-3.33,0.02c-153.64,0-307.28-0.02-460.92,0.07c-5.48,0-10.06-0.9-12.85-6.1  c0-2.53,0-5.07,0-7.6c38.95-67.26,77.9-134.52,116.85-201.78c0.79-1.37,1.59-2.74,2.4-4.1c5.68-9.52,14.04-9.68,19.83-0.34  c9.01,14.53,17.96,29.1,26.94,43.65c1.66,2.69,3.33,5.39,4.99,8.08c2.83,4.58,2.95,4.59,5.69,0.14c15.27-24.8,29.95-50,46.05-74.26  c8.2-12.36,11.12-24.78,10.99-39.44c-0.61-64.44-0.22-128.89-0.33-193.34c-0.01-5.28,1.53-9.24,6.1-11.92  C299.24,5.34,352.47,5.34,405.69,5.34z M249.56,472.61c42.75,0,85.51,0.01,128.26-0.04c1.64,0,3.95,0.94,4.81-0.8  c0.79-1.61-1.1-3.12-1.98-4.55c-42.62-69.31-85.28-138.61-127.94-207.9c-2.77-4.5-2.99-4.5-5.73-0.05  c-42.74,69.43-85.47,138.86-128.19,208.31c-0.8,1.31-2.52,2.73-1.81,4.14c0.91,1.8,3.16,0.84,4.79,0.85  C164.36,472.62,206.96,472.61,249.56,472.61z M62.85,472.61c7.6,0,15.23-0.33,22.8,0.12c4.83,0.29,7.38-1.62,9.79-5.58  c23.44-38.38,47.02-76.68,70.69-114.92c1.85-2.98,1.94-5.12,0.07-8.1c-9.2-14.61-18.17-29.35-27.22-44.05  c-2.91-4.73-2.94-4.76-5.68-0.02c-20.33,35.07-40.63,70.16-60.95,105.24c-12.06,20.83-24.13,41.65-36.16,62.5  c-0.75,1.3-2.52,2.66-1.55,4.17c0.9,1.41,2.94,0.6,4.46,0.62C47.01,472.65,54.93,472.61,62.85,472.61z M436.4,472.61  c8.24,0,16.47,0.02,24.71-0.01c5.14-0.01,5.14-0.05,2.57-4.48c-12.14-20.97-24.28-41.93-36.43-62.9  c-20.4-35.22-40.78-70.44-61.22-105.63c-0.96-1.65-1.73-5.55-4.46-1.09c-9.59,15.67-19.2,31.32-28.89,46.93  c-1.28,2.06-1.09,3.63,0.15,5.63c24.29,39.35,48.53,78.72,72.7,118.14c1.64,2.67,3.64,3.51,6.62,3.45  C420.24,472.51,428.32,472.61,436.4,472.61z M320.45,24.67c-18.68,0-37.36,0.06-56.05-0.05c-3.33-0.02-4.84,0.78-4.82,4.49  c0.13,22.16,0.11,44.33,0.02,66.5c-0.01,3.2,0.92,4.51,4.31,4.5c37.52-0.08,75.05-0.05,112.57-0.07c1.05,0,2.49,0.51,3.07-0.59  c0.76-1.42-0.79-2.22-1.52-3.15c-6.69-8.43-13.47-16.79-20.14-25.24c-5.38-6.81-5.38-10.57-0.01-17.38  c6.57-8.33,13.25-16.56,19.83-24.88c0.82-1.04,2.67-1.98,1.81-3.49c-0.76-1.34-2.62-0.61-3.98-0.61  C357.19,24.66,338.82,24.67,320.45,24.67z"></path>	<path class="st1" d="M333.76,454.22c-5.01-0.2-7.6-3.03-9.76-6.55c-11.93-19.42-23.88-38.82-35.81-58.22  c-8.04-13.07-16.09-26.14-24.11-39.23c-1.75-2.85-3.43-5.82-2.58-9.34c0.98-4.02,3.56-6.77,7.59-7.69  c4.01-0.92,7.71,0.14,10.1,3.62c3.4,4.95,6.51,10.1,9.66,15.22c17.43,28.29,34.85,56.59,52.23,84.91  c3.91,6.38,3.69,10.69-0.48,14.58C338.51,453.46,336.09,454.4,333.76,454.22z"></path>	<path class="st1" d="M249.69,321.16c-5.64-0.06-9.77-4.34-9.66-10.03c0.11-5.62,4.45-9.71,10.15-9.54c5.43,0.15,9.43,4.32,9.43,9.8  C259.61,317.04,255.37,321.22,249.69,321.16z"></path></g></svg>