<svg xmlns="http://www.w3.org/2000/svg" width="37" height="37" viewBox="0 0 37 37" fill="none"><path d="M17.5717 25.6C18.9532 25.7167 20.3383 25.4219 21.5524 24.7527C22.7665 24.0834 23.7554 23.0697 24.3942 21.8393C25.0331 20.6089 25.2934 19.2169 25.1423 17.8387C24.9912 16.4606 24.4355 15.1581 23.5452 14.0953C22.655 13.0326 21.47 12.2572 20.1397 11.8669C18.8094 11.4766 17.3933 11.4889 16.07 11.9022C14.7467 12.3155 13.5753 13.1113 12.7036 14.1894C11.8319 15.2674 11.2989 16.5794 11.1717 17.96C11.0156 19.82 11.6004 21.6665 12.7991 23.0973C13.9977 24.5282 15.7131 25.4277 17.5717 25.6ZM12.0317 18.04C12.1321 16.8098 12.5961 15.6373 13.3647 14.6716C14.1333 13.7059 15.1717 12.9905 16.3479 12.6166C17.5242 12.2426 18.785 12.2269 19.9702 12.5715C21.1554 12.9161 22.2112 13.6054 23.0036 14.5517C23.796 15.498 24.289 16.6586 24.42 17.8859C24.5509 19.1131 24.314 20.3516 23.7391 21.4439C23.1643 22.5361 22.2777 23.4327 21.1919 24.0196C20.1061 24.6065 18.8704 24.8573 17.6417 24.74C16.0128 24.5868 14.5101 23.7973 13.4598 22.5429C12.4095 21.2885 11.8963 19.6704 12.0317 18.04ZM17.5717 25.6C18.9532 25.7167 20.3383 25.4219 21.5524 24.7527C22.7665 24.0834 23.7554 23.0697 24.3942 21.8393C25.0331 20.6089 25.2934 19.2169 25.1423 17.8387C24.9912 16.4606 24.4355 15.1581 23.5452 14.0953C22.655 13.0326 21.47 12.2572 20.1397 11.8669C18.8094 11.4766 17.3933 11.4889 16.07 11.9022C14.7467 12.3155 13.5753 13.1113 12.7036 14.1894C11.8319 15.2674 11.2989 16.5794 11.1717 17.96C11.0156 19.82 11.6004 21.6665 12.7991 23.0973C13.9977 24.5282 15.7131 25.4277 17.5717 25.6ZM12.0317 18.04C12.1321 16.8098 12.5961 15.6373 13.3647 14.6716C14.1333 13.7059 15.1717 12.9905 16.3479 12.6166C17.5242 12.2426 18.785 12.2269 19.9702 12.5715C21.1554 12.9161 22.2112 13.6054 23.0036 14.5517C23.796 15.498 24.289 16.6586 24.42 17.8859C24.5509 19.1131 24.314 20.3516 23.7391 21.4439C23.1643 22.5361 22.2777 23.4327 21.1919 24.0196C20.1061 24.6065 18.8704 24.8573 17.6417 24.74C16.0128 24.5868 14.5101 23.7973 13.4598 22.5429C12.4095 21.2885 11.8963 19.6704 12.0317 18.04ZM17.5717 25.6C18.9532 25.7167 20.3383 25.4219 21.5524 24.7527C22.7665 24.0834 23.7554 23.0697 24.3942 21.8393C25.0331 20.6089 25.2934 19.2169 25.1423 17.8387C24.9912 16.4606 24.4355 15.1581 23.5452 14.0953C22.655 13.0326 21.47 12.2572 20.1397 11.8669C18.8094 11.4766 17.3933 11.4889 16.07 11.9022C14.7467 12.3155 13.5753 13.1113 12.7036 14.1894C11.8319 15.2674 11.2989 16.5794 11.1717 17.96C11.0156 19.82 11.6004 21.6665 12.7991 23.0973C13.9977 24.5282 15.7131 25.4277 17.5717 25.6ZM12.0317 18.04C12.1321 16.8098 12.5961 15.6373 13.3647 14.6716C14.1333 13.7059 15.1717 12.9905 16.3479 12.6166C17.5242 12.2426 18.785 12.2269 19.9702 12.5715C21.1554 12.9161 22.2112 13.6054 23.0036 14.5517C23.796 15.498 24.289 16.6586 24.42 17.8859C24.5509 19.1131 24.314 20.3516 23.7391 21.4439C23.1643 22.5361 22.2777 23.4327 21.1919 24.0196C20.1061 24.6065 18.8704 24.8573 17.6417 24.74C16.0128 24.5868 14.5101 23.7973 13.4598 22.5429C12.4095 21.2885 11.8963 19.6704 12.0317 18.04ZM16.8417 33.34C19.7516 33.5824 22.6681 32.9582 25.2237 31.5458C27.7793 30.1334 29.8597 27.9962 31.2027 25.4035C32.5457 22.8107 33.0912 19.8784 32.7704 16.9762C32.4496 14.0739 31.2769 11.3315 29.4001 9.09466C27.5233 6.85779 25.0263 5.22651 22.2239 4.40639C19.4216 3.58627 16.4391 3.61402 13.6524 4.48613C10.8658 5.35825 8.39966 7.03571 6.5648 9.30712C4.72994 11.5785 3.60845 14.3422 3.34171 17.25C3.01132 21.171 4.24544 25.0636 6.77467 28.0781C9.30389 31.0925 12.9229 32.9841 16.8417 33.34ZM10.0717 17.86C10.2037 16.2413 10.8139 14.6985 11.8248 13.4275C12.8357 12.1565 14.2016 11.2147 15.749 10.7219C17.2964 10.229 18.9554 10.2073 20.5151 10.6595C22.0749 11.1117 23.465 12.0174 24.5088 13.2615C25.5526 14.5056 26.203 16.0319 26.3773 17.6465C26.5516 19.2612 26.242 20.8911 25.4877 22.3293C24.7335 23.7676 23.5687 24.9491 22.1414 25.7237C20.714 26.4984 19.0886 26.8312 17.4717 26.68C15.3236 26.4848 13.3399 25.4478 11.9536 23.7954C10.5672 22.143 9.8907 20.0093 10.0717 17.86ZM11.1717 17.96C11.0291 19.3577 11.305 20.7662 11.9644 22.0069C12.6237 23.2475 13.6368 24.2643 14.8751 24.9281C16.1133 25.592 17.5208 25.873 18.919 25.7354C20.3173 25.5979 21.6431 25.0481 22.7283 24.1558C23.8135 23.2634 24.6091 22.0687 25.0141 20.7234C25.4191 19.3781 25.4153 17.9428 25.0032 16.5996C24.591 15.2565 23.7891 14.0661 22.6993 13.1795C21.6094 12.2929 20.2806 11.7501 18.8817 11.62C17.9587 11.5274 17.0265 11.6182 16.1387 11.8871C15.2509 12.156 14.4251 12.5978 13.7086 13.1869C12.9921 13.7761 12.3991 14.5011 11.9637 15.3202C11.5284 16.1394 11.2592 17.0365 11.1717 17.96ZM12.0317 18.04C12.1321 16.8098 12.5961 15.6373 13.3647 14.6716C14.1333 13.7059 15.1717 12.9905 16.3479 12.6166C17.5242 12.2426 18.785 12.2269 19.9702 12.5715C21.1554 12.9161 22.2112 13.6054 23.0036 14.5517C23.796 15.498 24.289 16.6586 24.42 17.8859C24.5509 19.1131 24.314 20.3516 23.7391 21.4439C23.1643 22.5361 22.2777 23.4327 21.1919 24.0196C20.1061 24.6065 18.8704 24.8573 17.6417 24.74C16.0128 24.5868 14.5101 23.7973 13.4598 22.5429C12.4095 21.2885 11.8963 19.6704 12.0317 18.04ZM17.5717 25.6C18.9532 25.7167 20.3383 25.4219 21.5524 24.7527C22.7665 24.0834 23.7554 23.0697 24.3942 21.8393C25.0331 20.6089 25.2934 19.2169 25.1423 17.8387C24.9912 16.4606 24.4355 15.1581 23.5452 14.0953C22.655 13.0326 21.47 12.2572 20.1397 11.8669C18.8094 11.4766 17.3933 11.4889 16.07 11.9022C14.7467 12.3155 13.5753 13.1113 12.7036 14.1894C11.8319 15.2674 11.2989 16.5794 11.1717 17.96C11.0156 19.82 11.6004 21.6665 12.7991 23.0973C13.9977 24.5282 15.7131 25.4277 17.5717 25.6ZM12.0317 18.04C12.1321 16.8098 12.5961 15.6373 13.3647 14.6716C14.1333 13.7059 15.1717 12.9905 16.3479 12.6166C17.5242 12.2426 18.785 12.2269 19.9702 12.5715C21.1554 12.9161 22.2112 13.6054 23.0036 14.5517C23.796 15.498 24.289 16.6586 24.42 17.8859C24.5509 19.1131 24.314 20.3516 23.7391 21.4439C23.1643 22.5361 22.2777 23.4327 21.1919 24.0196C20.1061 24.6065 18.8704 24.8573 17.6417 24.74C16.0128 24.5868 14.5101 23.7973 13.4598 22.5429C12.4095 21.2885 11.8963 19.6704 12.0317 18.04ZM17.5717 25.6C18.9532 25.7167 20.3383 25.4219 21.5524 24.7527C22.7665 24.0834 23.7554 23.0697 24.3942 21.8393C25.0331 20.6089 25.2934 19.2169 25.1423 17.8387C24.9912 16.4606 24.4355 15.1581 23.5452 14.0953C22.655 13.0326 21.47 12.2572 20.1397 11.8669C18.8094 11.4766 17.3933 11.4889 16.07 11.9022C14.7467 12.3155 13.5753 13.1113 12.7036 14.1894C11.8319 15.2674 11.2989 16.5794 11.1717 17.96C11.0156 19.82 11.6004 21.6665 12.7991 23.0973C13.9977 24.5282 15.7131 25.4277 17.5717 25.6ZM12.0317 18.04C12.1321 16.8098 12.5961 15.6373 13.3647 14.6716C14.1333 13.7059 15.1717 12.9905 16.3479 12.6166C17.5242 12.2426 18.785 12.2269 19.9702 12.5715C21.1554 12.9161 22.2112 13.6054 23.0036 14.5517C23.796 15.498 24.289 16.6586 24.42 17.8859C24.5509 19.1131 24.314 20.3516 23.7391 21.4439C23.1643 22.5361 22.2777 23.4327 21.1919 24.0196C20.1061 24.6065 18.8704 24.8573 17.6417 24.74C16.0128 24.5868 14.5101 23.7973 13.4598 22.5429C12.4095 21.2885 11.8963 19.6704 12.0317 18.04Z" fill="#455A64"></path><path d="M16.6914 4.23977L22.4114 4.75977L22.4714 0.729767L17.3914 0.259766L16.6914 4.23977Z" fill="#455A64"></path><path d="M27.4023 7.14983L31.0724 11.5198L34.0023 8.70982L30.7324 4.81982L27.4023 7.14983Z" fill="#455A64"></path><path d="M32.9013 16.6997L32.3613 22.3597L36.4413 22.4197L36.9213 17.3797L32.9013 16.6997Z" fill="#455A64"></path><path d="M29.963 27.2896L25.543 30.9296L28.383 33.8195L32.313 30.5896L29.963 27.2896Z" fill="#455A64"></path><path d="M20.3112 32.73L14.5912 32.21L14.5312 36.24L19.6113 36.71L20.3112 32.73Z" fill="#455A64"></path><path d="M9.60196 29.8197L5.93195 25.4497L3.00195 28.2597L6.27194 32.1497L9.60196 29.8197Z" fill="#455A64"></path><path d="M4.10202 20.2698L4.64203 14.6098L0.562012 14.5498L0.0820312 19.5898L4.10202 20.2698Z" fill="#455A64"></path><path d="M7.04141 9.6799L11.4614 6.0399L8.6214 3.1499L4.69141 6.37991L7.04141 9.6799Z" fill="#455A64"></path></svg>