<svg xmlns="http://www.w3.org/2000/svg" width="62" height="61" viewBox="0 0 62 61" fill="none"><path d="M5.12049 30.7101C5.06876 35.7072 6.5033 40.6069 9.24192 44.7871C11.9805 48.9672 15.8997 52.2392 20.5017 54.1874C25.1036 56.1356 30.1808 56.6722 35.0883 55.729C39.9959 54.7858 44.5124 52.4054 48.0644 48.8901C51.6163 45.3748 54.0434 40.8832 55.0374 35.9857C56.0314 31.0882 55.5475 26.0057 53.6471 21.3838C51.7467 16.7619 48.5155 12.809 44.364 10.0272C40.2124 7.24541 35.3279 5.76016 30.3305 5.76009C23.6791 5.72632 17.2866 8.33583 12.559 13.0147C7.83132 17.6936 5.15568 24.0587 5.12049 30.7101V30.7101ZM18.5605 30.7101C18.5345 28.3746 19.2034 26.0841 20.482 24.1295C21.7607 22.175 23.5915 20.6446 25.7418 19.7328C27.8922 18.821 30.265 18.569 32.5589 19.0088C34.8527 19.4485 36.9641 20.5602 38.6248 22.2026C40.2855 23.8449 41.4206 25.9439 41.8857 28.2327C42.3509 30.5216 42.1252 32.8971 41.2374 35.0574C40.3495 37.2177 38.8396 39.0654 36.8993 40.3657C34.9591 41.6659 32.6761 42.3601 30.3405 42.3601C27.2337 42.3766 24.2475 41.1586 22.0385 38.974C19.8295 36.7893 18.5785 33.8169 18.5605 30.7101V30.7101Z" fill="#263238"></path><path d="M25.4902 6.8H35.1802L34.6502 0H26.0202L25.4902 6.8Z" fill="#263238"></path><path d="M43.9395 10.0301L50.7995 16.8101L55.2695 11.6401L49.1695 5.6001L43.9395 10.0301Z" fill="#263238"></path><path d="M54.6797 25.23V34.82L61.5397 34.29V25.76L54.6797 25.23Z" fill="#263238"></path><path d="M51.4106 43.4902L44.5605 50.2802L49.7906 54.7002L55.8906 48.6702L51.4106 43.4902Z" fill="#263238"></path><path d="M36.0494 54.1201H26.3594L26.8894 60.9101H35.5194L36.0494 54.1201Z" fill="#263238"></path><path d="M17.5995 50.8901L10.7395 44.1001L6.26953 49.2801L12.3695 55.3201L17.5995 50.8901Z" fill="#263238"></path><path d="M6.86 35.6898V26.0898L0 26.6198V35.1598L6.86 35.6898Z" fill="#263238"></path><path d="M10.1304 17.42L16.9804 10.64L11.7504 6.20996L5.65039 12.25L10.1304 17.42Z" fill="#263238"></path></svg>