<svg xmlns="http://www.w3.org/2000/svg" width="46" height="45" viewBox="0 0 46 45" fill="none"><path d="M21.8425 31.3598C23.523 31.4993 25.2071 31.1384 26.6829 30.3225C28.1586 29.5066 29.3598 28.2722 30.1353 26.7749C30.9107 25.2775 31.2257 23.5841 31.0406 21.9081C30.8554 20.232 30.1784 18.6483 29.0948 17.3563C28.0112 16.0643 26.5695 15.1219 24.9513 14.6478C23.3331 14.1736 21.6107 14.189 20.0012 14.6919C18.3917 15.1949 16.9671 16.1629 15.9067 17.474C14.8464 18.7851 14.1977 20.3808 14.0425 22.0598C13.8483 24.3264 14.56 26.5777 16.0218 28.3207C17.4837 30.0637 19.5767 31.1565 21.8425 31.3598ZM15.1025 22.1598C15.2229 20.6615 15.7861 19.2329 16.7206 18.0556C17.6552 16.8783 18.9188 16.0056 20.3507 15.5484C21.7826 15.0912 23.3181 15.0703 24.762 15.4882C26.2058 15.9062 27.4927 16.7441 28.459 17.8955C29.4253 19.0468 30.0274 20.4596 30.1885 21.9541C30.3497 23.4485 30.0627 24.9571 29.3641 26.288C28.6655 27.6189 27.5868 28.712 26.2652 29.4282C24.9437 30.1443 23.439 30.4512 21.9425 30.3098C19.9588 30.1261 18.1277 29.167 16.847 27.641C15.5663 26.115 14.9394 24.1454 15.1025 22.1598ZM21.8425 31.3598C23.523 31.4993 25.2071 31.1384 26.6829 30.3225C28.1586 29.5066 29.3598 28.2722 30.1353 26.7749C30.9107 25.2775 31.2257 23.5841 31.0406 21.9081C30.8554 20.232 30.1784 18.6483 29.0948 17.3563C28.0112 16.0643 26.5695 15.1219 24.9513 14.6478C23.3331 14.1736 21.6107 14.189 20.0012 14.6919C18.3917 15.1949 16.9671 16.1629 15.9067 17.474C14.8464 18.7851 14.1977 20.3808 14.0425 22.0598C13.8483 24.3264 14.56 26.5777 16.0218 28.3207C17.4837 30.0637 19.5767 31.1565 21.8425 31.3598ZM15.1025 22.1598C15.2229 20.6615 15.7861 19.2329 16.7206 18.0556C17.6552 16.8783 18.9188 16.0056 20.3507 15.5484C21.7826 15.0912 23.3181 15.0703 24.762 15.4882C26.2058 15.9062 27.4927 16.7441 28.459 17.8955C29.4253 19.0468 30.0274 20.4596 30.1885 21.9541C30.3497 23.4485 30.0627 24.9571 29.3641 26.288C28.6655 27.6189 27.5868 28.712 26.2652 29.4282C24.9437 30.1443 23.439 30.4512 21.9425 30.3098C19.9588 30.1261 18.1277 29.167 16.847 27.641C15.5663 26.115 14.9394 24.1454 15.1025 22.1598ZM21.8425 31.3598C23.523 31.4993 25.2071 31.1384 26.6829 30.3225C28.1586 29.5066 29.3598 28.2722 30.1353 26.7749C30.9107 25.2775 31.2257 23.5841 31.0406 21.9081C30.8554 20.232 30.1784 18.6483 29.0948 17.3563C28.0112 16.0643 26.5695 15.1219 24.9513 14.6478C23.3331 14.1736 21.6107 14.189 20.0012 14.6919C18.3917 15.1949 16.9671 16.1629 15.9067 17.474C14.8464 18.7851 14.1977 20.3808 14.0425 22.0598C13.8483 24.3264 14.56 26.5777 16.0218 28.3207C17.4837 30.0637 19.5767 31.1565 21.8425 31.3598ZM15.1025 22.1598C15.2229 20.6615 15.7861 19.2329 16.7206 18.0556C17.6552 16.8783 18.9188 16.0056 20.3507 15.5484C21.7826 15.0912 23.3181 15.0703 24.762 15.4882C26.2058 15.9062 27.4927 16.7441 28.459 17.8955C29.4253 19.0468 30.0274 20.4596 30.1885 21.9541C30.3497 23.4485 30.0627 24.9571 29.3641 26.288C28.6655 27.6189 27.5868 28.712 26.2652 29.4282C24.9437 30.1443 23.439 30.4512 21.9425 30.3098C19.9588 30.1261 18.1277 29.167 16.847 27.641C15.5663 26.115 14.9394 24.1454 15.1025 22.1598ZM20.9525 40.7798C24.4938 41.0768 28.0437 40.3188 31.1549 38.6015C34.2661 36.8842 36.7994 34.2844 38.4354 31.1297C40.0715 27.975 40.7371 24.4066 40.3485 20.8742C39.9598 17.3418 38.5343 14.0035 36.2515 11.28C33.9687 8.55651 30.9308 6.56965 27.5206 5.56984C24.1105 4.57004 20.4807 4.60202 17.0887 5.66177C13.6967 6.72152 10.6943 8.7616 8.45981 11.5249C6.22535 14.2883 4.85885 17.6512 4.53251 21.1898C4.13164 25.9609 5.63251 30.697 8.70811 34.3664C11.7837 38.0358 16.1848 40.341 20.9525 40.7798ZM12.7125 21.9398C12.8715 19.9685 13.613 18.0889 14.8429 16.5401C16.0728 14.9912 17.7355 13.8431 19.6196 13.2416C21.5037 12.6401 23.524 12.6125 25.4239 13.1622C27.3237 13.7119 29.0172 14.8141 30.289 16.3287C31.5608 17.8433 32.3535 19.7019 32.5664 21.6682C32.7792 23.6344 32.4025 25.6196 31.4842 27.3712C30.566 29.1229 29.1476 30.562 27.4094 31.5054C25.6712 32.4489 23.6917 32.8542 21.7225 32.6698C19.1106 32.4276 16.6996 31.165 15.0127 29.1562C13.3259 27.1474 12.4994 24.5543 12.7125 21.9398ZM14.0525 22.0598C13.8781 23.7607 14.213 25.475 15.0148 26.9851C15.8165 28.4953 17.0489 29.7332 18.5554 30.5416C20.062 31.35 21.7748 31.6925 23.4764 31.5257C25.178 31.3588 26.7917 30.6901 28.1125 29.6044C29.4334 28.5187 30.4018 27.0651 30.8949 25.4279C31.3881 23.7908 31.3836 22.0441 30.8821 20.4095C30.3806 18.775 29.4048 17.3263 28.0784 16.2474C26.752 15.1684 25.135 14.508 23.4325 14.3498C22.31 14.2383 21.1766 14.3495 20.0972 14.6769C19.0177 15.0043 18.0135 15.5415 17.1421 16.2578C16.2707 16.974 15.5492 17.8552 15.0191 18.8509C14.4889 19.8465 14.1604 20.937 14.0525 22.0598ZM15.1025 22.1598C15.2229 20.6615 15.7861 19.2329 16.7206 18.0556C17.6552 16.8783 18.9188 16.0056 20.3507 15.5484C21.7826 15.0912 23.3181 15.0703 24.762 15.4882C26.2058 15.9062 27.4927 16.7441 28.459 17.8955C29.4253 19.0468 30.0274 20.4596 30.1885 21.9541C30.3497 23.4485 30.0627 24.9571 29.3641 26.288C28.6655 27.6189 27.5868 28.712 26.2652 29.4282C24.9437 30.1443 23.439 30.4512 21.9425 30.3098C19.9588 30.1261 18.1277 29.167 16.847 27.641C15.5663 26.115 14.9394 24.1454 15.1025 22.1598ZM21.8425 31.3598C23.523 31.4993 25.2071 31.1384 26.6829 30.3225C28.1586 29.5066 29.3598 28.2722 30.1353 26.7749C30.9107 25.2775 31.2257 23.5841 31.0406 21.9081C30.8554 20.232 30.1784 18.6483 29.0948 17.3563C28.0112 16.0643 26.5695 15.1219 24.9513 14.6478C23.3331 14.1736 21.6107 14.189 20.0012 14.6919C18.3917 15.1949 16.9671 16.1629 15.9067 17.474C14.8464 18.7851 14.1977 20.3808 14.0425 22.0598C13.8483 24.3264 14.56 26.5777 16.0218 28.3207C17.4837 30.0637 19.5767 31.1565 21.8425 31.3598ZM15.1025 22.1598C15.2229 20.6615 15.7861 19.2329 16.7206 18.0556C17.6552 16.8783 18.9188 16.0056 20.3507 15.5484C21.7826 15.0912 23.3181 15.0703 24.762 15.4882C26.2058 15.9062 27.4927 16.7441 28.459 17.8955C29.4253 19.0468 30.0274 20.4596 30.1885 21.9541C30.3497 23.4485 30.0627 24.9571 29.3641 26.288C28.6655 27.6189 27.5868 28.712 26.2652 29.4282C24.9437 30.1443 23.439 30.4512 21.9425 30.3098C19.9588 30.1261 18.1277 29.167 16.847 27.641C15.5663 26.115 14.9394 24.1454 15.1025 22.1598ZM21.8425 31.3598C23.523 31.4993 25.2071 31.1384 26.6829 30.3225C28.1586 29.5066 29.3598 28.2722 30.1353 26.7749C30.9107 25.2775 31.2257 23.5841 31.0406 21.9081C30.8554 20.232 30.1784 18.6483 29.0948 17.3563C28.0112 16.0643 26.5695 15.1219 24.9513 14.6478C23.3331 14.1736 21.6107 14.189 20.0012 14.6919C18.3917 15.1949 16.9671 16.1629 15.9067 17.474C14.8464 18.7851 14.1977 20.3808 14.0425 22.0598C13.8483 24.3264 14.56 26.5777 16.0218 28.3207C17.4837 30.0637 19.5767 31.1565 21.8425 31.3598ZM15.1025 22.1598C15.2229 20.6615 15.7861 19.2329 16.7206 18.0556C17.6552 16.8783 18.9188 16.0056 20.3507 15.5484C21.7826 15.0912 23.3181 15.0703 24.762 15.4882C26.2058 15.9062 27.4927 16.7441 28.459 17.8955C29.4253 19.0468 30.0274 20.4596 30.1885 21.9541C30.3497 23.4485 30.0627 24.9571 29.3641 26.288C28.6655 27.6189 27.5868 28.712 26.2652 29.4282C24.9437 30.1443 23.439 30.4512 21.9425 30.3098C19.9588 30.1261 18.1277 29.167 16.847 27.641C15.5663 26.115 14.9394 24.1454 15.1025 22.1598Z" fill="#263238"></path><path d="M20.7734 5.34976L27.7434 5.98977L27.8134 1.07977L21.6234 0.509766L20.7734 5.34976Z" fill="#263238"></path><path d="M33.8125 8.88956L38.2825 14.2196L41.8425 10.7896L37.8725 6.05957L33.8125 8.88956Z" fill="#263238"></path><path d="M40.5035 20.5195L39.8535 27.4095L44.8235 27.4895L45.3935 21.3495L40.5035 20.5195Z" fill="#263238"></path><path d="M36.923 33.4199L31.543 37.8499L35.003 41.3699L39.793 37.4399L36.923 33.4199Z" fill="#263238"></path><path d="M25.1728 40.0399L18.2128 39.3999L18.1328 44.3199L24.3328 44.8899L25.1728 40.0399Z" fill="#263238"></path><path d="M12.1335 36.4997L7.67351 31.1797L4.10352 34.5997L8.08351 39.3397L12.1335 36.4997Z" fill="#263238"></path><path d="M5.44273 24.8697L6.09273 17.9797L1.12273 17.9097L0.552734 24.0397L5.44273 24.8697Z" fill="#263238"></path><path d="M9.02211 11.9695L14.4021 7.54953L10.9421 4.01953L6.16211 7.95953L9.02211 11.9695Z" fill="#263238"></path></svg>