<svg xmlns="http://www.w3.org/2000/svg" xmlns:xlink="http://www.w3.org/1999/xlink" width="56.339" height="48.502" viewBox="0 0 56.339 48.502"><defs><linearGradient id="linear-gradient" x1="0.099" y1="-0.384" x2="0.893" y2="0.768" gradientUnits="objectBoundingBox"><stop offset="0" stop-color="#ef7f12"></stop><stop offset="1" stop-color="#ea5f30"></stop></linearGradient><linearGradient id="linear-gradient-2" y1="0.5" x2="1" y2="0.5" gradientUnits="objectBoundingBox"><stop offset="0" stop-color="#eae9ef"></stop><stop offset="0.349" stop-color="#d4d2e5"></stop><stop offset="0.701" stop-color="#c6c3df"></stop><stop offset="1" stop-color="#c1bfdc"></stop></linearGradient></defs><g id="Group_4282" data-name="Group 4282" transform="translate(6955.427 -11271.483)"><g id="Group_986" data-name="Group 986" transform="translate(-6955.427 11271.483)"><g id="Group_985" data-name="Group 985"><path id="Path_3353" data-name="Path 3353" d="M327.3,408.454a8.338,8.338,0,0,1-4.083-.972l-21.661-12.5a2.618,2.618,0,0,1,0-4.934l21.661-12.5a9.033,9.033,0,0,1,8.166,0l21.661,12.5a2.618,2.618,0,0,1,0,4.934l-21.661,12.5A8.411,8.411,0,0,1,327.3,408.454Zm-3.888-1.307a8.606,8.606,0,0,0,7.784,0l21.661-12.5a2.248,2.248,0,0,0,0-4.277l-21.661-12.5a8.606,8.606,0,0,0-7.784,0l-21.661,12.5a2.248,2.248,0,0,0,0,4.277Z" transform="translate(-299.136 -359.952)" fill="#3cb4c7"></path><g id="Group_984" data-name="Group 984"><path id="Path_3354" data-name="Path 3354" d="M355.135,388.965V381.55l-1.354-.758c-.382,2.313-3.111,3.842-5.39,4.157l-15.52,9.078-6.771,2.447-21.621-11.156.5-.288c-1.85-.865-2.843-2.836-3.841-4.639l-1.455.865-.865.241v7.542h0a3.236,3.236,0,0,0,1.9,2.655l21.661,12.5a10.2,10.2,0,0,0,9.2,0l21.661-12.5a3.257,3.257,0,0,0,1.9-2.608.373.373,0,0,1-.013-.121Z" transform="translate(-298.81 -361.213)" fill="#ef7f12" opacity="0.4"></path><g id="Group_983" data-name="Group 983"><g id="Group_982" data-name="Group 982"><path id="Path_3355" data-name="Path 3355" d="M355.135,380.367V375.46l-1.354-.757c-.382,2.313-3.111,3.841-5.39,4.157l-15.52,9.077-6.771,2.447-21.621-11.156.5-.288c-1.85-.865-2.843-2.836-3.841-4.639l-1.455.865-.865.241v5.035h0a3.236,3.236,0,0,0,1.9,2.655l21.661,12.5a10.2,10.2,0,0,0,9.2,0l21.661-12.5a3.257,3.257,0,0,0,1.9-2.608.373.373,0,0,1-.013-.121Z" transform="translate(-298.81 -359.206)" fill="url(#linear-gradient)"></path><path id="Path_3356" data-name="Path 3356" d="M362.233,379.09l-15.52,9.077L340.82,390.3v6.637a9.426,9.426,0,0,0,4.6-1.1l21.661-12.5a3.257,3.257,0,0,0,1.9-2.608V380.6h0V375.69l-1.24-.691h-.128C367.181,377.279,364.486,378.781,362.233,379.09Z" transform="translate(-312.652 -359.436)" fill="#12084c" opacity="0.3"></path><g id="Group_979" data-name="Group 979"><path id="Path_3357" data-name="Path 3357" d="M322.367,383.2l-21.661-12.5c-2.534-1.461-2.534-3.848,0-5.31l21.661-12.5a10.2,10.2,0,0,1,9.2,0l21.661,12.5c2.534,1.461,2.534,3.848,0,5.31l-21.661,12.5A10.2,10.2,0,0,1,322.367,383.2Z" transform="translate(-298.805 -351.785)" fill="url(#linear-gradient-2)"></path></g><g id="Group_980" data-name="Group 980" transform="translate(5.97 3.367)"><path id="Path_3358" data-name="Path 3358" d="M329.9,382.58a7.59,7.59,0,0,1-3.687-.878l-16.921-9.768a2.376,2.376,0,0,1,0-4.478l16.921-9.768a8.166,8.166,0,0,1,7.375,0l16.921,9.768a2.376,2.376,0,0,1,0,4.478L333.588,381.7A7.553,7.553,0,0,1,329.9,382.58Zm-3.5-1.207a7.753,7.753,0,0,0,7,0l16.921-9.768a2.006,2.006,0,0,0,0-3.821L333.4,358.016a7.754,7.754,0,0,0-7,0l-16.921,9.768a2.006,2.006,0,0,0,0,3.821Z" transform="translate(-307.71 -356.807)" fill="#5150a0"></path></g><g id="Group_981" data-name="Group 981" transform="translate(0.002 16.556)"><path id="Path_3359" data-name="Path 3359" d="M353.228,378.833l-21.661,12.5a10.2,10.2,0,0,1-9.2,0l-21.661-12.5a3.425,3.425,0,0,1-1.877-2.353c-.148,1.059.476,2.152,1.877,2.963l21.661,12.5a10.2,10.2,0,0,0,9.2,0l21.661-12.5c1.4-.811,2.025-1.9,1.877-2.963A3.407,3.407,0,0,1,353.228,378.833Z" transform="translate(-298.809 -376.48)" fill="#fff"></path></g></g></g></g></g></g></g></svg>