<?xml version="1.0" encoding="utf-8"?>
<!-- Generator: Adobe Illustrator 27.5.0, SVG Export Plug-In . SVG Version: 6.00 Build 0)  -->
<svg version="1.1" id="Layer_1" xmlns="http://www.w3.org/2000/svg" xmlns:xlink="http://www.w3.org/1999/xlink" x="0px" y="0px"
	 viewBox="0 0 70 20.8" style="enable-background:new 0 0 70 20.8;" xml:space="preserve">
<style type="text/css">
	.st0{fill:#A100FF;}
</style>
<g>
	<polygon class="st0" points="40.7,6.3 44.8,4.8 40.7,3.3 40.7,1.2 47.6,4 47.6,5.7 40.7,8.5 	"/>
	<path d="M2.7,19.6c-1.5,0-2.7-0.7-2.7-2.4v-0.1c0-2,1.7-2.7,3.8-2.7h1V14c0-0.8-0.3-1.3-1.2-1.3c-0.8,0-1.2,0.4-1.2,1H0.3
		C0.5,11.9,1.9,11,3.8,11s3.3,0.8,3.3,2.8v5.6H4.9v-0.9C4.5,19.1,3.7,19.6,2.7,19.6z M4.8,16.8V16H3.9c-1.1,0-1.7,0.3-1.7,1v0.1
		c0,0.6,0.3,0.9,1.1,0.9S4.8,17.6,4.8,16.8z M12.2,19.6c-2.2,0-3.9-1.4-3.9-4.1v-0.1c0-2.7,1.7-4.2,3.9-4.2c1.8,0,3.3,0.9,3.5,3
		h-2.1c-0.1-0.8-0.6-1.3-1.3-1.3c-0.9,0-1.6,0.8-1.6,2.4v0.3c0,1.6,0.6,2.4,1.6,2.4c0.8,0,1.3-0.6,1.5-1.5h2.1
		C15.6,18.3,14.4,19.6,12.2,19.6z M20.6,19.6c-2.2,0-3.9-1.4-3.9-4.1v-0.1c0-2.7,1.7-4.2,3.9-4.2c1.8,0,3.3,0.9,3.5,3H22
		c-0.1-0.8-0.6-1.3-1.3-1.3c-0.9,0-1.6,0.8-1.6,2.4v0.3c0,1.6,0.6,2.4,1.6,2.4c0.8,0,1.3-0.6,1.5-1.5h2.1
		C24,18.3,22.7,19.6,20.6,19.6z M29,19.6c-2.3,0-3.9-1.4-3.9-4.1v-0.1c0-2.7,1.7-4.2,3.9-4.2c2,0,3.7,1.1,3.7,3.8v1h-5.3
		c0.1,1.5,0.7,2,1.7,2c0.9,0,1.3-0.5,1.5-1h2.1C32.4,18.5,31.1,19.6,29,19.6z M27.4,14.5h3c0-1.2-0.6-1.7-1.5-1.7
		C28.2,12.8,27.6,13.2,27.4,14.5z M34,11.4h2.3v1.2c0.4-0.8,1.2-1.4,2.4-1.4c1.5,0,2.4,0.9,2.4,2.8v5.4h-2.3v-5
		c0-0.9-0.4-1.4-1.2-1.4s-1.4,0.5-1.4,1.5v4.9H34V11.4L34,11.4z M45.3,8.9v2.5h1.5v1.7h-1.5v3.8c0,0.6,0.3,0.9,0.8,0.9
		c0.3,0,0.6,0,0.8-0.1v1.7c-0.3,0.1-0.7,0.2-1.3,0.2c-1.8,0-2.6-0.8-2.6-2.4v-4.1h-0.9v-1.7H43V9.9L45.3,8.9z M55.3,19.4h-2.2v-1.2
		c-0.4,0.8-1.2,1.4-2.4,1.4c-1.5,0-2.5-0.9-2.5-2.8v-5.4h2.3v5.1c0,0.9,0.4,1.4,1.2,1.4s1.4-0.5,1.4-1.5v-5h2.3L55.3,19.4L55.3,19.4
		z M57,11.4h2.3v1.5c0.5-1.1,1.2-1.6,2.4-1.6v2.2c-1.5,0-2.4,0.5-2.4,1.8v4.2H57V11.4z M66.3,19.6c-2.3,0-3.9-1.4-3.9-4.1v-0.1
		c0-2.7,1.7-4.2,3.9-4.2c2,0,3.7,1.1,3.7,3.8v1h-5.2c0.1,1.5,0.7,2,1.7,2c0.9,0,1.3-0.5,1.5-1h2C69.7,18.5,68.4,19.6,66.3,19.6z
		 M64.7,14.5h3c0-1.2-0.6-1.7-1.5-1.7C65.5,12.8,64.9,13.2,64.7,14.5z"/>
</g>
</svg>
