<svg id="svg5345" xmlns="http://www.w3.org/2000/svg" width="201" height="28.08" viewBox="0 0 201 28.08"><defs><style>.cls-1{fill:#051039;}.cls-2{fill:#00a1de;}</style></defs><title>Air-France-KLM-Group</title><g id="layer1"><path id="path4553" class="cls-1" d="M147.5726,23.1527v5.2826h-1.1489v-1.56a5.1487,5.1487,0,0,1-4.2965,1.7375c-4.1508,0-6.1079-2.4889-6.1079-5.593,0-3.68,2.489-5.6366,6.0928-5.6366,2.5476,0,4.5047,1.147,5.2978,2.9432l-1.0884.5735a4.43,4.43,0,0,0-4.253-2.4284c-3.0018,0-4.7243,1.6637-4.7243,4.7092,0,2.4587,1.6638,4.2833,4.8416,4.2833,1.9439,0,4.0335-.9407,4.2095-3.1628h-4.3419V23.1527Z" transform="translate(0.5 -0.5335)"/><path id="path4557" class="cls-1" d="M151.4117,22.4609h4.5918c1.8681,0,3.2669-.265,3.2669-1.84,0-1.56-1.3987-1.8246-3.2669-1.8246h-4.5918Zm-1.2946-4.8132h6.1817c1.7053,0,4.2076.3691,4.2076,2.9886,0,2.2373-2.0745,2.8846-3.371,2.9432l3.5338,4.7679h-1.6051L155.6212,23.61h-4.2094v4.7375h-1.2947Z" transform="translate(0.5 -0.5335)"/><path id="path4561" class="cls-1" d="M168.4517,27.4646c2.6044,0,4.9439-1.3836,4.9439-4.6354,0-2.3848-1.8379-4.3571-4.9439-4.3571s-4.9457,1.9723-4.9457,4.3571c0,3.2517,2.311,4.6354,4.9457,4.6354m0-10.0808c3.6341,0,6.2688,2.1179,6.2688,5.68,0,3.7969-3.1779,5.55-6.2688,5.55s-6.2706-1.7527-6.2706-5.55c0-3.5621,2.6346-5.68,6.2706-5.68" transform="translate(0.5 -0.5335)"/><path id="path4565" class="cls-1" d="M187.5512,23.9469c0,3.8707-3.0171,4.6656-5.5041,4.6656s-5.5022-.7949-5.5022-4.6656V17.6478H177.84v6.2991c0,2.4568,1.5729,3.5773,4.2076,3.5773s4.2094-1.1206,4.2094-3.5773V17.6478h1.2947Z" transform="translate(0.5 -0.5335)"/><path id="path4569" class="cls-1" d="M191.39,22.6375h4.6353c2.1483,0,3.2385-.4561,3.2385-1.9136,0-1.4706-1.09-1.9268-3.2385-1.9268H191.39Zm-1.2946-4.9892h6.2687c2.1634,0,4.1357.6189,4.1357,3.0605,0,2.4587-1.9723,3.0776-4.1357,3.0776H191.39v4.5615h-1.2946Z" transform="translate(0.5 -0.5335)"/><path id="path4573" class="cls-2" d="M200.143.7165V13.3108h-3.9236V5.1114L190.7626,10.85l-5.4321-5.6573v8.1179h-3.2328V.7033h4.13l4.8852,5.3281L196.0283.7165Z" transform="translate(0.5 -0.5335)"/><path id="path4577" class="cls-2" d="M169.798.7165h-3.9255V13.307h13.16V10.519H169.798Z" transform="translate(0.5 -0.5335)"/><path id="path4581" class="cls-2" d="M162.7273.7165H157.53l-6.6965,4.9457V.7165H146.904V13.3108h3.9293V8.06l6.2291,5.2505h6.0813l-8.2391-6.8839Z" transform="translate(0.5 -0.5335)"/><path id="path4585" class="cls-1" d="M37.1865,4.7506c0-1.1754-1.1962-1.7868-2.506-1.7868H30.1191V6.7057h3.8252c2.046,0,3.2422-.7741,3.2422-1.9552M37.09,8.4016l4.5728,4.9117-4.4214-.002L33.24,8.9524H30.119v4.3609H26.7821V.7152h9.2025c2.7312,0,4.9912,1.3761,4.9912,3.8631,0,1.8094-1.7395,3.29-3.8858,3.8234M69.9366,4.7506c0-1.1754-1.1981-1.7868-2.5079-1.7868h-4.56V6.7057h3.8234c2.0479,0,3.2441-.7741,3.2441-1.9552M69.84,8.4016l4.5729,4.9117-4.4252-.002L65.99,8.9524H62.869v4.3609H59.5321V.7152h9.2007c2.7312,0,4.993,1.3761,4.993,3.8631,0,1.8094-1.7375,3.29-3.8858,3.8234m16.2322-.1932-2.4984-4.19-2.3887,4.19ZM85.3605.7171c2.6877,4.1356,5.29,8.3224,7.7565,12.5962H89.1933l-1.7016-2.86h-7.52l-1.6145,2.86H75.204c2.3811-4.2379,4.81-8.453,7.3534-12.5962ZM10.3681,8.2085l-2.4946-4.19-2.3886,4.19ZM9.6584.7171c2.6858,4.1356,5.2883,8.3224,7.7564,12.5962H13.4912l-1.7016-2.86H4.2716l-1.6164,2.86H-.5C1.8811,9.0754,4.3113,4.86,6.8552.7171Zm9.4258,12.5962h3.3332V.7152H19.0843Zm25.4744,0h3.3332V9.0394H56.67V6.8H47.8918V2.9638H56.89V.7171H44.5586Zm61.9533-4.747L97.0993.7133,94.5649.7171V13.3133h2.8335v-7.97l9.4069,7.97h2.54V.7171h-2.8334Zm8.9641-1.5672c0-2.9129,3.2725-3.9312,5.8069-3.9312A13.035,13.035,0,0,1,126.8551,4.4V1.5575a19.0648,19.0648,0,0,0-5.7729-1.024c-4.9173,0-9.528,2.3508-9.528,6.4032,0,3.8952,4.4934,6.5583,8.894,6.5583a15.9422,15.9422,0,0,0,6.547-1.2947V9.4578a13.0181,13.0181,0,0,1-5.947,1.44c-2.8562,0-5.5722-1.518-5.5722-3.899m26.43-4.041V.7171H129.7207V13.3077h12.1647V11.0591h-8.8316V8.0023h8.7086V5.7613h-8.7086V2.9581Z" transform="translate(0.5 -0.5335)"/></g></svg>