<?xml version="1.0" encoding="utf-8"?>
<!-- Generator: Adobe Illustrator 23.1.1, SVG Export Plug-In . SVG Version: 6.00 Build 0)  -->
<svg version="1.1" id="Layer_1" xmlns="http://www.w3.org/2000/svg" xmlns:xlink="http://www.w3.org/1999/xlink" x="0px" y="0px"
	 viewBox="0 0 200 69" style="enable-background:new 0 0 200 69;" xml:space="preserve">
<style type="text/css">
	.st0{fill:#FFFFFF;}
	.st1{clip-path:url(#SVGID_2_);}
	.st2{opacity:0.8;}
	.st3{clip-path:url(#SVGID_4_);}
	.st4{clip-path:url(#SVGID_6_);}
	.st5{fill:url(#SVGID_7_);}
	.st6{clip-path:url(#SVGID_9_);}
	.st7{opacity:0.77;}
	.st8{clip-path:url(#SVGID_11_);}
	.st9{clip-path:url(#SVGID_13_);}
	.st10{clip-path:url(#SVGID_15_);}
	.st11{clip-path:url(#SVGID_17_);}
	.st12{fill:url(#SVGID_18_);}
	.st13{clip-path:url(#SVGID_20_);}
	.st14{clip-path:url(#SVGID_22_);}
	.st15{clip-path:url(#SVGID_24_);}
	.st16{fill:#ED1B2E;}
	.st17{fill:#6D6E70;}
</style>
<title>American-Red-Cross</title>
<path class="st0" d="M62.4,36.6c-1.7,16.5-16.5,28.4-33,26.7C12.9,61.6,1,46.8,2.7,30.3c1.7-16.5,16.5-28.4,33-26.7
	C52.2,5.4,64.1,20.1,62.4,36.6C62.4,36.6,62.4,36.6,62.4,36.6"/>
<g>
	<defs>
		<rect id="SVGID_1_" x="2.5" y="3.5" width="60" height="60"/>
	</defs>
	<clipPath id="SVGID_2_">
		<use xlink:href="#SVGID_1_"  style="overflow:visible;"/>
	</clipPath>
	<g class="st1">
		<g class="st2">
			<g>
				<defs>
					<path id="SVGID_3_" d="M32.3,3.5C15.7,3.7,2.4,17.2,2.5,33.8c0.1,16.6,13.6,29.9,30.2,29.8S62.7,50,62.5,33.4
						C62.4,18.1,50.9,5.3,35.7,3.7c-1-0.1-2-0.2-3-0.2L32.3,3.5z"/>
				</defs>
				<clipPath id="SVGID_4_">
					<use xlink:href="#SVGID_3_"  style="overflow:visible;"/>
				</clipPath>
				<g class="st3">
					<g>
						<defs>
							<polygon id="SVGID_5_" points="1.7,-4.7 70.7,2.6 63.4,71.6 -5.6,64.4 1.7,-4.7 							"/>
						</defs>
						<clipPath id="SVGID_6_">
							<use xlink:href="#SVGID_5_"  style="overflow:visible;"/>
						</clipPath>
						<g class="st4">
							
								<radialGradient id="SVGID_7_" cx="286.4902" cy="35.1363" r="1" gradientTransform="matrix(30.2864 3.1823 -3.1972 30.4259 -8531.7324 -1947.7588)" gradientUnits="userSpaceOnUse">
								<stop  offset="0" style="stop-color:#FFFFFF"/>
								<stop  offset="5.940000e-02" style="stop-color:#FFFFFF"/>
								<stop  offset="0.5492" style="stop-color:#FFFFFF"/>
								<stop  offset="0.6723" style="stop-color:#F1F1F1"/>
								<stop  offset="0.8474" style="stop-color:#E4E4E4"/>
								<stop  offset="0.9693" style="stop-color:#CAC9CA"/>
								<stop  offset="0.9989" style="stop-color:#FFFFFF"/>
								<stop  offset="1" style="stop-color:#FFFFFF"/>
							</radialGradient>
							<path class="st5" d="M32.3,3.5C15.7,3.7,2.4,17.2,2.5,33.8c0.1,16.6,13.6,29.9,30.2,29.8S62.7,50,62.5,33.4
								C62.4,18.1,50.9,5.3,35.7,3.7c-1-0.1-2-0.2-3-0.2L32.3,3.5z"/>
						</g>
					</g>
				</g>
			</g>
		</g>
	</g>
</g>
<g>
	<defs>
		<rect id="SVGID_8_" x="0" width="64.1" height="64.1"/>
	</defs>
	<clipPath id="SVGID_9_">
		<use xlink:href="#SVGID_8_"  style="overflow:visible;"/>
	</clipPath>
	<g class="st6">
		<g class="st7">
			<g>
				<defs>
					<path id="SVGID_10_" d="M2.7,30.3C1,46.8,12.9,61.6,29.4,63.3C45.9,65,60.6,53,62.3,36.6C64.1,20.1,52.1,5.4,35.6,3.6
						c-1-0.1-2.1-0.2-3.1-0.2C17.2,3.5,4.3,15.1,2.7,30.3"/>
				</defs>
				<clipPath id="SVGID_11_">
					<use xlink:href="#SVGID_10_"  style="overflow:visible;"/>
				</clipPath>
				<g class="st8">
					<g>
						<defs>
							<rect id="SVGID_12_" x="0" width="64.1" height="64.1"/>
						</defs>
						<clipPath id="SVGID_13_">
							<use xlink:href="#SVGID_12_"  style="overflow:visible;"/>
						</clipPath>
						<g class="st9">
							<g class="st2">
								<g>
									<defs>
										<path id="SVGID_14_" d="M31.8,0C14.3,0.1,0.1,14.4,0,31.9v0.3c0.1,17.5,14.2,31.7,31.7,31.9h0.7
											c17.5-0.2,31.6-14.5,31.7-32v0C64.1,14.4,49.9,0.1,32.2,0H31.8z"/>
									</defs>
									<clipPath id="SVGID_15_">
										<use xlink:href="#SVGID_14_"  style="overflow:visible;"/>
									</clipPath>
									<g class="st10">
										<g>
											<defs>
												<polygon id="SVGID_16_" points="-28.5,5.1 58.9,-28.6 92.6,58.9 5.2,92.6 -28.5,5.1 												"/>
											</defs>
											<clipPath id="SVGID_17_">
												<use xlink:href="#SVGID_16_"  style="overflow:visible;"/>
											</clipPath>
											<g class="st11">
												
													<radialGradient id="SVGID_18_" cx="287.6972" cy="31.032" r="1" gradientTransform="matrix(30.3373 -11.684 11.7378 30.4768 -9060.2324 2447.3633)" gradientUnits="userSpaceOnUse">
													<stop  offset="0" style="stop-color:#FFFFFF"/>
													<stop  offset="5.940000e-02" style="stop-color:#FFFFFF"/>
													<stop  offset="0.6492" style="stop-color:#FFFFFF"/>
													<stop  offset="0.7976" style="stop-color:#F1F1F1"/>
													<stop  offset="0.9141" style="stop-color:#E4E4E4"/>
													<stop  offset="0.9386" style="stop-color:#CAC9CA"/>
													<stop  offset="0.9535" style="stop-color:#D1D0D0"/>
													<stop  offset="0.9568" style="stop-color:#D1D0D0"/>
													<stop  offset="0.9797" style="stop-color:#FFFFFF"/>
													<stop  offset="1" style="stop-color:#FFFFFF"/>
												</radialGradient>
												<path class="st12" d="M31.8,0C14.3,0.1,0.1,14.4,0,31.9v0.3c0.1,17.5,14.2,31.7,31.7,31.9h0.7
													c17.5-0.2,31.6-14.5,31.7-32v0C64.1,14.4,49.9,0.1,32.2,0H31.8z"/>
											</g>
										</g>
									</g>
								</g>
							</g>
						</g>
					</g>
				</g>
			</g>
		</g>
	</g>
</g>
<g>
	<defs>
		<rect id="SVGID_19_" x="12.4" y="13.3" width="40.3" height="40.3"/>
	</defs>
	<clipPath id="SVGID_20_">
		<use xlink:href="#SVGID_19_"  style="overflow:visible;"/>
	</clipPath>
	<g class="st13">
		<g>
			<defs>
				<polygon id="SVGID_21_" points="25.8,13.3 25.8,26.7 12.4,26.7 12.4,40.2 25.8,40.2 25.8,53.6 39.3,53.6 39.3,40.2 52.7,40.2 
					52.7,26.7 39.3,26.7 39.3,13.3 				"/>
			</defs>
			<clipPath id="SVGID_22_">
				<use xlink:href="#SVGID_21_"  style="overflow:visible;"/>
			</clipPath>
			<g class="st14">
				<g>
					<defs>
						<rect id="SVGID_23_" x="12.4" y="13.3" width="40.3" height="40.3"/>
					</defs>
					<clipPath id="SVGID_24_">
						<use xlink:href="#SVGID_23_"  style="overflow:visible;"/>
					</clipPath>
					<g class="st15">
						<path class="st16" d="M25.8,13.3v13.4H12.4v13.4h13.4v13.4h13.4V40.2h13.4V26.7l-13.4,0l0-13.4L25.8,13.3z"/>
					</g>
				</g>
			</g>
		</g>
	</g>
</g>
<path class="st17" d="M86,13.5c-0.1,0.2-6.4,16.8-6.6,17.3h5.5c0.1-0.2,0.8-2.6,0.8-2.6H92c0,0,0.7,2.4,0.8,2.6h5.5
	c-0.2-0.4-6.4-17.1-6.4-17.3C91.8,13.5,86,13.5,86,13.5z M149.3,13.5v3.3h5v-3.3H149.3z M163,17.5c-1.9-0.1-3.8,0.7-5.1,2
	c-1.2,1.3-1.8,3.1-1.8,4.8c0,4.1,2.6,6.9,6.6,6.9c2,0,3.8-0.7,5.2-2.1c0.5-0.5,0.9-1.1,1.2-1.8c-0.2-0.1-3.3-1.8-3.6-2
	c-0.3,0.8-0.9,2.2-2.4,2.2c-1.1,0-2.3-0.5-2.3-3.1c0-2.2,0.9-3.6,2.5-3.6c1.1,0,1.9,0.7,2.3,2c0.3-0.2,3.4-1.9,3.6-2.1
	c-0.3-0.5-0.6-0.9-1-1.3C166.7,18.3,164.9,17.5,163,17.5L163,17.5z M130,17.6c-3.6-0.2-6.6,2.6-6.8,6.2c0,0.2,0,0.4,0,0.6
	c-0.1,3.7,2.8,6.8,6.5,6.9c0.1,0,0.2,0,0.3,0c2.7,0,5.1-1.3,6.6-3.5c-0.3-0.1-3.6-1.5-3.8-1.6c-0.4,1-1.3,1.7-2.4,1.7
	c-0.6,0-1.2-0.2-1.6-0.6c-0.5-0.5-0.7-1.1-0.7-1.8l0-0.2h8.9c0-1.9-0.1-3.9-1.9-5.7C133.7,18.3,131.9,17.6,130,17.6L130,17.6z
	 M177.6,17.7c-1.5,0-3.1,0.3-4.5,0.9c-1.2,0.6-2.1,1.9-2.2,3.3c0.4,0,4.1-0.1,4.4-0.1c0.2-1,0.7-1.3,1.8-1.3c1.5,0,1.9,0.6,1.9,1.6
	l0,0.1l-0.1,0c-0.9,0.3-1.8,0.4-2.7,0.5c-2.1,0.3-3.5,0.5-4.6,1.6c-0.7,0.7-1.1,1.6-1,2.6c0,1.9,1.2,4.1,4.4,4.1
	c1.5,0.1,2.9-0.4,4.1-1.2l0.3-0.2v1.2h4.5c-0.2-0.4-0.3-0.9-0.3-1.4v-7.1c0.1-1-0.2-2-0.7-2.8C181.8,18.4,180.1,17.7,177.6,17.7
	L177.6,17.7z M194.7,17.8c-1.6-0.2-3.1,0.6-3.9,1.9l-0.3,0.5v-2.1H186v12.7h4.7V24c0-0.6,0-2.2,1.9-2.2c1.9,0,1.8,1.5,1.8,2.1v6.9
	h4.7v-8c0.1-1.4-0.3-2.8-1.2-3.9C197,18.1,195.9,17.7,194.7,17.8L194.7,17.8z M108.1,17.8c-2.6,0-3.3,1.2-3.7,1.9l-0.3,0.6v-2.1
	h-4.5v12.7h4.7v-6.9l0-0.1c0-0.5,0.2-1.1,0.5-1.5c0.4-0.4,0.9-0.6,1.4-0.6c0.9,0,1.6,0.5,1.8,1.4c0,0.2,0.1,0.5,0.1,0.8v6.8h4.7V24
	c0-0.5,0.1-0.9,0.3-1.3c0.3-0.6,1-1,1.7-0.9c1.9,0,1.9,1.6,1.9,2.4v6.6h4.7c0-0.3,0-8.2,0-8.2h0c0.1-1.3-0.3-2.6-1.1-3.6
	c-0.9-0.8-2.2-1.3-3.4-1.2c-3,0-3.8,1.6-4.1,2.1l-0.1,0.3l-0.2-0.3c-0.5-1-1.3-1.6-2.4-1.9C109.4,17.9,108.8,17.8,108.1,17.8
	L108.1,17.8z M88.9,17.9l2,6.7h-4.1L88.9,17.9L88.9,17.9z M147.6,17.9c-1.5-0.1-3,0.4-4.1,1.5l-0.3,0.3V18h-4.5v12.8h4.7v-6
	c0-0.8,0.1-2.9,3.2-2.9c0.3,0,0.8,0,1,0L147.6,17.9L147.6,17.9z M149.3,18.1v12.6h5V18.1L149.3,18.1z M130.2,20.6
	c0.9,0,1.6,0.6,1.9,1.4c0,0.1,0,0.2,0.1,0.3l0,0.4H128l0.1-0.2C128.2,21.5,129.1,20.6,130.2,20.6L130.2,20.6z M179,24.8v0.2
	c0,0.5-0.1,1-0.3,1.5c-0.5,0.9-1.4,1.5-2.5,1.5c-1,0-1.4-0.6-1.4-1c0-0.2,0.1-0.8,1.1-1.2v0h0c0.4-0.1,0.8-0.2,1.2-0.3
	c0,0,0.1,0,0.1,0c0.5-0.1,1-0.3,1.4-0.5L179,24.8L179,24.8z M139.6,35.9c-2.5-0.1-4.9,1-6.5,2.9c-1.5,1.8-2.3,4.1-2.2,6.5
	c0,2.3,0.7,4.5,2.1,6.2c1.7,1.9,4.1,2.9,6.7,2.9c2.4,0.1,4.8-0.9,6.6-2.5c0.7-0.7,1.3-1.6,1.7-2.5c-0.3-0.1-4.1-2-4.4-2.1
	c-0.4,1.7-1.9,2.9-3.7,2.9c-1.2,0.1-2.4-0.6-3-1.6c-0.6-1.1-0.9-2.3-0.8-3.5c-0.1-1.5,0.4-2.9,1.4-4c0.6-0.6,1.5-1,2.4-1
	c2.3,0,3.3,2,3.7,3c0.3-0.1,4-2,4.3-2.2C146.3,37.6,143,35.7,139.6,35.9L139.6,35.9z M79.4,36.5v17.3h5.1v-6.3h1.9
	c0,0,3.4,6.1,3.5,6.3h5.7c-0.3-0.5-4.2-6.9-4.2-6.9l-0.1-0.2l0.3-0.1c0.8-0.2,1.5-0.7,2.1-1.2c0.9-0.9,1.3-2.2,1.3-3.4
	c0.1-2.1-1-4-2.9-4.9c-1.4-0.4-2.8-0.6-4.2-0.5L79.4,36.5L79.4,36.5z M119.4,36.5v5.7l-0.3-0.3c-0.8-0.8-1.9-1.2-3.1-1.2
	c-2.7,0-5.4,2.1-5.4,6.4c0,4.1,2.2,6.9,5.5,6.9c0.6,0,1.3-0.1,1.9-0.3c0.5-0.2,0.9-0.5,1.2-0.9l0.3-0.3v1.2h4.6V36.5L119.4,36.5
	L119.4,36.5z M84.5,39.9H87c0.8,0,2.8,0,2.8,2.1c0,2.1-2,2.1-2.8,2.1h-2.4C84.5,44.1,84.5,39.9,84.5,39.9z M166.2,40.6
	c-2-0.1-4,0.6-5.5,2c-2.4,2.7-2.5,6.8-0.2,9.6c1.4,1.4,3.4,2.2,5.4,2.1c2,0.1,3.9-0.6,5.5-1.9c1.3-1.3,2-3.1,1.9-4.9
	c0-1.9-0.7-3.7-1.9-5.1C170,41.1,168.1,40.5,166.2,40.6L166.2,40.6z M180.5,40.6c-1.6-0.1-3.1,0.4-4.4,1.5c-0.8,0.8-1.2,1.8-1.2,2.9
	c0,2.6,2.2,3.3,3.4,3.6c0.9,0.2,1.7,0.4,2.6,0.6c0.5,0.1,1.4,0.2,1.4,0.9c0,0.7-0.8,1-1.5,1c-0.7,0-1.4-0.2-2.1-0.4
	c-0.7-0.3-1.4-0.8-2-1.3c-0.2,0.2-2.3,2.2-2.6,2.4c1.8,1.7,4.2,2.6,6.7,2.6c4,0,5.8-2.3,5.8-4.7c0-1.3-0.7-2.6-1.9-3.2
	c-1.1-0.4-2.2-0.8-3.4-0.9l-0.1,0c-1.7-0.4-2.1-0.5-2.1-1c0-0.3,0.2-0.8,1.2-0.8c1.2,0.1,2.4,0.5,3.4,1.3c0.2-0.2,2.3-2.1,2.5-2.3
	c-0.9-0.8-2-1.3-3.2-1.6C182.4,40.7,181.4,40.6,180.5,40.6L180.5,40.6z M193.8,40.6c-1.6-0.1-3.2,0.4-4.4,1.5
	c-0.8,0.8-1.2,1.8-1.2,2.9c0,2.6,2.2,3.3,3.4,3.6c0.9,0.2,1.7,0.4,2.6,0.6c0.5,0.1,1.4,0.2,1.4,0.9c0,0.7-0.7,1-1.5,1
	c-0.7,0-1.4-0.2-2.1-0.4c-0.7-0.3-1.4-0.8-2-1.3c-0.2,0.2-2.3,2.2-2.6,2.4c1.8,1.7,4.2,2.6,6.7,2.6c4,0,5.8-2.3,5.8-4.7
	c0-1.3-0.7-2.6-1.9-3.2c-1.1-0.4-2.2-0.8-3.4-0.9l-0.1,0c-1.7-0.4-2.1-0.5-2.1-1c0-0.3,0.2-0.8,1.3-0.8c1.2,0.1,2.4,0.5,3.4,1.3
	c0.2-0.2,2.3-2.1,2.5-2.3c-0.9-0.7-2-1.3-3.2-1.6C195.7,40.7,194.7,40.6,193.8,40.6L193.8,40.6z M102.5,40.6
	c-3.6-0.2-6.6,2.6-6.8,6.2c0,0.2,0,0.4,0,0.6c0,1.7,0.6,3.4,1.7,4.7c1.3,1.4,3.2,2.3,5.1,2.2c2.6,0,5.1-1.3,6.6-3.5
	c-0.3-0.1-3.6-1.5-3.8-1.6c-0.4,1-1.3,1.7-2.4,1.7c-0.6,0-1.2-0.2-1.6-0.6c-0.5-0.5-0.7-1.1-0.7-1.8l0-0.2h8.9
	c0-1.9-0.1-3.9-1.9-5.7C106.1,41.3,104.4,40.6,102.5,40.6L102.5,40.6z M158,40.8c-1.5-0.1-3,0.4-4.1,1.5l-0.3,0.3V41h-4.5v12.8h4.7
	v-6c0-0.8,0.1-2.9,3.2-2.9c0.3,0,0.7,0,1,0L158,40.8L158,40.8z M102.6,43.6c0.9,0,1.6,0.6,1.9,1.4c0,0.1,0,0.2,0.1,0.3l0,0.4h-4.1
	l0-0.2C100.6,44.4,101.5,43.6,102.6,43.6L102.6,43.6z M166.1,43.9c0.6,0,1.2,0.2,1.7,0.6c0.7,0.8,1,1.8,0.9,2.8c0,3-1.4,3.6-2.5,3.6
	c-2.2,0-2.5-2.2-2.5-3.5C163.6,46.1,163.9,44,166.1,43.9L166.1,43.9z M117.4,44.1c0.9,0,1.7,0.7,1.9,1.6c0.2,0.5,0.2,1.1,0.2,1.6
	c0.1,0.9-0.2,1.9-0.7,2.6c-0.4,0.4-0.9,0.6-1.4,0.6c-0.5,0-1-0.2-1.4-0.6c-0.6-0.8-0.8-1.7-0.7-2.6c0-0.5,0-1,0.1-1.5v0l0,0
	C115.6,44.9,116.5,44.2,117.4,44.1L117.4,44.1z"/>
</svg>
