<svg id="Layer_1" data-name="Layer 1" xmlns="http://www.w3.org/2000/svg" xmlns:xlink="http://www.w3.org/1999/xlink" width="200" height="30.4001" viewBox="0 0 200 30.4001"><defs><style>.cls-1{fill:url(#linear-gradient);}.cls-2{fill:url(#linear-gradient-2);}.cls-3{fill:url(#linear-gradient-3);}.cls-4{fill:#394c75;}</style><linearGradient id="linear-gradient" x1="1214.1224" y1="180.7056" x2="1214.1224" y2="176.5309" gradientTransform="matrix(2.841, 0, 0, -2.841, -2125.8083, 664.848)" gradientUnits="userSpaceOnUse"><stop offset="0" stop-color="#00d9ff"/><stop offset="1" stop-color="#0e518a"/></linearGradient><linearGradient id="linear-gradient-2" x1="1215.6017" y1="172.7771" x2="1222.1493" y2="172.7771" gradientTransform="matrix(2.841, 0, 0, -2.841, -2125.8083, 664.848)" gradientUnits="userSpaceOnUse"><stop offset="0" stop-color="#f12e1f"/><stop offset="1" stop-color="#9f1e1c"/></linearGradient><linearGradient id="linear-gradient-3" x1="1215.8579" y1="174.6942" x2="1219.3545" y2="174.7611" gradientTransform="matrix(2.841, 0, 0, -2.841, -2125.8083, 664.848)" gradientUnits="userSpaceOnUse"><stop offset="0" stop-color="#e6eaef"/><stop offset="1" stop-color="#95aab1"/></linearGradient></defs><path class="cls-1" d="M1315.5954,151.27c3.3452,0,5.5129-.5138,7.9563,2.3176l7.991,9.8723h-5.93a4.4231,4.4231,0,0,1-4.1132-2.4888Z" transform="translate(-1150.0002 -151.2339)"/><path class="cls-2" d="M1333.7505,166.3291l12.6234,15.3023h-8.8474c-3.0615,0-4.817-1.8172-5.9571-3.7761l-3.7975-6.4576,1.1-3.396Z" transform="translate(-1150.0002 -151.2339)"/><path class="cls-3" d="M1328.6256,172.9285l-2.917-4.9268c-.8483-1.5281-.0829-3.3452,3.0268-3.6824s8.5128-.8591,10.0409,2.3068C1334.5694,166.198,1328.3045,167.4772,1328.6256,172.9285Z" transform="translate(-1150.0002 -151.2339)"/><path class="cls-4" d="M1178.3112,175.69v-6.0909c0-1.9991-.7252-3.0562-2.0927-3.0562a2.2452,2.2452,0,0,0-2.0607,1.5548,3.0171,3.0171,0,0,0-.1445.9741V175.69h-2.5745v-6.388c0-1.7529-.7359-2.7591-2.02-2.7591a2.375,2.375,0,0,0-2.1409,1.6458,3.2751,3.2751,0,0,0-.1445.9741V175.69h-2.5638v-7.7609c0-1.25-.0455-2.3256-.0883-3.2381h2.2319l.1472,1.6458h.2034l.0268-.0455a3.7466,3.7466,0,0,1,3.3693-1.8733,3.1526,3.1526,0,0,1,3.016,2.01l.0241.0589h.1579l.0267-.0428a4.33,4.33,0,0,1,1.3381-1.3729,3.803,3.803,0,0,1,2.248-.653c.851,0,3.6289.3426,3.6289,4.7582V175.68Zm10.0624.23c-3.5,0-5.6762-2.1409-5.6762-5.561,0-2.8582,1.6833-5.93,5.3764-5.93,3.4951,0,4.7342,2.8849,4.7342,5.3523a6.92,6.92,0,0,1-.0776,1.1026h-7.5093v.0964c.0749,2.2,1.8733,2.9839,3.5378,2.9839a9.0973,9.0973,0,0,0,3.0348-.4791l.3747,1.7556a9.8629,9.8629,0,0,1-3.8.6771Zm-.46-9.7439a2.8442,2.8442,0,0,0-2.6762,2.8154v.1017h5.1088v-.0884a3.2092,3.2092,0,0,0-.76-2.1891,2.2138,2.2138,0,0,0-1.6539-.64Zm6.8937,9.5138V168.197c0-1.5709-.024-2.6012-.0856-3.5137h2.2507l.115,2.1141h.2222l.0214-.0615a3.239,3.239,0,0,1,2.9919-2.3069c.2355,0,.3854.0187,1.033.0535v2.4568c-.6931-.0348-.926-.0509-1.2177-.0509a2.5838,2.5838,0,0,0-2.6172,2.21,5.0393,5.0393,0,0,0-.07.87V175.69Zm18.1069.23a5.2958,5.2958,0,0,1-5.6761-5.62c0-3.5058,2.4674-5.8608,6.1364-5.8608a7.5612,7.5612,0,0,1,2.628.4683l-.463,1.951a4.8705,4.8705,0,0,0-2.074-.3961,3.4224,3.4224,0,0,0-2.5.9661,3.7918,3.7918,0,0,0-1.02,2.7457,3.4177,3.4177,0,0,0,3.5165,3.6985,5.7034,5.7034,0,0,0,2.16-.3988l.3559,1.9081a8.2508,8.2508,0,0,1-3.0668.5353Zm7.7208.0214a3.2236,3.2236,0,0,1-3.4229-3.2408c0-2.6761,2.2908-4.1346,6.45-4.1346h.2007v-.2677c0-.7653-.3078-2.0472-2.3657-2.0472a6.0694,6.0694,0,0,0-2.9572.7787l-.4977-1.6538a7.9126,7.9126,0,0,1,3.9366-.9394c3.7466,0,4.528,2.5237,4.528,4.6432v4.0142a15.7438,15.7438,0,0,0,.1633,2.5986h-2.36l-.2087-1.2418h-.19l-.03.0375a3.97,3.97,0,0,1-3.2354,1.4558Zm3.04-5.7216c-2.55,0-3.843.7333-3.843,2.1838a1.5758,1.5758,0,0,0,1.6994,1.6993,2.4085,2.4085,0,0,0,2.3148-1.6057,1.97,1.97,0,0,0,.075-.65v-1.6324Zm12.2862,5.47v-6.2274c0-1.8733-.8028-2.92-2.2292-2.92a2.47,2.47,0,0,0-2.2935,1.7154,2.7428,2.7428,0,0,0-.1418.9286V175.69h-2.6441v-7.7609c0-1.25-.0428-2.3255-.0856-3.2381h2.2774l.1365,1.6672h.206l.0268-.0455a3.9955,3.9955,0,0,1,3.5058-1.8733c1.8733,0,3.8831,1.2391,3.8831,4.71v6.5512Zm26.8365,0V168.197c0-1.5709-.0241-2.6012-.0856-3.5137h2.2506l.1151,2.1141h.2221l.0214-.0615a3.2443,3.2443,0,0,1,2.992-2.3069c.2381,0,.3853.0188,1.0356.0535v2.4568c-.6958-.0348-.9286-.0509-1.2176-.0509a2.5866,2.5866,0,0,0-2.62,2.21,5.0592,5.0592,0,0,0-.07.87V175.69Zm7.7207-16.1319h2.6414V175.69h-2.6414Zm18.1765,16.1319v-6.2274c0-1.8733-.8028-2.92-2.2292-2.92a2.47,2.47,0,0,0-2.2935,1.7154,2.7454,2.7454,0,0,0-.1419.9286V175.69H1281.4v-7.7609c0-1.25-.0428-2.3255-.0857-3.2381h2.2775l.1364,1.6753h.2061l.0294-.0455a3.99,3.99,0,0,1,3.5031-1.8733c1.8733,0,3.8858,1.239,3.8858,4.71v6.5512Zm10.3407.23c-3.5,0-5.6762-2.1409-5.6762-5.561,0-2.8582,1.6807-5.93,5.3765-5.93,3.495,0,4.7341,2.8849,4.7341,5.3523a7.226,7.226,0,0,1-.0776,1.1026h-7.5093v.0964c.0776,2.2,1.8733,2.9839,3.54,2.9839a9.0973,9.0973,0,0,0,3.0348-.4791l.3747,1.7556a9.8842,9.8842,0,0,1-3.8.6771Zm-.46-9.7438a2.8419,2.8419,0,0,0-2.6762,2.8153v.1017h5.1088v-.0884a3.2083,3.2083,0,0,0-.76-2.189,2.2129,2.2129,0,0,0-1.6539-.64Zm9.511,9.7438a7.2034,7.2034,0,0,1-3.2916-.7359l.5352-1.8733a6.2842,6.2842,0,0,0,2.7939.7788c1.1989,0,1.8733-.4951,1.8733-1.3569s-.6128-1.247-1.8974-1.7181c-1.9777-.6663-3.0187-1.7635-3.0187-3.1766,0-2.0017,1.6994-3.4013,4.1347-3.4013a6.4784,6.4784,0,0,1,2.88.6208l-.5352,1.793a5.0608,5.0608,0,0,0-2.3122-.5994c-1.0036,0-1.6539.5058-1.6539,1.2872s.5941,1.124,2.0125,1.6485c2.0312.7092,2.9063,1.6994,2.9277,3.3185,0,2.1088-1.7074,3.4228-4.4585,3.4228Zm-147.5847-.23h2.8608l-4.9723-15.305h-3.479L1150,175.69h2.735l.9741-3.3746h5.7859Zm-6.2355-5.2961,1.4371-4.9777c.1606-.5861.3212-1.239.4764-1.8733.0883-.3559.1739-.7011.2676-1.0276l.0161-.0669h.19l.15.5967c.19.752.4068,1.6057.6477,2.36l1.4826,4.983Zm98.8359,5.2961h2.8742l-4.983-15.305h-3.479l-4.9054,15.305h2.7243l.9742-3.3746h5.7858Zm-6.2247-5.2961,1.4371-4.9777c.1632-.5861.3238-1.239.479-1.8733.0883-.3559.174-.7011.2676-1.0276l.0188-.0669h.1873l.1525.5967c.19.752.4041,1.6057.645,2.36l1.4826,4.983Zm-44.0737,5.2961v-11.007h2.6441V175.69Zm.1419-15.2113h2.371v2.2587h-2.371Zm54.3179,15.2113v-11.007h2.6414V175.69Zm.1392-15.2113h2.3711v2.2587h-2.3711Zm18.76,15.2113v-11.007h2.6413V175.69Zm.1418-15.2113h2.3711v2.2587h-2.3711Zm71.2848,19.7741h-.471v-.1712h1.1481v.1712h-.4737v1.3809h-.2034Zm2.1543.6985c0-.2167-.0241-.479-.0241-.669-.0562.1793-.1177.3746-.1953.5887l-.2676.752h-.15l-.2676-.7386c-.0723-.2194-.1338-.4175-.1766-.6021,0,.1927-.0134.45-.03.6851l-.04.6663H1348.4l.11-1.5521h.2676l.2677.7493c.0642.1927.115.3613.1579.5352.0428-.1579.0963-.3291.1659-.5352l.2676-.7493h.2676L1350,181.634h-.1981Z" transform="translate(-1150.0002 -151.2339)"/></svg>