<?xml version="1.0" encoding="utf-8"?>
<!-- Generator: Adobe Illustrator 27.5.0, SVG Export Plug-In . SVG Version: 6.00 Build 0)  -->
<svg version="1.1" id="Layer_1" xmlns="http://www.w3.org/2000/svg" xmlns:xlink="http://www.w3.org/1999/xlink" x="0px" y="0px"
	 viewBox="0 0 54.2 40" style="enable-background:new 0 0 54.2 40;" xml:space="preserve">
<style type="text/css">
	.st0{fill:#252F3E;}
	.st1{fill-rule:evenodd;clip-rule:evenodd;fill:#FF9900;}
</style>
<g>
	<path class="st0" d="M16.3,15.9c0,0.6,0.1,1.2,0.2,1.5c0.1,0.4,0.3,0.8,0.5,1.2c0.1,0.1,0.1,0.3,0.1,0.4c0,0.2-0.1,0.3-0.3,0.5
		l-1,0.7c-0.1,0.1-0.3,0.1-0.4,0.1c-0.2,0-0.3-0.1-0.5-0.2c-0.2-0.2-0.4-0.5-0.6-0.8s-0.3-0.6-0.5-1c-1.3,1.5-2.9,2.3-4.8,2.3
		c-1.4,0-2.5-0.4-3.4-1.2c-0.8-0.8-1.2-1.8-1.2-3.2c0-1.4,0.5-2.5,1.5-3.5s2.3-1.3,4.1-1.3c0.6,0,1.2,0,1.7,0.1
		c0.6,0.1,1.2,0.2,1.9,0.4v-1.1c0-1.2-0.3-2.2-0.8-2.6c-0.5-0.5-1.4-0.8-2.8-0.8c-0.6,0-1.2,0.1-1.8,0.2C7.6,7.8,7.1,7.9,6.5,8.2
		C6.2,8.3,6,8.4,5.9,8.4s-0.2,0-0.3,0c-0.2,0-0.3-0.2-0.3-0.5V7.1c0-0.3,0-0.5,0.1-0.6s0.2-0.2,0.5-0.3c0.6-0.3,1.3-0.5,2.2-0.7
		c0.8-0.2,1.7-0.3,2.6-0.3c1.9,0,3.5,0.4,4.4,1.3s1.4,2.2,1.4,4.1v5.3H16.3z M9.5,18.5c0.5,0,1.2-0.1,1.7-0.3s1.2-0.6,1.6-1
		c0.3-0.3,0.5-0.7,0.6-1c0.1-0.4,0.2-0.9,0.2-1.4V14c-0.5-0.1-1-0.2-1.5-0.3s-1-0.1-1.5-0.1c-1.2,0-1.9,0.2-2.5,0.7
		c-0.5,0.4-0.8,1.1-0.8,1.9c0,0.8,0.2,1.3,0.6,1.7C8.1,18.3,8.7,18.5,9.5,18.5z M22.9,20.2c-0.3,0-0.5,0-0.6-0.2
		c-0.1-0.1-0.2-0.3-0.3-0.6L18,6.6c-0.1-0.3-0.1-0.5-0.1-0.7c0-0.3,0.1-0.4,0.4-0.4h1.6c0.3,0,0.5,0,0.6,0.2
		c0.1,0.1,0.2,0.3,0.3,0.6l2.8,11l2.6-11c0.1-0.3,0.2-0.5,0.3-0.6s0.4-0.2,0.7-0.2h1.3c0.3,0,0.5,0,0.7,0.2c0.1,0.1,0.2,0.3,0.3,0.6
		l2.7,11.2L35,6.3c0-0.3,0.1-0.5,0.2-0.6c0.1-0.1,0.3-0.2,0.6-0.2h1.5c0.3,0,0.4,0.1,0.4,0.4v0.2c0,0.1,0,0.2-0.1,0.4l-4,12.8
		c-0.1,0.3-0.2,0.5-0.3,0.6s-0.3,0.2-0.6,0.2h-1.4c-0.3,0-0.5,0-0.7-0.2c-0.1-0.1-0.2-0.3-0.3-0.7L27.9,8.7l-2.5,10.7
		c-0.1,0.3-0.2,0.5-0.3,0.7c-0.1,0.1-0.4,0.2-0.7,0.2L22.9,20.2L22.9,20.2z M44.2,20.7c-0.9,0-1.7-0.1-2.5-0.3
		c-0.8-0.2-1.5-0.4-1.9-0.7c-0.3-0.1-0.4-0.3-0.5-0.5c-0.1-0.1-0.1-0.3-0.1-0.5V18c0-0.3,0.1-0.5,0.4-0.5h0.3c0.1,0,0.2,0.1,0.4,0.2
		c0.6,0.2,1.2,0.4,1.8,0.6c0.7,0.1,1.3,0.2,1.9,0.2c1,0,1.8-0.2,2.5-0.5c0.6-0.4,0.9-0.9,0.9-1.6c0-0.5-0.1-0.8-0.4-1.2
		s-0.9-0.6-1.7-0.9l-2.5-0.7c-1.2-0.4-2.2-0.9-2.6-1.7c-0.5-0.7-0.8-1.5-0.8-2.5c0-0.7,0.1-1.3,0.4-1.8c0.3-0.5,0.7-1,1.2-1.3
		c0.5-0.4,1-0.7,1.7-0.9C43.3,5.1,44,5,44.8,5c0.4,0,0.7,0,1.2,0.1c0.4,0,0.7,0.1,1.2,0.2c0.3,0.1,0.6,0.2,0.9,0.3
		c0.3,0.1,0.5,0.2,0.7,0.3C49,6,49.2,6.2,49.3,6.3c0.2,0.1,0.1,0.3,0.1,0.5v0.8c0,0.3-0.1,0.5-0.4,0.5c-0.1,0-0.3-0.1-0.6-0.2
		c-0.9-0.4-2-0.6-3.2-0.6c-0.9,0-1.7,0.1-2.2,0.5c-0.5,0.5-0.8,0.8-0.8,1.5c0,0.5,0.2,0.9,0.5,1.2s0.9,0.6,1.8,0.9l2.3,0.7
		c1.2,0.4,2,0.9,2.5,1.6c0.5,0.7,0.8,1.4,0.8,2.3c0,0.7-0.1,1.3-0.4,1.9s-0.7,1-1.2,1.4s-1.2,0.7-1.8,0.9
		C45.9,20.6,45,20.7,44.2,20.7z"/>
	<g>
		<path class="st1" d="M47.3,28.8C41.9,32.8,34,35,27.1,35C17.6,35,9,31.5,2.4,25.5c-0.5-0.5,0-1.2,0.6-0.7c7,4.1,15.8,6.6,24.7,6.6
			c6.1,0,12.7-1.2,18.9-3.8C47.5,27.1,48.3,28.2,47.3,28.8z"/>
		<path class="st1" d="M49.6,26.2c-0.7-0.9-4.5-0.4-6.4-0.2c-0.5,0.1-0.6-0.4-0.1-0.7c3.2-2.2,8.2-1.5,8.8-0.8s-0.2,5.9-3.1,8.3
			c-0.4,0.4-0.9,0.2-0.7-0.3C48.8,30.8,50.3,27,49.6,26.2z"/>
	</g>
</g>
</svg>
