<svg id="Layer_1" data-name="Layer 1" xmlns="http://www.w3.org/2000/svg" width="200" height="181.7172" viewBox="0 0 200 181.7172"><defs><style>.cls-1{fill:#010101;}.cls-2{fill:#0f99d6;}</style></defs><title>Blue-Cross-Blue-Shield</title><path class="cls-1" d="M9.9939,129.623V140.47l.0782,3.22h2.9926a5.6192,5.6192,0,0,0,4.0871-1.4642c1.6135-1.7131,1.6135-4.6487,1.6135-5.6865,0-3.1418-.6682-4.8122-1.8837-5.786-.91-.7108-2.4807-1.187-4.8832-1.1444Zm.0782-12.34-.0426,2.8432V128.45h2.5944a4.7222,4.7222,0,0,0,3.6607-1.3079c.6682-.8177,1.0235-2.1324,1.0235-4.2647,0-4.6059-1.3789-5.4588-4.407-5.5443ZM0,116.0821H15.5809a12.4914,12.4914,0,0,1,4.9188.86,5.6864,5.6864,0,0,1,3.07,5.2176,6.07,6.07,0,0,1-1.6988,4.3217c-1.8412,1.9974-4.2647,2.2888-6.056,2.4878,1.9333.0853,5.04.2489,7.435,2.7722a7.1863,7.1863,0,0,1,2.09,5.26,7.62,7.62,0,0,1-2.09,5.3882c-2.239,2.3243-5.0752,2.41-7.5133,2.4878H0v-1.0588H3.81l.0853-4.0373V120.5246L3.81,117.1412H0Zm31.78,0c1.8481-.0353,2.3954-.0353,4.13-.1634l-.0782,4.5278v20.1087l.0782,3.2626h2.7153v1.0588H27.1387v-1.0588h2.95l.0781-3.2626V120.4465l-.0781-3.2981h-2.95v-1.0663Zm10.7618,9.0557c2.0543-.0426,2.68-.0426,4.6059-.1634l-.0782,3.7885v9.1339a10.5074,10.5074,0,0,0,.398,3.5541,2.8861,2.8861,0,0,0,2.8433,1.8339,4.0448,4.0448,0,0,0,2.8432-1.18c1.5353-1.5922,1.4927-3.71,1.4927-5.5087v-7.229l-.0782-3.1418h-2.85v-1.0588h3.3834c2.2817-.0426,2.9428-.0426,5.2316-.1634l-.0782,3.7885v11.3022l.0782,3.71h2.8432v1.1017H60.17c-2.5163,0-3.419.0427-5.31.1564l-.1279-3.1631a8.4,8.4,0,0,1-7.2005,3.4261c-2.9143,0-4.7624-1.1444-5.5087-2.6941a8.4912,8.4912,0,0,1-.5544-3.8313v-9.6244l-.0783-2.9783h-2.843V125.138Zm34.78,7.506c.0427-3.1844.0782-6.9374-3.4616-6.9374-3.3408,0-3.4972,3.4687-3.618,6.9374Zm5.7505,6.5253c-1.0236,1.9973-3.156,6.1556-9.0913,6.1556-6.0987,0-9.8375-4.8549-9.8375-10.5271,0-5.4235,3.554-10.2285,9.88-10.2285a9.2031,9.2031,0,0,1,7.037,2.7722,9.08,9.08,0,0,1,2.2817,6.5251H70.2065c0,3.4617.1137,6.6034,1.77,8.4018a4.6915,4.6915,0,0,0,3.4971,1.3861c4.2647,0,5.8642-3.7177,6.3973-5.0183l1.18.5331Zm28.2831,3.7035a30.0674,30.0674,0,0,1-11.06,2.4452c-8.1032,0-14.1236-6.0348-14.1236-14.8417,0-9.5035,6.9236-15.0123,14.7564-15.0123a25.9452,25.9452,0,0,1,10.2712,2.4523v8.11h-1.2226a10.4339,10.4339,0,0,0-2.9073-6.5608,8.0252,8.0252,0,0,0-5.8286-2.6158,7.8686,7.8686,0,0,0-5.5442,2.3314c-1.969,2.04-2.8433,5.2956-2.8433,11.2522,0,5.75.7108,9.2973,2.7153,11.4582a7.0517,7.0517,0,0,0,5.1177,2.2035,8.9491,8.9491,0,0,0,6.5678-3.0565,9.6465,9.6465,0,0,0,2.8006-6.2412h1.2937v8.0751Zm10.8611.9452h2.8859v1.0588h-11.508v-1.0588h2.8434l.0782-3.3052V129.7865l-.0782-3.59h-2.8432v-1.0588h4.4c1.8125-.0426,2.4025-.0426,4.0516-.1635l.0782,3.0992v.8956a5.6868,5.6868,0,0,1,1.4216-2.5652,4.9754,4.9754,0,0,1,3.6251-1.6349c2.5163,0,3.5541,2.0826,3.5541,3.9165,0,2.4878-1.5781,2.893-2.4452,2.893a2.438,2.438,0,0,1-2.4381-2.6868c0-.2059.1208-1.2226.1208-1.4217,0-.8529-.59-.8529-.7108-.8529-.5117,0-1.2226.6471-1.7343,1.4642-1.2937,2.1325-1.3719,5.3382-1.4217,7.5844V140.52l.0853,3.3053Zm15.41-9.71c0,6.3973.3909,10.0722,4.1653,10.0722s4.0942-3.71,4.0942-9.0913c0-4.9756-.2346-9.4608-4.13-9.4253-3.6606,0-4.13,3.881-4.13,8.4444m14.28.9809a9.9911,9.9911,0,0,1-9.7394,10.2366h-.0006q-.2658.0066-.5316-.0009c-5.7859,0-9.9941-4.3217-9.9941-10.3991,0-6.3973,4.4852-10.2357,9.9513-10.3139,6.3973-.1279,10.3493,4.5634,10.3493,10.4773m4.088,2.2817a9.0087,9.0087,0,0,0,.9027,3.3834,5.6868,5.6868,0,0,0,5.0326,3.3409c2.3172,0,3.86-1.3434,3.86-2.9712,0-1.8339-1.7344-2.566-4.2647-3.5114-3.5043-1.3434-6.4542-2.4452-6.4542-6.7669,0-5.1391,4.3289-6.3191,7.0442-6.3191a16.882,16.882,0,0,1,5.7859,1.3008l.0782,5.3026h-1.187a11.0591,11.0591,0,0,0-.5829-2.2035,5.1957,5.1957,0,0,0-4.5278-3.0565,2.7694,2.7694,0,0,0-3.0592,2.4455h0l-.0044.0424a2.21,2.21,0,0,0,1.4216,1.9973c.6326.2915,3.7388,1.4714,4.4425,1.7557,2.4026,1.0165,4.8833,2.4025,4.8833,6.1556,0,4.2647-3.2271,7.1081-7.9471,7.1081a17.7154,17.7154,0,0,1-6.6105-1.5l-.0782-6.49Zm17.1806,0a9.1414,9.1414,0,0,0,.9383,3.3693,5.6866,5.6866,0,0,0,5.04,3.3407c2.3173,0,3.8526-1.3434,3.8526-2.9711,0-1.8339-1.7343-2.566-4.2647-3.5114-3.4971-1.3435-6.4541-2.4452-6.4541-6.7669,0-5.1391,4.3359-6.3191,7.0512-6.3191a16.8769,16.8769,0,0,1,5.7789,1.3008l.0782,5.3026h-1.2013a11.0457,11.0457,0,0,0-.59-2.2035,5.1889,5.1889,0,0,0-4.5278-3.0565,2.7694,2.7694,0,0,0-3.0592,2.4454l-.0044.0424a2.2177,2.2177,0,0,0,1.4572,1.9975c.6255.2913,3.7317,1.4712,4.4426,1.7557,2.3954,1.0164,4.8761,2.4025,4.8761,6.1555,0,4.2648-3.2271,7.1081-7.9471,7.1081a17.7707,17.7707,0,0,1-6.6105-1.5l-.0782-6.49ZM10.0721,166.002v10.854l.0782,3.22h2.9925a5.6727,5.6727,0,0,0,4.0941-1.4714c1.6136-1.7131,1.6136-4.6487,1.6136-5.6865,0-3.1417-.6753-4.8121-1.8908-5.793-.9027-.7109-2.4807-1.1871-4.8832-1.1444Zm.0779-12.3112v2.843l-.0426,8.3165h2.6015A4.7332,4.7332,0,0,0,16.37,163.55c.6682-.8245,1.0165-2.168,1.0165-4.2647,0-4.6059-1.379-5.4661-4.407-5.5443ZM.0779,152.4684h15.56a12.3337,12.3337,0,0,1,4.9756.8529,5.7294,5.7294,0,0,1,3.0706,5.2244,6.0853,6.0853,0,0,1-1.6917,4.3147c-1.8481,2.0044-4.2647,2.2887-6.0632,2.4949,1.9334.0782,5.04.2416,7.4353,2.7721a7.1435,7.1435,0,0,1,2.09,5.26,7.598,7.598,0,0,1-2.09,5.3808c-2.2391,2.3243-5.0681,2.41-7.5059,2.4879H.0783v-1.0589h3.817l.0782-4.0374V156.9109l-.0782-3.3764H.0783Zm31.7805,0c1.8481-.0427,2.4025-.0427,4.13-.1635l-.0782,4.5279v20.1016l.0782,3.2626h2.7153v1.0588H27.2168V180.197h2.95l.0781-3.2626V156.8328l-.0781-3.2982h-2.95v-1.0662Zm10.79,9.0485a42.3011,42.3011,0,0,0,4.6059-.1634l-.0782,3.7957v9.1339a10.6973,10.6973,0,0,0,.3908,3.5542,2.8787,2.8787,0,0,0,2.8432,1.8339,4.03,4.03,0,0,0,2.8433-1.18c1.5353-1.5923,1.4927-3.71,1.4927-5.5088v-7.2646l-.0711-3.1347H51.761v-1.0662h3.3835c2.2816,0,2.95,0,5.2315-.1635l-.0782,3.7957v11.2947l.0782,3.71h2.8433v1.1018H60.2552c-2.5163,0-3.4261.0426-5.31.1635l-.1209-3.1418a8.36,8.36,0,0,1-7.2,3.4261c-2.9073,0-4.7624-1.1444-5.5088-2.6942a8.4909,8.4909,0,0,1-.5545-3.8312v-9.6242l-.0781-2.9711H38.64v-1.0663Zm34.36,7.5062c.0426-3.1773.0853-6.93-3.4617-6.93-3.3407,0-3.4971,3.4617-3.618,6.93Zm5.75,6.5252c-1.0236,1.9974-3.1489,6.1556-9.0913,6.1556-6.0987,0-9.8376-4.8477-9.8376-10.52,0-5.4235,3.554-10.2356,9.88-10.2356a9.2289,9.2289,0,0,1,7.037,2.7722,8.9735,8.9735,0,0,1,2.2887,6.5252h-13.15c.0426,3.4687.1208,6.6105,1.777,8.4018a4.6628,4.6628,0,0,0,3.5043,1.386c4.2647,0,5.857-3.71,6.3973-5.0183l1.187.5331Zm4.244-4.1228A12.4914,12.4914,0,0,0,88.0617,175.1c2.36,5.0538,6.6529,5.1747,7.52,5.1747,3.1062,0,5.7433-1.9118,5.7433-4.89s-2.168-3.9592-8.11-6.49A27.8485,27.8485,0,0,1,90.5,167.637a8.1526,8.1526,0,0,1-4.4-7.3c0-5.061,3.8952-8.4373,9.3613-8.4373a18.3686,18.3686,0,0,1,7.5133,1.7912l.398,6.8451h-1.2578c-.5544-2.1324-.8672-3.2981-2.2461-4.7269a7.201,7.201,0,0,0-5.1534-2.4878,4.2323,4.2323,0,0,0-4.55,3.8884q-.0123.156-.013.3125c0,2.6086,2.2817,3.71,3.3053,4.2009,1.3363.6539,2.6726,1.1443,4.0161,1.7131,3.4189,1.4215,7.7051,3.554,7.7051,9.1338,0,5.26-3.9734,9.1339-10.62,9.1339a23.46,23.46,0,0,1-8.5294-1.9121l-.2416-8.3662Zm23.8831-18.9571c2.0118,0,2.4878-.0427,4.2647-.1635l-.0853,4.4426v7.7477a5.9355,5.9355,0,0,1,3.746-3.0564,8.593,8.593,0,0,1,2.8432-.4479,6.7126,6.7126,0,0,1,4.9757,1.7913,7.047,7.047,0,0,1,1.6491,4.8548V177.34l.0852,2.8433H131.08v1.0733H119.5721v-1.0588H122.6l.0782-2.8432v-9.8024c0-1.5922,0-4.77-3.0706-4.77a4.1225,4.1225,0,0,0-2.95,1.3079c-1.3364,1.4216-1.4572,3.22-1.578,5.5869V177.34l.0853,2.8433h2.95v1.0733H106.6212v-1.0588H109.5l.0711-2.893V156.7475l-.0711-3.22h-2.8787v-1.0588Zm23.4566,3.0138a3.18,3.18,0,1,1,3.1418,3.22,3,3,0,0,1-2.2035-.9383,3.3049,3.3049,0,0,1-.9382-2.2817m1.18,6.0347a46.9465,46.9465,0,0,0,4.9756-.1634l-.0852,4.4923v11.1454l.0852,3.1845h2.7153v1.08H131.7269v-1.0588h2.95l.071-3.1844V165.8458l-.071-3.2626h-2.95V161.517Zm22.1561,7.5062c.0426-3.1773.0781-6.93-3.4617-6.93-3.3407,0-3.4971,3.4617-3.618,6.93Zm5.7433,6.5252c-1.0164,1.9974-3.1417,6.1556-9.0841,6.1556-6.0988,0-9.8376-4.8477-9.8376-10.52,0-5.4235,3.554-10.2356,9.8731-10.2356a9.2488,9.2488,0,0,1,7.0442,2.7722,9.0891,9.0891,0,0,1,2.2817,6.5252H150.5562c.0426,3.4687.1208,6.6105,1.77,8.4018a4.6849,4.6849,0,0,0,3.5114,1.386c4.2647,0,5.857-3.71,6.3973-5.0183l1.18.5331Zm6.0984-23.08c1.8481-.0427,2.4026-.0427,4.13-.1635l-.0783,4.5279v20.1016l.0783,3.2626h2.7152v1.0588H164.9074v-1.0588h2.95l.0782-3.2626V156.8328l-.0782-3.3053h-2.95v-1.0588Zm15.29,11.3729c-1.1373,1.2226-1.3363,3.6322-1.3363,7.4635,0,4.6913.1208,8.6078,3.7388,8.6078a4.0514,4.0514,0,0,0,3.0281-1.3078c1.0662-1.1444,1.379-2.5732,1.379-7.7052,0-3.6677,0-8.16-4.1725-8.1176a3.512,3.512,0,0,0-2.6371,1.0588m7.6341-11.3729c2.2817,0,2.9925-.0427,4.7624-.1706l-.0781,3.3053v21.6941l.0781,2.8432H200v1.116h-3.7036c-2.1963.0427-2.9072.0427-4.7553.1635v-2.6939a6.6627,6.6627,0,0,1-5.985,2.9783c-5.9,0-8.26-5.5443-8.26-10.0294,0-6.3973,3.6962-10.52,8.7785-10.52a5.9335,5.9335,0,0,1,4.6416,1.7486,2.95,2.95,0,0,1,.8245,1.3505v-8.0747l-.0782-2.6513h-2.9143v-1.0588Z" transform="translate(0 -0.0001)"/><path class="cls-2" d="M91.9643,98.1911c.8814,0,2.1324.1564,2.1324-1.0733,0-.917-.7108-1.0307-1.4927-1.0307h-1.72V98.22Zm-1.1089,3.6536h-.81V95.3265h2.7082c1.6419,0,2.1964.6327,2.1964,1.8055s-.8459,1.7272-1.9476,1.82l1.8764,2.893h-.91l-1.77-2.893H90.8551v2.893ZM96.72,98.6176a4.6274,4.6274,0,1,0-4.6059,4.8051,4.5279,4.5279,0,0,0,4.6137-4.44h0q.0036-.1824-.0077-.3647m-10.1219,0a5.5088,5.5088,0,1,1,5.5159,5.6864,5.6154,5.6154,0,0,1-5.5159-5.6864M188.25,98.1911c.8743,0,2.1325.1564,2.1325-1.0733,0-.917-.7109-1.0307-1.4927-1.0307h-1.7344V98.22Zm-1.116,3.6536h-.8032V95.3265h2.7438c1.6419,0,2.1963.6327,2.1963,1.8055s-.8458,1.7272-1.9476,1.82l1.8765,2.893h-.91l-1.77-2.893h-1.35v2.893Zm5.8713-3.2271a4.6274,4.6274,0,1,0-4.6058,4.8051,4.5278,4.5278,0,0,0,4.6137-4.44q.0036-.1824-.0077-.3647m-10.1219,0a5.5088,5.5088,0,1,1,5.5164,5.6858,5.6083,5.6083,0,0,1-5.5159-5.6864M153.8472,28.7807a2.4453,2.4453,0,0,1-.9667.5758c-.7676.1279-.661-.5616-1.187-.9525-.327-.2275-.6326.0711-.9241-.4833,1.116,0,2.8006.0426,3.6394.9311a1.173,1.173,0,0,0-.5616-.0711M69.6591,74.8482h0L57.1916,50.61c-.9028-2.0613-.5047-5.5017,2.9072-5.9921L78.31,42.798h0a28.77,28.77,0,0,1,1.7412,9.9158A28.433,28.433,0,0,1,69.6588,74.8479m-1.8339,1.3647a26.3425,26.3425,0,0,1-29.8538,0h0L51.2134,55.7271a1.9133,1.9133,0,0,1,3.3905,0l13.214,20.4855ZM25.767,52.7138a28.9385,28.9385,0,0,1,1.7341-9.916h0l18.2109,1.82c3.419.49,3.8171,3.9308,2.9144,5.9921L36.1445,74.8838h0a28.4325,28.4325,0,0,1-10.3775-22.17M52.9128,24.58A27.0819,27.0819,0,0,1,77.4783,40.8149H58.1867c-2.7437-.064-3.9663-1.72-4.0232-3.0991-.0639-1.6136.1777-2.1325,1.4643-3.8455,1.4216-1.9263.4265-5.6367-2.7153-5.6865-3.1489.064-4.1227,3.7744-2.7153,5.6865,1.2724,1.72,1.5212,2.2319,1.4216,3.8455-.0213,1.3789-1.2367,3.0353-3.9947,3.0991h-19.32A27.1089,27.1089,0,0,1,52.9122,24.58M74.72,29.8538V1.4217H30.9344V29.8538H3.4616V75.3882H30.9344v28.4756H74.72V75.4026H102.2V29.8538Zm-30.7281,18.41-13.79-1.3148a25.1962,25.1962,0,0,0-.6611,5.7647,24.6509,24.6509,0,0,0,5.6368,15.78L44.8305,49.38c.2346-.5971.1493-1.0307-.8387-1.116m8.9207,11.8846a.4619.4619,0,0,0-.3909.2132L43.3948,74.8411a22.689,22.689,0,0,0,19.0212,0L53.3106,60.3619a.4478.4478,0,0,0-.3768-.2132m-6.5181-30.714a23.2715,23.2715,0,0,0-11.2663,7.5274H47.3611a.3341.3341,0,0,0,.0924-.59c-1.3008-1.4713-2.4167-4.5633-1.0378-6.9446M61.84,48.2638c-1.0022.0853-1.0733.5189-.8458,1.116l9.6667,19.1136a24.7291,24.7291,0,0,0,5.6294-15.78,25.597,25.597,0,0,0-.661-5.7647Zm8.8285-11.3017a23.343,23.343,0,0,0-11.2662-7.5346c1.379,2.3813.263,5.4733-1.0378,6.9446-.2487.2488-.1279.5189.0924.5829Zm97.43-6.7456c-.2346.8033-.4265.789-.9383,1.2795-1.0519,1.0022-2.4594,2.0329-3.8383,3.3977a12.9582,12.9582,0,0,0-2.36,2.438c-.1422.2417-.4691.8882-.4691.8882-2.3386-.49-4.7269-.5331-6.5608-.9169l-.0853-2.0685s2.3457,0,2.58-1.4927a.9877.9877,0,0,0-.3059-.7107,6.1674,6.1674,0,0,0-1.1941-.5829,20.6146,20.6146,0,0,1,5.1676,1.7912c.1208-.199-.1848-.9027-.3269-1.0588a1.9472,1.9472,0,0,0-1.1729-.6681c-1.1016-.2987-3.7812-.64-3.7812-.64l2.2745-.1a2.4387,2.4387,0,0,0,1.2723-.526c.1353-.3059-.0426-.7534-.4406-1.1941-.263-.2914-.5189-.5686-.7464-.8672A8.4174,8.4174,0,0,0,156.0647,27.6a7.6939,7.6939,0,0,0-2.3813-1.4216,4.393,4.393,0,0,1,.1493-1.8552c.22-.4478,1.18-.4905,1.4785-.3412a14.395,14.395,0,0,0,4.62,1.9477c.3765.2843.3838.37.4975.9454.2559,1.2439-.2132,3.0706,0,3.9307a.3908.3908,0,0,0,.5971.1564c1.6633-.9382,2.8006-2.5447,4.4923-3.284.789-.3482,3.0494.8246,2.5376,2.5376m-7.3781,23.805s.2132-3.6749.2345-5.4448a1.5141,1.5141,0,0,0,.87-1.9566,1.4929,1.4929,0,0,0-.0808-.1758,2.1328,2.1328,0,0,0-1.315-.8529,36.9971,36.9971,0,0,0-5.75-.8388,30.9388,30.9388,0,0,1-4.7838-.86c-3.3123-.8814-6.12-2.4735-7.5914-5.6011a8.2667,8.2667,0,0,1,3.3834-10.57,9.9137,9.9137,0,0,1,8.4871-.1066,5.2035,5.2035,0,0,1,2.0329,2.0613c.27.3767.6681.526.8956.9383.128.2274-.1706.3411-.2985.3838a14.5856,14.5856,0,0,1-3.2555.1066,11.1819,11.1819,0,0,0-3,.1137,21.2393,21.2393,0,0,0,2.6371,1.4643,13.0565,13.0565,0,0,1,1.4216.4549c.199.1067.76.2772.76.5474s-.54.3838-.8742.49a5.6225,5.6225,0,0,1-2.8433,0c-1.5566-.37-2.2887-1.3221-3.2555-.7108-.647.3909-.647,1.3008-.4407,2.2177.3341,1.4215,1.7913,2.0329,3.0139,2.438,4.2647,1.4217,8.8069.6255,12.9651,2.8432,1.6064.8459,3.419,2.5945,3.7529,4.4426,1.4217,7.698-6.973,8.6079-6.973,8.6079m-6.71-7.691s.8459.0924,2.8859.2275a8.9153,8.9153,0,0,1,2.6229.5686l-.2059,7.7407c-1.6633-.3269-2.758-.5117-4.3075-.7108a16.3876,16.3876,0,0,0-2.2457-5.8344.6045.6045,0,0,1,0-.7606c.1493-.2771,1.244-.547,1.244-.547v-.6684Zm11.373,16.8746a4.805,4.805,0,0,1-2.3315,3.0565,6.34,6.34,0,0,1-2.7224.9027l.1137-4.2647a1.0226,1.0226,0,0,0,.5189-.3554.8814.8814,0,0,0,.2133-.8176,1.0526,1.0526,0,0,0-.59-.7109,4.7756,4.7756,0,0,0-1.2936-.27c-2.0258-.2488-3.8882-.4834-5.8642-.8246-3.554-.6042-6.12-2.7437-5.8926-6.2906.1422-2.367,2.5447-3.0992,4.2647-3.86a27.4908,27.4908,0,0,1,1.2724,2.6727c.32.9737.49,1.585.49,1.585s-.7678.1353-.7109.789.7109.8245,1.0589.8814a50.4781,50.4781,0,0,1,7.6058,1.4217,6.2189,6.2189,0,0,1,2.9854,2.0542,4.6342,4.6342,0,0,1,.8956,4.0445M155.46,61.6824c1.6419.2059,2.239.2488,3.6251.4336l-.1353,7.0228-1.6-.9027-1.55-.7748-.3554-5.7931Zm6.3118,16.6685a5.3377,5.3377,0,0,1-1.9477,1.0235l.1067-3.0067a.7106.7106,0,0,0,.2345-.6682c-.1492-.6042-2.2106-2.0258-3.32-2.4736s-2.6229-.9027-3.689-1.4216a4.2631,4.2631,0,0,1-2.3883-5.8571,4.6075,4.6075,0,0,1,1.9122-1.8694,7.8908,7.8908,0,0,1,1.4713-.6326l.263,3.5185a.71.71,0,0,0-.4264.4265.8815.8815,0,0,0,.49,1.0307,58.75,58.75,0,0,1,5.75,2.7863c2.232,1.3647,2.9641,2.353,2.9783,3.9806a3.8242,3.8242,0,0,1-1.4216,3.1275M158.6,85.9282c0,.5615-.2132.9882-1.2155,1.0093-.8459,0-1.2084-.2915-1.2439-1.2083-.1353-4.03-.3059-11.6147-.3059-11.6147a10.5072,10.5072,0,0,1,1.6135.6682,6.0732,6.0732,0,0,1,1.2369,1.0022c.1066.1706.1848.1991.1706.4407-.05,2.95-.2346,8.4089-.2559,9.7025m-4.3572-3.3337c-.1422,1.052.2771,1.5.1777,2.0046-.1777.8245-.7109.5686-.9667,0A5.5167,5.5167,0,0,1,152.65,82.14a3.8743,3.8743,0,0,1,1.2084-3.3765,4.0457,4.0457,0,0,1,.91-.7108l.1421,3.3124s-.5189.2132-.6681,1.2723M170.43,19.2914a101.4085,101.4085,0,0,1-13.5053,1.13h0a101.5116,101.5116,0,0,1-13.5054-1.13A105.504,105.504,0,0,1,129.7149,16.27c-3.3123,9.7238-2.6015,21.9781-.064,32.8891,4.6914,20.5,16.6828,36.1375,27.2525,43.0252,10.5554-6.8877,22.5325-22.5256,27.3163-43.0679,2.5447-10.9109,3.2484-23.1652-.064-32.8891a105.352,105.352,0,0,1-13.7117,3.021m15.71,36.315c-5.3311,16.2136-13.6476,30.5648-29.2569,40.6014h0c-15.6022-10.0224-23.9186-24.3878-29.25-40.6014-4.727-14.4009-5.8858-31.2755-.7108-44.4041a85.0457,85.0457,0,0,0,16.647,4.3288,82.675,82.675,0,0,0,13.2916,1.102h0a82.6818,82.6818,0,0,0,13.2921-1.1017A85.0854,85.0854,0,0,0,186.8,11.16c5.196,13.1571,4.0445,30.0033-.7108,44.4042m5.1176-55.5a71.7061,71.7061,0,0,1-34.3168,8.75C144.2164,8.8564,133.412,5.6864,122.5793,0c-7.1081,14.5218-8.2383,38.1135-2.09,57.8171,5.9281,18.9928,17.4361,36.2512,36.4076,47.1692C175.8755,94.104,187.3834,76.81,193.3116,57.8171c6.1485-19.7036,5.0041-43.2313-2.104-57.753" transform="translate(0 -0.0001)"/></svg>