<svg id="Layer_1" data-name="Layer 1" xmlns="http://www.w3.org/2000/svg" width="200" height="42.7648" viewBox="0 0 200 42.7648"><defs><style>.cls-1{fill:#010000;}.cls-2{fill:#00925c;}.cls-3{fill:#fff;}</style></defs><title>BNP-Paribas</title><path class="cls-1" d="M252.4476,66.5669c-3.6507,0-6.1159,1.6951-6.1159,4.2342,0,2.5443,2.5717,3.57,4.83,4.4848,1.7437.7075,3.5754,1.4565,3.5754,2.666a1.2659,1.2659,0,0,1-.3136.8781c-.4141.4969-1.28.7251-2.6345.6586a12.4734,12.4734,0,0,1-4.5163-1.2857l-.69-.3138v3.1364l.439.1255.2825.0625a18.0116,18.0116,0,0,0,4.0772.5646c4.24,0,6.7743-1.6761,6.7743-4.4848,0-2.6042-2.6155-3.6581-4.9239-4.5788-1.6936-.6762-3.45-1.37-3.45-2.478,0-.3248-.0191-1.2859,2.164-1.2859a11.2246,11.2246,0,0,1,4.1084,1.0037l.8156.345V67.1317l-.8156-.1568a19.2935,19.2935,0,0,0-3.6068-.408Zm-143.2021.5018v.157c.1128,1.5228.1881,5.3427.1881,6.7428,0,1.2772-.0189,5.5436-.22,7.4018v.1566h6.7118c3.2867,0,6.7742-1.0236,6.7742-3.9517,0-1.8364-1.311-3.2029-3.7949-3.9517,1.819-.484,3.0736-1.7412,3.0736-3.1989,0-2.3835-2.76-3.3018-5.3318-3.3559Zm16.2773,0v.157c.1129,1.5228.1881,5.3053.1881,6.7113,0,1.2746-.0188,5.5779-.2195,7.4333v.1566h3.3558v-.1253c-.1882-3.5428-.1882-7.098-.1882-10.5378a5.3338,5.3338,0,0,0,.8155,1.5682c.05.0889,5.8459,8.5317,6.1472,9.0323v.0626H138.35l-.0313-.1566c-.1881-1.8594-.1881-6.1585-.1881-7.4333,0-1.4062.0877-5.1946.1881-6.7113v-.157h-3.3873l.1567,3.6382c.0628,1.8166.0943,3.6633.22,5.4571a11.5212,11.5212,0,0,0-1.38-2.29c-.0251-.0515-3.4-5.2952-4.579-6.7745l-.0314-.0313Zm16.5907,0,.0313.1257c.1128,1.528.1882,5.3378.1882,6.7428,0,1.2758-.019,5.5765-.22,7.4333l-.0313.1566h4.0458l-.0315-.1566c-.138-1.3237-.1756-3.8452-.1881-5.8023.1631.0087.7214.0314.7214.0314l.5647.0313c5.3067,0,7.8721-1.4239,7.8721-4.3595,0-3.3455-3.5942-4.1348-6.6177-4.2025h-6.3354Zm20.6366,0v.1257c.1129,1.528.22,5.3378.22,6.7428,0,1.2758-.05,5.5765-.2511,7.4333v.1566h4.0145v-.1566c-.138-1.3237-.1944-3.8452-.22-5.8023.1758.0087.7528.0314.7528.0314l.5645.0313c5.3067,0,7.8722-1.4239,7.8722-4.3595,0-3.3455-3.6255-4.1348-6.649-4.2025H162.75Zm18.2846,0-.0315.0943c-.74,2.0549-5.5511,12.5639-6.3039,14.1758l-.0941.1881h3.45l.0313-.0626c.3011-.9858.6649-2.1125,1.1291-3.3244l2.8539-.0627,2.3522.0313s.4015.0314.5018.0314c.6273,1.56,1.0852,2.7425,1.2859,3.3244l.0313.0626h3.9832l-6.4293-14.4582Zm10.7887,0v.157c.1129,1.5228.1881,5.3053.1881,6.7113,0,1.2737-.0062,5.5779-.2193,7.4333v.1566h4.0142V81.37c-.2007-1.8617-.2195-6.16-.2195-7.4333,0-1.0085.05-3.2565.1255-5.0493.3262-.0414.7653-.0564,1.0665-.0626,1.8818-.0352,3.2177.3488,3.8575,1.129a2.0438,2.0438,0,0,1,.4391,1.3171c0,1.6688-1.587,2.4942-3.0421,2.5718a4.6129,4.6129,0,0,1-.8467-.0313l-.2825-.0625.1883.2823c1.4051,2.0862,3.55,5.7029,4.4535,7.4328l.0313.0626h4.2967l-.1255-.2193c-.1506-.2309-2.98-4.3783-4.1712-6.1472a.5337.5337,0,0,1-.0626-.094c2.1828-.664,3.2617-1.8984,3.2617-3.7952,0-3.3444-3.6253-4.1383-6.6488-4.2025Zm15.9323,0v.1257c.1129,1.528.1883,5.3427.1883,6.7428,0,1.2737-.019,5.5739-.22,7.4333v.1566h4.0145l-.0315-.1566c-.2007-1.8594-.188-6.16-.188-7.4333,0-1.4011.0877-5.2186.188-6.7428v-.1257Zm7.59,0v.157c.1128,1.52.188,5.3427.188,6.7428,0,1.2772.0125,5.5436-.188,7.4018l-.0313.1566h6.7428c3.2743,0,6.7745-1.0236,6.7745-3.9517,0-1.8364-1.33-3.2029-3.8262-3.9517,1.8314-.484,3.0734-1.7412,3.0734-3.1989,0-2.3835-2.76-3.3018-5.3316-3.3559Zm20.6681,0-.0315.0628c-.79,2.1854-5.8772,13.2938-6.304,14.2071l-.094.1881h3.45l.0313-.094c.3011-.9837.6649-2.1064,1.1291-3.3246.1128-.0024,2.8539-.0313,2.8539-.0313l2.3522.0313s.4015-.0024.5018,0c.6273,1.5557,1.0852,2.7361,1.2859,3.3246l.0313.094h3.9831l-6.4292-14.4582h-2.76ZM113.699,68.7c.232-.0168.508-.0019.7526,0,2.7977.01,3.8262.57,3.8262,2.1013a1.6593,1.6593,0,0,1-.3448,1.0664,3.6252,3.6252,0,0,1-2.9483.9095h-.0625l-.7841,2.0387h.7841a4.4592,4.4592,0,0,1,3.5753,1.2859,2,2,0,0,1,.4706,1.3172c0,1.6082-1.4114,2.4148-4.1712,2.4148-.4642,0-1.2169-.0028-1.6937-.0313-.1-2.1163-.0942-4.9816-.0942-5.8336,0-1.01.0314-3.2541.0942-5.1748a5.5623,5.5623,0,0,1,.5958-.0941Zm106.1314,0c.2306-.0168.4766-.0019.7215,0,2.81.01,3.8575.57,3.8575,2.1013a1.616,1.616,0,0,1-.3763,1.0664,3.609,3.609,0,0,1-2.9481.9095h-.0628l-.7841,2.0387h.8156a4.3884,4.3884,0,0,1,3.5439,1.2859,2.0334,2.0334,0,0,1,.5016,1.3172c0,1.6082-1.4112,2.4148-4.171,2.4148-.4767,0-1.2168-.0028-1.6937-.0313-.1-2.1163-.1255-4.9816-.1255-5.8336,0-1.0111.05-3.2606.1255-5.1748A5.3806,5.3806,0,0,1,219.83,68.7Zm-72.7616.1255c1.8818-.034,3.1865.3463,3.8262,1.129a2.0512,2.0512,0,0,1,.4391,1.3171c0,2.094-2.3271,2.5405-4.2967,2.5405l-.8154-.0312s-.1881-.0464-.3136-.0628c-.0124-.4818,0-1.1,0-1.8188,0-.922-.0063-1.971.0313-2.98A7.9567,7.9567,0,0,1,147.0688,68.8251Zm20.6054,0c1.8817-.034,3.2179.3463,3.8574,1.129a2.0506,2.0506,0,0,1,.4391,1.3171c0,2.094-2.3271,2.5405-4.2965,2.5405l-.8154-.0312s-.2009-.0464-.3137-.0628c-.0125-.4818-.0313-1.099-.0313-1.8188,0-.922.0251-1.971.0625-2.98a7.7974,7.7974,0,0,1,1.0979-.0941ZM182.07,71.3342c.3262.68,1.16,2.6129,2.1014,4.8925-.1379.004-.3137,0-.3137,0l-1.7877.0313s-1.8127-.0223-2.1013-.0313C180.7209,74.39,181.43,72.7379,182.07,71.3342Zm54.9788,0c.3262.6825,1.16,2.6143,2.1012,4.8925-.15.0026-.3136,0-.3136,0l-1.7876.0313s-1.8127-.0289-2.1013-.0313C235.7,74.3925,236.4088,72.7416,237.0484,71.3342Z" transform="translate(-58.1557 -39.156)"/><path class="cls-2" d="M58.1557,81.9208h42.7662V39.156H58.1557Z" transform="translate(-58.1557 -39.156)"/><path class="cls-3" d="M82.43,43.8918c1.167.4842,5.8713,3.056,6.461,3.8575a37.2243,37.2243,0,0,0-9.66,3.0108,64.4049,64.4049,0,0,1,9.2518-1.0663,28.4091,28.4091,0,0,1-3.2616,4.1084c2.86-1.7174,3.6569-1.8366,6.3039-3.3871.9909,1.4753,1.2483,4.8864,1.2857,7.59.8656-1.7174,1.9132-8.1732,1.4741-9.346a4.3845,4.3845,0,0,0,2.0073-2.164,17.3591,17.3591,0,0,0-3.3872.439A27.5243,27.5243,0,0,0,82.43,43.8918ZM76.158,52.0775a12.0973,12.0973,0,0,0-4.0772,2.07,17.2968,17.2968,0,0,0-2.3838-.0628,16.1543,16.1543,0,0,0-4.2025.7526c1.4554.0677,3.4374.4316,4.2025,1.1919a22.7052,22.7052,0,0,0-4.3907,6.3667,47.49,47.49,0,0,1,5.7079-4.6418s.8783,3.021,1.5054,4.5163a27.1871,27.1871,0,0,1,1.474-5.4886A4.6343,4.6343,0,0,1,75.5305,56.5a22.9579,22.9579,0,0,1,6.492.4078,19.7619,19.7619,0,0,0-7.0566-2.54,8.352,8.352,0,0,1,1.1921-2.2895ZM64.93,63.9324a17.8884,17.8884,0,0,0-.0313,5.4258,15.9756,15.9756,0,0,0-2.4778.8467,28.7664,28.7664,0,0,0,3.3244,1.8189,10.842,10.842,0,0,0,2.4778,3.5127,6.7246,6.7246,0,0,1-.2195-2.6973,15.6761,15.6761,0,0,0,4.2025.69A10.49,10.49,0,0,1,68.38,71.177a12.1348,12.1348,0,0,1,1.4426-2.76c-1.2292.176-2.1325.3252-3.1989.5331A16.5585,16.5585,0,0,1,64.93,63.9324Zm18.7549,6.68a21.322,21.322,0,0,1-3.2619,1.9443c-.0625-.582-.1-1.0725-.1255-1.7249-.7025.9335-1.292,1.65-2.07,2.509a13.07,13.07,0,0,1-3.6379.5018,8.8537,8.8537,0,0,0,2.3835.8154,16.3622,16.3622,0,0,1-2.321,1.7877,17.0836,17.0836,0,0,0,4.391-1.662,9.1758,9.1758,0,0,0,1.8188-.0944c-.1129-.4039-.2007-.7061-.3136-1.2232a28.3428,28.3428,0,0,0,3.1366-2.8536Z" transform="translate(-58.1557 -39.156)"/></svg>