<svg id="svg49749" xmlns="http://www.w3.org/2000/svg" xmlns:xlink="http://www.w3.org/1999/xlink" width="199.9992" height="45.684" viewBox="0 0 199.9992 45.684"><defs><style>.cls-1{fill:none;}.cls-2{clip-path:url(#clip-path);}.cls-3,.cls-4{fill:#1d439c;}.cls-4{fill-rule:evenodd;}</style><clipPath id="clip-path" transform="translate(-50.0005 -12.1913)"><rect class="cls-1" x="50.0009" y="12.1927" width="200" height="45.6835"/></clipPath></defs><title>Boeing</title><g id="layer1"><g id="g49097"><g class="cls-2"><g id="g49099"><g id="g49105"><path id="path49107" class="cls-3" d="M65.959,47.2514a13.9858,13.9858,0,0,1-8.6874-3.0072c2.78-6.2755,8.4454-14.6948,16.17-22.9174A14.0433,14.0433,0,0,1,78.67,39.1883a25.6276,25.6276,0,0,1-6.6743-4.3451l4.2323,7.9449A14,14,0,0,1,65.959,47.2514m-14.0417-14.04a14.0524,14.0524,0,0,1,19.87-12.7835,76.5614,76.5614,0,0,0-16.991,21.3017,13.9853,13.9853,0,0,1-2.8793-8.5182m28.5164,6.7307a15.9672,15.9672,0,0,0-5.643-20.0257c2.56-2.6345,5.3309-5.2374,8.28-7.7248a72.0323,72.0323,0,0,0-9.7062,6.8764A15.9606,15.9606,0,0,0,53.8685,43.6241c-3.0581,6.6124-3.593,11.9227-.8979,13.7185,2.8834,1.9237,9.1562-1.5634,12.921-7.2422,0,0-5.8218,5.2526-9.02,4.048-1.9677-.7452-1.9745-3.7551-.352-8.0713A15.96,15.96,0,0,0,77.175,44.566l.5665,1.067c6.9562-.5651,27.7258-1.1152,27.7258-1.1152,0-.9968-13.7516-.0921-25.0336-4.576" transform="translate(-50.0005 -12.1913)"/></g></g></g></g><g id="g49109"><path id="path49111" class="cls-4" d="M175.6546,31.7437l2.6-3.4541-9.0572-.0027,2.2317-2.9591h9.0572l2.607-3.4526H165.0078l-12.4411,16.51H170.655l2.5974-3.4568H164.198l2.3939-3.1845Z" transform="translate(-50.0005 -12.1913)"/></g><g id="g49113"><path id="path49115" class="cls-4" d="M188.2154,21.8753,175.78,38.3851h9.0229l12.4384-16.51Z" transform="translate(-50.0005 -12.1913)"/></g><g id="g49117"><path id="path49119" class="cls-4" d="M218.2806,21.8753l-6.3031,8.37-1.9387-8.37h-7.0525l-12.4384,16.51h5.969l6.2508-8.2955,1.9195,8.2955h7.1267l12.4411-16.51Z" transform="translate(-50.0005 -12.1913)"/></g></g><g id="g49123"><g id="g49129"><path id="path49131" class="cls-3" d="M247.7887,21.8754l-14.5064-.0028a7.5909,7.5909,0,0,0-6.0748,3.0333l-7.487,9.9372a2.176,2.176,0,0,0-.4455,1.3283,2.2124,2.2124,0,0,0,2.21,2.2138h14.5036a7.5974,7.5974,0,0,0,6.08-3.0333l1.7986-2.3857h2.0955l2.6194-3.4787h-11.11l-3.5077,4.653a1.963,1.963,0,0,1-1.5758.7879h-2.5534a.5754.5754,0,0,1-.5789-.5748.5443.5443,0,0,1,.1183-.3437l5.9483-7.8967a1.9586,1.9586,0,0,1,1.5758-.7852h2.5561a.5737.5737,0,0,1,.5762.5734.6023.6023,0,0,1-.1183.3479l-.9652,1.2829h9.0145l1.5951-2.1189a2.2107,2.2107,0,0,0-1.7683-3.5379" transform="translate(-50.0005 -12.1913)"/></g><g id="g49133"><path id="path49135" class="cls-3" d="M147.5239,26.2489l-5.951,7.8926a1.96,1.96,0,0,1-1.5758.7865h-2.5562a.5761.5761,0,0,1-.4578-.9185l5.9483-7.894a1.9913,1.9913,0,0,1,1.5771-.7878h2.5575a.5739.5739,0,0,1,.5734.5733.6.6,0,0,1-.1155.3479m10.0844-2.1629a2.21,2.21,0,0,0-2.2111-2.211H140.9005a7.595,7.595,0,0,0-6.08,3.0305l-7.4884,9.9373a2.2138,2.2138,0,0,0,1.7655,3.542h14.5a7.5987,7.5987,0,0,0,6.083-3.0333l7.487-9.9358a2.1976,2.1976,0,0,0,.4414-1.33" transform="translate(-50.0005 -12.1913)"/></g><g id="g49137"><path id="path49139" class="cls-3" d="M119.9617,26.2489l-.9515,1.26a1.9772,1.9772,0,0,1-1.5772.781l-3.7056-.0027,2.2344-2.959h3.5393a.5757.5757,0,0,1,.5733.5733.5971.5971,0,0,1-.1127.3479m-4.8387,6.4145-1.1165,1.4809a1.9651,1.9651,0,0,1-1.5758.7837h-3.7029l2.3967-3.1845h3.542a.573.573,0,0,1,.5734.5734.5656.5656,0,0,1-.1169.3465M123.5,30.5321a7.5832,7.5832,0,0,0,4.3849-2.8394l1.7147-2.277a2.21,2.21,0,0,0-1.7642-3.5407H109.5377l-12.4384,16.51h18.9312a7.5964,7.5964,0,0,0,6.0817-3.0333l1.7545-2.3293a1.7291,1.7291,0,0,0,.3534-1.0615,1.78,1.78,0,0,0-.7205-1.4286" transform="translate(-50.0005 -12.1913)"/></g></g></svg>