<svg id="Layer_1" data-name="Layer 1" xmlns="http://www.w3.org/2000/svg" width="200" height="130.8767" viewBox="0 0 200 130.8767"><defs><style>.cls-1{fill:#221815;}.cls-2{fill:#0072bc;}.cls-3{fill:#fff;}</style></defs><rect class="cls-1" x="0.036" y="0.4995" width="0.8316" height="7.7168"/><path class="cls-1" d="M47.8046,31.6143H46.973v-3.22c0-.98-.32-1.7641-1.2713-1.7641a1.514,1.514,0,0,0-1.4311,1.6422v3.3418h-.83V27.4714c0-.5595-.019-.97-.0419-1.41h.7422l.0514.8887h.019a1.9474,1.9474,0,0,1,1.7508-1.0085c.6813,0,1.8422.4091,1.8422,2.3521Z" transform="translate(-39.9911 -23.3968)"/><path class="cls-1" d="M54.29,31.6143h-.83v-3.22c0-.98-.32-1.7641-1.2712-1.7641a1.515,1.515,0,0,0-1.4292,1.6422v3.3418h-.8316V27.4714c0-.5595-.0209-.97-.04-1.41H50.63l.0476.8887h.0209a1.9428,1.9428,0,0,1,1.7508-1.0085c.6813,0,1.84.4091,1.84,2.3521Z" transform="translate(-39.9911 -23.3968)"/><path class="cls-1" d="M61.3611,28.8423a2.5766,2.5766,0,1,1-5.123.0819,2.6881,2.6881,0,0,1,2.6433-2.9821c1.492,0,2.48,1.138,2.48,2.9M58.8529,26.589c-1.1837,0-1.6728,1.1648-1.6728,2.3047,0,1.2084.67,2.1923,1.6481,2.1923.9933,0,1.6822-.9839,1.6822-2.2133,0-1.0619-.4681-2.2837-1.6575-2.2837" transform="translate(-39.9911 -23.3968)"/><path class="cls-1" d="M67.676,26.0705l-2.0724,5.5436h-.78l-2.0115-5.553h.8887l1.09,3.2656c.1731.4872.3216.9458.4415,1.4006h.0285c.1218-.4548.2817-.9134.451-1.4006l1.081-3.2562Z" transform="translate(-39.9911 -23.3968)"/><path class="cls-1" d="M73.3029,30.3167a7.747,7.747,0,0,0,.0818,1.2979h-.7612l-.0818-.6964h-.0286a1.95,1.95,0,0,1-1.7013.8163,1.5121,1.5121,0,0,1-1.5909-1.551c0-1.3111,1.14-2.0229,3.2523-2.01,0-.5481,0-1.5929-1.2751-1.5929a2.4227,2.4227,0,0,0-1.3892.39l-.1979-.5728a3.2046,3.2046,0,0,1,1.7508-.4568c1.5415,0,1.9411,1.09,1.9411,2.2609Zm-.8183-1.53c-1.0334,0-2.4131.1485-2.4131,1.2979a.9063.9063,0,0,0,.942,1.0106,1.3625,1.3625,0,0,0,1.4711-1.2807Z" transform="translate(-39.9911 -23.3968)"/><path class="cls-1" d="M76.2,25.079l.82-.2815v1.2731H78.432v.649H77.02v3.2446c0,.6927.2093,1.0695.74,1.0695a1.5967,1.5967,0,0,0,.5614-.08l.0457.6413a2.0411,2.0411,0,0,1-.8088.1332c-1.3188,0-1.3588-1.2026-1.3588-1.7832V26.72h-.8411v-.649H76.2Z" transform="translate(-39.9911 -23.3968)"/><path class="cls-1" d="M81.2736,25.11a.5656.5656,0,0,1,.0114-1.13.5656.5656,0,0,1-.0114,1.13m.4206,6.5046h-.8316V26.0713h.8316Z" transform="translate(-39.9911 -23.3968)"/><path class="cls-1" d="M88.9748,28.8423a2.5955,2.5955,0,0,1-2.5538,2.8926,2.54,2.54,0,0,1-2.573-2.8107c0-1.9526,1.1628-2.9821,2.6453-2.9821,1.49,0,2.4815,1.138,2.4815,2.9m-2.512-2.2533c-1.2712,0-1.7641,1.1648-1.7641,2.3047a1.9666,1.9666,0,0,0,1.7451,2.1923c.9877,0,1.6785-.9839,1.6785-2.2133,0-1.0619-.47-2.2837-1.6595-2.2837" transform="translate(-39.9911 -23.3968)"/><path class="cls-1" d="M95.3146,31.6143h-.83v-3.22c0-.98-.3216-1.7641-1.275-1.7641a1.5147,1.5147,0,0,0-1.4273,1.6422v3.3418H90.951V27.4714c0-.5595-.021-.97-.0381-1.41h.7422l.0476.8887h.019a1.9471,1.9471,0,0,1,1.7508-1.0085c.6794,0,1.8421.4091,1.8421,2.3521Z" transform="translate(-39.9911 -23.3968)"/><path class="cls-1" d="M104.7534,30.3167a7.3727,7.3727,0,0,0,.08,1.2979H104.07l-.08-.6964h-.0285a1.8994,1.8994,0,0,1-1.6119.8163,1.511,1.511,0,0,1-1.5909-1.551c0-1.3111,1.14-2.0229,3.1647-2.01,0-.5481,0-1.5929-1.2446-1.5929a2.356,2.356,0,0,0-1.33.39l-.2-.5728a3.1171,3.1171,0,0,1,1.6613-.4568c1.5415,0,1.9431,1.09,1.9431,2.2609Zm-.8222-1.53c-1.0314,0-2.3217.1485-2.3217,1.2979a.9063.9063,0,0,0,.942,1.0106,1.3335,1.3335,0,0,0,1.38-1.2807Z" transform="translate(-39.9911 -23.3968)"/><rect class="cls-1" x="67.0079" y="0.1245" width="0.8316" height="8.0936"/><rect class="cls-1" x="70.1612" y="0.1245" width="0.8316" height="8.0936"/><path class="cls-1" d="M117.0938,26.0705a2.9606,2.9606,0,0,1,.6014-2.1809,1.7945,1.7945,0,0,1,1.2617-.4928,2.05,2.05,0,0,1,.8088.1618l-.1408.649a1.5769,1.5769,0,0,0-.628-.1276c-.8621,0-1.0733.8011-1.0733,1.6785v.312h1.3226v.649h-1.3226v4.8946h-.83V26.72h-.75v-.649Z" transform="translate(-39.9911 -23.3968)"/><path class="cls-1" d="M125.511,28.8423a2.5949,2.5949,0,0,1-2.55,2.8926,2.5239,2.5239,0,0,1-2.4854-2.8107c0-1.9526,1.1628-2.9821,2.5539-2.9821,1.49,0,2.4816,1.138,2.4816,2.9m-2.512-2.2533c-1.1818,0-1.6728,1.1648-1.6728,2.3047,0,1.2084.67,2.1923,1.6538,2.1923.9895,0,1.68-.9839,1.68-2.2133,0-1.0619-.47-2.2837-1.6613-2.2837" transform="translate(-39.9911 -23.3968)"/><path class="cls-1" d="M130.0555,26.7721a2.7046,2.7046,0,0,0-.3026-.0189c-.9,0-1.3721.89-1.3721,1.8992v2.961h-.91V27.7027c0-.58-.01-1.1132-.038-1.6328h.7821l.0495,1.0524h.0324a1.6906,1.6906,0,0,1,1.5072-1.1742,2.3344,2.3344,0,0,1,.2512.0324Z" transform="translate(-39.9911 -23.3968)"/><path class="cls-1" d="M135.4858,25.079l.82-.2815v1.2731h1.4083v.649H136.306v3.2446c0,.6927.2074,1.0695.7365,1.0695a1.6011,1.6011,0,0,0,.5633-.08l.05.6413a2.065,2.065,0,0,1-.8107.1332c-1.3207,0-1.3588-1.2026-1.3588-1.7832V26.72h-.843v-.649h.843Z" transform="translate(-39.9911 -23.3968)"/><path class="cls-1" d="M144.4621,31.6143h-.8336v-3.22c0-.98-.3178-1.7528-1.3169-1.7528a1.52,1.52,0,0,0-1.4767,1.6234v3.3493h-.83V23.5206h.83v3.3913h.0209a2.04,2.04,0,0,1,1.766-.97c.6889,0,1.84.4091,1.84,2.3521Z" transform="translate(-39.9911 -23.3968)"/><path class="cls-1" d="M150.6026,31.3859a3.9315,3.9315,0,0,1-1.7108.3425,2.4847,2.4847,0,0,1-2.5425-2.7536c0-1.8041.9649-3.0334,2.434-3.0334,1.68,0,2.1143,1.5414,2.1143,2.58,0,.1942-.0133.3312-.0228.4587h-3.711c.01,1.5129.8678,2.0858,1.8517,2.0858a3.4177,3.4177,0,0,0,1.4273-.2817Zm-.5252-3.0221c.0038-.8335-.3064-1.7925-1.374-1.7925-1.0029,0-1.4406.9515-1.5224,1.7925Z" transform="translate(-39.9911 -23.3968)"/><path class="cls-1" d="M157.1837,26.99a2.0218,2.0218,0,0,1,1.8593-1.0485c1.29,0,2.2247,1.1094,2.2247,2.8735,0,2-1.1742,2.9213-2.375,2.9213a1.8589,1.8589,0,0,1-1.6405-.87h-.019v2.98h-.9115V27.8251c0-.7156-.0248-1.2656-.0476-1.7641h.8373l.0495.9286Zm.05,2.4549a1.54,1.54,0,0,0,1.5281,1.6215c1.0734,0,1.66-.9211,1.66-2.2228,0-1.218-.5671-2.2208-1.629-2.2208a1.7006,1.7006,0,0,0-1.5586,1.785Z" transform="translate(-39.9911 -23.3968)"/><path class="cls-1" d="M167.3188,30.3167a7.3571,7.3571,0,0,0,.0837,1.2979h-.7631l-.078-.6964h-.03a1.9017,1.9017,0,0,1-1.6119.8163,1.5137,1.5137,0,0,1-1.5928-1.551c0-1.3111,1.1437-2.0229,3.1648-2.01,0-.5481,0-1.5929-1.2446-1.5929a2.3439,2.3439,0,0,0-1.3265.39l-.2017-.5728a3.1075,3.1075,0,0,1,1.6614-.4568c1.5395,0,1.9392,1.09,1.9392,2.2609Zm-.82-1.53c-1.03,0-2.3217.1485-2.3217,1.2979a.9072.9072,0,0,0,.942,1.0106,1.3322,1.3322,0,0,0,1.38-1.2807Z" transform="translate(-39.9911 -23.3968)"/><path class="cls-1" d="M170.2386,25.079l.8868-.2815v1.2731H172.56v.649h-1.4349v3.2446c0,.6927.2341,1.0695.7651,1.0695a1.6035,1.6035,0,0,0,.5613-.08l.0495.6413a2.0685,2.0685,0,0,1-.8126.1332c-1.41,0-1.45-1.2026-1.45-1.7832V26.72h-.843v-.649h.843Z" transform="translate(-39.9911 -23.3968)"/><path class="cls-1" d="M175.3392,25.11a.5656.5656,0,0,1,.0114-1.13.5656.5656,0,0,1-.0114,1.13m.4243,6.5046h-.8316V26.0713h.8316Z" transform="translate(-39.9911 -23.3968)"/><path class="cls-1" d="M182.1888,31.3859a3.9285,3.9285,0,0,1-1.709.3425,2.4827,2.4827,0,0,1-2.5424-2.7536c0-1.8041.961-3.0334,2.43-3.0334,1.6822,0,2.1142,1.5414,2.1142,2.58,0,.1942-.01.3312-.0209.4587H178.75c.0076,1.5129.8677,2.0858,1.8478,2.0858a3.4164,3.4164,0,0,0,1.4311-.2817Zm-.5291-3.0221c.01-.8335-.3006-1.7925-1.37-1.7925-1.001,0-1.4425.9515-1.5224,1.7925Z" transform="translate(-39.9911 -23.3968)"/><path class="cls-1" d="M189.164,31.6143h-.8316v-3.22c0-.98-.3159-1.7641-1.2713-1.7641a1.5136,1.5136,0,0,0-1.4273,1.6422v3.3418H184.72V27.4714c0-.5595-.0228-.97-.0476-1.41h.8183l.0514.8887h.0247a1.9656,1.9656,0,0,1,1.76-1.0085c.6794,0,1.8364.4091,1.8364,2.3521Z" transform="translate(-39.9911 -23.3968)"/><path class="cls-1" d="M192.0382,25.079l.82-.2815v1.2731h1.412v.649h-1.412v3.2446c0,.6927.2112,1.0695.74,1.0695a1.6089,1.6089,0,0,0,.5633-.08l.0456.6413a2.0338,2.0338,0,0,1-.8088.1332c-1.3207,0-1.3606-1.2026-1.3606-1.7832V26.72h-.8393v-.649h.8393Z" transform="translate(-39.9911 -23.3968)"/><path class="cls-1" d="M199.43,26.9a2.249,2.249,0,0,0-1.1133-.3178.8213.8213,0,0,0-.9192.8108c0,.4681.31.78,1.0086,1.0809.9249.36,1.4787.82,1.4787,1.6423,0,.9687-.8069,1.612-2.0153,1.612a2.853,2.853,0,0,1-1.433-.375l.234-.6375a2.591,2.591,0,0,0,1.2294.3692c.7308,0,1.1019-.39,1.1019-.8811,0-.5081-.3026-.7917-1.022-1.081-.921-.3691-1.393-.8773-1.393-1.6308a1.6139,1.6139,0,0,1,1.7832-1.551,2.819,2.819,0,0,1,1.3188.3273Z" transform="translate(-39.9911 -23.3968)"/><rect class="cls-2" x="0.036" y="18.8333" width="159.8766" height="80.8851"/><rect class="cls-3" x="80.9172" y="20.7231" width="77.1056" height="77.1075"/><path class="cls-3" d="M75.5519,108.2852a2.7257,2.7257,0,0,1-2.7271-2.7271c0-1.6175-.0361-26.4085-.0361-28.78,0-1.747,1.37-3.1914,4.965-4.6777,1.2389-.5138,1.3531-1.216.4606-2.021-.727-.6546-.8031-1.1057-.6908-2.5938.116-1.5587,1.0885-15.1349,1.2141-16.4a1.7411,1.7411,0,0,1,3.4635,0c.1238,1.2655,1.1,14.8417,1.2123,16.4.1085,1.4881.04,1.9392-.6927,2.5938-.8887.805-.7765,1.5072.4624,2.021,3.5987,1.4863,4.9632,2.9307,4.9632,4.6777,0,2.3712-.0324,27.1622-.0324,28.78a2.7265,2.7265,0,0,1-2.7251,2.7271Z" transform="translate(-39.9911 -23.3968)"/><polygon class="cls-3" points="30.476 82.134 21.795 82.134 9.729 60.885 21.795 39.643 35.493 39.643 35.224 43.344 23.945 43.344 13.977 60.885 23.945 78.439 30.472 78.439 30.476 82.134"/><polygon class="cls-3" points="71.183 60.885 59.115 82.134 50.485 82.134 50.487 78.439 56.963 78.439 66.933 60.885 56.963 43.344 45.727 43.344 45.469 39.643 59.115 39.643 71.183 60.885"/><rect class="cls-2" x="149.3964" y="52.0224" width="1.9107" height="14.4764"/><polygon class="cls-2" points="109.474 52.063 109.474 66.499 107.559 66.499 107.559 60.033 101.69 60.033 101.69 66.499 99.778 66.499 99.778 52.063 101.69 52.063 101.69 58.12 107.559 58.12 107.559 52.063 109.474 52.063"/><path class="cls-2" d="M154.1158,75.46v10.425a2.3421,2.3421,0,0,0,.7308,1.669,3.2406,3.2406,0,0,0,2.3008.9134,2.832,2.832,0,0,0,3.02-2.5824V75.46H162.08v10.425a4.2842,4.2842,0,0,1-1.2808,3.0239,5.2809,5.2809,0,0,1-7.3058,0,4.2722,4.2722,0,0,1-1.2845-3.0239V75.46Z" transform="translate(-39.9911 -23.3968)"/><path class="cls-2" d="M135.89,85.0816h1.8041c0,3.4883-2.2056,5.2182-5.222,5.2182-3.5587,0-5.7909-3.4673-5.7909-7.88,0-4.6853,2.7251-7.3686,5.7909-7.3686a4.8122,4.8122,0,0,1,5.1611,4.809h-1.8821a3.0457,3.0457,0,0,0-3.2067-3.0391c-1.8288,0-3.8574,1.6841-3.8574,5.6329,0,3.8613,1.667,6.0764,3.8574,6.0764,1.6386,0,2.9326-.8544,3.3456-3.4483" transform="translate(-39.9911 -23.3968)"/><path class="cls-2" d="M170.0751,76.7883c-2.3026,0-3.8251,2.48-3.8517,5.9681-.0286,5.2313,3.8023,6.8338,6.5864,4.9192V83.9914h-2.7937V82.0788h4.9118v6.2458A5.5283,5.5283,0,0,1,170.353,90.3c-3.4959,0-6.143-2.7728-6.143-7.5018,0-4.8223,2.373-7.7492,5.7662-7.7492,3.3056,0,4.8756,2.12,4.8756,4.44h-1.8041a2.9491,2.9491,0,0,0-2.9726-2.7" transform="translate(-39.9911 -23.3968)"/><path class="cls-2" d="M178.1838,89.8964l1.138-3.5188h5.0735l1.1362,3.5188h2.0058L182.8748,75.46h-2.0363l-4.6624,14.4365Zm3.671-11.9474,1.9221,6.52h-3.8385Z" transform="translate(-39.9911 -23.3968)"/><path class="cls-2" d="M67.1026,141.4731a1.8317,1.8317,0,0,0-2.1143.0933v-2.6471H63.6866v8.5541h1.3017v-4.4321a.7371.7371,0,0,1,.7422-.71.7926.7926,0,0,1,.6623.3121,1.4888,1.4888,0,0,1,.15.8773v3.9525h1.3017v-3.9716c0-1.178-.1485-1.5871-.7422-2.0287" transform="translate(-39.9911 -23.3968)"/><path class="cls-2" d="M57.8072,143.4077c-.1865-1.8308-1.22-2.2266-2.0743-2.2266-1.21,0-1.945.7688-2.0858,2.2266-.0076.1084-.0209.3216-.0285,1.001,0,.5.0209.9115.0285,1.0163a2.0826,2.0826,0,1,0,4.16,0c.0019-.099.038-.5158.038-1.0163,0-.2226-.0247-.8336-.038-1.001m-1.29,2.15c-.0362.4644-.2417.9592-.784.9592-.5443,0-.7575-.5291-.7784-.98,0-.0037-.0323-.2874-.0323-1.1285,0-.8336.0323-1.178.0323-1.1875.0076-.4719.2436-.9477.7784-.9477.5366,0,.7764.4758.784.94,0,.0172.0324.3616.0324,1.1952,0,.8411-.0305,1.0771-.0324,1.1494" transform="translate(-39.9911 -23.3968)"/><path class="cls-2" d="M72.8892,144.7238s.0076-.4377,0-.6927c-.0057-.0989-.0076-.2684-.04-.6242a2.8784,2.8784,0,0,0-.5519-1.5414,1.8479,1.8479,0,0,0-1.4863-.6832c-1.1646,0-1.9258.7155-2.0705,2.2246a7.798,7.798,0,0,0-.038,1.0238c0,.491.0342.8963.038.9935.12,1.44.8964,2.1865,2.0705,2.1865,1.178,0,1.8783-.7574,2.0382-2.2571h-1.26a1.3416,1.3416,0,0,1-.0209.2152c-.0457.3139-.13.95-.7575.95-.54,0-.7421-.4911-.7783-.9744a7.5287,7.5287,0,0,1-.0362-.82Zm-2.866-1.5111c.04-.508.2683-.9381.7878-.9381.571,0,.7365.5994.7841.9476a2.5265,2.5265,0,0,1,.01.4245H70.008c.0057-.2874.0057-.35.0152-.434" transform="translate(-39.9911 -23.3968)"/><path class="cls-2" d="M71.1115,133.5074l-22.1019.0019-9.0185,10.3792,9.0185,10.385H71.1115l8.9063-10.385Zm-.4871,19.725H49.493l-8.1146-9.3439,8.1089-9.3382H70.6244l8.027,9.3382Z" transform="translate(-39.9911 -23.3968)"/><path class="cls-2" d="M52.8669,146.9411l-.1409-2.0953c-.0571-.9439-.2949-1.4976-.7878-1.785a1.9555,1.9555,0,0,0,.8145-1.8156,2.03,2.03,0,0,0-2.2589-2.2608H48.507v8.4895H49.79V143.586h.7137c.411,0,.87.3692.942,1.3778l.1351,1.983a3.3182,3.3182,0,0,0,.0628.5271h1.2846a2.5865,2.5865,0,0,1-.0609-.5328m-1.4216-5.4771a.9916.9916,0,0,1-.982,1.03H49.79v-2.4092h.6109a.9269.9269,0,0,1,1.0448.9858c0,.0438.0076.0951.0076.1941a1.208,1.208,0,0,1-.0076.2" transform="translate(-39.9911 -23.3968)"/><path class="cls-2" d="M60.7885,142.2741c.5461-.0019.7821.4758.7821.9383,0,.01.0172.1217.0248.3729H62.88a1.4612,1.4612,0,0,1-.0114-.2c-.1408-1.7794-1.2256-2.2038-2.08-2.2038-1.2085,0-1.943.7688-2.0743,2.2247-.0058.11-.0248.3216-.0324,1.0028-.0114.5.0266.9116.0324,1.0144a2.0565,2.0565,0,0,0,2.0743,2.1866c1.2674.0057,1.9658-.7689,2.08-2.1866a.4727.4727,0,0,0,0-.1275h-1.275a2.23,2.23,0,0,1-.0229.2417c-.0285.4757-.2017.98-.7821.98-.5367,0-.7441-.5482-.7822-.95-.0247-.2474-.0247-.44-.0247-1.159a11.5,11.5,0,0,1,.03-1.1874c.0514-.5272.2512-.94.7765-.9478" transform="translate(-39.9911 -23.3968)"/><path class="cls-1" d="M88.9065,143.3372l.9078-2.3731c.1922-.5329.23-.63.411-1.1265.15.4719.2075.6678.3673,1.1265l.7955,2.3731Zm2.1353-4.4207H89.6582l-3.4292,8.556h1.0771l1.2979-3.3494H91.67l1.14,3.3494h1.2255Zm15.015,8.556H105.012v-3.9373a2.57,2.57,0,0,0-.1789-1.1152.9545.9545,0,0,0-.8392-.4644,1.4692,1.4692,0,0,0-.6395.158,1.28,1.28,0,0,0-.706,1.2731v4.0858h-1.0409v-3.9736a3.3275,3.3275,0,0,0-.0248-.6165,1.0087,1.0087,0,0,0-1.0162-.9268,1.3414,1.3414,0,0,0-1.1894.7175,2.5509,2.5509,0,0,0-.1332,1.0409v3.7585H98.201V141.41h1.0429v.6945a2.5581,2.5581,0,0,1,1.806-.8221,1.4571,1.4571,0,0,1,1.49.944,2.5877,2.5877,0,0,1,1.9031-.944,1.7431,1.7431,0,0,1,.7384.1428,1.7068,1.7068,0,0,1,.8754,1.7222Zm2.493-3.6842c.0742-1.2123.7155-1.8327,1.589-1.8327,1.33,0,1.3721,1.4577,1.3816,1.8327Zm2.9478,1.8288a1.3176,1.3176,0,0,1-1.4064,1.2959c-1.5643,0-1.5871-1.7431-1.5738-2.4948H112.55c.0628-1.8289-.531-3.1363-2.434-3.1363-1.89,0-2.7043,1.3322-2.7043,3.3285a3.2527,3.2527,0,0,0,.6889,2.2551,2.6593,2.6593,0,0,0,1.9526.7288,2.19,2.19,0,0,0,2.4739-1.9772Zm10.2136,1.8554H120.67v-3.9373a2.5679,2.5679,0,0,0-.1826-1.1152.9485.9485,0,0,0-.8355-.4644,1.4917,1.4917,0,0,0-.6432.158,1.2766,1.2766,0,0,0-.7,1.2731v4.0858h-1.0429v-3.9736a3.1793,3.1793,0,0,0-.0285-.6165,1.01,1.01,0,0,0-1.0163-.9268,1.353,1.353,0,0,0-1.1894.7175,2.5852,2.5852,0,0,0-.1313,1.0409v3.7585h-1.0429V141.41H114.9v.6945a2.5541,2.5541,0,0,1,1.806-.8221,1.4637,1.4637,0,0,1,1.4939.944,2.5672,2.5672,0,0,1,1.8992-.944,1.7775,1.7775,0,0,1,.7422.1428,1.7016,1.7016,0,0,1,.87,1.7222Zm2.7746-3.5282a2.0986,2.0986,0,0,1,.3521-1.3949,1.7232,1.7232,0,0,1,1.3-.5938c1.3188,0,1.4273,1.4082,1.4273,2.3541a3.8192,3.8192,0,0,1-.4339,2.0476,1.4785,1.4785,0,0,1-2.5939-.5822,2.77,2.77,0,0,1-.0514-.7023Zm0,2.8241a2.11,2.11,0,0,0,1.7451.8259,2.1793,2.1793,0,0,0,1.8916-.9705,4.6283,4.6283,0,0,0,.5234-2.3027,3.01,3.01,0,0,0-1.13-2.7766,2.012,2.012,0,0,0-1.041-.2626,2.57,2.57,0,0,0-1.9887.9687v-3.3341h-1.0314v8.556h1.0314Zm6.2934-2.98c.0685-1.2123.7136-1.8327,1.5852-1.8327,1.3322,0,1.3721,1.4577,1.3816,1.8327Zm2.9421,1.8288a1.3145,1.3145,0,0,1-1.4082,1.2959c-1.5624,0-1.5853-1.7431-1.57-2.4948h4.0363c.0571-1.8289-.5348-3.1363-2.44-3.1363-1.89,0-2.7,1.3322-2.7,3.3285a3.2865,3.2865,0,0,0,.6832,2.2551,2.6714,2.6714,0,0,0,1.9563.7288,2.19,2.19,0,0,0,2.474-1.9772Zm3.4065,1.8554h-1.041V141.398h1.041v.8032a1.8811,1.8811,0,0,1,1.4805-.8984,1.2666,1.2666,0,0,1,.7251.217v.9592a1.6161,1.6161,0,0,0-.9934-.3521,1.4055,1.4055,0,0,0-.5937.1237,1.1205,1.1205,0,0,0-.6185,1.1494Zm10.13-3.2123c.0228,1.6728-.3749,2.6795-1.5377,2.6795-1.5167,0-1.6043-1.5795-1.6043-2.4607,0-.6775.04-2.5348,1.6271-2.5348,1.1266,0,1.5053.9459,1.5149,2.316m1.09-.0629c-.0228-.98-.1332-2.9154-2.6053-2.9154-2.6509,0-2.7118,2.337-2.7118,3.2314,0,1.1285.196,3.081,2.63,3.081,2.6871,0,2.7119-2.3522,2.6871-3.397m2.6947,3.2752H149.998v-5.4408h-.921V141.41h.921v-.5767a2.2692,2.2692,0,0,1,.3388-1.3607,1.6384,1.6384,0,0,1,1.334-.58,1.8216,1.8216,0,0,1,.8849.1789v.7307a1.2311,1.2311,0,0,0-.706-.1959.753.753,0,0,0-.687.3159,1.8954,1.8954,0,0,0-.12.8962v.592h1.1019v.6222h-1.1019Zm6.6987-5.4293-.0247,3.4768c.0114.6909.0114,1.3.7859,1.3a1.8288,1.8288,0,0,0,.7042-.1447v.7023a3.2861,3.2861,0,0,1-1.1361.2036,1.2636,1.2636,0,0,1-1.2123-.5462,2.6432,2.6432,0,0,1-.1941-1.3664l.0209-3.6252h-.921V141.41h.921v-1.317l1.0562-.1789V141.41h1.138v.6337Zm7.15,5.4293h-1.0429v-3.5644a6.93,6.93,0,0,0-.0228-.8468,1.1193,1.1193,0,0,0-1.1894-1.1057,1.8124,1.8124,0,0,0-.7023.1332,1.265,1.265,0,0,0-.824,1.2979v4.0858h-1.0276V138.905H161.11v3.1838a2.8162,2.8162,0,0,1,1.9754-.8069,1.7944,1.7944,0,0,1,1.4539.6166,2.3757,2.3757,0,0,1,.3521,1.4653Zm2.5082-3.6842c.0742-1.2123.7155-1.8327,1.5871-1.8327,1.336,0,1.3683,1.4577,1.38,1.8327Zm2.9459,1.8288a1.3143,1.3143,0,0,1-1.4045,1.2959c-1.5643,0-1.589-1.7431-1.5795-2.4948H171.4c.059-1.8289-.5348-3.1363-2.4359-3.1363-1.8916,0-2.7081,1.3322-2.7081,3.3285a3.2591,3.2591,0,0,0,.6927,2.2551,2.6655,2.6655,0,0,0,1.9545.7288,2.1866,2.1866,0,0,0,2.47-1.9772Zm6.8357-5.8862h1.2123a3.5721,3.5721,0,0,1,1.5243.1827,1.4627,1.4627,0,0,1,.7289,1.3892,1.5026,1.5026,0,0,1-.6052,1.334,3.2852,3.2852,0,0,1-1.7946.2665h-1.0657Zm4.3961,5.4009a3.4116,3.4116,0,0,0-.5576-1.3074,1.6781,1.6781,0,0,0-.7784-.4987,2.0424,2.0424,0,0,0,1.3987-1.2464,2.5774,2.5774,0,0,0,.1789-.9706,2.224,2.224,0,0,0-.666-1.6747,2.9428,2.9428,0,0,0-1.9982-.529h-3.1115v8.5675h1.138v-3.7432h1.0752a2.3086,2.3086,0,0,1,1.6157.3938,2.8648,2.8648,0,0,1,.6528,1.4236l.097.4111c.1313.5784.1941.7878.255.9819a1.2816,1.2816,0,0,0,.314.5328h1.237c-.3273-.4-.3654-.5443-.7174-1.8307Zm5.5873-.8716c.0247,1.6728-.3768,2.6795-1.5377,2.6795-1.5167,0-1.5985-1.5795-1.5985-2.4607,0-.6775.0361-2.5348,1.6214-2.5348,1.1266,0,1.5015.9459,1.5148,2.316m1.0923-.0629c-.0247-.98-.1351-2.9154-2.6071-2.9154-2.6529,0-2.7176,2.337-2.7176,3.2314,0,1.1285.1979,3.081,2.6338,3.081,2.6909,0,2.7119-2.3522,2.6909-3.397m6.046,1.2389a2.2365,2.2365,0,0,1-2.4359,2.1581,2.4866,2.4866,0,0,1-2.0724-.9476,3.6956,3.6956,0,0,1-.5443-2.1563,3.6,3.6,0,0,1,.6642-2.3483,2.5961,2.5961,0,0,1,2.0381-.86c1.2237,0,2.35.52,2.35,2.1771h-1.02c-.021-.9325-.47-1.5034-1.355-1.5034-1.5871,0-1.5871,2.0381-1.5871,2.51,0,1.0409.2436,2.4472,1.5129,2.4472a1.3927,1.3927,0,0,0,.9934-.3977,1.9683,1.9683,0,0,0,.4148-1.0791Zm5.9375,2.0363h-1.041v-3.5644a6.2248,6.2248,0,0,0-.0247-.8468,1.1186,1.1186,0,0,0-1.1875-1.1057,1.8078,1.8078,0,0,0-.7041.1332,1.2461,1.2461,0,0,0-.82,1.2979v4.0858h-1.0333V138.905h1.0333v3.1838a2.8015,2.8015,0,0,1,1.9716-.8069,1.8032,1.8032,0,0,1,1.4558.6166,2.4381,2.4381,0,0,1,.35,1.4653Zm6.4837-1.8554a2.1856,2.1856,0,0,1-2.4721,1.9772,2.6513,2.6513,0,0,1-1.9487-.7288,3.2489,3.2489,0,0,1-.6927-2.2551c0-1.9963.8145-3.3285,2.7-3.3285,1.9049,0,2.4987,1.3074,2.4416,3.1363h-4.0382c-.0115.7517.0133,2.4948,1.5738,2.4948a1.3107,1.3107,0,0,0,1.4044-1.2959Zm-1.0049-1.8288c-.0133-.375-.0475-1.8327-1.3854-1.8327-.87,0-1.511.62-1.5852,1.8327Zm9.4392,1.4652a1.4634,1.4634,0,0,1-.4225,1.14,1.67,1.67,0,0,1-1.1038.3959,1.5378,1.5378,0,0,1-1.511-1.5358,6.899,6.899,0,0,1-.0628-.9077,2.4522,2.4522,0,0,1,.8354-2.1561,1.6173,1.6173,0,0,1,.8355-.2341,1.4339,1.4339,0,0,1,1.138.5234,1.6715,1.6715,0,0,1,.2912,1.1Zm0-3.844v.6337a2.197,2.197,0,0,0-1.7052-.7613,2.2991,2.2991,0,0,0-1.9525,1.0124,3.9877,3.9877,0,0,0-.5348,2.1847,2.8986,2.8986,0,0,0,1.1876,2.727,2.3006,2.3006,0,0,0,1.1037.2665,2.4068,2.4068,0,0,0,1.9012-.7974l-.01.569a2.278,2.278,0,0,1-.3882,1.4788,1.58,1.58,0,0,1-1.2979.5784,1.756,1.756,0,0,1-.7764-.1446,1.2468,1.2468,0,0,1-.6889-1.1912h-.9953a2.0792,2.0792,0,0,0,.3273,1.25,2.3748,2.3748,0,0,0,2.0629.7631,2.7951,2.7951,0,0,0,2.2152-.8716,3.9474,3.9474,0,0,0,.5576-2.571V141.41Zm3.7946,6.063h-1.041V141.398h1.041v.8032a1.8769,1.8769,0,0,1,1.4768-.8984,1.2807,1.2807,0,0,1,.7289.217v.9592a1.6166,1.6166,0,0,0-.9934-.3521,1.4059,1.4059,0,0,0-.5938.1237,1.1205,1.1205,0,0,0-.6185,1.1494Zm6.8453-3.2123c.0266,1.6728-.3749,2.6795-1.5358,2.6795-1.5167,0-1.6023-1.5795-1.6023-2.4607,0-.6775.0361-2.5348,1.6271-2.5348,1.1247,0,1.4977.9459,1.511,2.316m1.0942-.0629c-.0266-.98-.1351-2.9154-2.6052-2.9154-2.6567,0-2.7157,2.337-2.7157,3.2314,0,1.1285.1941,3.081,2.6281,3.081,2.6928,0,2.7138-2.3522,2.6928-3.397m6.1887,3.2752h-1.0295v-.7155a2.9169,2.9169,0,0,1-1.9982.8373,1.7971,1.7971,0,0,1-1.8441-2.2189V141.41h1.0334v3.4939a3.5087,3.5087,0,0,0,.1579,1.3569,1.1164,1.1164,0,0,0,1.0886.6527,1.8614,1.8614,0,0,0,1.2275-.4605,1.2765,1.2765,0,0,0,.3349-.9458V141.41h1.0295Zm2.7138-3.671a2.139,2.139,0,0,1,.3311-1.3,1.6369,1.6369,0,0,1,1.2332-.5462c1.3473,0,1.54,1.4444,1.54,2.4987,0,.63-.0133,2.4587-1.6613,2.4587a1.3609,1.3609,0,0,1-1.4425-1.4768Zm.0152-2.4035h-1.0219v8.57H235.81v-3.1382a1.8976,1.8976,0,0,0,1.6347.765c2.1219,0,2.5463-1.806,2.5463-3.2637,0-.5557,0-3.0487-2.278-3.0487a2.3261,2.3261,0,0,0-1.903.87Z" transform="translate(-39.9911 -23.3968)"/></svg>