<?xml version="1.0" encoding="utf-8"?>
<!-- Generator: Adobe Illustrator 27.5.0, SVG Export Plug-In . SVG Version: 6.00 Build 0)  -->
<svg version="1.1" id="Layer_1" xmlns="http://www.w3.org/2000/svg" xmlns:xlink="http://www.w3.org/1999/xlink" x="0px" y="0px"
	 viewBox="0 0 95 51.1" style="enable-background:new 0 0 95 51.1;" xml:space="preserve">
<style type="text/css">
	.st0{fill:#221C35;}
	.st1{fill-rule:evenodd;clip-rule:evenodd;fill:#00B2A9;}
</style>
<g>
	<path class="st0" d="M52,27.7h2.8v2.8H52V27.7z M52,32.4h2.8v13.8H52V32.4z"/>
	<path class="st0" d="M57.9,27.9h2.8v10.3h0.1l4.2-5.8l3.2,0L64,37.7l4.7,8.5h-3l-3.4-6.3l-1.6,1.9v4.4h-2.8V27.9z"/>
	<path class="st0" d="M77.2,44.6L77.2,44.6c-0.4,0.6-1,1.1-1.6,1.5c-0.6,0.3-1.3,0.5-2.1,0.5c-2.1,0-3.5-0.9-3.5-4.5v-9.6h2.8v9.9
		c0,1.6,0.7,2,1.9,2c0.3,0,0.6,0,0.9-0.2c0.3-0.1,0.5-0.3,0.8-0.5c0.2-0.2,0.4-0.5,0.5-0.8c0.1-0.3,0.1-0.6,0.1-0.9v-9.6h2.8v13.8
		h-2.6V44.6z"/>
	<path class="st0" d="M59.6,21.1L59.6,21.1c-0.2,0.6-0.7,1.2-1.2,1.5c-0.6,0.4-1.2,0.5-1.9,0.5c-3.2,0-4.5-2.7-4.5-7.4
		c0-6.1,2.2-7.1,4.3-7.1c0.7,0,1.3,0.1,1.9,0.5c0.6,0.4,1,0.9,1.3,1.5h0.1V4.6h2.8v18.3h-2.6V21.1z M57.1,10.9c-1.6,0-2.2,1.3-2.2,5
		c0,3.1,0.4,5.1,2.4,5.1c1.9,0,2.4-1.9,2.4-4.9C59.7,12.8,59.3,10.9,57.1,10.9"/>
	<path class="st0" d="M74.3,20c0,0.5,0.3,1,0.7,1c0.2,0,0.3,0,0.5-0.1v1.8c-0.4,0.2-0.9,0.3-1.4,0.3c-1.2,0-2.3-0.5-2.4-1.8h-0.1
		c-0.3,0.6-0.8,1.2-1.4,1.5c-0.6,0.4-1.3,0.5-2,0.5c-2.2,0-3.6-1.2-3.6-3.9c0-3.1,1.3-3.7,3.2-4.3l2.2-0.6c1-0.3,1.6-0.6,1.6-1.8
		c0-1.2-0.4-2-1.9-2c-1.9,0-2.1,1.3-2.1,2.6H65c0-2.9,1.2-4.5,4.9-4.5c2.4,0,4.4,0.9,4.4,3.4V20z M71.7,15.6
		c-0.7,0.6-2.3,0.9-3.1,1.3c-0.4,0.2-0.7,0.5-0.9,0.9c-0.2,0.4-0.3,0.8-0.2,1.3c0,1.2,0.6,2.1,1.7,2.1c1.7,0,2.5-1.3,2.5-3.3
		L71.7,15.6z"/>
	<path class="st0" d="M76.2,9.1h1.9V5.2h2.8v3.9h2.3v2h-2.3v8.2c0,1.1,0.3,1.5,1.3,1.5c0.3,0,0.7,0,1-0.1v2
		c-0.7,0.2-1.5,0.2-2.2,0.2c-1.9,0-2.8-0.5-2.8-3.3v-8.6h-1.9V9.1z"/>
	<path class="st0" d="M93.7,19.8c0,0.5,0.3,1,0.7,1c0.2,0,0.3,0,0.5-0.1v1.8c-0.4,0.2-0.9,0.3-1.4,0.3c-1.2,0-2.3-0.5-2.4-1.8h-0.1
		c-0.3,0.6-0.8,1.2-1.4,1.5c-0.6,0.4-1.3,0.5-2,0.5c-2.2,0-3.6-1.2-3.6-3.9c0-3.1,1.3-3.7,3.2-4.3l2.2-0.6c1-0.3,1.6-0.6,1.6-1.8
		c0-1.2-0.4-2.1-1.9-2.1c-1.9,0-2.1,1.3-2.1,2.6h-2.6c0-2.9,1.2-4.5,4.9-4.5c2.4,0,4.4,0.9,4.4,3.4L93.7,19.8z M91,15.4
		c-0.7,0.6-2.3,0.9-3.1,1.3c-0.4,0.2-0.7,0.5-0.9,0.9c-0.2,0.4-0.3,0.8-0.2,1.3c0,1.2,0.6,2.1,1.7,2.1c1.7,0,2.5-1.3,2.5-3.3
		L91,15.4z"/>
	<path class="st1" d="M9.3,8.1c3.5-2.3,7.5-3.5,11.7-3.5c5.6,0,10.9,2.2,14.8,6.2C39.8,14.6,42,20,42,25.6c0,4.2-1.2,8.2-3.5,11.7
		c-2.3,3.5-5.6,6.1-9.4,7.7c-3.8,1.6-8.1,2-12.1,1.2c-4.1-0.8-7.8-2.8-10.8-5.7c-2.9-2.9-4.9-6.7-5.7-10.8
		c-0.8-4.1-0.4-8.3,1.2-12.1C3.2,13.7,5.9,10.4,9.3,8.1z M21.9,31.4h10.6v-1.6H21.9V31.4z M30.8,19.6c-0.4-2.5,0.3-3.5,0.3-3.5
		l1.4-1.7L31,14.9c-0.4-0.6-0.9-1.1-1.6-1.3c-0.7-0.2-1.4-0.2-2.1,0c-0.7,0.2-1.2,0.7-1.6,1.3c-0.4,0.6-0.5,1.3-0.5,2L8.4,37.6
		c0,0,0.1,0.3,0.3,0.2c0.3-0.1,0.9-0.8,3-2.9c1.1-1.1,2.5-2.6,4.5-4.6c1.9-1.9,5.1-1.8,5.1-1.8h3.3C29,28.6,31.5,24.4,30.8,19.6z
		 M27.9,15.2c0.1-0.1,0.3-0.1,0.5-0.1c0.2,0,0.4,0.1,0.6,0.2c0.2,0.2,0.2,0.4,0.2,0.6c0,0.2,0,0.3-0.1,0.5c-0.1,0.1-0.2,0.2-0.4,0.3
		c-0.2,0.1-0.3,0.1-0.5,0c-0.2,0-0.3-0.1-0.4-0.2c-0.1-0.1-0.2-0.3-0.2-0.4c0-0.2,0-0.3,0.1-0.5C27.6,15.4,27.7,15.3,27.9,15.2z"/>
</g>
</svg>
