<svg id="Layer_1" data-name="Layer 1" xmlns="http://www.w3.org/2000/svg" width="200" height="200" viewBox="0 0 200 200"><defs><style>.cls-1{fill:#007db8;}</style></defs><title>Dell</title><path class="cls-1" d="M110.9972,94.1637,86.1583,113.272A21.8064,21.8064,0,0,0,65.1361,96.7082H47.3031v43.95h17.833c10.1911,0,19.1069-7.01,21.0178-16.5637l24.8428,19.1081,24.8427-19.1081v16.5636h28.0223V131.739H145.3939V96.7084H135.2v16.5581L111.632,132.38l-5.0973-4.4611L118.0042,119l12.0986-9.5541-7.0042-5.7292L99.5309,122.184l-5.0945-4.46,23.5678-17.8331-7.01-5.7291ZM56.8583,105.622h7.6445a10.9829,10.9829,0,0,1,4.5789,1.02,12.31,12.31,0,0,1,3.8575,2.805,13.4487,13.4487,0,0,1,2.6692,4.2372,14.62,14.62,0,0,1,.0869,10.3625,13.8305,13.8305,0,0,1-2.5174,4.27,12.0454,12.0454,0,0,1-3.83,2.9569,11.0651,11.0651,0,0,1-4.8447,1.1013H56.8584V105.622Zm138.8528,26.12v8.9172h-28.025V96.709h10.1911V131.74h17.8345ZM118,19C63.2222,19,18,64.2223,18,119S62.5861,219,118,219A99.7636,99.7636,0,0,0,218,119C218,63.5862,172.7778,19,118,19Zm0,10.1942a90.5278,90.5278,0,0,1,18.1206,1.8175A89.63,89.63,0,0,1,205.9883,100.88a91.24,91.24,0,0,1,0,36.2411,89.63,89.63,0,0,1-69.8677,69.8678,91.2406,91.2406,0,0,1-36.2412,0,88.6354,88.6354,0,0,1-16.875-5.2167,89.6241,89.6241,0,0,1-52.9938-64.6444,91.2291,91.2291,0,0,1,0-36.2389A89.6232,89.6232,0,0,1,99.8794,31.02a90.5107,90.5107,0,0,1,18.12-1.8175Z" transform="translate(-18 -19.0001)"/></svg>