<?xml version="1.0" encoding="utf-8"?>
<!-- Generator: Adobe Illustrator 27.4.1, SVG Export Plug-In . SVG Version: 6.00 Build 0)  -->
<svg version="1.1" id="Layer_1" xmlns="http://www.w3.org/2000/svg" xmlns:xlink="http://www.w3.org/1999/xlink" x="0px" y="0px"
	 viewBox="0 0 5394.1 883.3" style="enable-background:new 0 0 5394.1 883.3;" xml:space="preserve">
<style type="text/css">
	.st0{fill:#0077D5;}
</style>
<path class="st0" d="M1414,444.5c0,79.8,0.1,159.6-0.1,239.4c0,6,1.6,7.8,7.7,7.8c101-0.2,202.1-0.2,303.1,0c5.8,0,7.5-1.8,7.4-7.5
	c-0.2-27.1-0.3-54.2,0-81.2c0.1-6.4-1.9-8.1-8.2-8c-63.1,0.2-126.2,0.1-189.4,0.1c-6.2,0-9.3-3-9.2-9.1c0-126.7,0-253.3,0-380
	c0-5.6-2.7-8.4-8.1-8.4c-31.7,0-63.3,0-95,0c-5.5,0-8.3,2.7-8.3,8.2C1414,285.4,1414,364.9,1414,444.5L1414,444.5z"/>
<path class="st0" d="M2745.4,444.4c0,78.1,0,156.2,0,234.4c0,9,3.7,12.8,12.8,12.8c4.6,0,9.2,0,13.8,0c11.4,0,13.9-2.5,13.9-13.9
	c0-60.2-0.3-120.4,0.2-180.6c0.1-15.5,1.7-31.2,4.8-46.4c6.1-30.4,20.8-55.7,49.1-71c24.8-13.4,51.4-15.7,78.8-12
	c25.9,3.5,46,16.3,59.1,39.2c11.9,20.7,15,43.4,15,66.8c0,68.5,0,137.1,0,205.6c0,8.4,3.8,12.2,12,12.3c5.4,0,10.8,0,16.2,0
	c9.1,0,13.1-4,13.1-13.3c0-67.7,0.2-135.4-0.1-203.1c-0.1-20.6-2.1-41.1-8.6-60.9c-11.1-33.9-31.6-59.2-65.3-72.6
	c-24.6-9.8-50.2-11.3-76.1-7.7c-34.7,4.9-64.3,19.4-85.5,48.4c-2.5,3.5-4.8,8.7-9.9,5.9c-2.1-1.1-2.7-6.4-2.7-9.7
	c-0.2-56-0.1-112.1-0.1-168.1c0-8.9-4-12.8-12.9-12.8c-4.6,0-9.2,0-13.8,0c-10.3,0-13.9,3.5-13.9,13.7
	C2745.4,289,2745.4,366.7,2745.4,444.4L2745.4,444.4z"/>
<path class="st0" d="M5305.1,436.5c4.3,0,7.9,0,11.4,0c0.4,0,0.8,0,1.2,0c4.7-0.5,9.7-5.6,9.3-10c-0.4-5-1-9.9-1.8-14.8
	c-5.8-34-26-55.9-57.5-68.1c-28.8-11.2-58.7-12.9-89-10c-25.4,2.4-48.6,10.4-68.7,26.8c-38.7,31.6-39.6,94.2-1.5,126.4
	c22.3,18.9,49.4,26.9,77.1,33.5c24,5.7,48.1,11.1,72,17.6c11.7,3.2,22.1,9.7,30,19.4c10.1,12.6,11.7,27.3,12.2,42.9
	c0.9,30.7-17.4,50.1-42.2,57.7c-25.7,8-52,9.5-78.3,4.3c-39.5-7.8-63.2-34.3-64.7-72.2c-0.2-5.2-4.9-9.8-10.1-9.9
	c-7.1-0.2-14.2-0.2-21.2,0c-5.7,0.2-10.4,5.6-9.9,11.3c0.4,4.5,0.9,9.1,1.7,13.6c7.7,42.3,33,69.8,72.7,83.8
	c43.8,15.4,87.9,13.2,131.5-1.8c17.7-6.1,32.7-16.5,44.1-31.5c16.1-21.3,19.4-45.6,16.6-71.6c-3.7-34.4-21.5-58.1-52.5-72.6
	c-24.2-11.4-50.3-15.7-76.1-21.1c-20.8-4.3-41.6-8.4-60.8-18.1c-25.8-13-32.3-36.3-27.7-60.8c3.8-19.9,17.3-31.9,35.6-38.4
	c25.2-9.1,51.1-8.5,76.9-2.9c29.6,6.5,49,24.7,50.5,57.3c0.1,1.7,1.1,3.5,2.1,5C5292.7,439,5299.8,435.7,5305.1,436.5L5305.1,436.5z
	"/>
<path class="st0" d="M3106.4,515.5c0,25.4,0,50.8,0,76.2c0,29,0,57.9,0,86.9c0,9.3,3.6,12.9,12.7,12.9c4.6,0,9.2,0,13.8,0
	c11.3,0,14.1-2.7,14.1-13.8c0-60.4-0.3-120.8,0.2-181.2c0.1-15.9,1.7-32.1,5.1-47.6c8.5-39.1,30.8-66.8,70.6-78
	c18.9-5.3,38.2-6.1,57.5-3.2c26.8,4.1,47.2,17.8,60.1,41.9c11.1,20.8,13.7,43.5,13.8,66.5c0.2,67.5,0.1,135,0.1,202.5
	c0,9.8,3.1,12.9,13.1,12.9c4.6,0,9.2,0,13.8,0c10.4,0,13.4-3,13.4-13.3c0-70.6,0.3-141.2-0.2-211.9c-0.1-14.2-1.9-28.7-5.2-42.5
	c-9-38-30-67-67.2-82c-25.8-10.4-52.6-11.6-79.8-7.5c-23.9,3.6-45.9,12.3-64.2,28.4c-7.6,6.7-13.5,15.2-20.5,22.6
	c-1.7,1.8-4.8,3.1-7.2,3.1c-1.3,0-3.2-3.2-3.7-5.2c-1.4-6-2.3-12.2-3.3-18.4c-0.9-5.3-1.6-10.7-2.6-16c-1.3-7.2-7-10-20-10
	c-10.5,0-14.2,3.7-14.2,14.2C3106.4,407.2,3106.4,461.4,3106.4,515.5L3106.4,515.5z"/>
<path class="st0" d="M2425.4,511.5c-0.4-21,2.8-45.6,11.6-69.3c13.1-35.2,36.2-60.5,73.2-71.1c24.7-7.1,49.7-6.7,74.5,0.2
	c26.8,7.5,46.7,23.5,58.4,48.8c4.1,9,6,19,9.9,28.1c1.6,3.8,5.6,8.5,9.2,9.2c7.4,1.4,15.3,0.6,23,0.4c4.8-0.2,9.2-5.4,8.6-9.6
	c-6.8-46.8-31.1-80.9-74.2-100.9c-33.7-15.6-69.4-18.1-105.6-12.2c-58.9,9.5-98,42.9-117.4,99.1c-11,31.9-13.7,64.8-11.7,98.4
	c1.3,23.2,4.9,45.9,12.8,67.7c16.5,45.3,47.1,76.4,93.6,90.7c30.6,9.4,61.8,10.4,93.1,4.2c58.7-11.5,101-51.8,109-110.1
	c1-7-2.9-12.2-9.9-12.3c-4.6-0.1-9.2,0.4-13.7-0.1c-12.2-1.3-16,5.2-18.2,14.7c-8.5,36.5-29.9,61.8-66.5,72.5
	c-17.1,5-34.6,6.3-52.5,4.4c-43.8-4.6-74.2-27-92.1-66.8C2428.8,571.3,2425.3,543.8,2425.4,511.5L2425.4,511.5z"/>
<path class="st0" d="M1903.7,462c0,32.7,0,65.4,0,98.1c0,40,0,80,0,120c0,7.9,3.5,11.3,11.4,11.4c4.8,0,9.6-0.5,14.4,0.1
	c10,1.2,14.9-5,14.9-14.8c-0.3-142.9-0.2-285.9-0.2-428.8c0-12.4,4.3-16.6,16.9-16.6c46.9,0,93.8,0.1,140.6-0.2
	c3.4,0,8.6-1.8,9.9-4.4c2.1-4.3,2.3-9.8,2.4-14.8c0.3-11.3-3.1-14.5-14.1-14.5c-117.3,0-234.6,0-351.9,0c-1.5,0-2.9-0.1-4.4,0
	c-4.9,0.3-9.4,4.7-9.6,9.6c-0.2,3.7-0.1,7.5-0.1,11.2c0,9.9,3.1,13,13,13c46.7,0,93.3,0,140,0c12.7,0,16.7,4,16.7,16.8
	C1903.7,319.5,1903.7,390.8,1903.7,462L1903.7,462z"/>
<path class="st0" d="M3854.5,445.3c0-78.1,0-156.2,0-234.3c0-9.8-3.7-13.4-13.6-13.4c-3.8,0-7.5,0.4-11.2-0.1
	c-11.5-1.3-15.9,5.1-15.9,15.7c0.3,154.3,0.2,308.6,0.2,463c0,1.2,0,2.5,0,3.8c0.2,7.6,4,11.5,11.5,11.6c5.2,0.1,10.4,0,15.6,0
	c10.4,0,13.4-3,13.4-13.3C3854.5,600.6,3854.5,522.9,3854.5,445.3L3854.5,445.3z"/>
<path class="st0" d="M4682.5,515.1c0-54.5,0-109.1,0-163.6c0-8.6-4-12.6-12.5-12.6c-5.2,0-10.4,0-15.6,0c-8,0-12.3,4.2-12.3,12.2
	c0,109.5,0,219,0,328.5c0,7.9,3.9,11.9,11.7,12c5.2,0,10.4,0,15.6,0c10.3,0,13.2-2.9,13.2-13.5
	C4682.5,623.8,4682.5,569.5,4682.5,515.1L4682.5,515.1z"/>
<path class="st0" d="M4682.4,253.8c0-5.8,0.1-11.6,0-17.5c-0.1-6.2-4-10-10.2-10.1c-6.2-0.1-12.5-0.1-18.7,0
	c-7.5,0.1-11.5,4.1-11.5,11.5c0,10.6,0,21.2,0,31.8c0,7.6,4.2,11.8,11.9,11.8c5.8,0,11.6,0.1,17.5,0c6.8-0.1,10.8-4,11-10.7
	C4682.6,265.1,4682.5,259.5,4682.4,253.8L4682.4,253.8z"/>
<path class="st0" d="M54.4,197c2.7,0.2,5.4,0.6,8,0.6c63.8,0,127.5-0.2,191.3,0.1c55.2,0.2,105.3,16.2,149.6,49.5
	c43.9,33,73.4,76.1,89.2,128.6c0.6,2.1,1.3,4.2,2.4,7.5c7.3-5.6,13.9-10.5,20.4-15.6c58.7-45.9,117.5-91.8,176.2-137.7
	c25.3-19.7,50.5-39.5,75.8-59.2c9.1-7.1,7-7.1,15.9-0.1c21.6,16.9,43.4,33.8,65,50.7c1.8,1.4,3.4,3,5.6,4.9
	C764.4,296,675.4,365.6,585.6,435.8c8.8,6.9,16.5,13.1,24.3,19.2c10.3,8.1,20.9,15.9,31,24.3c4.5,3.8,7.5,3.3,11.8-0.1
	c30.4-24,61-47.7,91.5-71.6c47.1-36.8,94.2-73.6,141.2-110.4c8.7-6.8,17.4-13.5,26-20.4c2.6-2.1,4.5-2.8,7.6-0.4
	c24,19,48.2,37.8,72.3,56.6c0.6,0.5,1.2,1.1,2.7,2.5c-89.3,69.8-178.4,139.4-268.2,209.6c6.2,5,11.5,9.3,16.9,13.5
	c12.9,10.2,26,20.1,38.8,30.5c4,3.2,6.5,3.2,10.6-0.1c58.8-46.2,117.7-92.1,176.6-138.1c27.4-21.4,54.7-42.9,82.3-64.1
	c4.1-3.2,5.6-6.5,5.6-11.6c-0.1-56.5-0.1-112.9-0.1-169.4c0-5.5,2.7-8.2,8.2-8.2c31.5,0,62.9,0.2,94.4-0.1c6.4-0.1,8.1,1.9,8.1,8.1
	c-0.2,125.4-0.1,250.9-0.1,376.3c0,1.7,0,3.3,0,5c0.1,8,0.2,8.2,8.7,8.2c63.3,0,126.7,0,190,0c5.7,0,8.6,2.8,8.6,8.5
	c0,27.1-0.1,54.2,0.1,81.3c0,5.1-1.4,6.8-6.7,6.8c-101.5-0.1-202.9-0.1-304.4,0c-5.7,0-6.9-2-6.9-7.3c0.2-56,0.1-112.1,0.1-168.2
	c0-2.7,0-5.3,0-9.5c-3.1,1.9-5.1,2.8-6.8,4.1c-52,40.6-104,81.3-156,121.9c-38.1,29.8-76.2,59.4-114.1,89.3c-3.8,3-6,1.7-9.1-0.7
	c-84-65.7-168-131.3-252-197c-7.5-5.8-15-11.6-23.3-18c-1.1,2.9-1.8,4.8-2.4,6.6c-25.2,80.8-77.5,136-156.9,165.1
	c-23.6,8.7-48.2,13.2-73.3,13.3c-66.5,0.3-132.9,0.1-199.4,0.2c-2.9,0-5.8,0.3-8.7,0.5C54.4,527.1,54.4,362,54.4,197L54.4,197z
	 M166.4,444.5c0,47.7,0,95.4,0,143.1c0,3.9-0.5,7.6,5.4,7.5c31.6-0.5,63.3,0.3,94.9-1.5c37.2-2.1,66.8-20.5,89.8-49.2
	c27.2-33.9,37.9-72.8,33.7-116.1c-3.5-35.9-17-67.2-42.1-93c-25.6-26.4-56.7-40.8-94.1-40.3c-26.7,0.4-53.3,0.2-80-0.1
	c-6-0.1-7.7,1.6-7.7,7.6C166.5,350,166.4,397.2,166.4,444.5L166.4,444.5z"/>
<path class="st0" d="M1414,444.5c0-79.6,0-159.2,0-238.8c0-5.4,2.8-8.2,8.3-8.2c31.7,0,63.3,0,95,0c5.4,0,8.1,2.8,8.1,8.4
	c0,126.7,0,253.3,0,380c0,6,3.1,9.1,9.2,9.1c63.1,0,126.2,0.1,189.4-0.1c6.3,0,8.2,1.7,8.2,8c-0.3,27.1-0.3,54.2,0,81.2
	c0.1,5.7-1.6,7.5-7.4,7.5c-101-0.2-202.1-0.2-303.1,0c-6.1,0-7.7-1.8-7.7-7.8C1414,604.1,1414,524.3,1414,444.5L1414,444.5z"/>
<path class="st0" d="M4569.6,506c0-51.5,0-102.9,0-154.4c0-8.8-4-12.8-13-12.8c-2.5,0-5.1,0.4-7.5-0.1c-8.1-1.4-13.5,5.7-14.5,12.2
	c-1.6,10.5-3.2,20.9-5.2,31.3c-0.4,2.3-1.8,5.4-3.6,6.2c-3.5,1.6-6-0.6-7.9-4c-10-17.4-24.6-29.6-42.5-38.3
	c-24.3-11.7-50.1-14.7-76.6-13.7c-25.5,1-49.3,7.5-70.6,21.7c-31.3,20.8-48.9,51.1-58.8,86.4c-8.5,30.2-11.2,61.2-9.2,92.6
	c1.6,25.9,5.8,51.2,15.3,75.4c14.1,35.8,36.9,63.6,73,78.9c24,10.2,49.2,12.9,75.2,10.4c39.6-3.8,73.6-17,95.3-52.9
	c1-1.7,4.4-2.4,6.7-2.5c0.7,0,2.3,3.5,2.3,5.4c-0.2,11-0.6,22-1.2,33c-1.2,21.5-4.9,42.5-12.6,62.7c-11.4,30-30.9,51.5-63.2,59.4
	c-18.5,4.5-37.2,4.8-55.7,1.3c-9.9-1.9-19.9-4.7-29-9c-20.8-9.7-31.4-27.7-36.7-49.3c-1.5-5.9-4.9-10.3-11.2-10.8
	c-6.8-0.5-13.8-0.3-20.6-0.1c-5.5,0.2-10.4,6-9.5,10.9c6.8,37.7,26.7,65.5,62.2,80.9c31,13.5,63.7,15.9,96.7,11.7
	c51.3-6.5,86-35,104.7-83.1c12.2-31.4,16.7-64.4,17.3-97.7c0.1-6.3,0.2-12.7,0.2-19C4570,594.6,4569.6,550.3,4569.6,506L4569.6,506z
	 M4515.7,596.3c-15.6,39.9-43.9,63.5-87.5,67.8c-23.2,2.3-45.3-0.5-66-11c-28.2-14.4-43.7-39-52.4-68.3
	c-9.1-30.7-10.4-62.1-7.9-93.9c1.7-22.4,5.9-44.1,15.4-64.5c18.3-39.1,49.4-58.6,92.3-60c22.7-0.8,44.4,2.8,64,14.9
	c25.4,15.7,39,39.8,46.9,67.5c6.2,21.9,8.7,44.4,7.8,65.5C4528.9,543.6,4525.7,570.5,4515.7,596.3L4515.7,596.3z"/>
<path class="st0" d="M2348.1,446.6c-12.7-48.4-39.6-84.9-87.3-103.6c-30.2-11.8-61.6-13.3-93.3-7.9c-41.9,7.1-74.8,28.3-97,64.7
	c-16.4,26.8-24,56.5-25.1,87.8c-1.2,34.6-0.8,69.1,10.1,102.5c13.2,40.7,36.3,73.6,75.7,92.5c39,18.7,80.2,21,121.8,10.6
	c49.3-12.4,80.7-43.6,93.3-93.2c2-7.7-1.8-12.5-9.8-12.7c-4.6-0.1-9.2,0-13.8,0c-11.8,0-14.2,1.6-18.4,12.7
	c-7.1,18.9-17.7,35.4-34.3,47.3c-15,10.7-32,15.4-50.1,17c-30.6,2.7-59.1-2.9-83.6-22c-32.6-25.4-46.9-60.6-50.4-100.8
	c-0.6-7.1,5.4-12.6,13-12.6c40.6,0,81.2,0,121.9,0s81.2,0,121.9,0c7,0,11.7-3.8,11.9-9.9C2354.8,494.7,2354.4,470.4,2348.1,446.6
	L2348.1,446.6z M2300.8,495.1c-33.7,0-67.4,0-101.2,0s-67.4,0-101.2,0c-7.2,0-13.2-5.4-12.8-12.2c2.5-38.7,14.9-72.7,47.3-96.9
	c15.6-11.7,33.5-17.6,52.6-19.2c22.2-1.9,44.1-0.1,64.6,9.7c31.9,15.3,50,41.7,58.7,75c2.6,10,3.5,20.4,4.8,30.7
	C2314.4,489.2,2308.2,495.1,2300.8,495.1L2300.8,495.1z"/>
<path class="st0" d="M5037.2,446.2c-12.5-46.9-38.2-82.9-84.1-102c-31-12.9-63.4-14.6-96.2-9.2c-41.2,6.9-73.8,27.4-96.1,63
	c-17.7,28.2-25.5,59.4-26.4,92.4c-0.9,32.1-0.5,64.1,8.9,95.2c11.9,39.5,32.7,72.6,69.6,93c40.8,22.5,84.5,25.5,128.9,14.5
	c49.3-12.1,80.8-43.4,93.5-93c2.1-8.2-1.6-12.8-10.1-12.9c-5.6-0.1-11.3,0.3-16.9-0.1c-6.7-0.5-10.5,3.2-13.2,8.5
	c-1.5,2.9-2.4,6.2-3.7,9.3c-9.7,22.9-24.5,41.1-47.9,51c-20,8.4-40.8,10.5-62.4,8c-25.1-2.8-47-12-65.2-29.6
	c-25.8-25-37.5-56.3-41.1-91.3c-0.9-8.5,4.7-14.1,13.4-14.1c40.4,0,80.8,0,121.2,0c15,0,30,0,45,0c25.8,0,51.7,0,77.5,0
	c6.5,0,11.3-3.9,11.5-9.7C5043.9,494.7,5043.6,470.2,5037.2,446.2L5037.2,446.2z M4989.8,495.1c-33.7,0-67.5,0-101.2,0
	c-33.3,0-66.6,0-99.9,0c-9.1,0-14.6-5.3-13.9-14.2c2.4-30.8,11.4-59.1,33-82.2c15.3-16.4,34.1-26.3,56.1-30.1
	c26.1-4.5,51.9-3.2,76.2,8.4c31.7,15.2,49.4,41.7,58,74.8c2.5,9.8,3.5,20,4.7,30.1C5003.7,489.1,4997.6,495.1,4989.8,495.1
	L4989.8,495.1z"/>
<path class="st0" d="M2745.4,444.4c0-77.7,0-155.4,0-233.1c0-10.2,3.5-13.7,13.9-13.7c4.6,0,9.2,0,13.8,0c8.9,0,12.9,3.9,12.9,12.8
	c0,56,0,112.1,0.1,168.1c0,3.4,0.6,8.6,2.7,9.7c5.1,2.8,7.4-2.5,9.9-5.9c21.2-29,50.8-43.5,85.5-48.4c25.9-3.6,51.5-2.1,76.1,7.7
	c33.7,13.4,54.2,38.8,65.3,72.6c6.5,19.8,8.4,40.3,8.6,60.9c0.4,67.7,0.1,135.4,0.1,203.1c0,9.3-3.9,13.3-13.1,13.3
	c-5.4,0-10.8,0-16.2,0c-8.2,0-12-3.9-12-12.3c0-68.5,0-137.1,0-205.6c0-23.4-3.1-46.1-15-66.8c-13.2-22.9-33.3-35.6-59.1-39.2
	c-27.4-3.7-54.1-1.4-78.8,12c-28.3,15.3-43,40.6-49.1,71c-3.1,15.2-4.6,30.9-4.8,46.4c-0.5,60.2-0.2,120.4-0.2,180.6
	c0,11.3-2.6,13.8-13.9,13.9c-4.6,0-9.2,0-13.8,0c-9.1,0-12.8-3.7-12.8-12.8C2745.4,600.7,2745.4,522.5,2745.4,444.4L2745.4,444.4z"
	/>
<path class="st0" d="M4222,451c-12.6-46.8-38.6-83.1-83.4-104c-29.5-13.7-60.6-17.1-92.6-13.2c-56.9,6.9-98.7,35.7-121.6,88.4
	c-24.7,56.7-24.8,115.3-5.4,173.6c12.7,38.3,37.1,67.8,73.6,86c32.4,16.2,66.9,20.3,102.6,14.9c52.4-8,90.8-35.3,114.3-82.8
	c15.2-30.8,20.6-63.9,20.2-101C4230.3,493.8,4227.7,472.2,4222,451L4222,451z M4177.9,583.8c-14.7,40.8-41.6,69.8-85.5,78.5
	c-60.6,12.1-113.4-18.8-134.1-77.1c-8.1-22.6-11.7-45.8-11.4-69.8c0.2-36.5,6.6-71.3,28.1-101.7c21.8-30.7,51.8-46.4,89.6-47.4
	c34.9-0.9,64.5,10.8,87.9,36.9c17.7,19.7,27.5,43.5,32.3,69.2C4192,510.2,4190.9,547.6,4177.9,583.8L4177.9,583.8z"/>
<path class="st0" d="M3752.6,443.5c-13.1-45-40.5-79-84.3-97.9c-31.6-13.7-64.7-16.2-98.5-10.5c-45.8,7.6-81.1,31.2-104.7,71.3
	c-19.8,33.6-26.3,70.5-27.6,109.2c2.3,18.1,3.4,36.5,7,54.3c8.6,42.3,28.4,78.2,65.1,102.7c36.2,24.1,76.4,30.5,118.8,24.1
	c55.7-8.5,95.6-38.7,117.3-90.6C3767.9,553,3768.5,498.2,3752.6,443.5L3752.6,443.5z M3694.2,616.5c-25.1,35.8-60.4,51.7-103.5,47.8
	c-57.8-5.3-89.9-41-104.1-94.4c-12-44.8-10.2-89.6,8.2-132.6c15.9-37.2,43.5-62,84-69.1c58-10.2,107.3,18,129.6,72.7
	c9.8,24.1,13.4,49.2,13.5,78.6C3721.5,551.8,3715.3,586.3,3694.2,616.5z"/>
<path class="st0" d="M5305.1,436.5c-5.3-0.8-12.4,2.5-17-4.3c-1-1.5-2.1-3.3-2.1-5c-1.5-32.6-20.9-50.8-50.5-57.3
	c-25.8-5.7-51.7-6.2-76.9,2.9c-18.3,6.6-31.8,18.5-35.6,38.4c-4.6,24.4,1.9,47.8,27.7,60.8c19.2,9.6,40,13.8,60.8,18.1
	c25.8,5.3,51.9,9.7,76.1,21.1c31,14.6,48.8,38.2,52.5,72.6c2.8,26-0.5,50.3-16.6,71.6c-11.4,15-26.4,25.4-44.1,31.5
	c-43.6,15-87.7,17.2-131.5,1.8c-39.7-14-65-41.5-72.7-83.8c-0.8-4.5-1.3-9.1-1.7-13.6c-0.5-5.7,4.2-11.1,9.9-11.3
	c7.1-0.2,14.2-0.2,21.2,0c5.2,0.1,9.9,4.7,10.1,9.9c1.5,38,25.2,64.5,64.7,72.2c26.3,5.2,52.6,3.7,78.3-4.3
	c24.8-7.7,43.1-27,42.2-57.7c-0.5-15.5-2.1-30.3-12.2-42.9c-7.8-9.8-18.2-16.2-30-19.4c-23.8-6.5-47.9-11.9-72-17.6
	c-27.7-6.6-54.8-14.6-77.1-33.5c-38-32.2-37.2-94.9,1.5-126.4c20.1-16.4,43.3-24.4,68.7-26.8c30.4-2.9,60.3-1.2,89,10
	c31.4,12.2,51.7,34.1,57.5,68.1c0.8,4.9,1.4,9.9,1.8,14.8c0.4,4.4-4.6,9.5-9.3,10c-0.4,0-0.8,0-1.2,0
	C5313,436.5,5309.5,436.5,5305.1,436.5L5305.1,436.5z"/>
<path class="st0" d="M3106.4,515.5c0-54.2,0-108.3,0-162.5c0-10.5,3.7-14.2,14.2-14.2c13,0,18.6,2.8,20,10c1,5.3,1.7,10.6,2.6,16
	c1,6.1,1.9,12.3,3.3,18.4c0.5,2,2.4,5.2,3.7,5.2c2.4,0,5.5-1.3,7.2-3.1c7-7.4,12.9-15.9,20.5-22.6c18.3-16.1,40.3-24.8,64.2-28.4
	c27.1-4.1,54-2.9,79.8,7.5c37.2,15.1,58.2,44.1,67.2,82.1c3.3,13.8,5.1,28.3,5.2,42.5c0.5,70.6,0.2,141.2,0.2,211.9
	c0,10.3-3,13.2-13.4,13.3c-4.6,0-9.2,0-13.8,0c-10,0-13.1-3.1-13.1-12.9c0-67.5,0.1-135-0.1-202.5c-0.1-23-2.6-45.7-13.8-66.5
	c-12.9-24.1-33.3-37.8-60.1-41.9c-19.3-3-38.6-2.1-57.5,3.2c-39.8,11.1-62.1,38.9-70.6,78c-3.4,15.5-4.9,31.7-5.1,47.6
	c-0.6,60.4-0.2,120.8-0.2,181.2c0,11.1-2.8,13.8-14.1,13.8c-4.6,0-9.2,0-13.8,0c-9.1,0-12.7-3.6-12.7-12.9c0-29,0-57.9,0-86.9
	C3106.4,566.4,3106.4,540.9,3106.4,515.5L3106.4,515.5z"/>
<path class="st0" d="M2425.4,511.5c-0.1,32.3,3.4,59.8,15.1,85.8c17.9,39.8,48.3,62.2,92.1,66.8c17.9,1.9,35.4,0.6,52.5-4.4
	c36.6-10.7,58-35.9,66.5-72.5c2.2-9.5,6-16,18.2-14.7c4.5,0.5,9.2,0,13.7,0.1c7,0.2,10.9,5.3,9.9,12.3c-8,58.3-50.3,98.6-109,110.1
	c-31.3,6.2-62.5,5.2-93.1-4.2c-46.5-14.3-77.1-45.3-93.6-90.7c-8-21.8-11.5-44.5-12.8-67.7c-1.9-33.6,0.8-66.5,11.7-98.4
	c19.4-56.2,58.5-89.7,117.4-99.1c36.3-5.8,71.9-3.4,105.6,12.2c43.1,19.9,67.4,54,74.2,100.9c0.6,4.2-3.8,9.4-8.6,9.6
	c-7.7,0.3-15.6,1.1-23-0.4c-3.6-0.7-7.6-5.4-9.2-9.2c-3.9-9.1-5.8-19.1-9.9-28.1c-11.7-25.3-31.6-41.3-58.4-48.8
	c-24.8-6.9-49.8-7.2-74.5-0.2c-36.9,10.6-60.1,35.9-73.2,71.1C2428.2,465.9,2425,490.6,2425.4,511.5L2425.4,511.5z"/>
<path class="st0" d="M1903.7,462c0-71.3,0-142.5,0-213.8c0-12.8-4-16.8-16.7-16.8c-46.7,0-93.3,0-140,0c-9.9,0-13-3.1-13-13
	c0-3.8-0.1-7.5,0.1-11.2c0.2-4.9,4.7-9.3,9.6-9.6c1.4-0.1,2.9,0,4.4,0c117.3,0,234.6,0,351.9,0c11.1,0,14.5,3.2,14.1,14.5
	c-0.1,5-0.3,10.5-2.4,14.8c-1.3,2.5-6.5,4.4-9.9,4.4c-46.9,0.3-93.8,0.2-140.6,0.2c-12.6,0-16.9,4.2-16.9,16.6
	c0,142.9-0.1,285.9,0.2,428.8c0,9.8-4.9,15.9-14.9,14.8c-4.7-0.6-9.6-0.1-14.4-0.1c-7.9-0.1-11.4-3.4-11.4-11.4c0-40,0-80,0-120
	C1903.7,527.5,1903.7,494.8,1903.7,462L1903.7,462z"/>
<path class="st0" d="M3854.5,445.3c0,77.7,0,155.4,0,233.1c0,10.3-3,13.2-13.4,13.3c-5.2,0-10.4,0-15.6,0c-7.5-0.1-11.3-4-11.5-11.6
	c0-1.2,0-2.5,0-3.8c0-154.3,0.1-308.6-0.2-463c0-10.6,4.4-17.1,15.9-15.7c3.7,0.4,7.5,0.1,11.2,0.1c9.9,0,13.6,3.6,13.6,13.4
	C3854.5,289.1,3854.5,367.2,3854.5,445.3L3854.5,445.3z"/>
<path class="st0" d="M4682.5,515.1c0,54.3,0,108.7,0,163c0,10.5-2.9,13.4-13.2,13.5c-5.2,0-10.4,0-15.6,0c-7.8-0.1-11.7-4.1-11.7-12
	c0-109.5,0-219,0-328.5c0-8,4.3-12.1,12.3-12.2c5.2,0,10.4,0,15.6,0c8.5,0,12.5,4,12.5,12.6C4682.5,406,4682.5,460.6,4682.5,515.1
	L4682.5,515.1z"/>
<path class="st0" d="M4682.4,253.8c0,5.6,0.1,11.2,0,16.8c-0.2,6.7-4.2,10.6-11,10.7c-5.8,0.1-11.6,0-17.5,0
	c-7.7,0-11.9-4.2-11.9-11.8c0-10.6,0-21.2,0-31.8c0-7.4,4.1-11.4,11.5-11.5c6.2-0.1,12.5-0.1,18.7,0c6.2,0.1,10,3.8,10.2,10.1
	C4682.5,242.2,4682.4,248,4682.4,253.8L4682.4,253.8z"/>
</svg>
