<svg id="Deutsche_Telekom" data-name="Deutsche Telekom" xmlns="http://www.w3.org/2000/svg" width="200" height="244.6656" viewBox="0 0 200 244.6656"><defs><style>.cls-1{fill:#e2007a;}</style></defs><title>Deutsche-Telekom</title><g id="layer1"><path id="path108" class="cls-1" d="M161.27,118.5984h49.7124v49.7124H161.27Zm-31.6439,79.7627q0,23.6555,6.9213,30.7265c3.9052,4.0215,10.5607,6.4976,19.8917,7.42,2.7669.2328,7.5113.34,14.2083.34v13.8178H50.8659V236.8478q14.4327,0,21.2959-1.3793,13.9217-2.9289,17.5318-16.2274,1.882-6.8923,1.8944-20.88V17.7488q-30.4855.8606-47.6934,20.1991Q27.5425,56.4561,23.9282,94.615L10.9828,92.38,13.3924,6H208.1211l2.4179,86.38L197.577,94.615q-3.6143-38.163-20.0577-56.6671Q160.22,18.6047,129.6265,17.7488V198.3611ZM11.2189,118.5984H60.9315v49.7124H11.2189Z" transform="translate(-10.9828 -6)"/></g></svg>