<svg id="Ebene_1" data-name="Ebene 1" xmlns="http://www.w3.org/2000/svg" width="200" height="44.1382" viewBox="0 0 200 44.1382"><defs><style>.cls-1{fill:#fecc00;}.cls-2{fill:#d50029;}</style></defs><title>DHL</title><polygon class="cls-1" points="200 0 200 44.138 0 44.138 0 0 200 0 200 0"/><path class="cls-2" d="M88.1293,29.7662c-.874,1.1835-2.3363,3.241-3.2262,4.4427C84.4513,34.82,83.6353,35.93,86.34,35.93h14.2419s2.2954-3.1227,4.22-5.7344c2.6174-3.5528.2265-10.9452-9.1312-10.9452H58.818l-6.39,8.6818h34.826C89.0124,27.9318,88.9885,28.6009,88.1293,29.7662ZM77.6666,38.0713c-2.705,0-1.8891-1.1118-1.4373-1.7229.89-1.2018,2.3761-3.2376,3.25-4.4211.86-1.1653.8831-1.8345-.8774-1.8345H62.6746L49.8415,47.5337H81.1374c10.3364,0,16.0913-7.0305,17.8654-9.4613C99.0028,38.0713,80.5275,38.0713,77.6666,38.0713Zm20.3587,9.4624h18.3592l6.96-9.4635-18.357.0022C104.9818,38.0713,98.0253,47.5337,98.0253,47.5337ZM145.3942,19.25l-7.0419,9.5649h-8.1935l7.0385-9.5649H118.8437L106.5648,35.93H151.47l12.2755-16.68ZM124.5781,47.5337h18.3524l6.9633-9.4613H131.5414C131.5346,38.0713,124.5781,47.5337,124.5781,47.5337Zm-100.9332-5.73v2.01H49.2133l1.4771-2.01Zm29.7938-3.7326H23.6449v2.0074H51.9582ZM23.6449,47.5337H46.4742l1.47-1.9983h-24.3Zm173.0569-3.7212h26.9431v-2.01H198.1812Zm-2.7369,3.7212h29.68V45.5354H195.4341Zm6.96-9.4624-1.476,2.01h24.196v-2.01ZM176.8859,35.93l12.2778-16.68h-19.438c-.0069,0-12.287,16.68-12.287,16.68Zm-21.021,2.1417s-1.3417,1.8333-1.9938,2.7164c-2.3044,3.1135-.2663,6.746,7.2559,6.746h29.4751l6.9634-9.4613H155.8649Z" transform="translate(-23.6449 -11.3239)"/></svg>