<svg id="Layer_1" data-name="Layer 1" xmlns="http://www.w3.org/2000/svg" width="200" height="62.9692" viewBox="0 0 200 62.9692"><defs><style>.cls-1{fill:#005cb9;}.cls-2{fill:#93d500;}</style></defs><title>Enedis</title><path class="cls-1" d="M0,62.1741V52.2276a.49.49,0,0,1,.32-.4633,1.79,1.79,0,0,1,.7636-.15,1.8383,1.8383,0,0,1,.77.15.4957.4957,0,0,1,.3132.4633v8.8305H6.2394a.5417.5417,0,0,1,.4765.261,1.0581,1.0581,0,0,1,.1762.6135,1.0381,1.0381,0,0,1-.1762.607.542.542,0,0,1-.4765.2611H.9529a1.2411,1.2411,0,0,1-.6527-.17A.5029.5029,0,0,1,0,62.1741Zm11.9958,0V52.2407a.5027.5027,0,0,1,.2807-.4569,1.3068,1.3068,0,0,1,.6526-.17h5.9392a.568.568,0,0,1,.5091.2611,1.1292,1.1292,0,0,1,0,1.22.5742.5742,0,0,1-.5026.261H14.1627v3.061h2.5388a.5872.5872,0,0,1,.496.2415.8615.8615,0,0,1,.1828.5547.8944.8944,0,0,1-.17.5287.6008.6008,0,0,1-.5091.2415H14.1627v3.074h4.7187a.5742.5742,0,0,1,.5025.261,1.1292,1.1292,0,0,1,0,1.22.5676.5676,0,0,1-.5091.261H12.9357a1.2335,1.2335,0,0,1-.6527-.17A.503.503,0,0,1,11.9958,62.1741Zm9.8747,0V52.2276a.49.49,0,0,1,.32-.4633,1.79,1.79,0,0,1,.7636-.15,1.8383,1.8383,0,0,1,.77.15.4959.4959,0,0,1,.3133.4633v8.8305H28.11a.5417.5417,0,0,1,.4765.261,1.0574,1.0574,0,0,1,.1762.6135,1.0381,1.0381,0,0,1-.1762.607.542.542,0,0,1-.4765.2611H22.8234a1.241,1.241,0,0,1-.6526-.17A.5026.5026,0,0,1,21.8705,62.1741Zm9.1111,0V52.2407a.5025.5025,0,0,1,.2807-.4569,1.3068,1.3068,0,0,1,.6526-.17h5.9392a.5743.5743,0,0,1,.5091.2611,1.1292,1.1292,0,0,1,0,1.22.5742.5742,0,0,1-.5026.261H33.1484v3.061h2.5323a.5873.5873,0,0,1,.5026.2415.9072.9072,0,0,1,0,1.0834.6008.6008,0,0,1-.5091.2415H33.1484v3.074h4.7187a.5742.5742,0,0,1,.5026.261,1.1292,1.1292,0,0,1,0,1.22.574.574,0,0,1-.5091.261H31.9214a1.2329,1.2329,0,0,1-.6526-.17A.5028.5028,0,0,1,30.9816,62.1741Zm9.62-2.7871V55.1189a3.1983,3.1983,0,0,1,1.07-2.6563,4.3279,4.3279,0,0,1,2.7869-.8485,4.7906,4.7906,0,0,1,2.8586.7963,2.4669,2.4669,0,0,1,1.1095,2.1146.979.979,0,0,1-.248.77,1.3052,1.3052,0,0,1-.8354.2089c-.7114,0-1.07-.2089-1.0834-.6527a.9175.9175,0,0,0-.0392-.3394,1.8581,1.8581,0,0,0-.137-.385,1.35,1.35,0,0,0-.2741-.3981,1.4381,1.4381,0,0,0-.5026-.2742,2.3583,2.3583,0,0,0-.7832-.1174,1.5533,1.5533,0,0,0-1.7491,1.7621v4.2684A1.5667,1.5667,0,0,0,44.5566,61.13a2.3694,2.3694,0,0,0,.8941-.15,1.0181,1.0181,0,0,0,.5156-.4373,2.27,2.27,0,0,0,.2154-.5091,2.7447,2.7447,0,0,0,.0783-.5417c.0326-.4177.3916-.6526,1.07-.6526a1.3043,1.3043,0,0,1,.8419.2088.9462.9462,0,0,1,.2545.77,2.6106,2.6106,0,0,1-1.11,2.206,4.7053,4.7053,0,0,1-2.8456.868,4.2883,4.2883,0,0,1-2.7738-.8484A3.1851,3.1851,0,0,1,40.6018,59.387Zm9.5287-6.9114a1.0507,1.0507,0,0,1,.1763-.6.5742.5742,0,0,1,.509-.2611H57.871a.5743.5743,0,0,1,.5091.2611,1.05,1.05,0,0,1,.1762.6,1.07,1.07,0,0,1-.1827.6527.5812.5812,0,0,1-.5026.2611H55.4366V62.207a.5087.5087,0,0,1-.3263.4569,1.8012,1.8012,0,0,1-1.5272,0,.5026.5026,0,0,1-.3133-.4569v-8.85h-2.454a.5871.5871,0,0,1-.5025-.2545A1.006,1.006,0,0,1,50.1305,52.4756Zm10.6579,9.6985V52.2276a.5746.5746,0,0,1,.1958-.4307.7117.7117,0,0,1,.5026-.1828h3.3024q3.9551,0,3.9551,3.1981a3.1984,3.1984,0,0,1-.5939,2.0232,2.9237,2.9237,0,0,1-1.5925,1.0377l2.1864,3.72a.332.332,0,0,1,.0848.2414.9137.9137,0,0,1-.4372.718,1.5076,1.5076,0,0,1-.9138.3263.8158.8158,0,0,1-.7505-.4765L64.3454,58.18H62.9422v3.9942a.5026.5026,0,0,1-.3133.4569,1.5807,1.5807,0,0,1-.77.17,1.56,1.56,0,0,1-.7571-.17A.4962.4962,0,0,1,60.7884,62.1741ZM62.9552,56.62h1.834c1.1944,0,1.7883-.5417,1.7883-1.6251s-.5939-1.6382-1.7883-1.6382h-1.847Zm8.3606,5.5541V52.2276a.4893.4893,0,0,1,.32-.4633,1.7887,1.7887,0,0,1,.7636-.15,1.8192,1.8192,0,0,1,.77.15.4959.4959,0,0,1,.3133.4633v9.9465a.5027.5027,0,0,1-.32.4569,1.5876,1.5876,0,0,1-.7636.17,1.534,1.534,0,0,1-.7636-.17A.5025.5025,0,0,1,71.3158,62.1741Zm5.0907-2.7871V55.1189A3.1984,3.1984,0,0,1,77.47,52.4626a4.3406,4.3406,0,0,1,2.7869-.8485,4.8294,4.8294,0,0,1,2.8651.7963,2.48,2.48,0,0,1,1.11,2.1146.9591.9591,0,0,1-.2545.77,1.3052,1.3052,0,0,1-.8354.2089c-.7114,0-1.07-.2089-1.0834-.6527a.9175.9175,0,0,0-.0392-.3394,1.7783,1.7783,0,0,0-.13-.385,1.499,1.499,0,0,0-.2806-.3981,1.3953,1.3953,0,0,0-.4961-.2742,2.372,2.372,0,0,0-.79-.1174,1.5533,1.5533,0,0,0-1.7491,1.7621v4.2684A1.5664,1.5664,0,0,0,80.3618,61.13a2.3318,2.3318,0,0,0,.8876-.15,1.0637,1.0637,0,0,0,.5221-.4373,2.2635,2.2635,0,0,0,.2154-.5091,2.3742,2.3742,0,0,0,.0718-.5417c0-.4177.3916-.6526,1.07-.6526a1.3043,1.3043,0,0,1,.8419.2088.9458.9458,0,0,1,.261.77,2.6106,2.6106,0,0,1-1.1095,2.206,4.7326,4.7326,0,0,1-2.8782.8224,4.2954,4.2954,0,0,1-2.78-.8485A3.2045,3.2045,0,0,1,76.4065,59.387ZM86.79,62.1741V52.2276a.49.49,0,0,1,.32-.4633,1.79,1.79,0,0,1,.7637-.15,1.8192,1.8192,0,0,1,.77.15.5025.5025,0,0,1,.32.4633v9.9465a.5093.5093,0,0,1-.3263.4569,1.5871,1.5871,0,0,1-.7636.17,1.5344,1.5344,0,0,1-.7637-.17A.5029.5029,0,0,1,86.79,62.1741Zm4.4057-9.6985a1.05,1.05,0,0,1,.1762-.6.5743.5743,0,0,1,.5091-.2611h7.0552a.5741.5741,0,0,1,.509.2611,1.05,1.05,0,0,1,.1763.6,1.07,1.07,0,0,1-.1828.6527.581.581,0,0,1-.5025.2611H96.5018V62.207a.509.509,0,0,1-.3264.4569,1.56,1.56,0,0,1-.757.17,1.5807,1.5807,0,0,1-.77-.17.5024.5024,0,0,1-.3132-.4569v-8.85h-2.454a.5874.5874,0,0,1-.5026-.2545A1.0055,1.0055,0,0,1,91.1957,52.4756Zm10.6448,9.6985V52.2407a.5027.5027,0,0,1,.2806-.4569,1.3072,1.3072,0,0,1,.6527-.17h5.9392a.5741.5741,0,0,1,.509.2611,1.0707,1.0707,0,0,1,.17.5939,1.0312,1.0312,0,0,1-.1827.6527.5743.5743,0,0,1-.496.261H103.988v3.061h2.5389a.5809.5809,0,0,1,.496.2415.92.92,0,0,1,0,1.0834.6008.6008,0,0,1-.5091.2415H103.975v3.074H108.7a.5743.5743,0,0,1,.496.261,1.0319,1.0319,0,0,1,.1828.6527,1.0707,1.0707,0,0,1-.17.5939.5743.5743,0,0,1-.5091.2611h-5.9392a1.24,1.24,0,0,1-.6526-.17A.5025.5025,0,0,1,101.8405,62.1741Zm14.2475,0V52.2407a.5027.5027,0,0,1,.2806-.4569,1.3072,1.3072,0,0,1,.6527-.17H122.96a.5743.5743,0,0,1,.5091.2611,1.1292,1.1292,0,0,1,0,1.22.5742.5742,0,0,1-.5025.261h-4.7187v3.061h2.5388a.5872.5872,0,0,1,.496.2415.8615.8615,0,0,1,.1828.5547.895.895,0,0,1-.17.5287.6008.6008,0,0,1-.5091.2415h-2.5388v3.074h4.7187a.5742.5742,0,0,1,.5025.261,1.1292,1.1292,0,0,1,0,1.22.574.574,0,0,1-.5091.261h-5.9391a1.2335,1.2335,0,0,1-.6527-.17A.5025.5025,0,0,1,116.088,62.1741Zm9.8747,0V52.2407a.5025.5025,0,0,1,.3132-.4634,1.6584,1.6584,0,0,1,.77-.1632,1.7154,1.7154,0,0,1,.92.2024,2.5073,2.5073,0,0,1,.6984.8549l3.2176,5.7108V52.2276a.49.49,0,0,1,.32-.4634,1.7887,1.7887,0,0,1,.7636-.15,1.8223,1.8223,0,0,1,.77.15.5027.5027,0,0,1,.32.4634v9.9465a.5093.5093,0,0,1-.3263.4569,1.5729,1.5729,0,0,1-.7636.17,1.3051,1.3051,0,0,1-1.2466-.6526l-3.59-6.1546V62.148a.496.496,0,0,1-.3262.4568,1.56,1.56,0,0,1-.7571.17,1.578,1.578,0,0,1-.77-.17A.5023.5023,0,0,1,125.9627,62.1741Zm15.5005,0V52.2276a.5746.5746,0,0,1,.1958-.4307.7117.7117,0,0,1,.5026-.1828h3.3024q3.9552,0,3.9551,3.1981a3.1978,3.1978,0,0,1-.5939,2.0232,2.9237,2.9237,0,0,1-1.5925,1.0377l2.1864,3.72a.3589.3589,0,0,1,.0849.2414.9271.9271,0,0,1-.4373.718,1.5085,1.5085,0,0,1-.92.3263.8291.8291,0,0,1-.7506-.4765L145.0335,58.18H143.63v3.9942a.5027.5027,0,0,1-.32.4569,1.5349,1.5349,0,0,1-.7636.17,1.5876,1.5876,0,0,1-.7636-.17A.5027.5027,0,0,1,141.4632,62.1741ZM143.63,56.62h1.8339c1.1879,0,1.7883-.5417,1.7883-1.6251s-.6-1.6382-1.7883-1.6382H143.63Zm8.3736,5.5541V52.2407a.5029.5029,0,0,1,.2807-.4569,1.3068,1.3068,0,0,1,.6526-.17h5.9392a.5743.5743,0,0,1,.5091.2611,1.0707,1.0707,0,0,1,.17.5939,1.0319,1.0319,0,0,1-.1828.6527.5674.5674,0,0,1-.496.261h-4.7252v3.061h2.578a.6.6,0,0,1,.5025.2415.9.9,0,0,1,.1828.5547.8618.8618,0,0,1-.1763.5287.6007.6007,0,0,1-.509.2415H154.19v3.074h4.7253a.5679.5679,0,0,1,.496.261,1.0312,1.0312,0,0,1,.1827.6527,1.0689,1.0689,0,0,1-.17.5939.5741.5741,0,0,1-.509.2611h-5.9392a1.24,1.24,0,0,1-.6527-.17A.5028.5028,0,0,1,152.0036,62.1741Zm9.2939-1.1356a1.1489,1.1489,0,0,1,.2937-.7114.8554.8554,0,0,1,.6526-.359.8753.8753,0,0,1,.49.1958,5.3986,5.3986,0,0,1,.5352.4177,2.4273,2.4273,0,0,0,.744.4243,2.9374,2.9374,0,0,0,1.0639.1892,2.44,2.44,0,0,0,1.3379-.3394,1.1025,1.1025,0,0,0,.5352-.992,1.304,1.304,0,0,0-.2937-.8223,2.31,2.31,0,0,0-.77-.594,11.2032,11.2032,0,0,0-1.0378-.4568c-.3785-.15-.7636-.3133-1.1421-.5026a6.4288,6.4288,0,0,1-1.0573-.62,2.5722,2.5722,0,0,1-.7636-.9137,3.0939,3.0939,0,0,1,.0652-2.7607,2.6576,2.6576,0,0,1,.9594-.979,4.6963,4.6963,0,0,1,1.3054-.5156,6.4816,6.4816,0,0,1,1.4489-.1632,7.6473,7.6473,0,0,1,.92.0588,9.3742,9.3742,0,0,1,1.0247.1762,2.2255,2.2255,0,0,1,.8877.3981.79.79,0,0,1,.3394.6527,1.3057,1.3057,0,0,1-.235.7048.7246.7246,0,0,1-.6527.3655,3.3228,3.3228,0,0,1-.8159-.2937,3.648,3.648,0,0,0-1.488-.2871,2.6106,2.6106,0,0,0-1.39.3132.9789.9789,0,0,0-.496.8615.992.992,0,0,0,.4046.7767,3.2644,3.2644,0,0,0,.9921.5352c.3916.137.8223.3067,1.3053.5156a10.753,10.753,0,0,1,1.3053.6853,2.9179,2.9179,0,0,1,.9986,1.0638,3.265,3.265,0,0,1,.3981,1.6251,2.904,2.904,0,0,1-1.09,2.4279,4.5686,4.5686,0,0,1-2.8782.8485,5.7761,5.7761,0,0,1-2.7216-.594C161.6564,61.9457,161.2975,61.5149,161.2975,61.0385Zm10.4947,1.1356V52.2407a.5091.5091,0,0,1,.2871-.4569,1.3072,1.3072,0,0,1,.6527-.17h5.9392a.5741.5741,0,0,1,.509.2611,1.0243,1.0243,0,0,1,.1763.5939,1.0769,1.0769,0,0,1-.1828.6527.5807.5807,0,0,1-.5025.261h-4.7187v3.061h2.5323a.6.6,0,0,1,.5025.2415.9009.9009,0,0,1,.1828.5547.8618.8618,0,0,1-.1763.5287.6007.6007,0,0,1-.509.2415h-2.5323v3.074h4.7187a.5807.5807,0,0,1,.5025.261,1.0769,1.0769,0,0,1,.1828.6527,1.0236,1.0236,0,0,1-.1763.5939.5741.5741,0,0,1-.509.2611H172.732a1.2335,1.2335,0,0,1-.6527-.17A.509.509,0,0,1,171.7922,62.1741Zm20.18-2.7871V52.2081a.496.496,0,0,1,.3133-.4634,2.0494,2.0494,0,0,1,1.54,0,.4958.4958,0,0,1,.3133.4634V59.387c0,1.1748.6135,1.7621,1.834,1.7621s1.84-.5873,1.84-1.7621V52.2081a.4959.4959,0,0,1,.3133-.4634,1.8192,1.8192,0,0,1,.77-.15,1.7866,1.7866,0,0,1,.7636.15.4893.4893,0,0,1,.32.4634V59.387a3.146,3.146,0,0,1-1.0964,2.6563,4.5694,4.5694,0,0,1-2.9109.8485,4.66,4.66,0,0,1-2.9108-.842A3.1589,3.1589,0,0,1,191.9723,59.387ZM9.7572,52.4626,7.9951,51.81a.6.6,0,0,1,.6526-.2153,2.1221,2.1221,0,0,1,.8811.4372.6.6,0,0,1,.0326.5352l-1.1029,2.31a.6528.6528,0,0,1-.6527.2285.7377.7377,0,0,1-.4895-.2219s-.3459-.3329-.1827-.6527Zm179.5457,8.5564.6526,2.0362c.0849.2676.359.3982.8224.3982a1.6193,1.6193,0,0,0,.868-.2546.6041.6041,0,0,0,.4569-.8158l-3.198-9.4243a1.0635,1.0635,0,0,0-.5222-.5613,2.6109,2.6109,0,0,0-1.1617-.1958,2.6556,2.6556,0,0,0-1.1682.1958,1.0769,1.0769,0,0,0-.5157.5613l-3.1784,9.4765a1.12,1.12,0,0,0-.0326.1632c0,.248.17.4568.496.6526a1.6178,1.6178,0,0,0,.868.2546c.4634,0,.7375-.13.8224-.3981l.6526-2.0363Zm-3.6875-1.5338,1.6055-5.2669,1.6055,5.2669Z"/><path class="cls-1" d="M200,26.4934c0-.3655,0-.7375-.0392-1.1421-.3981-4.49-5.0254-7.8907-9.9008-7.8907h-12.4a3.6811,3.6811,0,0,1-3.5113-3.8245V10.8949A3.6812,3.6812,0,0,1,177.98,7.3836H194.864a1.4292,1.4292,0,0,0,1.3576-.8941,1.1641,1.1641,0,0,0,.0783-.3981V1.307A1.3707,1.3707,0,0,0,194.8671.0015H176.041c-5.45,0-9.953,4.1183-9.953,9.1763v5.7173c0,5.4562,4.1182,9.8943,9.1763,9.8943H188.448a3.6679,3.6679,0,0,1,3.4982,3.8245v.92a3.668,3.668,0,0,1-3.805,3.5113H167.5238a1.4161,1.4161,0,0,0-1.3575.8876,1.1675,1.1675,0,0,0-.0783.4046v4.7775A1.37,1.37,0,0,0,167.52,40.42h22.5991C195.575,40.42,200,36.3086,200,31.244ZM134.0948.0021H116.5579a1.377,1.377,0,0,0-1.3053,1.4424v23.77a1.3707,1.3707,0,0,0,1.3022,1.4357h5.4658a1.3706,1.3706,0,0,0,1.3055-1.4327V7.3706h9.8812a7.3257,7.3257,0,0,1,7.5643,7.0421V27.3875c0,3.916-3.3938,5.652-7.5643,5.652H115.2722v7.362h17.9349c8.6086,0,15.6116-5.0777,15.6116-13.0531V14.2953A14.6,14.6,0,0,0,134.0948.0021Zm27.3789,25.46v-13.51a1.377,1.377,0,0,0-1.3053-1.4358h-5.4432a1.377,1.377,0,0,0-1.3053,1.4358v13.51h0v13.51a1.3707,1.3707,0,0,0,1.3022,1.4357h5.4463a1.37,1.37,0,0,0,1.3055-1.4316V25.4622Zm0-22.3861V1.4445A1.3706,1.3706,0,0,0,160.1715.0088h-5.4463A1.3706,1.3706,0,0,0,153.42,1.4416V3.0763h0V5.967a1.3707,1.3707,0,0,0,1.3022,1.4357h5.4463a1.37,1.37,0,0,0,1.3055-1.4316V3.0761Z"/><path class="cls-2" d="M91.9267,33.0591a7.2933,7.2933,0,0,1-7.5643-6.9965V24.797h16.14c5.58,0,10.1226-4.2227,10.1226-9.4113V9.42c0-5.1886-4.5685-9.4113-10.1226-9.4113H86.4313a10.9483,10.9483,0,0,0-2.35.1762,9.62,9.62,0,0,0-7.76,9.2351V12.879a1.3772,1.3772,0,0,0,1.3053,1.4424h5.4693a1.3771,1.3771,0,0,0,1.3053-1.4424V10.647a3.4462,3.4462,0,0,1,3.59-3.2633H99.0276a3.4462,3.4462,0,0,1,3.59,3.2633v3.5374a3.4462,3.4462,0,0,1-3.59,3.2633h-27.32v7.3358h4.5686V26.05c0,7.9428,7.0421,14.3584,15.6637,14.3584h23.3064v-7.349Z"/><path class="cls-1" d="M56.0958,7.377A7.3247,7.3247,0,0,1,63.66,14.4126V39.1288a1.3707,1.3707,0,0,0,1.4327,1.3055h5.1787a1.37,1.37,0,0,0,1.4357-1.302v-24.72C71.7072,6.47,64.7041.0086,56.0956.0086H39.46a1.3771,1.3771,0,0,0-1.3053,1.4359V38.9852A1.3771,1.3771,0,0,0,39.46,40.4211h5.4628a1.3772,1.3772,0,0,0,1.3053-1.4359V7.3706ZM10.932,7.3706H32.1368a1.3446,1.3446,0,0,0,1.41-1.2662v-4.83a1.3053,1.3053,0,0,0-1.34-1.27h0q-.0351.0009-.07.0037H10.7819C4.8362.0081,0,4.4592,0,9.9415V30.4876c0,5.4824,4.8362,9.9335,10.7819,9.9335H32.1368a1.3446,1.3446,0,0,0,1.41-1.2662v-4.83a1.3446,1.3446,0,0,0-1.41-1.2662H10.932a2.8261,2.8261,0,0,1-2.8782-2.6955V24.7247H20.7349a1.3511,1.3511,0,0,0,1.4092-1.29l.0006-.0151V18.6941a1.3446,1.3446,0,0,0-1.41-1.2661H8.0538V10.0726A2.8326,2.8326,0,0,1,10.932,7.3706Z"/></svg>