<svg id="svg17988" xmlns="http://www.w3.org/2000/svg" width="200" height="81.3984" viewBox="0 0 200 81.3984"><defs><style>.cls-1{fill:#0099de;}</style></defs><title>Flex</title><g id="layer1"><g id="g18036"><path id="path15234" class="cls-1" d="M140.15,33.3051h0a6.9433,6.9433,0,0,0,0,9.66l9.15,9.3542a9.5219,9.5219,0,0,1,2.1611,8.0483.6821.6821,0,0,0,.16.6258.62.62,0,0,0,.89,0l2.6365-2.6961,3.3713-3.4488a8.9187,8.9187,0,0,0,0-12.42l-8.9217-9.1231a6.5811,6.5811,0,0,0-9.4467,0" transform="translate(-12.1517 -9.9864)"/><path id="path15238" class="cls-1" d="M194.9541,89.3688h0a6.9359,6.9359,0,0,0,0-9.6563l-9.1512-9.3542a9.5377,9.5377,0,0,1-2.161-8.05.6774.6774,0,0,0-.16-.6257.6226.6226,0,0,0-.89,0l-2.6349,2.696-3.3729,3.45a8.92,8.92,0,0,0,0,12.4183l8.9233,9.1214a6.5754,6.5754,0,0,0,9.4467,0" transform="translate(-12.1517 -9.9864)"/><path id="path15242" class="cls-1" d="M140.1238,79.74l45.4289-46.4194a6.5812,6.5812,0,0,1,9.4285.0049,6.9452,6.9452,0,0,1-.0016,9.6382L149.5507,89.3832a6.5881,6.5881,0,0,1-9.43-.0016,6.9445,6.9445,0,0,1,.0033-9.6415" transform="translate(-12.1517 -9.9864)"/><path id="path15246" class="cls-1" d="M22.1266,44.4911h-4.51a5.5856,5.5856,0,0,1,0-11.1686h4.51v-4.205c0-6.5244,1.6213-11.3881,4.6524-14.4853,3.0278-3.0971,7.2476-4.6458,12.8723-4.6458a36.4055,36.4055,0,0,1,6.1036.4739,5.5531,5.5531,0,0,1-1.3868,10.9953c-.5779-.05-1.1722-.0792-1.7946-.0792-4.9776,0-7.5745,2.7653-7.5745,8.849v3.2061h9.7356a5.5312,5.5312,0,0,1,0,11.06H35.2152v40.202a6.5459,6.5459,0,1,1-13.0886,0Z" transform="translate(-12.1517 -9.9864)"/><path id="path15250" class="cls-1" d="M63.96,10.65h0a6.6193,6.6193,0,0,1,6.5443,6.69V84.6928a6.5459,6.5459,0,1,1-13.0886,0V17.34A6.6193,6.6193,0,0,1,63.96,10.65" transform="translate(-12.1517 -9.9864)"/><path id="path15254" class="cls-1" d="M122.1914,56.768a.5774.5774,0,0,0,.5646-.6505c-1.045-8.3125-5.9862-14.7231-14.4226-14.7231-7.8056,0-13.3478,5.9946-14.723,14.7033a.5826.5826,0,0,0,.5613.67ZM80.5333,61.08v-.799c0-18.2528,16.0372-32.6457,33.5933-29.319C128.531,33.6928,135.81,46.8987,135.81,61.8545a3.7212,3.7212,0,0,1-3.6816,3.7592l-37.8345.0017a.583.583,0,0,0-.56.6851c1.6146,9.08,8.0978,14.1353,16.3294,14.1353a19.21,19.21,0,0,0,12.1608-4.06,5.2744,5.2744,0,0,1,6.77.2311,5.4874,5.4874,0,0,1-.0809,8.2085,28.6946,28.6946,0,0,1-19.065,6.5691c-16.5507,0-29.3157-12.278-29.3157-30.3047" transform="translate(-12.1517 -9.9864)"/><path id="path15258" class="cls-1" d="M209.01,84.5563q0-.8691-1.25-.87h-1.4841v1.8523h1.4264a1.6294,1.6294,0,0,0,.9641-.2442.8472.8472,0,0,0,.3434-.738m-.0842,2.9684a2.41,2.41,0,0,0-.1188-.865.7.7,0,0,0-.4045-.3979,2.339,2.339,0,0,0-.8205-.109h-1.3059V88.42h-.66v-5.359h2.29a2.0264,2.0264,0,0,1,1.2844.3748,1.291,1.291,0,0,1,.4787,1.0847,1.364,1.364,0,0,1-.2459.8469,1.2674,1.2674,0,0,1-.7264.4558v.0235a1.1606,1.1606,0,0,1,.68.467,2.149,2.149,0,0,1,.1964,1.0665,2.2212,2.2212,0,0,0,.17,1.0417h-.66a.9316.9316,0,0,1-.1156-.3617,3.2422,3.2422,0,0,1-.0411-.5333m2.5672-1.8275a4.0458,4.0458,0,0,0-.5234-2.0224,3.966,3.966,0,0,0-1.42-1.4842,3.7383,3.7383,0,0,0-1.991-.5514,3.6861,3.6861,0,0,0-1.9547.5448,3.9765,3.9765,0,0,0-1.4281,1.4792,4.1245,4.1245,0,0,0,1.4148,5.5438,3.8384,3.8384,0,0,0,3.959,0,3.99,3.99,0,0,0,1.42-1.4841,4.0629,4.0629,0,0,0,.5234-2.0257m-8.5057,0a4.703,4.703,0,0,1,2.3146-4.063,4.4407,4.4407,0,0,1,2.28-.6207,4.3323,4.3323,0,0,1,2.2849.6323,4.7017,4.7017,0,0,1,2.285,4.0514,4.7733,4.7733,0,0,1-2.24,4.0382,4.3463,4.3463,0,0,1-2.33.6471,4.3982,4.3982,0,0,1-2.31-.6323,4.7274,4.7274,0,0,1-2.2849-4.053" transform="translate(-12.1517 -9.9864)"/></g></g></svg>