<?xml version="1.0" encoding="utf-8"?>
<!-- Generator: Adobe Illustrator 27.5.0, SVG Export Plug-In . SVG Version: 6.00 Build 0)  -->
<svg version="1.1" id="Layer_1" xmlns="http://www.w3.org/2000/svg" xmlns:xlink="http://www.w3.org/1999/xlink" x="0px" y="0px"
	 viewBox="0 0 83.61 21.76" style="enable-background:new 0 0 83.61 21.76;" xml:space="preserve">
<style type="text/css">
	.st0{fill:#EA4335;}
	.st1{fill:#4285F4;}
	.st2{fill:#34A853;}
	.st3{fill:#FBBC05;}
	.st4{fill:#5F6368;}
</style>
<g>
	<path class="st0" d="M9.82,7.79h0.47l1.35-1.34l0.07-0.57C9.2,3.69,5.37,3.93,3.16,6.41C2.54,7.1,2.1,7.93,1.85,8.82
		C2,8.75,2.17,8.74,2.33,8.79l2.7-0.44c0,0,0.14-0.23,0.21-0.21C6.43,6.83,8.45,6.68,9.82,7.79L9.82,7.79z"/>
	<path class="st1" d="M13.56,8.82c-0.31-1.13-0.95-2.15-1.83-2.93L9.84,7.77c0.8,0.65,1.25,1.62,1.23,2.65v0.33
		c0.93,0,1.68,0.75,1.68,1.67c0,0.92-0.75,1.67-1.68,1.67H7.71l-0.34,0.34v2l0.34,0.33h3.37c2.42,0.02,4.39-1.91,4.41-4.31
		C15.5,10.99,14.78,9.63,13.56,8.82z"/>
	<path class="st2" d="M4.34,16.74H7.7v-2.67H4.34c-0.24,0-0.48-0.05-0.7-0.15l-0.47,0.15L1.81,15.4l-0.12,0.47
		C2.45,16.43,3.38,16.74,4.34,16.74z"/>
	<path class="st3" d="M4.34,8.07c-2.42,0.01-4.37,1.97-4.35,4.37c0.01,1.34,0.64,2.6,1.71,3.42l1.95-1.94
		C2.8,13.53,2.42,12.55,2.8,11.7s1.38-1.21,2.23-0.83c0.37,0.17,0.67,0.46,0.84,0.83l1.95-1.94C6.99,8.69,5.7,8.06,4.34,8.07z"/>
	<path class="st4" d="M24.45,14.87c-1.17,0.01-2.3-0.44-3.12-1.27c-0.85-0.79-1.32-1.9-1.31-3.06c-0.01-1.16,0.46-2.27,1.31-3.06
		c0.82-0.84,1.95-1.3,3.12-1.29c1.12-0.01,2.2,0.42,2.99,1.2L26.6,8.23c-0.58-0.55-1.35-0.86-2.15-0.84
		c-0.84-0.01-1.65,0.33-2.22,0.94c-0.6,0.59-0.93,1.39-0.91,2.23c-0.01,0.83,0.32,1.62,0.91,2.2c1.22,1.2,3.18,1.23,4.43,0.05
		c0.37-0.4,0.6-0.92,0.65-1.46h-2.84v-1.2h4.02c0.04,0.24,0.06,0.49,0.05,0.73c0.05,1.02-0.32,2.02-1.04,2.77
		C26.7,14.46,25.6,14.91,24.45,14.87z M33.79,14.07c-1.12,1.06-2.89,1.06-4.01,0c-0.54-0.52-0.84-1.24-0.82-1.99
		c-0.02-0.75,0.28-1.47,0.82-1.99c1.12-1.06,2.89-1.06,4.01,0c0.54,0.52,0.84,1.24,0.82,1.99C34.63,12.83,34.33,13.55,33.79,14.07
		L33.79,14.07z M30.67,13.29c0.58,0.61,1.55,0.64,2.17,0.07c0.02-0.02,0.05-0.05,0.07-0.07c0.32-0.32,0.49-0.76,0.47-1.21
		c0.01-0.45-0.16-0.89-0.47-1.21c-0.59-0.62-1.58-0.64-2.2-0.05c-0.02,0.02-0.03,0.03-0.05,0.05c-0.32,0.33-0.49,0.76-0.47,1.21
		C30.17,12.53,30.35,12.97,30.67,13.29L30.67,13.29z M39.95,14.07c-1.12,1.06-2.89,1.06-4.01,0c-0.54-0.52-0.84-1.24-0.82-1.99
		c-0.02-0.75,0.28-1.47,0.82-1.99c1.12-1.06,2.89-1.06,4.01,0c0.54,0.52,0.84,1.24,0.82,1.99C40.78,12.83,40.49,13.55,39.95,14.07z
		 M36.82,13.29c0.58,0.61,1.55,0.64,2.17,0.07c0.02-0.02,0.05-0.05,0.07-0.07c0.32-0.32,0.49-0.76,0.47-1.21
		c0.01-0.45-0.16-0.89-0.47-1.21c-0.59-0.62-1.58-0.64-2.2-0.05c-0.02,0.02-0.03,0.03-0.05,0.05c-0.32,0.33-0.49,0.76-0.47,1.21
		C36.33,12.53,36.5,12.97,36.82,13.29L36.82,13.29z M43.99,17.38c-0.57,0.02-1.12-0.16-1.57-0.5c-0.4-0.3-0.72-0.7-0.92-1.15
		l1.08-0.45c0.12,0.27,0.3,0.51,0.53,0.7c0.25,0.2,0.56,0.3,0.88,0.3c0.41,0.02,0.81-0.13,1.1-0.42c0.28-0.34,0.43-0.78,0.39-1.22
		v-0.4h-0.04c-0.37,0.43-0.91,0.66-1.48,0.63c-0.72,0-1.4-0.29-1.89-0.82c-0.53-0.52-0.82-1.23-0.81-1.97
		c-0.01-0.74,0.28-1.46,0.81-1.98c0.49-0.52,1.17-0.82,1.89-0.82c0.3,0,0.6,0.07,0.87,0.19c0.24,0.1,0.45,0.25,0.61,0.45h0.04V9.47
		h1.17v4.99c0.06,0.8-0.21,1.59-0.75,2.18C45.4,17.14,44.71,17.4,43.99,17.38z M44.08,13.77c0.41,0.01,0.8-0.16,1.07-0.47
		c0.29-0.33,0.45-0.76,0.43-1.2c0.02-0.45-0.14-0.88-0.43-1.22c-0.27-0.31-0.66-0.48-1.07-0.47c-0.42-0.01-0.82,0.16-1.11,0.47
		c-0.31,0.33-0.48,0.76-0.47,1.21c-0.01,0.45,0.16,0.88,0.47,1.2C43.26,13.6,43.66,13.78,44.08,13.77z M48.76,6.5v8.2h-1.23V6.5
		L48.76,6.5z M52.14,14.87c-0.75,0.02-1.47-0.27-1.99-0.8c-0.53-0.53-0.82-1.25-0.8-1.99c-0.03-0.75,0.25-1.47,0.77-2.01
		c0.49-0.51,1.18-0.8,1.89-0.78c0.32,0,0.65,0.06,0.95,0.18c0.27,0.11,0.52,0.27,0.72,0.47c0.18,0.17,0.34,0.36,0.47,0.57
		c0.11,0.17,0.2,0.36,0.28,0.55l0.13,0.32l-3.78,1.54c0.23,0.53,0.78,0.87,1.36,0.84c0.57,0,1.09-0.29,1.39-0.77l0.95,0.63
		c-0.24,0.34-0.55,0.63-0.91,0.85C53.14,14.74,52.65,14.88,52.14,14.87z M50.56,12l2.52-1.04c-0.08-0.18-0.22-0.33-0.39-0.43
		c-0.2-0.11-0.42-0.17-0.65-0.16c-0.38,0.01-0.75,0.17-1.02,0.45C50.7,11.12,50.53,11.55,50.56,12z"/>
	<path class="st4" d="M61.03,14.87c-2.15,0.04-3.93-1.66-3.96-3.8c0-0.05,0-0.1,0-0.16c-0.05-2.13,1.65-3.9,3.81-3.95
		c0.05,0,0.11,0,0.16,0c1.08-0.03,2.11,0.42,2.8,1.24l-0.68,0.66c-0.51-0.64-1.3-0.99-2.12-0.96c-0.79-0.02-1.55,0.28-2.1,0.83
		c-0.58,0.58-0.89,1.37-0.86,2.19c-0.03,0.81,0.28,1.61,0.86,2.19c0.56,0.55,1.32,0.85,2.1,0.83c0.92,0.01,1.79-0.39,2.36-1.1
		l0.68,0.68c-0.36,0.42-0.8,0.76-1.31,0.99C62.22,14.75,61.63,14.88,61.03,14.87z"/>
	<path class="st4" d="M65.91,14.7h-0.98V7.13h0.98V14.7z"/>
	<path class="st4" d="M67.51,10.14c1.07-1.05,2.79-1.05,3.86,0c0.51,0.53,0.78,1.24,0.76,1.97c0.02,0.73-0.25,1.44-0.76,1.97
		c-1.07,1.05-2.79,1.05-3.86,0c-0.51-0.53-0.78-1.24-0.76-1.97C66.73,11.38,67,10.67,67.51,10.14z M68.24,13.47
		c0.63,0.66,1.67,0.69,2.33,0.06c0.02-0.02,0.04-0.04,0.06-0.06c0.35-0.37,0.53-0.86,0.51-1.36c0.02-0.5-0.16-0.99-0.51-1.36
		c-0.63-0.66-1.67-0.69-2.33-0.06c-0.02,0.02-0.04,0.04-0.06,0.06c-0.35,0.37-0.53,0.86-0.51,1.36
		C67.71,12.61,67.89,13.1,68.24,13.47L68.24,13.47z"/>
	<path class="st4" d="M77.55,14.7H76.6v-0.72h-0.03c-0.17,0.27-0.41,0.5-0.69,0.65c-0.29,0.17-0.63,0.26-0.97,0.26
		c-0.56,0.04-1.11-0.18-1.48-0.59c-0.36-0.45-0.54-1.01-0.51-1.59V9.52h0.98v3.01c0,0.97,0.43,1.45,1.29,1.45
		c0.39,0.01,0.76-0.16,0.99-0.47c0.25-0.32,0.39-0.71,0.38-1.12V9.52h0.98V14.7z"/>
	<path class="st4" d="M80.87,14.87c-0.67,0-1.31-0.29-1.75-0.79c-0.49-0.54-0.75-1.24-0.73-1.97c-0.02-0.72,0.24-1.43,0.73-1.97
		c0.44-0.51,1.08-0.79,1.75-0.79c0.37-0.01,0.74,0.08,1.07,0.25c0.29,0.14,0.53,0.36,0.71,0.63h0.04l-0.04-0.72v-2.4h0.98v7.57
		h-0.95v-0.72h-0.04c-0.18,0.27-0.42,0.49-0.71,0.63C81.6,14.79,81.24,14.87,80.87,14.87z M81.03,13.98
		c0.45,0.01,0.88-0.18,1.18-0.51c0.33-0.38,0.5-0.87,0.47-1.36c0.03-0.5-0.14-0.99-0.47-1.36c-0.59-0.65-1.61-0.69-2.26-0.11
		c-0.04,0.03-0.07,0.07-0.11,0.11c-0.33,0.37-0.5,0.86-0.47,1.36c-0.03,0.5,0.14,0.99,0.47,1.36C80.15,13.8,80.58,13.99,81.03,13.98
		z"/>
</g>
</svg>
