<svg id="Groupon" xmlns="http://www.w3.org/2000/svg" width="200" height="31.5006" viewBox="0 0 200 31.5006"><defs><style>.cls-1{fill:#53a318;}</style></defs><title>Groupon</title><path class="cls-1" d="M1017.0816,234.3279c6.753,0,11.2516-4.3762,11.2516-11.7617V203.674h-7.3855V222.27c0,3.4378-1.2343,5.1413-3.8253,5.1413-2.4993,0-3.57-1.7443-3.57-5.1413V203.674h-7.4263v18.8922C1006.1359,230.1149,1010.2469,234.3279,1017.0816,234.3279Z" transform="translate(-917.4998 -202.9497)"/><path class="cls-1" d="M1048.1231,205.3266c-2.04-1.4384-4.4579-1.6526-7.6406-1.6526h-10.0173v30.1846h7.3855v-9.7215h2.1218c3.1419,0,5.5187-.2142,7.4365-1.3567a10.1374,10.1374,0,0,0,4.7944-8.9565C1052.2034,210.0394,1050.8059,207.1933,1048.1231,205.3266Zm-8.8239,12.2717h-1.3567V210.427h1.9484c3.2745,0,4.8454,1.02,4.8454,3.5194C1044.7261,216.66,1042.9512,217.5983,1039.2992,217.5983Z" transform="translate(-917.4998 -202.9497)"/><polygon class="cls-1" points="175.548 14.098 186.8 30.909 193.288 30.909 193.288 0.724 185.912 0.724 185.912 17.495 174.824 0.724 168.163 0.724 168.163 30.909 175.548 30.909 175.548 14.098"/><path class="cls-1" d="M999.5461,207.581a15.46,15.46,0,0,0-26.37,10.8742,15.7693,15.7693,0,0,0,4.2844,11.2108,14.9668,14.9668,0,0,0,11.2517,4.7537,15.2853,15.2853,0,0,0,11.119-4.7129,15.6494,15.6494,0,0,0,4.3762-11.119A15.1979,15.1979,0,0,0,999.5461,207.581Zm-10.8232,19.3614a8.2541,8.2541,0,0,1-7.9363-8.4056,7.9007,7.9007,0,1,1,15.8012,0C996.5776,223.4536,993.0583,226.9424,988.7229,226.9424Z" transform="translate(-917.4998 -202.9497)"/><path class="cls-1" d="M1079.542,207.581a15.46,15.46,0,0,0-26.37,10.8742,15.7693,15.7693,0,0,0,4.2844,11.2108,14.9825,14.9825,0,0,0,11.2517,4.7537,15.2853,15.2853,0,0,0,11.119-4.7129,15.6494,15.6494,0,0,0,4.3762-11.119A15.1979,15.1979,0,0,0,1079.542,207.581Zm-10.8232,19.3614a8.2542,8.2542,0,0,1-7.9364-8.4056,7.9007,7.9007,0,1,1,15.8013,0C1076.5735,223.4536,1073.044,226.9424,1068.7188,226.9424Z" transform="translate(-917.4998 -202.9497)"/><path class="cls-1" d="M921.774,229.6558a14.9138,14.9138,0,0,0,11.2109,4.7945,15.6471,15.6471,0,0,0,12.8634-6.7531,15.1238,15.1238,0,0,0,2.591-8.834c0-.6324-.0408-1.3159-.0816-1.9994H931.1589v6.0288h8.62a7.6834,7.6834,0,0,1-6.7938,4.08c-4.162,0-7.8956-3.6928-7.8956-8.4974a7.91,7.91,0,0,1,7.8956-7.9364,8.2953,8.2953,0,0,1,6.2021,2.9277h8.4056a15.4175,15.4175,0,0,0-14.5159-10.405A15.43,15.43,0,0,0,917.5,218.4348,15.6813,15.6813,0,0,0,921.774,229.6558Z" transform="translate(-917.4998 -202.9497)"/><path class="cls-1" d="M965.2,223.4945c4.2844-1.1936,6.8346-4.8353,6.8346-9.7216a9.6784,9.6784,0,0,0-4.08-8.4463c-2.04-1.4384-4.4578-1.6526-7.64-1.6526H950.2959v30.1846h7.3855v-9.7215l5.7737,9.7215h9.13Zm-6.07-5.8962h-1.4383V210.427h2.04c3.2643,0,4.8352,1.02,4.8352,3.5194C964.567,216.66,962.7819,217.5983,959.13,217.5983Z" transform="translate(-917.4998 -202.9497)"/><path class="cls-1" d="M1115.2249,207.4994a2.1722,2.1722,0,0,0,1.6118-.6733,2.2721,2.2721,0,0,0-3.2133-3.2133,2.1723,2.1723,0,0,0-.6631,1.6015,2.202,2.202,0,0,0,.6631,1.6118A2.15,2.15,0,0,0,1115.2249,207.4994Zm-1.3771-3.6724a1.9586,1.9586,0,0,1,3.3459,1.3873,1.9422,1.9422,0,0,1-.5712,1.3976,1.946,1.946,0,0,1-2.7747,0,1.9254,1.9254,0,0,1-.5712-1.3976A1.8788,1.8788,0,0,1,1113.8478,203.827Z" transform="translate(-917.4998 -202.9497)"/><path class="cls-1" d="M1116.2348,206.4181a.3157.3157,0,0,1-.02-.1327c0-.0612-.01-.1326-.01-.1836v-.1836a.6818.6818,0,0,0-.1326-.3876.6075.6075,0,0,0-.4284-.2449.7717.7717,0,0,0,.357-.1224.5454.5454,0,0,0,.2449-.49.6177.6177,0,0,0-.3877-.6325,1.8493,1.8493,0,0,0-.6834-.0918h-.8773v2.4993h.4386v-.9793h.3469a1.0834,1.0834,0,0,1,.49.0816c.1632.0918.2346.2856.2346.5712v.1938l.01.0817v.0306c0,.01,0,.02.01.02h.4081Zm-.663-1.316a1.13,1.13,0,0,1-.4183.051h-.3978v-.9079h.3774a1.1486,1.1486,0,0,1,.5305.0919.3775.3775,0,0,1,.1632.3672A.3865.3865,0,0,1,1115.5718,205.1021Z" transform="translate(-917.4998 -202.9497)"/></svg>