<?xml version="1.0" encoding="utf-8"?>
<!-- Generator: Adobe Illustrator 27.5.0, SVG Export Plug-In . SVG Version: 6.00 Build 0)  -->
<svg version="1.1" id="Layer_1" xmlns="http://www.w3.org/2000/svg" xmlns:xlink="http://www.w3.org/1999/xlink" x="0px" y="0px"
	 viewBox="0 0 70 15" style="enable-background:new 0 0 70 15;" xml:space="preserve">
<style type="text/css">
	.st0{fill:#716E6F;}
	.st1{fill:#F05423;}
	.st2{fill:#84C441;}
	.st3{fill:#2DABE2;}
	.st4{fill:#F9BC15;}
</style>
<g>
	<path class="st0" d="M70,6.8V5.6h-1.5V3.7h-0.1L67,4.1l0,0v1.5h-2.2V4.8c0-0.4,0.1-0.7,0.2-0.8s0.4-0.2,0.7-0.2s0.4,0.1,0.7,0.2
		h0.1V2.5l0,0c-0.2-0.1-0.5-0.1-0.8-0.1c-0.4,0-0.8,0.1-1.2,0.2c-0.3,0.2-0.7,0.5-0.8,0.8c-0.2,0.3-0.3,0.7-0.3,1.2v0.9h-1.1v1.2
		h1.1v5.2h1.5V6.7H67V10c0,1.3,0.7,2.1,1.9,2.1c0.2,0,0.4,0,0.7-0.1s0.4-0.1,0.5-0.2l0,0v-1.2H70c-0.1,0.1-0.2,0.1-0.3,0.2
		c-0.1,0-0.2,0.1-0.3,0.1c-0.3,0-0.5-0.1-0.7-0.2c-0.2-0.2-0.2-0.4-0.2-0.8V6.8H70L70,6.8z M58.7,10.8c-0.6,0-1-0.2-1.3-0.6
		c-0.3-0.3-0.5-0.9-0.5-1.6s0.2-1.2,0.5-1.6c0.3-0.2,0.7-0.5,1.2-0.5s0.9,0.2,1.2,0.5s0.5,0.9,0.5,1.6s-0.2,1.2-0.4,1.6
		C59.7,10.7,59.2,10.8,58.7,10.8 M58.8,5.4c-1.1,0-1.9,0.3-2.5,0.9s-0.9,1.5-0.9,2.5s0.3,1.8,0.9,2.4s1.4,0.9,2.4,0.9
		s1.8-0.3,2.5-0.9c0.6-0.6,0.9-1.5,0.9-2.5s-0.2-1.8-0.8-2.4C60.5,5.7,59.8,5.4,58.8,5.4 M52.8,5.4c-0.7,0-1.3,0.2-1.7,0.6
		c-0.5,0.3-0.7,0.8-0.7,1.4c0,0.3,0.1,0.6,0.2,0.8c0.1,0.2,0.2,0.4,0.5,0.6C51.3,9,51.6,9.1,52,9.3c0.3,0.2,0.6,0.2,0.7,0.3
		c0.2,0.1,0.2,0.2,0.3,0.2s0.1,0.2,0.1,0.3c0,0.4-0.3,0.7-1,0.7c-0.2,0-0.5-0.1-0.8-0.2s-0.6-0.2-0.8-0.4l-0.1-0.1v1.5l0,0
		c0.2,0.1,0.5,0.2,0.8,0.2c0.3,0.1,0.6,0.1,0.8,0.1c0.7,0,1.4-0.2,1.9-0.6c0.5-0.3,0.7-0.8,0.7-1.5c0-0.4-0.2-0.8-0.4-1.1
		C54,8.5,53.5,8.1,53,7.9c-0.5-0.2-0.7-0.3-0.9-0.5c-0.1,0.1-0.2-0.1-0.2-0.2c0-0.2,0.1-0.3,0.2-0.5c0.2-0.1,0.3-0.2,0.7-0.2
		c0.2,0,0.5,0,0.7,0.1s0.5,0.2,0.7,0.3L54.3,7V5.6l0,0c-0.2-0.1-0.4-0.2-0.7-0.2C53.3,5.4,53.1,5.4,52.8,5.4 M46.4,10.8
		c-0.6,0-1-0.2-1.3-0.6c-0.3-0.3-0.5-0.9-0.5-1.6s0.2-1.2,0.5-1.6c0.3-0.2,0.8-0.5,1.3-0.5s0.9,0.2,1.2,0.5s0.5,0.9,0.5,1.6
		s-0.2,1.2-0.4,1.6C47.4,10.7,47,10.8,46.4,10.8 M46.5,5.4c-1.1,0-1.9,0.3-2.5,0.9s-0.9,1.5-0.9,2.5s0.3,1.8,0.9,2.4
		c0.6,0.6,1.4,0.9,2.4,0.9s1.8-0.3,2.5-0.9c0.6-0.6,0.9-1.5,0.9-2.5S49.6,6.9,49,6.3C48.3,5.7,47.5,5.4,46.5,5.4 M40.8,6.6V5.5h-1.5
		v6.4h1.5V8.6c0-0.6,0.2-1,0.4-1.3s0.6-0.5,1-0.5c0.2,0,0.2,0,0.4,0.1s0.2,0.1,0.3,0.2L43,7.2V5.5l0,0c-0.2,0-0.3,0-0.6,0
		c-0.4,0-0.7,0.1-1,0.3C41.1,6.1,40.9,6.3,40.8,6.6L40.8,6.6z M36.6,5.4c-0.7,0-1.3,0.2-1.8,0.4c-0.5,0.3-0.9,0.7-1.2,1.2
		c-0.2,0.5-0.4,1.2-0.4,1.8c0,0.6,0.2,1.2,0.4,1.7s0.7,0.9,1.2,1.2c0.5,0.2,1.1,0.4,1.7,0.4c0.7,0,1.3-0.2,1.8-0.4l0,0v-1.4
		l-0.1,0.1c-0.2,0.2-0.5,0.3-0.7,0.4S37,11,36.8,11c-0.6,0-1.1-0.2-1.4-0.6c-0.3-0.4-0.5-0.9-0.5-1.6s0.2-1.2,0.6-1.6
		c0.3-0.4,0.8-0.6,1.4-0.6c0.5,0,1,0.2,1.4,0.5l0.1,0.1V5.7l0,0c-0.2-0.1-0.4-0.2-0.7-0.2C37.1,5.5,36.8,5.4,36.6,5.4 M32,5.6h-1.5
		V12H32V5.6L32,5.6z M31.3,2.8c-0.2,0-0.5,0.1-0.7,0.2c-0.2,0.2-0.2,0.4-0.2,0.7c0,0.2,0.1,0.4,0.2,0.6c0.2,0.2,0.4,0.2,0.7,0.2
		s0.5-0.1,0.7-0.2c0.2-0.2,0.2-0.3,0.2-0.7c0-0.2-0.1-0.4-0.2-0.7C31.8,2.9,31.6,2.8,31.3,2.8 M27.6,5.1V12h1.6V3.1H27l-2.7,6.7
		l-2.6-6.7h-2.2V12h1.4V5.1H21l2.8,6.9h1.1L27.6,5.1L27.6,5.1L27.6,5.1z"/>
	<path class="st1" d="M7.1,7.1H0V0h7.1V7.1z"/>
	<path class="st2" d="M14.9,7.1H7.8V0h7.1V7.1L14.9,7.1z"/>
	<path class="st3" d="M7.1,15H0V7.9h7.1V15z"/>
	<path class="st4" d="M14.9,15H7.8V7.9h7.1V15L14.9,15z"/>
</g>
</svg>
