<svg id="MSandAD" xmlns="http://www.w3.org/2000/svg" width="200" height="36.6103" viewBox="0 0 200 36.6103"><defs><style>.cls-1{fill:#00655a;}.cls-2{fill:#fff;}</style></defs><path d="M24.3425,34.4445V43.45H22.19V32.2127H25.846l2.6269,8.3225.1186-.0149,2.6256-8.33h3.6052V43.4569H32.7016V34.6008l-.1446-.0171-2.9126,8.8856H27.4125l-2.9541-9.0479Z" transform="translate(-21.9772 -31.5263)"/><path d="M98.2257,43.4771h-2.15c-.0137-.2394-.0366-.46-.0372-.6814-.0034-1.4036.0025-2.8073-.0053-4.2108a6.4229,6.4229,0,0,0-.0761-.8913,1.0718,1.0718,0,0,0-.8758-1.02,1.2962,1.2962,0,0,0-1.4038.5115,3.5323,3.5323,0,0,0-.5133,2.11c-.0273,1.1959-.0063,2.3929-.0093,3.5894-.0005.1793-.0211.3586-.035.5786H90.9937v-8.31h1.9825l.061,1.0316a3.1761,3.1761,0,0,1,2.565-1.2613,2.5168,2.5168,0,0,1,2.361,1.3561c.1468-.1667.2618-.3.38-.4307a3.2709,3.2709,0,0,1,3.6406-.6462A2.4165,2.4165,0,0,1,103.22,37.386c.0645,1.9978.02,3.9992.02,6.0594h-2.1827c0-.259.0007-.5043,0-.75-.0053-1.6106.0034-3.2214-.0246-4.8315a1.1141,1.1141,0,0,0-.7922-1.166,1.306,1.306,0,0,0-1.5194.5221,1.8611,1.8611,0,0,0-.3274.7476,16.1615,16.1615,0,0,0-.1614,1.9188C98.2083,41.0559,98.2257,42.2258,98.2257,43.4771Z" transform="translate(-21.9772 -31.5263)"/><path d="M125.04,35.1319h1.9317l.0868,1.04a3.202,3.202,0,0,1,2.5409-1.2486,2.5255,2.5255,0,0,1,2.4058,1.3847,3.08,3.08,0,0,1,3.0914-1.36,2.0751,2.0751,0,0,1,1.9111,1.4565,3.4929,3.4929,0,0,1,.2585,1.067c.025,1.9762.012,3.9529.012,5.9816h-2.153c-.0109-.22-.0326-.4607-.0331-.7019-.0033-1.4966.003-2.9932-.0036-4.49-.0045-1.0254-.3279-1.5152-1.0412-1.6141a1.4547,1.4547,0,0,0-1.6389,1.3329,9.7746,9.7746,0,0,0-.1745,1.7805c-.0255,1.2161-.0076,2.4331-.0076,3.6968h-2.124c-.0147-.226-.0413-.4663-.0443-.7068-.02-1.5877-.0124-3.1762-.06-4.7631-.0256-.8578-.3644-1.2464-1.0152-1.34a1.3461,1.3461,0,0,0-1.5305,1.0086,6.3005,6.3005,0,0,0-.2428,1.6265c-.0363,1.3344-.0174,2.67-.0232,4.0054a.7241.7241,0,0,1-.0595.1716H125.04Z" transform="translate(-21.9772 -31.5263)"/><path d="M79.1816,32.3458l-.2064,1.7864c-.6808-.1207-1.3252-.2664-1.9777-.338a3,3,0,0,0-1.0873.0887,1.3412,1.3412,0,0,0-1.016,1.1815,1.1015,1.1015,0,0,0,.6706,1.2388c.7242.3473,1.4726.6444,2.2079.969a3.2368,3.2368,0,0,1,.0171,6.0651,8.36,8.36,0,0,1-5.1272-.0729l.1867-2.0421a4.7927,4.7927,0,0,0,.7348.2806c.6937.1365,1.39.2741,2.0923.3448a1.9013,1.9013,0,0,0,.8661-.1922,1.3285,1.3285,0,0,0,.9-1.13,1.162,1.162,0,0,0-.6967-1.1727c-.6789-.3339-1.3785-.6259-2.069-.9363a3.1006,3.1006,0,0,1-2.0827-2.13c-.4179-2.0417.4-3.6969,2.5209-4.1979A7.9183,7.9183,0,0,1,79.1816,32.3458Z" transform="translate(-21.9772 -31.5263)"/><path d="M142.99,43.6794a4.1172,4.1172,0,0,1-4.4051-4.3233,4.4093,4.4093,0,1,1,8.8186.0007A4.1241,4.1241,0,0,1,142.99,43.6794Zm2.1542-4.38-.0841-.0174a5.86,5.86,0,0,0-.0031-.619,2.1193,2.1193,0,0,0-1.9132-2.0238,1.9928,1.9928,0,0,0-2.1339,1.6654,3.7681,3.7681,0,0,0,.1961,2.4932,1.7849,1.7849,0,0,0,1.84,1.1827,1.754,1.754,0,0,0,1.739-1.2242A14.5275,14.5275,0,0,0,145.1443,39.3Z" transform="translate(-21.9772 -31.5263)"/><path d="M123.636,39.4031A4.07,4.07,0,0,1,119.19,43.68c-2.6872-.0151-4.3281-1.718-4.31-4.4725a4.3791,4.3791,0,0,1,8.756.1961Zm-2.2776.013c-.0488-.4643-.0578-.788-.12-1.1011a2.0287,2.0287,0,0,0-1.9153-1.6837,1.956,1.956,0,0,0-1.9942,1.4847,4.3065,4.3065,0,0,0,.0618,2.51,1.83,1.83,0,0,0,1.7214,1.3552,1.7836,1.7836,0,0,0,1.9126-1.1684A8.7731,8.7731,0,0,0,121.3584,39.4161Z" transform="translate(-21.9772 -31.5263)"/><path d="M179.3331,35.118h2.1262v8.3476h-2.0252l-.0574-.93c-.2183.1677-.4022.3065-.5835.4487a3.4516,3.4516,0,0,1-3.01.6007,2.2944,2.2944,0,0,1-1.8766-2.213c-.1193-2.0572-.0347-4.1262-.0347-6.2342h2.1c.0114.24.0322.4844.0328.7291.0034,1.2653-.0026,2.5306.0044,3.7959a8.13,8.13,0,0,0,.0616,1.0316,1.3506,1.3506,0,0,0,1.0066,1.2591,1.6628,1.6628,0,0,0,1.6957-.67,3.222,3.222,0,0,0,.5237-1.8964c.0012-1.1733-.0011-2.3466.0027-3.52C179.3,35.622,179.3207,35.3772,179.3331,35.118Z" transform="translate(-21.9772 -31.5263)"/><path d="M197.775,35.1311h1.9891l.1044.9407c.1749-.1477.3054-.2582.4362-.3683a3.4243,3.4243,0,0,1,3.5148-.5588,2.3275,2.3275,0,0,1,1.5519,2.1939c.09,2.018.0273,4.0428.0273,6.116h-2.1244c-.0116-.2323-.0321-.4755-.0345-.7189-.016-1.5651-.0021-3.131-.0524-4.695A1.3053,1.3053,0,0,0,202.15,36.67a1.54,1.54,0,0,0-1.7132.7547,3.3523,3.3523,0,0,0-.409,1.0848,10.3674,10.3674,0,0,0-.0921,1.5809c-.0121,1.1028-.0037,2.2059-.0037,3.3617H197.775Z" transform="translate(-21.9772 -31.5263)"/><path d="M159.326,43.4718h-2.1746v-8.33h2.0254l.07.8944c.067-.016.1519-.01.1848-.0481a3.3347,3.3347,0,0,1,3.1457-1.0243,2.4672,2.4672,0,0,1,2.13,1.9844,5.5541,5.5541,0,0,1,.1442,1.1617c.0157,1.6571.0078,3.3145.006,4.9718,0,.1111-.0218.2221-.0381.3772h-2.1446c-.0107-.2145-.03-.434-.031-.6536-.003-1.312.0039-2.6241-.0053-3.936a8.17,8.17,0,0,0-.0805-1.03,1.2173,1.2173,0,0,0-.8682-1.1315,1.5019,1.5019,0,0,0-1.59.3958,3.1862,3.1862,0,0,0-.7671,2.2971C159.3117,40.734,159.326,42.0676,159.326,43.4718Z" transform="translate(-21.9772 -31.5263)"/><path d="M216.1974,40.0065a2.1216,2.1216,0,0,0,2.589,2.0545c.8247-.1364,1.624-.4255,2.51-.6663,0,.4312.0294.9065-.0161,1.3745a.6412.6412,0,0,1-.34.446,6.0285,6.0285,0,0,1-4.9551-.0645,3.2537,3.2537,0,0,1-1.7046-2.075,5.2293,5.2293,0,0,1,.6-4.6843c.99-1.444,2.4815-1.6348,4.0689-1.3807a3.1389,3.1389,0,0,1,2.6758,2.5472,23.9665,23.9665,0,0,1,.3524,2.4486Zm3.5813-1.5562c-.15-1.4115-.7746-1.9815-1.9837-1.8717a1.652,1.652,0,0,0-1.5535,1.8717Z" transform="translate(-21.9772 -31.5263)"/><path d="M62.3314,43.4682H60.332l-.0808-.9689c-.2873.2234-.5091.4119-.7466.5779a3.375,3.375,0,0,1-3.1615.4147,2.3634,2.3634,0,0,1-1.6147-2.2853c-.0759-2.0129-.0222-4.0308-.0222-6.08H56.83c.0152.2079.0418.4057.0423.6037.0038,1.38-.0034,2.76.0062,4.14a7.03,7.03,0,0,0,.0889.9569A1.1726,1.1726,0,0,0,57.861,41.93,1.5579,1.5579,0,0,0,59.49,41.439a3.2725,3.2725,0,0,0,.6778-2.1923c.0294-1.1261.0077-2.2536.0077-3.38,0-.2265,0-.453,0-.7258h2.1562Z" transform="translate(-21.9772 -31.5263)"/><path d="M195.9877,43.467h-1.8688l-.1023-.9606-.1492-.13a2.155,2.155,0,0,1-.2773.444,3.3074,3.3074,0,0,1-4.3525.1065,2.556,2.556,0,0,1,.42-3.9839,5.501,5.501,0,0,1,2.7984-.6167c.4572-.0126.915-.0022,1.3625-.0022.1394-1.0829-.2893-1.6418-1.29-1.7362a3.9857,3.9857,0,0,0-2.5262.5181c-.15.0915-.3148.1587-.5553.278V35.5351a6.5417,6.5417,0,0,1,4.772-.3182,2.3889,2.3889,0,0,1,1.6372,2.2709c.1013,1.4668.0961,2.9411.13,4.4124C195.9973,42.403,195.9877,42.9064,195.9877,43.467ZM193.87,39.6775a5.4043,5.4043,0,0,0-2.3552.1834,1.29,1.29,0,0,0-.9012.9506c-.1564.8022.5514,1.3963,1.5041,1.2713C193.289,41.929,193.922,41.0787,193.87,39.6775Z" transform="translate(-21.9772 -31.5263)"/><path d="M81.4024,35.1219h2.1729c0,.27-.0006.5139,0,.7574.0043,1.4033.0048,2.8066.0171,4.21a4.7653,4.7653,0,0,0,.0837.75,1.1938,1.1938,0,0,0,.9767,1.11,1.5793,1.5793,0,0,0,1.5619-.5139A3.3873,3.3873,0,0,0,86.89,39.17c.0362-1.1031.0092-2.2083.0093-3.3126v-.72h2.1384v8.3171H87.0722l-.0948-.9845c-.229.19-.3984.3311-.5682.4715a3.4321,3.4321,0,0,1-2.9986.6608,2.4639,2.4639,0,0,1-1.9843-2.51C81.332,39.1236,81.4024,37.1471,81.4024,35.1219Z" transform="translate(-21.9772 -31.5263)"/><path d="M166.5524,41.6253a14.6034,14.6034,0,0,0,1.8955.42,2.5563,2.5563,0,0,0,1.2561-.23.796.796,0,0,0,.08-1.4091,3.17,3.17,0,0,0-.75-.3366c-.3667-.134-.7435-.24-1.1124-.3687a2.07,2.07,0,0,1-1.5444-1.9792,2.2937,2.2937,0,0,1,1.2688-2.3368,3.6193,3.6193,0,0,1,1.17-.3886,7.4563,7.4563,0,0,1,3.2469.2556l-.1486,1.5664c-.53-.0846-1.0166-.1882-1.5084-.2315a3.8454,3.8454,0,0,0-1.03.0494.7586.7586,0,0,0-.6758.6852.6862.6862,0,0,0,.485.7481c.2934.129.6038.2191.9046.3321a10.3133,10.3133,0,0,1,1.09.4262,2.4419,2.4419,0,0,1,.3178,4.1291,4.0738,4.0738,0,0,1-1.3083.58,6.6869,6.6869,0,0,1-3.7137-.26Z" transform="translate(-21.9772 -31.5263)"/><path d="M47.2948,43.3462l.1441-1.713a15.1775,15.1775,0,0,0,1.8259.4143,2.3505,2.3505,0,0,0,1.1924-.2007,1.0058,1.0058,0,0,0,.5009-.7226,1.2023,1.2023,0,0,0-.4345-.7753,2.1788,2.1788,0,0,0-.7581-.3064c-.2824-.098-.5734-.1721-.8528-.2773a2.2136,2.2136,0,0,1-1.6978-2.374,2.51,2.51,0,0,1,1.9632-2.3032,7.4776,7.4776,0,0,1,3.7054.1742l-.1347,1.5139c-.7411-.0746-1.4-.1619-2.0607-.1966a1.5046,1.5046,0,0,0-.73.1639.6869.6869,0,0,0-.0382,1.2584,5.3331,5.3331,0,0,0,.89.3669c.28.1041.5736.1741.8482.29a2.26,2.26,0,0,1,1.623,2.5694,2.4833,2.4833,0,0,1-1.9363,2.25A7.8079,7.8079,0,0,1,47.2948,43.3462Z" transform="translate(-21.9772 -31.5263)"/><path d="M112.2479,35.1019h1.8781v1.6186h-1.8536c0,1.5134-.0356,2.9334.0156,4.35.0242.6682.4626.9576,1.1409.9055.2275-.0175.4512-.0832.8061-.1519l.1092,1.6512a4.4667,4.4667,0,0,1-2.9341-.028,2.2282,2.2282,0,0,1-1.36-2.15c-.0385-1.2412-.02-2.4842-.0252-3.7264-.0011-.248,0-.4961,0-.8292h-1.5831V35.1163h1.5425V33.4611l2.2639-.7381Z" transform="translate(-21.9772 -31.5263)"/><path d="M44.11,32.7223v2.34h1.8743v1.6714h-1.84c0,1.4924-.0311,2.9135.0137,4.3321.021.6643.4537.9608,1.1358.9116.245-.0177.4867-.0806.7975-.1346l.12,1.6335a4.4534,4.4534,0,0,1-2.9485-.04,2.2516,2.2516,0,0,1-1.34-2.2313c-.0182-1.1968-.0042-2.3941-.0042-3.5912V36.78H40.338v-1.682h1.5667V33.4414Z" transform="translate(-21.9772 -31.5263)"/><path d="M212.9772,35.2232l-.1782,1.6556c-1.2646-.3271-2.53-.55-3.2746.7841a3.1737,3.1737,0,0,0,.1221,3.4737c.8739,1.2668,2.14.8506,3.3716.5126l.1344,1.7134c-2.0292.6525-4.3782.3685-5.4539-1.0691a5.4036,5.4036,0,0,1-.1048-5.79C208.5415,35.1189,210.3821,34.5029,212.9772,35.2232Z" transform="translate(-21.9772 -31.5263)"/><path d="M155.2112,43.4836h-2.2045V32.2082h2.2045Z" transform="translate(-21.9772 -31.5263)"/><path d="M185.41,35.1281l.0742,1.42c.7138-1.12,1.5074-1.8534,2.8626-1.5507V37.14c-.1158-.0208-.2219-.0392-.3277-.059a1.596,1.596,0,0,0-2.1437,1.3591,13.04,13.04,0,0,0-.2227,2.1864c-.04.8951-.02,1.7928-.03,2.6893,0,.04-.0367.079-.0738.154h-2.021V35.1281Z" transform="translate(-21.9772 -31.5263)"/><path d="M107.3432,43.4628h-2.1273V35.1461h2.1273Z" transform="translate(-21.9772 -31.5263)"/><path d="M37.0772,43.4538V35.1322h2.13v8.3216Z" transform="translate(-21.9772 -31.5263)"/><path d="M64.3907,35.121h2.0841V43.47H64.3907Z" transform="translate(-21.9772 -31.5263)"/><path d="M107.3535,31.5368V33.54h-2.1483V31.5368Z" transform="translate(-21.9772 -31.5263)"/><path d="M64.38,31.5263h2.09v2.0123H64.38Z" transform="translate(-21.9772 -31.5263)"/><path d="M39.2186,31.5553v1.99H37.0677v-1.99Z" transform="translate(-21.9772 -31.5263)"/><path id="path" class="cls-1" d="M140.289,54.848v3.4078h2.77v.6508h-2.77v3.4056h3.6653V62.97h-4.4576V54.189h4.4576v.6589Zm-55.8716-.6589h-.791V62.97h.791ZM87.6187,62.97v-7.775l.0233-.0263,3.64,7.8017h1.18V54.19h-.7736v7.6854l-.0243.02-3.6249-7.7065H86.8256V62.969Zm37.1329,0v-7.775l.022-.0263,3.6433,7.8017h1.197V54.19h-.7932v7.6854l-.0233.02-3.626-7.7065H123.979V62.969ZM99.5337,56.4151c0-1.2678-.3956-2.3962-2.2352-2.3962-1.46,0-2.4347.6344-2.42,2.1505.0083.8781.0824,1.4025,1.813,2.444,1.2888.7795,2.0752,1.1229,2.0752,2.3164a1.3673,1.3673,0,0,1-1.5277,1.5543c-1.596,0-1.6737-1.0022-1.6737-1.9811H94.75c-.0755,1.7121.7052,2.6415,2.45,2.6415a2.0815,2.0815,0,0,0,2.3584-2.3338c0-1.71-1.1147-1.9417-2.2108-2.7106-1.01-.7227-1.68-.7575-1.68-2.067,0-1.0243.6055-1.3537,1.5717-1.3537,1.204,0,1.4685.6473,1.4917,1.7365Zm66.4557-2.3965c2.6783,0,2.7015,2.1887,2.7015,4.5632,0,2.3791-.0231,4.569-2.7015,4.569-2.67,0-2.6969-2.19-2.6969-4.569,0-2.3744.0264-4.5632,2.6969-4.5632m0,8.4745c1.8872,0,1.9092-1.5671,1.9092-3.9114,0-2.3372-.023-3.9031-1.9092-3.9031-1.88,0-1.9035,1.566-1.9035,3.9031,0,2.3443.0231,3.9114,1.9035,3.9114m-13.25-.262a4.71,4.71,0,0,1-1.6715.262c-1.9115,0-1.8871-1.6912-1.8871-3.9114,0-2.2142-.0244-3.9031,1.8871-3.9031,1.2528,0,1.762.5985,1.762,1.76h.7911c.0359-1.7-.8422-2.42-2.5531-2.42-2.893,0-2.6806,2.86-2.6806,4.5631,0,1.7075-.2122,4.569,2.6806,4.569a8.3118,8.3118,0,0,0,2.4626-.3677V58.3857h-2.5983v.6589H152.74Zm-46.31-8.0419v4.3927h.0012c-.0012,2.3442-.0244,3.9113-1.8884,3.9113-1.8826,0-1.9069-1.567-1.9069-3.9113V54.1892h-.7925v4.3927h-.0012c0,2.379.0234,4.5689,2.7,4.5689,2.6551,0,2.6771-2.19,2.6771-4.5689V54.1892Zm69.1782,0v4.3927h.0024c0,2.3442-.0231,3.9113-1.9047,3.9113S171.8,60.9262,171.8,58.5819V54.1892h-.7934v4.3927c0,2.379.023,4.5689,2.6992,4.5689,2.6551,0,2.6792-2.19,2.6792-4.5689V54.1892Zm8.3,2.7409a2.8087,2.8087,0,0,1-.7852,1.9452,2.6893,2.6893,0,0,1-2.2352.7981H179.51v3.3058h-.7934V54.1927h2.17a2.6855,2.6855,0,0,1,2.2352.7934,2.8139,2.8139,0,0,1,.7852,1.9441m-.7933,0a2.2739,2.2739,0,0,0-.5535-1.5031,1.91,1.91,0,0,0-1.6738-.59H179.51v4.1894h1.3768a1.8829,1.8829,0,0,0,1.6738-.6,2.2314,2.2314,0,0,0,.5535-1.4963m-68.1532,6.0433h-.8422l-1.2063-3.35c-.1114-.3294-.3166-.55-.9163-.5707-.152,0-1.624.0033-1.624.0033V62.978h-.7945v-8.79h2.3094c1.748,0,2.8349.9279,2.8349,2.4335a2.2206,2.2206,0,0,1-1.3965,2.1668,1.6,1.6,0,0,1,.3363.5776Zm-3.0739-4.58a1.7877,1.7877,0,1,0,0-3.5389H110.372V58.394Zm49.48,4.58h-.841l-1.204-3.35c-.1137-.3294-.3178-.55-.9187-.5707-.1519,0-1.6355.0033-1.6355.0033V62.978h-.7794v-8.79h2.3059c1.75,0,2.8372.9279,2.8372,2.4335a2.2231,2.2231,0,0,1-1.3977,2.1668,1.5854,1.5854,0,0,1,.3387.5776Zm-3.0727-4.58a1.7882,1.7882,0,1,0,0-3.5389h-1.5265V58.394ZM136.35,60.73c-.1566,1.0938-.5985,1.7631-1.8211,1.7631-1.88,0-1.9035-1.567-1.9035-3.9113,0-2.3372.0234-3.9032,1.9035-3.9032,1.219,0,1.66.6531,1.8211,1.7527h.7784c-.1856-1.3919-.776-2.4127-2.5994-2.4127-2.6725,0-2.6981,2.1887-2.6981,4.5632,0,2.379.0257,4.5689,2.6981,4.5689,1.8281,0,2.4184-1.0251,2.6051-2.4207Zm-16.5441-6.5407L122.202,62.97h-.8176l-.6473-2.3617H117.762l-.6426,2.3617h-.82l2.379-8.7807Zm.7528,5.7567-1.3177-4.8193-1.3049,4.8195Z" transform="translate(-21.9772 -31.5263)"/><path id="path-2" class="cls-1" d="M21.9772,68.1365H78.6665V49.1611H21.9772Z" transform="translate(-21.9772 -31.5263)"/><path id="path-3" class="cls-2" d="M32.28,61.3249h-.0284L29.669,54.2288H26.5454v.0282a1.8546,1.8546,0,0,1,1.2264,1.9081v6.911h.9028V55.3318h.0293L31.52,63.076H32.553l2.7848-7.8248h.0267v7.8249h1.711V54.2288H34.8041Zm8.6111-5.3736c0-.8913.788-1.2431,1.4951-1.26a5.9736,5.9736,0,0,1,2.7435.7664V54.3841a12.0467,12.0467,0,0,0-2.5542-.3461c-1.9939,0-3.237.8291-3.2877,2.295-.1,2.9646,4.743,2.768,4.743,4.7551,0,.9577-.7046,1.4888-1.8218,1.4888a5.2445,5.2445,0,0,1-2.79-.9561v1.2049a7.1987,7.1987,0,0,0,2.5558.4418c2.0121,0,3.7064-.6451,3.6678-2.6206-.0556-2.8638-4.7521-2.6536-4.7521-4.6955M54.04,61.0468c.1892-.4.5572-1.1376.9509-2.1737h-.9154s-.3373.8192-.6587,1.5479c-.8244-.839-1.61-1.6519-2.1585-2.2264.8689-.5076,2.1784-1.08,2.1784-2.3933,0-.8129-.72-1.7559-2.3143-1.7157a2.0665,2.0665,0,0,0-2.1089,1.8438,2.2317,2.2317,0,0,0,.7706,1.7711c.0815.0869.23.2374.4167.4334-1.3242.7617-2.1115,1.6431-2.1471,2.7545-.0449,1.3105,1.01,2.39,2.8314,2.39a3.1606,3.1606,0,0,0,2.7873-1.5391c.7413.7679,1.285,1.3378,1.285,1.3378h1.1239c-.5572-.5374-1.287-1.2677-2.0413-2.03m-4.2328-5.165a1.3035,1.3035,0,0,1,1.3307-1.2758l.0473.0018a1.3025,1.3025,0,0,1,1.4261,1.274c0,.91-.65,1.3436-1.7445,1.9013-.06-.0637-.1129-.1228-.1584-.1719-.5943-.64-.9325-1.0445-.9013-1.7294m3.2186,5.3809c-.48.9179-.9472,1.4877-2.0774,1.4877a1.8624,1.8624,0,0,1-2.0289-1.9886,2.8592,2.8592,0,0,1,1.7048-2.1867c.6811.7042,1.6241,1.6927,2.4648,2.56-.0214.0466-.0439.09-.0633.1281M69.5749,54.232H65.7791v.0267a1.8588,1.8588,0,0,1,1.217,1.9091v6.9109h2.5788c2.7717,0,4.8105-.7062,4.8105-4.4236,0-3.7221-2.0477-4.4232-4.8105-4.4232m.1453,8.17H68.5439V54.9016H69.72c2.3248,0,2.9734,1.4057,2.9734,3.7535,0,2.3451-.6488,3.7471-2.9734,3.7471m-10.7929-8.17v.0267c.6572.2509,1.2322.8552,1.0142,1.4417-.2.538-3.0017,7.3779-3.0017,7.3779h.9258l1.07-2.6876H62.734l1.1286,2.6877h1.6907l-3.82-8.8464Zm.2876,5.4519,1.5583-3.9333,1.6635,3.9333Z" transform="translate(-21.9772 -31.5263)"/></svg>