<svg id="Layer_1" data-name="Layer 1" xmlns="http://www.w3.org/2000/svg" width="200" height="212.4937" viewBox="0 0 200 212.4937"><defs><style>.cls-1{fill:#004896;fill-rule:evenodd;}</style></defs><title>O2</title><path class="cls-1" d="M74.6264,105.9288c0-29.8564,16.4895-58.9632,49.3442-58.9632,33.3542,0,50.0939,28.3571,50.0939,58.9632,0,30.2312-14.9906,58.9635-50.0939,58.9635C89.6169,164.8923,74.6264,135.4107,74.6264,105.9288Zm-30.6061,0c0,50.9684,29.1068,86.5712,79.95,86.5712,51.343,0,80.8243-35.6028,80.8243-86.5712,0-49.3442-29.8558-86.1964-80.8243-86.1964C73.5019,19.7324,44.02,56.5846,44.02,105.9288Z" transform="translate(-44.0203 -19.7324)"/><path class="cls-1" d="M197.5507,232.2262V220.3586c6.1212-5.7464,29.857-25.609,29.857-38.2263,0-6.496-5.7473-9.6189-11.1182-9.6189-6.1207,0-11.868,2.6231-16.49,5.7464l-1.1244-11.8676a49.0268,49.0268,0,0,1,21.1129-4.9971c12.9909,0,21.4868,6.8709,21.4868,20.6123,0,14.491-14.9929,28.3574-25.9847,39.1005h28.73v11.1183Z" transform="translate(-44.0203 -19.7324)"/></svg>