<svg id="Layer_1" data-name="Layer 1" xmlns="http://www.w3.org/2000/svg" width="200" height="34.2929" viewBox="0 0 200 34.2929"><defs><style>.cls-1,.cls-2{fill-rule:evenodd;}.cls-2{fill:#ff1f2c;}</style></defs><title>Overstock</title><path class="cls-1" d="M250.333,37.1923h-.3355v-2.4h-.0122l-.9356,2.4h-.2179l-.9343-2.4h-.0135v2.4h-.3367V34.5131h.62l.7726,1.98h.0123l.7616-1.98h.62Zm-3.2865-2.4245h-.8633v2.4245h-.3355V34.7678h-.8633v-.2547h2.0621ZM91.86,26.9728c0,4.3567,2.3755,8.7146,7.1693,8.7146s7.1694-4.3579,7.1694-8.7159-2.3755-8.7146-7.1694-8.7146-7.1705,4.3579-7.1705,8.7146m16.8366,0c0,5.8629-3.4077,10.8159-9.6661,10.8159s-9.666-4.953-9.666-10.8159S92.77,16.1581,99.03,16.1581s9.6661,4.9506,9.6661,10.8134M108.25,16.752h2.7722L117.44,34.6968h.08l6.3379-17.9448h2.5751l-7.6457,20.44h-2.6535Zm33.7235,8.7942c-.1187-3.7653-2.4563-7.2893-6.4971-7.2893-4.08,0-6.3379,3.5657-6.7346,7.2893ZM128.7417,27.645c.0391,3.6453,1.9408,8.0424,6.7346,8.0424,3.6453,0,5.6253-2.1392,6.4163-5.2285h2.498c-1.07,4.6346-3.7641,7.3273-8.9143,7.3273-6.4971,0-9.23-4.991-9.23-10.8147,0-5.3877,2.733-10.8134,9.23-10.8134,6.5755,0,9.191,5.7428,8.9926,11.4869Zm41.37-4.9114c-.1188-3.0906-2.4955-4.4767-5.3473-4.4767-2.2188,0-4.8331.8718-4.8331,3.5265,0,2.2175,2.5347,3.01,4.2392,3.4457l3.3269.753c2.8531.4347,5.8237,2.0988,5.8237,5.6645,0,4.4363-4.3971,6.1408-8.2,6.1408-4.7547,0-8.002-2.2188-8.3987-7.211h2.4967c.1984,3.3673,2.6939,5.111,6.0208,5.111,2.3388,0,5.5861-1.03,5.5861-3.8816,0-2.3767-2.2188-3.17-4.4767-3.7249l-3.2082-.7126c-3.2485-.8719-5.7061-1.9813-5.7061-5.4674,0-4.16,4.0812-5.7428,7.6861-5.7428,4.08,0,7.3285,2.1392,7.4865,6.5755Zm9.3343-5.9816h4.1595v2.0987h-4.1595V32.6372c0,1.6237.2375,2.5751,2.02,2.6939a19.5594,19.5594,0,0,0,2.1391-.1188v2.1392c-.753,0-1.4657.0784-2.2187.0784-3.3282,0-4.4767-1.1082-4.4363-4.5943V18.852H174.535V16.7508h2.4159V10.6124h2.4955Zm7.12,10.2208c0,4.3567,2.3768,8.7146,7.1706,8.7146s7.1706-4.3579,7.1706-8.7159-2.3767-8.7146-7.1706-8.7146-7.1706,4.3579-7.1706,8.7146m16.8367,0c0,5.8629-3.4077,10.8159-9.6661,10.8159s-9.6661-4.953-9.6661-10.8159,3.4078-10.8134,9.6661-10.8134,9.6661,4.9506,9.6661,10.8134m17.6852-3.802c-.6734-3.05-2.5347-4.9126-5.7832-4.9126-4.7939,0-7.1706,4.3579-7.1706,8.7146,0,4.3592,2.3755,8.7159,7.1706,8.7159a6.0894,6.0894,0,0,0,5.9412-5.8236h2.4955c-.6735,4.9126-3.8816,7.9224-8.4367,7.9224-6.26,0-9.6661-4.9506-9.6661-10.8147s3.4065-10.8146,9.6661-10.8146c4.3579,0,7.724,2.3387,8.2787,7.0126Zm5.2751-14.2616h2.4955V26.6556l11.33-9.9036h3.3269l-8.7147,7.5661,9.31,12.8742h-3.13L232.9,26.0617l-4.0408,3.3674v7.7632h-2.4955Zm-70.2144,7.6567a7.4892,7.4892,0,0,0-6.0992,4.98h-.08V16.752h-2.2983v20.44H150.17V26.2993a7.03,7.03,0,0,1,5.98-7.2563V16.5646Z" transform="translate(-50.333 -8.9079)"/><path class="cls-2" d="M50.333,8.9483v17.951c2.6473-7.1314,9.98-12.584,17.4293-12.584,8.253,0,13.5183,6.6905,11.7661,14.9411A19.7615,19.7615,0,0,1,66.986,43.2009H84.5867V8.95H50.333Z" transform="translate(-50.333 -8.9079)"/><path class="cls-2" d="M74.0562,29.2564c0-7.1314-4.24-12.9146-9.47-12.9146s-9.47,5.7832-9.47,12.9146,4.24,12.9147,9.47,12.9147,9.47-5.7821,9.47-12.9147" transform="translate(-50.333 -8.9079)"/></svg>