<svg id="Layer_1" data-name="Layer 1" xmlns="http://www.w3.org/2000/svg" width="200" height="219.8172" viewBox="0 0 200 219.8172"><defs><style>.cls-1{fill:#0051a5;}.cls-2{fill:#fedf01;}.cls-3{fill:#fff;}</style></defs><title>Royal-Bank-of-Canada-RBC</title><path class="cls-1" d="M182.1754,211.1478c0,7.317-3.0489,11.5843-8.8415,13.72-22.5611,8.8413-49.39,13.11-75,13.11a219.1924,219.1924,0,0,1-75-13.11c-5.7926-2.1342-8.8415-6.4026-8.8415-13.72V18.16H182.8705" transform="translate(-14.4924 -18.1601)"/><path class="cls-2" d="M59.92,135.538c-23.172-14.3292-30.7939-20.7316-31.4037-30.1829a24.6334,24.6334,0,0,1,1.22-7.6212l-2.134-1.5245a18.1367,18.1367,0,0,0-2.744,9.7562A22.0329,22.0329,0,0,0,28.8216,118.77c3.3538,4.8779,6.7075,8.2317,15.2441,14.634A55.9826,55.9826,0,0,1,62.968,156.5751h1.2195V147.123c12.1952,7.0122,23.1707,13.4163,28.3538,25.3058h1.2193C91.3217,160.2331,84.31,151.0867,59.92,135.538Z" transform="translate(-14.4924 -18.1601)"/><path class="cls-2" d="M166.6264,172.4277h-1.5236c0-8.5366-7.9268-10.9757-16.1585-10.9757H123.03a42.6468,42.6468,0,0,1,.61,14.0243H122.42c-2.44-19.5121-13.4145-28.9624-28.66-39.3292v8.8415H92.5413c-3.9635-9.1462-13.11-17.6828-21.6465-23.78h0c-2.1342-1.5242-4.5722-3.3535-7.0122-4.8779v9.4521H62.6631c-3.6584-9.4521-10.061-16.4643-19.5121-25C33.09,91.6359,29.1267,86.4531,26.6867,80.0505A26.0182,26.0182,0,0,1,24.8574,69.075c0-7.317,3.6584-14.0243,8.2317-16.4643V56.27a17.6282,17.6282,0,0,0-3.6573,10.9755,25.5887,25.5887,0,0,0,2.7436,11.28c5.7926,10.6706,24.6951,24.0854,36.89,32.0122,37.805,25.3058,45.122,29.574,51.5251,42.9894a21.6337,21.6337,0,0,1,1.8293,5.7928c5.4877-.9146,25.3049-3.9635,28.9633-4.5733.61,0,2.1342-.3049,3.0489-.3049a31.2662,31.2662,0,0,0,8.5365-8.2317l-14.3294-1.22c-.61,1.5244-1.5244,3.0489-2.1342,4.2684h-1.2195c.3049-1.5244.61-3.0488.9146-4.2684l-3.6586-.3046V143.77l3.9635-.61a78.7989,78.7989,0,0,0,1.22-11.5843l-18.2928-.9147v5.1831h-1.22l-.9153-5.4893H123.03v-1.22l3.6584-.3049a64.5313,64.5313,0,0,1-.3049-13.11l-10.6706-.61a28.3294,28.3294,0,0,1,1.5245,3.0489,31.6685,31.6685,0,0,1,.9144,17.3781h-1.2193a45.391,45.391,0,0,0-2.744-11.89c-3.0489-7.0121-9.4521-13.11-20.7318-20.122v8.8415H92.2373c-3.6587-11.5844-12.805-17.9876-26.5245-25C54.4323,81.5743,51.0787,74.5621,51.6885,63.89l3.6584,2.1342A16.8725,16.8725,0,0,0,72.1152,81.8783,62.2929,62.2929,0,0,0,85.53,80.3538c6.0977-1.22,11.89-2.44,16.7683-.61V73.953h-3.66a11.88,11.88,0,0,1-8.2317,2.44c-4.5722,0-12.805-2.44-12.805-11.89,0-8.2317,7.0122-9.4521,12.5-9.4521a91.9412,91.9412,0,0,0,9.7562-.3049,3.7271,3.7271,0,0,0,2.7437-.9145,2.7679,2.7679,0,0,0,.9147-2.1342,12.5666,12.5666,0,0,0,.3049-3.6586V42.2455H77.907V52.6114l-9.756-3.9627v-2.44h4.5722V42.2455H55.0405V33.7089H48.9436a6.7922,6.7922,0,0,0-7.009,6.5684v0l-.0031.1387c-.3049,4.2684,1.5244,7.6219,5.7926,7.6219h.9147v4.8784h-.9147a12.65,12.65,0,0,1-13.11-12.174v0q-.0171-.4676,0-.9355A14.07,14.07,0,0,1,49.02,26.08q.1146.0029.2286.0075H62.0527v8.5372h49.3908v12.5a47.2235,47.2235,0,0,1-.3057,6.7075,7.2276,7.2276,0,0,1-3.0487,5.4877c-1.5244,1.22-3.6586,1.5245-7.317,1.5245-1.22,0-4.5733,0-8.8415-.3049-5.4879-.306-7.3166,1.8284-7.3166,3.9624v1.22a11.6436,11.6436,0,0,1,10.6706-2.1343c7.317,2.44,9.4521,2.44,13.4147-.61l.3049.9146a13.3326,13.3326,0,0,1-2.1342,2.44h3.6593V85.844l11.28-6.7066h31.4024s13.4146,7.0121,15.5488,8.2317a5.0475,5.0475,0,0,1,3.0489,3.9635,6.0088,6.0088,0,0,1-.9147,4.5722c-.61.61-3.9635,6.7075-6.0975,9.7561a32.81,32.81,0,0,1,8.8426,22.8649,33.7984,33.7984,0,0,1-12.805,26.5245,17.6329,17.6329,0,0,1,9.1463,6.7072ZM96.5048,67.55c-4.2682-.9146-7.0122-.3049-9.4522,2.1342a10.1811,10.1811,0,0,0,4.5722.9147A7.1921,7.1921,0,0,0,96.5048,67.55Zm-2.44,28.0486,12.5008-7.3166a18.3146,18.3146,0,0,0-8.2317-2.1339,101.9313,101.9313,0,0,0-14.939,2.44A108.1019,108.1019,0,0,0,94.0655,95.6Zm55.4879.9147,1.8291-2.4389-2.7433-3.6575.3049-.9147,7.622,3.9636-1.83,5.1835a12.75,12.75,0,0,1,3.6584,2.44l4.8786-7.9272-12.1941-6.7088H123.3339L100.773,99.8674a57.1419,57.1419,0,0,1,10.9754,9.4521,33.8267,33.8267,0,0,1,27.1342-14.33,32.3,32.3,0,0,1,10.6708,1.5242Zm-2.44,31.4024a60.8462,60.8462,0,0,0-1.22-11.28l-14.6325-.61c-.9147,4.5722-1.5244,8.8415-2.1342,12.8048Zm5.1828-10.9755a42.0834,42.0834,0,0,1,.3049,10.6706l14.6341-.9144a25.9361,25.9361,0,0,0-2.7437-9.4522Zm-7.62-4.5733a61.8539,61.8539,0,0,0-4.2682-10.6705h-1.8293a10.3743,10.3743,0,0,0-3.0488.3048,69.6576,69.6576,0,0,0-3.6584,11.28Zm4.2684-8.8414a52.3091,52.3091,0,0,1,2.4389,8.5365l8.8415-.61a26.3479,26.3479,0,0,0-11.28-7.9262Zm16.1586,37.5007a21.6255,21.6255,0,0,0,1.8291-7.9268l-15.2439-.9147a47.29,47.29,0,0,1-3.0489,10.9751Zm-37.1952-36.89a25.9907,25.9907,0,0,0-11.5844,9.7561l10.3657-.61A66.2892,66.2892,0,0,1,127.907,104.1356Z" transform="translate(-14.4924 -18.1601)"/><path class="cls-3" d="M108.7,194.9892a9.1937,9.1937,0,0,0,8.2317-8.8417c0-4.5721-1.8293-9.4521-14.9392-9.4521H79.7363V177a5.3931,5.3931,0,0,1,2.44,1.5244,8.8947,8.8947,0,0,1,2.1342,6.7073v33.2332h18.2925c10.0611,0,17.3781-3.9633,17.3781-12.8048C119.98,198.3441,114.4924,195.2941,108.7,194.9892ZM99.2477,180.66c4.5721,0,7.9268.9147,7.9268,6.0975,0,5.488-4.2684,6.7073-9.1464,6.7073H93.7606V180.66Zm.3057,33.5362H93.7606V197.123h5.7928c7.9268,0,10.6706,2.44,10.6706,8.2317C110.224,211.7575,106.2607,214.1962,99.5534,214.1962Z" transform="translate(-14.4924 -18.1601)"/><path class="cls-3" d="M63.2729,218.16h11.89L59.92,198.6479c6.0975-1.5244,10.6706-4.8782,10.6706-10.9757,0-7.3171-4.2682-10.9757-15.5487-10.9757H31.8705v.3049a6.639,6.639,0,0,1,2.44,1.5244,10.0163,10.0163,0,0,1,2.134,7.3171v32.6219h9.7562V199.8683h3.6586ZM46.2,180.6592h6.4024c5.4879,0,8.2317,1.5244,8.2317,7.317,0,5.1829-3.6584,8.2317-9.4522,8.2317H46.2Z" transform="translate(-14.4924 -18.1601)"/><path class="cls-3" d="M159.0044,182.1845a9.4954,9.4954,0,0,1,3.3538,3.3535h.3047l2.1342-7.0122s-3.6586-2.7437-12.805-2.7437c-13.4146,0-23.78,6.7072-23.78,21.6462,0,16.7683,12.1953,21.3414,22.8658,21.3414,10.0611,0,13.72-3.0487,13.72-3.0487v-4.8781s-3.3535,3.3533-10.9755,3.3533c-6.0975,0-15.2438-2.744-15.5487-16.7683-.3049-12.805,5.4877-17.0732,12.8047-17.0732A22.9276,22.9276,0,0,1,159.0044,182.1845Z" transform="translate(-14.4924 -18.1601)"/><path class="cls-1" d="M204.1265,234.6233a10.3659,10.3659,0,1,1,10.3659-10.3659h0A10.4754,10.4754,0,0,1,204.1265,234.6233Zm0-18.9022a7.9443,7.9443,0,0,0-7.9321,7.9562q0,.1379.0053.2755a8.4154,8.4154,0,0,0,7.9268,8.5365,8.0281,8.0281,0,0,0,7.9424-8.1129h0q-.002-.2121-.0156-.4236A8.3439,8.3439,0,0,0,204.1265,215.7211Zm.61,2.4388a3.1989,3.1989,0,0,1,3.3535,3.3538,3.1034,3.1034,0,0,1-2.7438,3.3535l.61.61c.6095.9146,2.7437,4.5732,2.7437,4.5732h-2.7437c-.519-.6029-.7729-1.2889-1.22-1.83-1.22-2.1342-1.5244-2.744-1.8293-2.744h-.3049v4.8782h-2.438V218.1559l4.5727.004Zm-2.1342,5.1831h.9146c.9147,0,1.5244,0,1.8293-.3049s.3049-.61.3049-1.22a1.6772,1.6772,0,0,0-.9146-1.5244,2.5871,2.5871,0,0,0-1.22-.3049h-.9146Z" transform="translate(-14.4924 -18.1601)"/></svg>