<svg id="Layer_1" data-name="Layer 1" xmlns="http://www.w3.org/2000/svg" width="200" height="55.48" viewBox="0 0 200 55.48"><defs><style>.cls-1{fill:#02366c;}</style></defs><title>Sasol</title><path class="cls-1" d="M395.1,121.94c-6.89,3.7-7.88,8.71-2.87,14.06-4.32,5.66-13.91,6.05-19.38.71a9.46,9.46,0,0,0-4.33-8.87,13.75,13.75,0,0,1,26.58-5.9Zm-38.67,13.48a7.57,7.57,0,1,0,7.76-7.49A7.68,7.68,0,0,0,356.43,135.42ZM375.9,149.1a6.46,6.46,0,0,0,6.48,4.49,6.4,6.4,0,0,0,6-4.76c.83-2.85-.21-5.53-2.92-7.35a19.07,19.07,0,0,1-6.78,0C375.94,143.48,375,146.19,375.9,149.1Zm14.51-19.35a6.39,6.39,0,0,0,12.78,0,6.39,6.39,0,1,0-12.78,0Zm-20.16-25.24a6.53,6.53,0,0,0-6.83,6.71,6.31,6.31,0,0,0,7,6.16,16.85,16.85,0,0,1,5.65-4.41C376.78,108.17,374.36,104.79,370.25,104.51Zm27,5.47a5.94,5.94,0,1,0-5.76-6A5.9,5.9,0,0,0,397.28,110Zm-2.79.7a7.86,7.86,0,0,1-4.28-5.4c-4.22-.34-6.71,2.28-6.13,6.5a16.75,16.75,0,0,1,7.87,3.41A5.18,5.18,0,0,0,394.49,110.68Z" transform="translate(-203.22 -98.11)"/><path class="cls-1" d="M255.29,124.12c.31-4.15-.35-4.87-4.35-4.87s-7.88,0-11.81,0c-1.72,0-2.95-.61-3-2.38s1.25-2.45,2.93-2.44c4.56,0,9.12-.09,13.68,0s7.37,3.15,7.39,7.71q0,6.51,0,13c0,2.77-1.11,3.86-3.9,3.87-5.18,0-10.36,0-15.54,0-4.55,0-7.69-3.14-7.65-7.47s3.18-7.16,7.67-7.18c4.14,0,8.29,0,12.43,0A3.56,3.56,0,0,0,255.29,124.12Zm0,5.08c-5.12,0-10.13-.06-15.14,0a2.48,2.48,0,0,0,0,4.94c5,.07,10,0,15.11,0Zm27.39,9.87a7.33,7.33,0,1,0,0-14.65c-3.59,0-7.19,0-10.78,0-2.48,0-3.76-.91-3.79-2.57s1.29-2.58,3.74-2.59c4.35,0,8.7,0,13.05,0,1.73,0,3.08-.38,3.29-2.31.17-1.57-1.1-2.51-3.3-2.52H271.22A8.83,8.83,0,0,0,268,115a7.34,7.34,0,0,0-4.58,8.15,7.24,7.24,0,0,0,6.92,6c4.14.1,8.29,0,12.44.06a2.38,2.38,0,0,1,2.63,2.55c0,1.58-1,2.33-2.51,2.47-.62.05-1.24,0-1.86,0h-14.1c-1.6,0-2.78.6-2.82,2.31s1.12,2.53,2.84,2.52c2.69,0,5.38,0,8.08,0S280.12,139.11,282.68,139.07Zm-60.13,0c4.53-.07,7.7-3.19,7.65-7.48s-3.21-7.14-7.69-7.17c-3.66,0-7.32,0-11,0-2.3,0-3.46-1-3.4-2.7s1.15-2.44,3.41-2.45c4.49,0,9,0,13.47,0,2.07,0,3.21-.88,3.12-2.43-.11-1.87-1.37-2.38-3-2.38-4.77,0-9.54-.07-14.3,0-4.45.09-7.6,3.21-7.61,7.35s3.28,7.32,7.8,7.36c3.73,0,7.46,0,11.19,0a2.81,2.81,0,0,1,2.92,1.5c.87,1.84-.45,3.54-2.86,3.56-5.11.05-10.22,0-15.33,0-1.67,0-2.93.58-2.89,2.44s1.3,2.4,3,2.39c2.63,0,5.25,0,7.88,0S220,139.11,222.55,139.07Zm84.15,0c-2.07,0-4.14.06-6.21,0a7.22,7.22,0,0,1-7.26-7.41c0-3.3,0-6.61,0-9.91a6.92,6.92,0,0,1,6.57-7.17c4.61-.23,9.24-.23,13.85,0a6.92,6.92,0,0,1,6.65,7.1c.06,3.37.06,6.75,0,10.12a7.21,7.21,0,0,1-7.18,7.28C311,139.13,308.84,139.07,306.7,139.07Zm.14-19.82c-1.86,0-3.73,0-5.6,0-2.28,0-3.2.87-3.24,3.07-.05,3-.05,5.93,0,8.89,0,2.13.92,3,3.09,3,3.81,0,7.61,0,11.41,0,2.13,0,3-.94,3-3.06,0-3,0-5.93,0-8.9,0-2.09-1-3-3.1-3C310.57,119.22,308.71,119.25,306.84,119.25Zm21.67-1.82c0-1.7-.64-2.92-2.44-2.92s-2.45,1.25-2.45,2.92c0,4.75-.06,9.51,0,14.26a7.34,7.34,0,0,0,7.58,7.38c2.83,0,5.66,0,8.49,0,1.65,0,2.89-.5,3-2.34.12-1.61-1-2.48-3.05-2.49-2.76,0-5.52,0-8.28,0-2,0-2.86-.95-2.89-3,0-2.34,0-4.69,0-7S328.49,119.7,328.51,117.43Z" transform="translate(-203.22 -98.11)"/></svg>