<svg id="Layer_1" data-name="Layer 1" xmlns="http://www.w3.org/2000/svg" width="200" height="99.9136" viewBox="0 0 200 99.9136"><defs><style>.cls-1{fill:#502c84;}</style></defs><title>Saudi-Telecom-Company-stc</title><path class="cls-1" d="M32.8564,99.91c10.4328,0,18.982-3.26,24.5969-8.73A22.6846,22.6846,0,0,0,64.155,74.8415a21.1437,21.1437,0,0,0-6.2307-15.2508c-4.0573-4.0572-9.8171-6.9915-17.1346-8.4043L28.7991,48.868c-4.9629-.9419-7.7884-3.4052-7.7884-6.8466,0-4.4919,4.347-7.6073,11.3747-7.6073A14.8538,14.8538,0,0,1,42.9632,38.29a11.7361,11.7361,0,0,1,2.9705,6.3757l17.28-3.8761A21.0011,21.0011,0,0,0,56.838,27.8571c-5.6149-5.6149-14.309-9.165-24.597-9.165-9.491,0-17.4244,3.1154-22.8944,8.0782a22.7084,22.7084,0,0,0-7.318,16.8088,19.467,19.467,0,0,0,5.6149,14.309c3.7312,3.7312,9.2013,6.5206,16.3377,8.2594l11.8456,2.7893c5.9048,1.4128,8.5492,3.5863,8.5492,7.4624,0,4.818-4.347,7.6436-11.52,7.6436-5.144,0-9.3462-1.7026-11.9906-4.5282A10.7133,10.7133,0,0,1,17.75,72.342L0,76.2181A22.1193,22.1193,0,0,0,6.7017,89.9113c5.9409,6.2669,15.432,9.9982,26.1547,9.9982m131.353,0c11.52,0,20.3948-4.2022,26.4445-10.1069A34.5333,34.5333,0,0,0,200,74.0808l-18.2213-6.0859a17.3027,17.3027,0,0,1-4.818,8.0783,17.7748,17.7748,0,0,1-12.7513,4.8179,19.5829,19.5829,0,0,1-13.8743-5.6149c-3.5863-3.7312-5.76-9.2012-5.76-16.0478,0-6.9915,2.1735-12.28,5.76-16.0116a19.0019,19.0019,0,0,1,13.6932-5.4338c5.6149,0,9.491,1.8837,12.28,4.6731a20.2724,20.2724,0,0,1,4.673,8.2593l18.5112-6.2307a34.7984,34.7984,0,0,0-8.73-15.3958c-6.2308-6.0858-15.2509-10.4329-27.2415-10.4329a39.5039,39.5039,0,0,0-28.1833,11.3748,41.4769,41.4769,0,0,0-11.411,29.27,40.8526,40.8526,0,0,0,11.81,29.27A40.0656,40.0656,0,0,0,164.2094,99.91m-62.851,0c8.0783,0,13.8381-2.5,16.3377-4.6731V78.4278a17.9558,17.9558,0,0,1-10.4329,3.1154c-3.4414,0-5.9048-.797-7.7885-2.5-1.5577-1.5577-2.3184-4.2021-2.3184-7.7884V0h-20.54V21.0107h41.08V40.9346H76.58v35.32c0,7.1726,2.1735,12.9324,6.0859,16.9534,4.347,4.3833,10.7227,6.7018,18.6922,6.7018"/></svg>