<svg id="Layer_1" data-name="Layer 1" xmlns="http://www.w3.org/2000/svg" width="200" height="46.8549" viewBox="0 0 200 46.8549"><defs><style>.cls-1{fill:#ec6602;}.cls-2{fill:#099;}</style></defs><title>Siemens-Healthineers</title><path id="path4311" class="cls-1" d="M216.0551,37.2267a1.4154,1.4154,0,1,0,0-2.0017,1.2849,1.2849,0,0,0-.4,1.0008,1.1611,1.1611,0,0,0,.4,1.0009m7.0058-7.0059a1.7693,1.7693,0,1,0,0-2.5021h0a1.9027,1.9027,0,0,0-.5,1.3011,1.2182,1.2182,0,0,0,.5,1.201m0,14.6122a1.7693,1.7693,0,1,0,0-2.5021h0a1.9027,1.9027,0,0,0-.5,1.3011,1.2952,1.2952,0,0,0,.5,1.201m6.9058-21.5179a2.3355,2.3355,0,1,0,0-3.3028h0a2.4145,2.4145,0,0,0-.7006,1.7014,1.9916,1.9916,0,0,0,.7006,1.6014m0,14.6122a2.3355,2.3355,0,1,0,0-3.3029h0a2.4141,2.4141,0,0,0-.7006,1.7014,2.2919,2.2919,0,0,0,.7006,1.6014m-.1,14.512a2.3354,2.3354,0,1,0,0-3.3028h0a2.4141,2.4141,0,0,0-.7006,1.7014,2.93,2.93,0,0,0,.7006,1.6013m6.8057-21.3177a3.0431,3.0431,0,1,0,0-4.3037h0a2.88,2.88,0,0,0-.9008,2.1018,3.3762,3.3762,0,0,0,.9008,2.2018m0,14.5121a3.0431,3.0431,0,1,0,0-4.3037h0a2.88,2.88,0,0,0-.9008,2.1017,3.1748,3.1748,0,0,0,.9008,2.2019m6.7055-6.6055a3.87,3.87,0,1,0-1.201-2.8024,3.6348,3.6348,0,0,0,1.201,2.8024" transform="translate(-49.9167 -11.7953)"/><path id="path4339" class="cls-2" d="M199.9417,29.02V25.617a17.25,17.25,0,0,0,5.2043.9007c2.1018,0,3.1026-.5,3.1026-1.6013a1.5288,1.5288,0,0,0-.4-1.0008,8.3321,8.3321,0,0,0-2.402-1.201c-2.302-.9008-3.8032-1.7014-4.4037-2.402a4.2283,4.2283,0,0,1-1.3011-3.3028,4.4952,4.4952,0,0,1,2.0017-3.9032,8.6646,8.6646,0,0,1,5.0042-1.3011,21.4833,21.4833,0,0,1,4.5037.6005l.4.1v3.3027a13.1379,13.1379,0,0,0-4.5037-1.0008c-1.9016,0-2.9024.5-2.9024,1.6013a1.1011,1.1011,0,0,0,.6005,1.0009c.3.2,1.201.6005,2.7022,1.301a14.4692,14.4692,0,0,1,4.2035,2.402,4.3809,4.3809,0,0,1,1.201,3.2027,4.7515,4.7515,0,0,1-2.402,4.3036,9.6335,9.6335,0,0,1-5.1042,1.201,23.5289,23.5289,0,0,1-5.5046-.8007M193.136,12.0057v11.61l-5.9049-11.61h-5.6047V29.32h3.4028V17.61l6.1051,11.71h5.4045V12.0057Zm-27.3228,0V29.32h12.6106V26.0173h-7.9066V21.9139h6.7056V19.1116h-6.7056V15.2083h7.7064V12.0057Zm-10.4086,0-4.5038,11.0091-4.3036-11.0091H140.292V29.32h3.4028V17.11l5.0042,12.41h3.0025l5.1042-12.41V29.32H161.41V12.0057Zm-30.8257,0V29.32h12.6105V26.0173h-7.9066V21.9139h6.7056V19.1116h-6.7056V15.2083h7.7064V12.0057ZM115.2711,29.32h4.804V12.0057h-4.804Zm-15.613-.3V25.617a17.7772,17.7772,0,0,0,5.2044.9007c2.1017,0,3.1026-.5,3.1026-1.6013a1.2319,1.2319,0,0,0-.5005-1.0008,8.33,8.33,0,0,0-2.402-1.201c-2.3019-.9008-3.8031-1.7014-4.4036-2.402A4.2277,4.2277,0,0,1,99.3579,17.01a4.4951,4.4951,0,0,1,2.0016-3.9032,8.6648,8.6648,0,0,1,5.0042-1.3011,28.8258,28.8258,0,0,1,4.9041.6005v3.3027a13.1384,13.1384,0,0,0-4.5037-1.0008c-1.9016,0-2.9025.5-2.9025,1.6013a1.101,1.101,0,0,0,.6005,1.0009c.3.2,1.201.6005,2.7023,1.3011a14.4683,14.4683,0,0,1,4.2035,2.402,4.3813,4.3813,0,0,1,1.201,3.2026,4.7515,4.7515,0,0,1-2.402,4.3036,9.6338,9.6338,0,0,1-5.1043,1.201,19.0552,19.0552,0,0,1-5.4045-.7006" transform="translate(-49.9167 -11.7953)"/><path id="path4391" class="cls-1" d="M113.97,46.3343h3.9032V43.1316H113.97V38.4277h-4.1035v4.7039h-2.3019v3.2027h2.3019V53.74c0,2.5021.2,4.9041,4.5038,4.9041a7.6663,7.6663,0,0,0,3.8032-1.0008l-.9008-2.8024a4.9289,4.9289,0,0,1-1.8015.5005c-1.1009,0-1.5013-.7006-1.5013-2.302Zm97.8815-2.402h0a7.9,7.9,0,0,0-4.9041-1.3011c-3.1026.2-5.5046,2.0016-5.3044,5.1042.2,3.2027,2.5021,3.9033,4.7039,4.4037,1.3011.3,2.402.6005,2.402,1.7014.1,1.1009-.7006,1.6013-1.8015,1.7014a8.1138,8.1138,0,0,1-4.1034-1.1009l-1.201,2.8023a10.5674,10.5674,0,0,0,5.7047,1.3011c3.4029-.2,5.7048-2.0016,5.5046-5.4045-.2-3.1026-2.6022-3.8031-4.804-4.3036-1.4012-.3-2.402-.7-2.402-1.8015-.1-1.0008.7006-1.4011,1.7014-1.5012a5.381,5.381,0,0,1,3.3028,1.201l1.201-2.8023Zm-16.814,4.904a2.4445,2.4445,0,0,1,2.281-2.5978q.11-.0072.2211-.0043a4.9926,4.9926,0,0,1,2.1017.5l.7006-3.603a4.3478,4.3478,0,0,0-2.5021-.5,3.8511,3.8511,0,0,0-3.603,2.6021l-.4-2.1017h-3.4028l.3,2.6022v12.51h4.1034l.2-9.4079ZM149.7,58.2442V48.5361a2.605,2.605,0,0,1,2.5061-2.7q.048-.0018.0961-.0019c1.6013,0,1.8015,1.201,1.8015,2.9025v9.5079h4.1034V47.9356c0-3.603-1.8015-5.2043-4.7039-5.2043a5.2432,5.2432,0,0,0-4.5038,2.2018l-.3-1.8015h-3.5029l.3,2.8023v12.31ZM137.49,38.4277a2.037,2.037,0,0,0,.6005,1.5012,2.4353,2.4353,0,0,0,3.2027,0,2.1767,2.1767,0,0,0,0-3.0025h0a2.4353,2.4353,0,0,0-3.2027,0,2.5317,2.5317,0,0,0-.6005,1.5013m.2,19.8165h4.1034V43.1316H137.69Zm-12.21,0V48.5361a2.5006,2.5006,0,0,1,2.3968-2.6q.0526-.0021.1053-.0021c1.6014,0,1.9016,1.201,1.9016,2.7023v9.608h4.1034V47.9356c0-3.5029-1.7014-5.3044-4.804-5.3044a5.3718,5.3718,0,0,0-3.8031,1.5012V38.3276h-4.1035V58.1441ZM99.6581,38.4277V53.74c0,2.5021.2,4.9041,4.5038,4.9041a7.6663,7.6663,0,0,0,3.8032-1.0008l-.9008-2.8024a4.9289,4.9289,0,0,1-1.8015.5005c-1.1009,0-1.5012-.7006-1.5012-2.302V38.4277ZM96.1552,58.2442l-.3-3.0025v-11.51A19.1994,19.1994,0,0,0,90.35,42.6312c-5.3044,0-7.9066,3.4028-7.9066,8.7072,0,4.0034,1.5012,7.3061,5.8048,7.3061a4.5565,4.5565,0,0,0,4.0034-2.0017h.1l.2,1.5013ZM91.7515,53.44a2.2711,2.2711,0,0,1-2.3357,2.2047q-.0332-.0009-.0663-.0029c-2.2018,0-2.7022-2.1017-2.7022-4.5037,0-2.9025.8007-5.4045,3.3027-5.4045a6.2845,6.2845,0,0,1,1.9016.3ZM60.2253,38.4277v7.9066H54.22V38.4277H49.9167V58.2442H54.22V50.0373h6.1051v8.2069H64.629V38.4277Zm19.8165,8.6071c0-2.8023-1.9016-4.4036-4.9041-4.4036-4.9041,0-7.4062,4.0033-7.4062,8.407,0,4.5037,2.0017,7.6063,7.106,7.6063a9.7039,9.7039,0,0,0,5.5045-1.7014l-1.201-2.8023a6.2615,6.2615,0,0,1-3.703,1.301,3.1734,3.1734,0,0,1-3.4029-2.9024c3.5029-.1,8.0067-1.0008,8.0067-5.5046m-3.603,0c0,2.1018-2.8023,2.5021-4.7039,2.6022.1-2.1017,1.201-4.1034,3.2026-4.1034A1.474,1.474,0,0,1,76.4388,46.98c0,.0184,0,.0368,0,.0551m111.1926,0c0-2.8023-1.9016-4.4036-4.9041-4.4036-4.904,0-7.4061,4.0033-7.4061,8.407,0,4.5037,2.0016,7.6063,7.1059,7.6063a9.7042,9.7042,0,0,0,5.5046-1.7014l-1.201-2.8023a6.262,6.262,0,0,1-3.7031,1.301,3.1733,3.1733,0,0,1-3.4028-2.9024c3.5029-.1,8.0066-1.0008,8.0066-5.5046m-3.603,0c0,2.1018-2.8023,2.5021-4.7039,2.6022.1-2.1017,1.201-4.1034,3.2027-4.1034a1.4739,1.4739,0,0,1,1.5012,1.4461c0,.0184,0,.0367,0,.0551m-10.809,0c0-2.8023-1.9016-4.4036-4.9041-4.4036-4.904,0-7.4061,4.0033-7.4061,8.407,0,4.5037,2.0016,7.6063,7.1059,7.6063a9.7042,9.7042,0,0,0,5.5046-1.7014l-1.201-2.8023a6.262,6.262,0,0,1-3.7031,1.301,3.1733,3.1733,0,0,1-3.4028-2.9024c3.4028-.1,8.0066-1.0008,8.0066-5.5046m-3.603,0c0,2.1018-2.8023,2.5021-4.7039,2.6022.1-2.1018,1.201-4.1034,3.2027-4.1034a1.4738,1.4738,0,0,1,1.5012,1.4461c0,.0184,0,.0367,0,.0551" transform="translate(-49.9167 -11.7953)"/></svg>