<svg id="Layer_1" data-name="Layer 1" xmlns="http://www.w3.org/2000/svg" width="200" height="76.2182" viewBox="0 0 200 76.2182"><defs><style>.cls-1{fill:#0072aa;}.cls-2{fill:#78add2;}.cls-3{fill:#a4d0a0;}.cls-4{fill:#21aa47;}</style></defs><title>Standard-Chartered</title><path class="cls-1" d="M55.0825,43.019H53c-1.3917,0-1.9688-.8888-1.9688-2.1725V31.6557h4.0513V29.0613H51.0312V24.1729h-2.92V40.8048c0,3.5058,1.7585,5.0032,4.8839,5.0032h2.0859V43.019" transform="translate(-15.8692 -9.9182)"/><path class="cls-1" d="M26.9973,37.8943v.1181c0,5.9539,4.8637,8.087,9.4169,8.087,4.4485,0,8.9263-2.1308,8.9263-6.84,0-4.5768-3.76-5.8144-7.2848-6.6166l-1.2309-.2677c-3.1625-.6908-5.8987-1.2725-5.8987-3.625,0-3.3516,3.4461-3.7342,4.9233-3.7342,3.256,0,5.1483,1.57,5.4645,4.5026l.0112.108h3.0737l-.0022-.126c-.1755-4.6106-3.2459-7.2432-8.42-7.2432-4.1245,0-8.2895,2.069-8.2895,6.7133,0,4.14,3.4618,5.2372,7.3186,6.08l.7594.1676c3.2582.6919,6.3342,1.35,6.3342,4.1347,0,3.4539-3.499,3.967-5.5905,3.967a7.7067,7.7067,0,0,1-4.4834-1.2657A4.7631,4.7631,0,0,1,30.08,38.0113v-.1182H26.9973" transform="translate(-15.8692 -9.9182)"/><path class="cls-1" d="M72.6472,43.1124l-.1631.06a2.1357,2.1357,0,0,1-.7752.15c-.7032,0-.7358-.3814-.7358-1.7011V33.2353c0-3.1029-2.0364-4.606-6.2329-4.606-2.5438,0-6.8393.72-7.0284,5.5759l-.0022.126h2.9117l.0079-.1148c.108-2.0263,1.3692-2.9848,3.9546-2.9848,2.3852,0,3.5057.82,3.5057,2.6012,0,1.4794-1.5008,1.69-3.5676,1.9812-.5918.0833-1.1914.17-1.8271.2925-2.8408.5446-5.6186,1.3917-5.6186,5.1371,0,2.9308,2.0656,4.7,5.5162,4.7a7.3778,7.3778,0,0,0,5.6456-2.3762,2.2081,2.2081,0,0,0,2.3638,2.3762,3.7324,3.7324,0,0,0,1.9892-.476l.0585-.036V43.1124m-9.46.2081c-.909,0-3.032-.2194-3.032-2.2681,0-1.9734,1.6133-2.5461,3.1794-2.8251.4793-.081.99-.15,1.4772-.21a9.1032,9.1032,0,0,0,3.2436-.792h0V39.763C68.0569,41.14,66.7327,43.3205,63.19,43.3205Z" transform="translate(-15.8692 -9.9182)"/><path class="cls-1" d="M75.2281,29.0624v16.54h2.9252V36.2787c0-3.1142,1.754-4.9909,4.7017-4.9909a2.9564,2.9564,0,0,1,3.1885,3.1649V45.601h2.9252V34.7688c0-4.1-1.8812-6.0855-5.7379-6.0855a5.7632,5.7632,0,0,0-5.2429,2.7474V29.0613h-2.76" transform="translate(-15.8692 -9.9182)"/><path class="cls-1" d="M104.4812,22.8475v8.2277a6.4155,6.4155,0,0,0-5.199-2.3908c-4.6038,0-7.5706,3.3685-7.5706,8.6012A9.7753,9.7753,0,0,0,93.613,43.379a7.0556,7.0556,0,0,0,5.7311,2.62c2.3908,0,4.24-.882,5.1371-2.3874v1.9914h2.9274V22.8475h-2.9274M99.7187,43.3768c-3.3988,0-4.9289-2.9545-4.9289-5.9033,0-1.8552.4647-6.1857,4.7759-6.1857,4.6466,0,5.01,4.6421,5.01,6.0586C104.5768,40.2716,103.3055,43.3768,99.7187,43.3768Z" transform="translate(-15.8692 -9.9182)"/><path class="cls-1" d="M125.9229,43.1675l-.16.06a2.1732,2.1732,0,0,1-.7774.1508c-.7167,0-.746-.38-.746-1.7011V33.2927c0-3.1052-2.0363-4.6083-6.2182-4.6083-2.5562,0-6.8461.72-7.0363,5.5759l-.0056.126h2.923l.0056-.1148c.108-2.0262,1.3591-2.9837,3.95-2.9837,2.3886,0,3.4979.8405,3.4979,2.6,0,1.48-1.4919,1.691-3.5586,1.9824-.5952.0821-1.1949.1687-1.8305.2914-2.833.5456-5.61,1.3917-5.61,5.1371,0,2.9308,2.0532,4.7,5.5083,4.7a7.34,7.34,0,0,0,5.6389-2.3773,2.21,2.21,0,0,0,2.3649,2.3773,3.7158,3.7158,0,0,0,1.997-.477l.0574-.0338v-2.321m-9.46.2093c-.9113,0-3.0231-.2205-3.0231-2.2682,0-1.9745,1.5987-2.546,3.166-2.8262.4781-.081.9776-.15,1.4794-.2092a9.05,9.05,0,0,0,3.2357-.7921h0v2.5371C121.3236,41.1952,120.01,43.3768,116.4644,43.3768Z" transform="translate(-15.8692 -9.9182)"/><path class="cls-1" d="M137.2861,28.6878l-.117-.0023a5.9372,5.9372,0,0,0-5.9393,3.57v-3.193h-2.7564v16.54h2.9128V38.2284c0-4.4024,1.8508-6.4714,5.7784-6.4714h.1215V28.6878" transform="translate(-15.8692 -9.9182)"/><path class="cls-1" d="M150.4607,22.8475v8.2277a6.4216,6.4216,0,0,0-5.2169-2.3908c-4.58,0-7.5617,3.3685-7.5617,8.6012a9.66,9.66,0,0,0,1.916,6.0934,7.0334,7.0334,0,0,0,5.7222,2.62c2.3975,0,4.2426-.8843,5.1393-2.3885v1.9925h2.9331V22.8475h-2.932m-4.7568,20.5293c-3.409,0-4.93-2.9545-4.93-5.9033,0-1.8552.4636-6.1857,4.776-6.1857,4.64,0,5.0021,4.6421,5.0021,6.0586C150.553,40.2716,149.2794,43.3768,145.7039,43.3768Z" transform="translate(-15.8692 -9.9182)"/><path class="cls-1" d="M33.0322,68.5919l-.01.11c-.3015,3.9265-2.7373,6.3837-6.3668,6.3837a6.6466,6.6466,0,0,1-5.757-2.7475,11.1207,11.1207,0,0,1-1.7945-6.5693,10.7294,10.7294,0,0,1,1.7877-6.25,6.7882,6.7882,0,0,1,5.7312-2.7362c3.2942,0,5.5983,1.75,6.18,4.7006l.018.0979h3.24l-.0225-.1373a8.1383,8.1383,0,0,0-3.1794-5.541,10.2632,10.2632,0,0,0-6.2037-1.88,10.11,10.11,0,0,0-8.0319,3.5148A13.1606,13.1606,0,0,0,15.8692,65.99c0,7.3119,4.039,11.8583,10.533,11.8583a9.8341,9.8341,0,0,0,6.87-2.4313,10.4041,10.4041,0,0,0,2.9859-6.6942l.0135-.1293H33.0322" transform="translate(-15.8692 -9.9182)"/><path class="cls-1" d="M39.075,54.5353v22.794h2.9229v-9.34c0-3.1333,1.7653-4.9931,4.7006-4.9931a2.941,2.941,0,0,1,3.193,3.15V77.3293h2.924V66.4588c0-4.0795-1.871-6.0642-5.7266-6.0642-1.7382,0-4.0469.6571-5.09,2.5067V54.5352H39.075" transform="translate(-15.8692 -9.9182)"/><path class="cls-1" d="M58.9326,66.0785l.0022-.117c.1091-2.0229,1.3591-2.9657,3.949-2.9657,2.3953,0,3.5012.8213,3.5012,2.5854,0,1.4964-1.49,1.71-3.5642,1.9993-.5828.0821-1.1836.1688-1.8159.2914-2.8441.5456-5.622,1.3917-5.622,5.1191,0,2.9465,2.0657,4.7005,5.5163,4.7005a7.3345,7.3345,0,0,0,5.6366-2.3592,2.2,2.2,0,0,0,2.3728,2.3592,3.71,3.71,0,0,0,1.98-.4579l.06-.0337V74.8822l-.1642.0563a2.0955,2.0955,0,0,1-.7752.1485c-.6953,0-.7268-.378-.7268-1.718V64.9838c0-3.0861-2.0431-4.5869-6.2419-4.5869-2.5449,0-6.8382.7223-7.0283,5.5567l-.0012.126h2.9219M61.5,75.0859c-.917,0-3.0344-.2194-3.0344-2.2862,0-1.9734,1.6033-2.5258,3.1818-2.8014.4759-.0855.9765-.15,1.4592-.2115a8.9561,8.9561,0,0,0,3.25-.7943h0V71.51C66.3558,72.8875,65.0406,75.0859,61.5,75.0859Z" transform="translate(-15.8692 -9.9182)"/><path class="cls-1" d="M153.3938,77.3158V54.5578h-2.9331v8.2276a6.4149,6.4149,0,0,0-5.2169-2.3908c-4.58,0-7.5617,3.3674-7.5617,8.6a9.7079,9.7079,0,0,0,1.916,6.0945,7.0257,7.0257,0,0,0,5.7222,2.6023c2.3975,0,4.2426-.8674,5.1393-2.3716v1.997h2.9342m-7.69-2.231c-3.409,0-4.93-2.9725-4.93-5.9,0-1.8541.4636-6.19,4.776-6.19,4.64,0,5.0021,4.6454,5.0021,6.0619C150.553,71.9649,149.2794,75.0859,145.7039,75.0859Z" transform="translate(-15.8692 -9.9182)"/><path class="cls-1" d="M105.2935,72.1809a3.799,3.799,0,0,1-4.0458,2.905A4.8975,4.8975,0,0,1,97.6149,73.72a5.2519,5.2519,0,0,1-1.3175-3.7544h12.1913l.01-.117a10.2868,10.2868,0,0,0-2.4177-7.4277,6.7716,6.7716,0,0,0-5.0831-2.0263c-4.5093,0-7.7844,3.6093-7.7844,8.6.1744,5.5343,3.0726,8.6957,7.9419,8.6957,3.7274,0,6.29-2.0026,7.0553-5.51h-2.9173m-4.4564-9.1851a4.5755,4.5755,0,0,1,4.561,4.3687H96.312A4.4952,4.4952,0,0,1,100.8371,62.9958Z" transform="translate(-15.8692 -9.9182)"/><path class="cls-1" d="M132.5709,72.2192a3.8142,3.8142,0,0,1-4.0446,2.8667,4.8726,4.8726,0,0,1-3.6216-1.3659,5.1666,5.1666,0,0,1-1.3366-3.7544h12.2l.0079-.117a10.2864,10.2864,0,0,0-2.4167-7.4277,6.7691,6.7691,0,0,0-5.082-2.0263c-4.5216,0-7.78,3.6093-7.78,8.6.1688,5.5343,3.0614,8.6957,7.9386,8.6957,3.7228,0,6.2711-1.988,7.0441-5.4712h-2.91m-4.4542-9.2234a4.5888,4.5888,0,0,1,4.569,4.3687H123.58A4.5146,4.5146,0,0,1,128.1167,62.9958Z" transform="translate(-15.8692 -9.9182)"/><path class="cls-1" d="M76.4432,77.3281V69.9375c0-4.42,1.84-6.47,5.7795-6.47h.1215V60.398l-.117-.0022a5.9233,5.9233,0,0,0-5.9392,3.5473V60.75H73.5225V77.327h2.9207" transform="translate(-15.8692 -9.9182)"/><path class="cls-1" d="M114.2986,77.3158V69.9364c0-4.42,1.8282-6.47,5.7772-6.47h.12V60.3969l-.1158-.0023a5.9177,5.9177,0,0,0-5.94,3.5474V60.758h-2.7632V77.3146h2.9218" transform="translate(-15.8692 -9.9182)"/><path class="cls-1" d="M91.7408,74.7292H89.6662c-1.4007,0-1.9768-.8888-1.9768-2.1916V63.366h4.0514V60.7727H87.6894V55.8865H84.7676V72.4971c0,3.5248,1.7675,5.0234,4.8952,5.0234h2.078V74.7292" transform="translate(-15.8692 -9.9182)"/><path class="cls-2" d="M181.3722,83.5262a11.1564,11.1564,0,0,1-5.7087,1.8991,9.4122,9.4122,0,0,1-9.2717-8.8768l9.5879-5.7132L190.8858,77.5l-9.5136,6.0259" transform="translate(-15.8692 -9.9182)"/><path class="cls-3" d="M187.0729,58.9827l-7.1206-3.1367c-3.1828-1.4233-6.1868-2.6068-6.1868-6.11a4.8683,4.8683,0,0,1,1.421-3.7128l15.0648,6.64-3.7353,2.1557c-1.0283.6323-1.74,1.1858-1.74,1.9779-.0011.8584.9766,1.5874,2.2974,2.186" transform="translate(-15.8692 -9.9182)"/><path class="cls-2" d="M194.07,26.1159l-7.3028,4.43c-.6469.3915-1.5144,1.0238-1.5144,1.9959,0,1.1048,1.6854,1.952,3.1829,2.6653L179.3,31.1765c-2.6923-1.1847-5.3768-2.53-5.3768-5.775a5.9669,5.9669,0,0,1,1.0272-3.4146L194.7,9.9182a8.97,8.97,0,0,1,4.6634,7.6966c0,3.895-1.9734,6.5041-5.2935,8.5011" transform="translate(-15.8692 -9.9182)"/><path class="cls-3" d="M209.6,40.3886l-1.8137,1.026-15.0861-6.6593,17.5366-10.5566a9.0135,9.0135,0,0,1,4.6859,7.69c0,3.8962-1.9194,6.5817-5.3227,8.5" transform="translate(-15.8692 -9.9182)"/><path class="cls-2" d="M196.8655,53.1964l8.9241,3.92c3.3438,1.4986,4.371,3.2559,4.371,5.4768a4.6525,4.6525,0,0,1-1.7372,3.3989l-15.0062-6.665,2.5393-1.4232c2.1466-1.1869,2.86-1.8991,2.86-2.69-.0011-.8191-.5018-1.36-1.9509-2.0173" transform="translate(-15.8692 -9.9182)"/><path class="cls-4" d="M212.77,86.1363C208.9736,83.2112,204.9233,81.2344,200,79L177.2442,68.9328c-5.7176-2.5494-9.5091-5.9449-9.5091-11.66,0-5.5557,2.6912-8.2468,6.1868-10.4565l1.2635-.792a4.8719,4.8719,0,0,0-1.421,3.7127c0,3.5024,3.0039,4.6871,6.1868,6.11l26.473,11.6659c4.606,1.9779,8.8194,5.3778,8.8194,11.1709a11.8764,11.8764,0,0,1-2.474,7.4524" transform="translate(-15.8692 -9.9182)"/><path class="cls-1" d="M210.0829,64.9613l-1.6606,1.0317a4.653,4.653,0,0,0,1.7371-3.4011c0-2.2175-1.0305-3.976-4.3709-5.4746l-28.308-12.4591c-5.7142-2.5269-9.2728-5.79-9.2728-11.4814,0-5.2394,2.609-8.6619,6.7414-11.1877a5.9586,5.9586,0,0,0-1.0272,3.4146c0,3.2447,2.6856,4.59,5.3768,5.775l27.517,12.1373c5.0021,2.2164,9.0535,5.5556,9.0535,11.6648.0011,4.7624-2.2277,7.7664-5.7863,9.98" transform="translate(-15.8692 -9.9182)"/></svg>