<svg id="Layer_1" data-name="Layer 1" xmlns="http://www.w3.org/2000/svg" xmlns:xlink="http://www.w3.org/1999/xlink" width="200" height="44.2019" viewBox="0 0 200 44.2019"><defs><style>.cls-1,.cls-2{fill:#f25b1b;}.cls-2{clip-path:url(#clip-path);}.cls-3{clip-path:url(#clip-path-2);}.cls-4{clip-path:url(#clip-path-3);}.cls-5{clip-path:url(#clip-path-4);}.cls-6{clip-path:url(#clip-path-5);}.cls-7{clip-path:url(#clip-path-6);}.cls-8{clip-path:url(#clip-path-7);}.cls-9{clip-path:url(#clip-path-8);}.cls-10{clip-path:url(#clip-path-9);}.cls-11{clip-path:url(#clip-path-10);}</style><clipPath id="clip-path"><path class="cls-1" d="M258.1769,99.0949a.9456.9456,0,0,1-.3249-1.2659c.2353-.2927.7916-.374,1.3372.0674.531.4307.6406.9479.3655,1.2859a.689.689,0,0,1-.554.249,1.3418,1.3418,0,0,1-.8238-.3364m-.5754-1.4743a1.44,1.44,0,0,0,2.2237,1.7617,1.2433,1.2433,0,0,0-.3793-1.7955,1.5142,1.5142,0,0,0-.9586-.3678,1.1386,1.1386,0,0,0-.8858.4016"/></clipPath><clipPath id="clip-path-2" transform="translate(-68.8999 -66.5241)"><path class="cls-2" d="M258.9366,99.92a1.741,1.741,0,0,1-1.09-.4267,1.4074,1.4074,0,0,1-.3433-1.9523h0a1.2732,1.2732,0,0,1,.9842-.4475,1.6478,1.6478,0,0,1,1.0378.3954,1.3724,1.3724,0,0,1,.3979,1.9731A1.2588,1.2588,0,0,1,258.9366,99.92ZM257.699,97.7a1.3172,1.3172,0,0,0,2.0285,1.6033,1.1237,1.1237,0,0,0-.361-1.6186,1.4,1.4,0,0,0-.879-.3393,1.019,1.019,0,0,0-.7885.3546Zm1.3018,1.8575a1.4625,1.4625,0,0,1-.9031-.3641h0a1.3344,1.3344,0,0,1-.4813-.7459.83.83,0,0,1,.138-.6978.8021.8021,0,0,1,.5486-.2823,1.3253,1.3253,0,0,1,.9657.3312,1.3757,1.3757,0,0,1,.5534.8855.7679.7679,0,0,1-.1692.5775A.817.817,0,0,1,259.0008,99.5572Zm-.59-1.8439c-.0273,0-.0546.0016-.0818.004a.5538.5538,0,0,0-.3786.19.5815.5815,0,0,0-.0874.4876,1.0761,1.0761,0,0,0,.393.6024h0c.4427.3593.9576.4042,1.2007.1051a.528.528,0,0,0,.1147-.393,1.3248,1.3248,0,0,0-1.1606-.9962Z"/></clipPath><clipPath id="clip-path-3" transform="translate(-68.8999 -66.5241)"><path class="cls-1" d="M256.3484,102.6805l-.02-.0016a.2019.2019,0,0,1-.1388-.0746l-.1427-.1821a.2625.2625,0,0,1-.04-.2165l.2631-1.1967a3.1657,3.1657,0,0,0,.109-.5422.4369.4369,0,0,0-.3721-.4147c-.0161-.0016-.0313-.0024-.0457-.0024a.4413.4413,0,0,0-.4115.2831,1.2119,1.2119,0,0,0-.0441.2776.23.23,0,0,1-.239.2229h-.0024a2.0247,2.0247,0,0,1-.2543-.0224.2164.2164,0,0,1-.142-.0842.2107.2107,0,0,1-.0328-.17.3517.3517,0,0,0,.0064-.0433,1.1527,1.1527,0,0,1,.4708-.7876h0a.9437.9437,0,0,1,1.1373-.1725A1.1036,1.1036,0,0,1,257,100.567c-.0072.0634-.1949.8607-.2767,1.163l.8181-.6416a.1879.1879,0,0,1,.1428-.0417.2093.2093,0,0,1,.1412.0778l.0986.1259a.2047.2047,0,0,1-.0361.2831l-1.4164,1.1029A.191.191,0,0,1,256.3484,102.6805Zm-.0321-.2422-.004.0024Zm1.3851-1.1542-.004.0032Z"/></clipPath><clipPath id="clip-path-4" transform="translate(-68.8999 -66.5241)"><path class="cls-1" d="M253.5876,104.1282a.99.99,0,0,1-.2879-.04.7037.7037,0,0,1-.4331-.3393.9264.9264,0,0,1,.0513-.87.767.767,0,0,1-.6208-.3882.7334.7334,0,0,1-.0473-.5639,1.141,1.141,0,0,1,.5663-.6576l.0016-.0009a.9682.9682,0,0,1,1.3073.2439.7736.7736,0,0,1-.0272.7379.8992.8992,0,0,1,.782.4187c.22.417-.0522.9793-.6184,1.28A1.4378,1.4378,0,0,1,253.5876,104.1282Zm-.22-.7291a.3713.3713,0,0,0,.3441.1765h.0024a.6492.6492,0,0,0,.3064-.081.483.483,0,0,0,.2831-.5984.5574.5574,0,0,0-.936.5029Zm-.0882-1.7485a.4957.4957,0,0,0-.23.0586.4752.4752,0,0,0-.223.2526.3584.3584,0,0,0,.0168.2936l.0008.0016a.4291.4291,0,0,0,.57.1283.4191.4191,0,0,0,.2069-.5478A.3791.3791,0,0,0,253.28,101.6506Z"/></clipPath><clipPath id="clip-path-5" transform="translate(-68.8999 -66.5241)"><path class="cls-1" d="M251.3338,105.0129a.2006.2006,0,0,1-.1933-.1436l-.5686-1.953a.2877.2877,0,0,0-.0209-.0778.9349.9349,0,0,1-.2173.1484.2268.2268,0,0,1-.3241-.0289l-.0794-.1363a.2063.2063,0,0,1-.0216-.1532.2.2,0,0,1,.0938-.1236,5.4187,5.4187,0,0,1,.6216-.385l.2262-.0633h.0064a.2088.2088,0,0,1,.21.1355l.7154,2.4479a.2045.2045,0,0,1-.14.2519l-.2534.0738A.218.218,0,0,1,251.3338,105.0129Zm-1.195-2.2562-.0016.0016Zm.0088-.0626.0008.0016Z"/></clipPath><clipPath id="clip-path-6" transform="translate(-68.8999 -66.5241)"><path class="cls-1" d="M247.1454,102.731a.2033.2033,0,0,1,.1468.0666.1948.1948,0,0,1,.0514.1444l-.0041.1427a.2031.2031,0,0,1-.2045.1957l-1.42-.0385-.0177.6369,1.2095.0353a.2044.2044,0,0,1,.1957.2037l-.0032.1516a.2033.2033,0,0,1-.2037.1981l-1.2127-.0337-.0177.6489,1.43.0393a.2025.2025,0,0,1,.1957.2085l-.004.1468a.2.2,0,0,1-.0642.1428.1944.1944,0,0,1-.1347.0545h-.008l-1.9049-.0529a.2011.2011,0,0,1-.1428-.0642.1988.1988,0,0,1-.0529-.1452l.0722-2.5369a.1963.1963,0,0,1,.1146-.1765m1.8689,2.772v0Zm.0521-.0481h0Zm-1.856-.0025Zm1.8079-.0978v0Zm-1.3756-.1925v0Zm-.0521-.0489h0Zm.0217-.6489h0Zm.05-.05v0Zm-.0377-.5053h0Zm.02-.6369h0Zm1.4213-.162v0Zm.004-.1468v0Zm-1.8367,0h0Zm-.0016-.1259Z"/></clipPath><clipPath id="clip-path-7" transform="translate(-68.8999 -66.5241)"><path class="cls-1" d="M242.8311,105.2118a1.9649,1.9649,0,0,1-.4628-.0593,1.5273,1.5273,0,0,1,.3674-3,1.5554,1.5554,0,0,1,.3128.03,1.6475,1.6475,0,0,1,.928.527.4506.4506,0,0,1,.0714.101.2124.2124,0,0,1-.0586.2687l-.1636.1043a.1936.1936,0,0,1-.158.0321.1846.1846,0,0,1-.1227-.0915.94.94,0,0,0-1.26-.26.9724.9724,0,0,0-.33,1.325.9438.9438,0,0,0,.5879.4355,1.0531,1.0531,0,0,0,.6352-.05.1974.1974,0,0,1,.2743.073l.0859.1419a.2073.2073,0,0,1-.0786.2783l-.0281.0169A1.44,1.44,0,0,1,242.8311,105.2118Zm.8558-2.2394-.0024.0024Zm.138-.0457.0016.004Z"/></clipPath><clipPath id="clip-path-8" transform="translate(-68.8999 -66.5241)"><path class="cls-1" d="M239.4841,104.0737a.1953.1953,0,0,1-.1035-.0289l-.2358-.1291a.29.29,0,0,1-.12-.2142l-.3184-2.0837-.0072-.01c.0024.0105-.012.0233-.0185.0305l-.7547,1.3691a.2106.2106,0,0,1-.2751.08l-.308-.1724a.2015.2015,0,0,1-.0754-.2775l1.2215-2.2025a.2075.2075,0,0,1,.2736-.081l.3063.1724a.26.26,0,0,1,.1268.2062l.324,2.1511c.0241-.05.0553-.12.08-.1805l.6729-1.276a.2048.2048,0,0,1,.2752-.081l.2558.1411a.2017.2017,0,0,1,.0786.2767l-1.2247,2.2049a.1937.1937,0,0,1-.1212.0971A.2.2,0,0,1,239.4841,104.0737Zm-.0465-.2262-.0016.0032Zm.0666-.0225.0032.0016Zm-2.0156-1.0635-.0008.0016Zm3.1745-1.12h0Z"/></clipPath><clipPath id="clip-path-9" transform="translate(-68.8999 -66.5241)"><path class="cls-1" d="M235.8748,101.6972a.1982.1982,0,0,1-.1347-.0522l-.2519-.22a.2038.2038,0,0,1-.069-.14.199.199,0,0,1,.049-.146l1.6514-1.9025a.2022.2022,0,0,1,.1508-.0658h.008a.19.19,0,0,1,.126.0482l.255.2221a.2027.2027,0,0,1,.0257.2784l-1.6579,1.9073a.2038.2038,0,0,1-.142.07Zm.0321-.2415.0016.0008Zm-.2486-.15Zm1.58-1.896h0Z"/></clipPath><clipPath id="clip-path-10" transform="translate(-68.8999 -66.5241)"><path class="cls-1" d="M234.4624,100.0184a.627.627,0,0,1-.069-.004,1.1457,1.1457,0,0,1-.9272-.5823,1.7617,1.7617,0,0,1-.3321-.8349l-.0048-.0554a.2116.2116,0,0,1,.1741-.2205l.1764-.0321a.1909.1909,0,0,1,.1476.0385.2018.2018,0,0,1,.0778.1371l.01.0738c.0746.774.539.8638.5583.8671a.26.26,0,0,0,.2374-.07.3636.3636,0,0,0,.0361-.4131l-.012-.0313c-.0121-.0337-.1236-.2687-.2246-.4756a1.3686,1.3686,0,0,1-.1412-.5478.7679.7679,0,0,1,.3914-.681.7415.7415,0,0,1,.3922-.0986,1.2067,1.2067,0,0,1,.3008.04c.7427.1716.95,1.1253.9585,1.1662l.01.0714a.2032.2032,0,0,1-.1732.2278l-.1861.0224a.1932.1932,0,0,1-.1492-.0377.2.2,0,0,1-.0786-.1363l-.0088-.069h0s-.0963-.5214-.442-.6617a.2819.2819,0,0,0-.2943.0329.2621.2621,0,0,0-.0682.2294.8477.8477,0,0,0,.1107.3537,2.8527,2.8527,0,0,1,.2775.6079.8823.8823,0,0,1-.1781.8294A.7527.7527,0,0,1,234.4624,100.0184Zm-1.1077-1.4509-.0032.0008Zm.1612-.0289-.0024.0008Zm-.0609-.0425v0Zm2.431-.085v0Zm-.0569-.0449-.004.0008Z"/></clipPath></defs><title>Swedbank</title><path class="cls-1" d="M246.7693,110.726a22.101,22.101,0,1,1,.0168-44.2019h.02a22.101,22.101,0,1,1-.0249,44.2019Zm.0168-42.5592A20.5119,20.5119,0,0,0,226.3182,88.58a20.41,20.41,0,0,0,20.4511,20.5032h.0112a20.51,20.51,0,0,0,20.4768-20.44,20.4863,20.4863,0,0,0-20.4527-20.4767h-.0185Z" transform="translate(-68.8999 -66.5241)"/><path class="cls-1" d="M264.058,90.5673a2.1933,2.1933,0,0,0-1.3386-1.3253.6917.6917,0,0,0-.8722.0813c-.1819.1889-.4966.2542-.6349.0484-.2286-.34-.63-.3388-.9155-.5656.0792-.3594.3512-.4607.6319-.5361.2789-.0749.575-.097.8438-.1957.3589-.1318.7838-.2159.793-.744a.9487.9487,0,0,0-.58-1.02.8621.8621,0,0,1-.5778-.7633c-.0239-.16-.0383-.3748-.276-.4568-.3487.007-.605.5648-1.0294.2481-.0962-.2245.0321-.3813.0964-.5476.2547-.66.2549-.655-.389-1.0012-.2195-.1181-.5115-.1731-.531-.525.0618-.0731.1261-.1555.1969-.2319.7185-.7758.5944-1.3859-.3859-1.8138a3.0062,3.0062,0,0,1-.9857-.48,1.599,1.599,0,0,0-2.0195-.4079c-.0217.0108-.08-.0522-.1482-.0989-.0585-.4046.2784-.7647.2255-1.2291-.6385-.1293-.7988-.6716-1.12-1.14a5.0226,5.0226,0,0,1-1.0145-2.6492.5945.5945,0,0,0-.2806-.4515,3.7353,3.7353,0,0,0-1.36-.7372c-.2827.163-.3509.6362-.737.5453-.6094-.1435-1.3264-.0552-1.7073-.7667-.12-.2237-.2811-.4384-.4179-.6614s-.3384-.5969-.55-.4828c-.5518.2978-1.0906-.2311-1.5989.0691-.0816.0482-.1211.1668-.1813.2519-.1048.148-.17.332-.4136.4131-.3944-.2769-.8246-.6411-1.3144-.0693-.1.1168-.2975.0735-.4509.0137a1.0828,1.0828,0,0,0-1.0435.1728,1.1115,1.1115,0,0,1-.4277.1912,2.2242,2.2242,0,0,0-1.9144,1.3242c-.1115.2576-.3442.2824-.6055.2167a.4772.4772,0,0,0-.6075.36,1.1209,1.1209,0,0,1-.3071.5412.813.813,0,0,0-.1962,1.1138,1.5455,1.5455,0,0,1-.2467,1.6938c-.3524-.0247-.4673-.2529-.6043-.4365-.1562-.2093-.3936-.2791-.5431-.1246-.4884.5045-1.3992.7495-1.1165,1.7619.1.3571-.0493.6184-.4687.5993-.3918-.2078-.1792-.7206-.5068-.9413a2.921,2.921,0,0,0-1.862.8651c-.1.38.1092.7843-.0819,1.1681a1.21,1.21,0,0,1-.2063.1c-.7133.1951-.6577.184-.5356.8725.0808.4551.3793.8578.3367,1.3434-.0935.0445-.165.1106-.23.1045-.5564-.052-.556.3428-.6037.7171-.0568.4461.2587.5146.5734.5917a3.0613,3.0613,0,0,1,.3068.07c.5143.1846.6015.4046.25.7951a3.2454,3.2454,0,0,1-.7344.7738c-.2945-.2262-.1708-.6473-.4967-.8174a1.79,1.79,0,0,0-.7081.24c-.2059.2629.0912.756-.4314.8407-.298-.0832-.3326-.48-.6845-.5524-.5988.1606-.7409.6865-.8953,1.1719.18.3444.6507.19.7662.5692-.3226.4879-1.0261.3093-1.3919.967-.3483.6261.12,1.2151-.3361,1.68.5569.3866.9421.1847,1.2885-.2635.6515.5336,1.2053.193,1.7345-.1618a.8293.8293,0,0,1,1.2266.0958c-.0129.3376-.3027.5931-.17.9219,1.5411.62,1.5411.62,2.6342.0244a2.0539,2.0539,0,0,1,.6389.4465.5974.5974,0,0,0,.57.1928,1.907,1.907,0,0,1,1.3042-.0887.3018.3018,0,0,0,.3642-.2376c.1615-.845.7759-.7131,1.35-.6281a1.9022,1.9022,0,0,0,1.6287-.4025c-.3282-.2214-.6228-.4242-.486-.8425a.7669.7669,0,0,1,.8108-.5079,3.3173,3.3173,0,0,0,1.2413-.4562,1.2286,1.2286,0,0,1,.491,1.2613,23.9347,23.9347,0,0,1-.39,2.5685A2.24,2.24,0,0,1,241.9,95.26a3.9288,3.9288,0,0,0-.9948.4646c-.1367.0748-.3647.12-.2874.4039a14.0863,14.0863,0,0,1,3.3331-.09c-.011.5354-.3353.8578-.2384,1.3825a5.1092,5.1092,0,0,1,6.07.0358c.2472-.5232-.2481-.8408-.178-1.332a13.0412,13.0412,0,0,1,3.5038,0,7.4579,7.4579,0,0,0-2.02-1.0563,1.6078,1.6078,0,0,1-1.037-1.0848,19.0094,19.0094,0,0,1-.6116-3.1654,2.0251,2.0251,0,0,1,.126-.93c.1273-.3782.3108-.4829.7094-.3052a1.9484,1.9484,0,0,1,1.1981,1.2489c.2579.8163.5173.9175,1.35.772.6359-.1111,1.2645-.1875,1.6131.4712.4205.01.4923-.47.8395-.4514a.7417.7417,0,0,1,.1446.0947c.725.8033.7245.8036,1.5649.1077a.9773.9773,0,0,1,1.3645-.02,1.9177,1.9177,0,0,0,2.1668.425c.0389-.009.0681-.059.0951-.0838.02-.1694-.244-.22-.1426-.4238a1.4879,1.4879,0,0,1,.6923-.2633,1.1294,1.1294,0,0,0,1.7235.0551,1.0092,1.0092,0,0,1,.7064-.2571C264.044,91.2438,264.175,91,264.058,90.5673ZM261.1033,86.84c.3686.0214.5183.2054.56.61C261.0647,87.5437,260.9582,87.3214,261.1033,86.84Zm-28.5948,2.9166a1.5651,1.5651,0,0,1-.8342.54c-.32-.1851-.4057-.4932-.165-.7068a1.0253,1.0253,0,0,1,.9309-.2758C232.6612,89.3776,232.6569,89.5978,232.5085,89.7562ZM259.26,85.3911a1.8224,1.8224,0,0,0,.7246,1.0013c.585.5115.5583,1.0461-.0731,1.5875-.0083-.65-.0083-.65-1.1363-1.78A1.0539,1.0539,0,0,1,259.26,85.3911Zm.1336,3.8027c-.6048.0822-.6125-.2994-.6816-.8C259.1708,88.55,259.376,88.7568,259.3938,89.1938Zm-.8383-5.7125a.7835.7835,0,0,1-.7542-.5436,3.7684,3.7684,0,0,0-.5626-1.366c-.3457-.3585-.8983-.2338-1.3318-.4813C257.2536,80.3553,258.5327,81.5147,258.5555,83.4813Zm-2.1577-1.332c.574.4152.6472.6246.5436,1.4676-.1332.1286-.2924.05-.441.0464-.1272-.003-.2541-.02-.471-.0391A1.709,1.709,0,0,0,256.3978,82.1493Zm.4622,2.8591c-.0324.9543-1.0532.7088-1.4091,1.2571C255.6165,85.2135,256.0158,84.8806,256.86,85.0084Zm-1.8636-5.3463c-.0408.4515-.3624.643-.7808.8848C254.1149,79.6348,254.254,79.494,254.9964,79.6621Zm.3717,1.8335c-.94,0-1.5563.9009-2.51.7916-.3161-.0362-.3646.44-.7323.4706a.559.559,0,0,1-.0794-.7457c.3741-.3643.6181-.8269.958-1.1961.3737.139.0751.52.3149.6806C253.9957,81.3651,254.6632,80.9219,255.3681,81.4956Zm-.1279,1.5c.01.315-.4091.8852-.6439.87-.192-.0122-.2544-.1362-.2594-.3125-.0114-.3956.334-.8783.6209-.8541A.2707.2707,0,0,1,255.24,82.9958Zm-7.2739,2.73a.5649.5649,0,0,0,.2467-.3867.8839.8839,0,0,0,.0132-.1562c.017-.6.8727-.4011.9186-.943.0407-.4794.1486-.8694.6988-.964a.2471.2471,0,0,1,.2662.0621,1.9264,1.9264,0,0,1-.6509,1.7637,2.3716,2.3716,0,0,0-.4952.76,4.7,4.7,0,0,1-1.381,1.67C247.4561,86.803,247.2235,86.17,247.9663,85.7256Zm-.8811-3.9409c-.1687-.2539-.097-.5519.3075-.6793.2716.3046.3375.7728.7792.9741.2926.0276.3592-.4094.6977-.4087a.5035.5035,0,0,1,.0166.6269c-.2815.4038-.4158.9211-.8205,1.22-.2869.2116-.4781-.099-.4806-.3038A2.5587,2.5587,0,0,0,247.0852,81.7847Zm2.6336-4.3863c.3141-.3855.6442-.5076.9952-.1531.3256.3288.2358.7425-.2228,1.1062Zm1.1732,3.2293a.8187.8187,0,0,0,.2876-.769c-.0084-.2395-.0186-.5026.3151-.5144.2759-.01.3348.1911.317.4253-.0143.1875.225.2975.1328.5631a1.6791,1.6791,0,0,0-.9316,1.2839c-.0162.1955-.2125.2726-.44.2626C250.48,81.41,250.4208,80.9622,250.892,80.6277Zm.9015-2.7984c.9791-.2142,1.1285-.1245,1.1545.6736.0078.2386.1973.43.098.8457C252.4172,78.9421,252.2433,78.3207,251.7935,77.8293Zm.9574,5.8839c.0058.4041-.3832.7268-.9229.7466a.89.89,0,0,1,.5145-1.0133C252.5925,83.2977,252.7471,83.4479,252.7509,83.7132ZM249.76,75.3059a.3687.3687,0,0,1,.5476-.1213,4.2129,4.2129,0,0,1,.5995.4842c.1613-.1309.2775-.2349.4032-.3257.742-.5368,1.2107-.4493,1.6511.34a3.3263,3.3263,0,0,0,.5969.7143,1.1681,1.1681,0,0,1,.1881,1.5982c-.3923-.2521-.2349-.7932-.5335-1.0465-.2723-.178-.5458.1315-.7812-.0769a.4883.4883,0,0,1-.0765-.135c-.0519-.274.2918-.602-.1379-.829a.6792.6792,0,0,0-.9062.1662,2.0163,2.0163,0,0,1-1.53-.17A.551.551,0,0,1,249.76,75.3059Zm-.3391,5.0467a3.63,3.63,0,0,0-2.2228-2.2956c.2307-.4339.5-.4152.854-.2352C249.5166,78.5656,249.7771,78.9984,249.421,80.3526Zm-1.3641-3.9741c.2572-.557.437-.56.93.0042A.9242.9242,0,0,1,248.0569,76.3785Zm.7191-2.9106c.23.0636.4436.1994.3344.5-.1007.2777-.3395.301-.5776.2323a.7139.7139,0,0,1-.5043-.567A.6184.6184,0,0,1,248.776,73.4679ZM244.349,75.84a4.8366,4.8366,0,0,0,.4152-1.3906.467.467,0,0,1,.5165-.2489c.2655.153.1141.5411.4832.6647a.8645.8645,0,0,1,1.286-.0425c.2181.1874.5358-.0983.8145-.163a.4509.4509,0,0,1-.0365.7062,1.6143,1.6143,0,0,1-1.5811-.0835c-.3438.5784-1.2285.306-1.4943.9988a.94.94,0,0,1-.1962-.0558C244.4115,76.1361,244.2761,75.9452,244.349,75.84Zm1.9384,1.363a2.928,2.928,0,0,0-.8891,1.8865,1.2835,1.2835,0,0,1-.2042-1.67C245.3692,77.029,245.7627,77.2021,246.2874,77.2032Zm-2.1606,3.4417c.4253.0093.5891.3147.7949.5312a.3535.3535,0,0,1-.05.554.3733.3733,0,0,1-.59-.166A.9507.9507,0,0,1,244.1268,80.6449Zm.1308,4.7432a.8989.8989,0,0,0,.6769.349c.3107-.0252.5795-.11.43-.52a.52.52,0,0,1-.0133-.4554c.2372-.4039.0888-.6339-.3159-.773-.1722-.0592-.3516-.1153-.3477-.359.0038-.246.1605-.3049.3594-.323.2723-.0248.4013-.214.5177-.4292a.6538.6538,0,0,1,.6781-.4486,2.97,2.97,0,0,0,.4624,1.8241.4733.4733,0,0,1,.0054.5292,4.8667,4.8667,0,0,0-.6768,2.0686,2.3081,2.3081,0,0,1-.18.3927,28.851,28.851,0,0,0-3.8989-2.3677c.5771-.6394.8994-.6945,1.4926-.2313C243.7352,84.8693,243.989,85.1382,244.2576,85.3881Zm-.9122-5.8995a.937.937,0,0,1-.4936-1.3387.2879.2879,0,0,1,.3368-.1228c.13.0408.2974.2043.2573.2414C243.0328,78.6508,243.6634,79.1125,243.3454,79.4886Zm-.46,1.1374c-.5459.2965-.5459.2965-1.2131-.5338C242.2847,79.8689,242.5106,79.9775,242.8853,80.626Zm-.7024,2.2862a3.1541,3.1541,0,0,1-1.4953-.4209.4135.4135,0,0,1-.2251-.4655c.0632-.1931.2495-.2439.4453-.2653C241.5013,81.6956,241.8965,82.0242,242.1829,82.9122Zm1.6319-6.3191c.2708.259.079.4427-.09.5779-.2162.1731-.426.1136-.5826-.1416A.9736.9736,0,0,1,243.8148,76.5931Zm-2.5952-.44c.588-.0532.588-.0532,1.52-.7809.3611.5761.3611.5761-1.0486,1.3625.1176.4887-.3367,1.0176.1308,1.4868-.2649.2066-.392.1189-.5285-.1086A1.6513,1.6513,0,0,1,241.22,76.1535Zm-3.6636,5.1827a1.612,1.612,0,0,0,.5315-.1071c.29-.1676.4931-.3286.4074-.7376-.1166-.5566.2581-1.0333.7316-.8632.5651.2031.8234-.0953,1.1486-.38.36-.315.5949-.1755.7967.1667a3.4739,3.4739,0,0,1-2.1482,1.0586c.0592.382.3936.52.4164.8991a4.3026,4.3026,0,0,0-1.6674.67c-.2113.123-.4912.2043-.58-.1182A.4513.4513,0,0,1,237.556,81.3362Zm.4013,1.3294a1.0093,1.0093,0,0,1,1.3474.1189.5223.5223,0,0,1-.5377.3086,1.2992,1.2992,0,0,0-.9576.4743.8274.8274,0,0,1-.8411.3261,1.1345,1.1345,0,0,0-1.414.529c-.0451.072-.1812.0871-.2821.1315a1.1388,1.1388,0,0,1,1.0391-1.2842A2.7507,2.7507,0,0,0,237.9573,82.6656Zm-.0063,6.32a1.19,1.19,0,0,1-.0088,1.1653C237.4436,89.7917,237.4436,89.6,237.951,88.9859Zm-1.0967-3.4119c-.0985-.0044-.1964.0213-.2462-.0163-.2129-.1609-.5315-.2741-.4042-.6393a.1841.1841,0,0,1,.2608-.0931C236.7549,84.9845,237.0771,85.1357,236.8543,85.574ZM235.2613,81.5a.3008.3008,0,0,1,.4683-.0705,1.0824,1.0824,0,0,1,.4457.6038.6616.6616,0,0,1-.7973-.0791C235.1984,81.8346,235.1345,81.6788,235.2613,81.5Zm-.77,5.936a2.1528,2.1528,0,0,0,.7183-1.5129.7236.7236,0,0,1,.2406.9808c-.2277.5328-.7391.8987-.86,1.5346C234.1312,88.0564,234.152,87.7348,234.4915,87.4361Zm-.0066,3.1071c-.07-.4755-.5292-.46-.7316-.7828.107-.2334.1879-.4069.4276-.2874a1.2655,1.2655,0,0,1,.3274.21c.4449.4371.435,1.2263,1.2766,1.36C234.814,91.4135,234.6013,91.3385,234.4849,90.5432Zm1.5859-.3517a1.9489,1.9489,0,0,1-.79-.7536c.1255-.3442.3394-.5485.6525-.3463C236.3439,89.3572,236.1815,89.75,236.0708,90.1915Zm.31-1.9046c-.5089-.3806-.5037-.7183.093-1.3356.2194.3025.4156.5429.5768.8046a.4292.4292,0,0,1-.0981.6263C236.75,88.5227,236.5581,88.42,236.38,88.2869Zm.5083,2.7976a1.3345,1.3345,0,0,1,1.6434.1735A.96.96,0,0,1,236.8887,91.0845Zm.9492-4.9171c.1654-.4267.4975-.4152.8037-.42a.6846.6846,0,0,0,.628-.369c.31-.4984.4039-.48.8258.0852A1.84,1.84,0,0,1,237.8379,86.1674Zm2.2937,4.6619c-.1669.2153-.41.13-.64-.087.287-.8706.287-.8706.6882-1.0763C240.1465,90.08,240.4075,90.4734,240.1316,90.8293Zm3.07-2.772a1.7449,1.7449,0,0,0-1.5376.3563c-.5821.4354-.83.441-1.4634.0324a2.9282,2.9282,0,0,0-.7956-.3254c-.2249-.065-.31-.1728-.2036-.432a1.6858,1.6858,0,0,1,1.3669.2249c.28-.2634.5891-.55,1.003-.4257.2184-.1764.1109-.46.3273-.5736.4184-.1987,1.6418.4305,2.399,1.2422C243.9019,88.4666,243.5358,88.133,243.2016,88.0573Zm1.6659,6.8432a2.8048,2.8048,0,0,1,.4783-1.4524C245.7356,94.0284,245.6145,94.45,244.8675,94.9005Zm1.9843-3.3982a7.322,7.322,0,0,1,.0394,1.5862,8.3715,8.3715,0,0,0,.2035,1.532C246.2751,94.1386,246.1592,92.38,246.8518,91.5023Zm1.6421,3.2386a4.4318,4.4318,0,0,1-.6552-2.1531,4.1256,4.1256,0,0,0-.1666-1.5525c-.22-.5233-.918-.37-1.3683-.603-.2029-.1049-.4755-.1008-.6591-.5262a24.3965,24.3965,0,0,0,3.0128.0634,7.8238,7.8238,0,0,0,.4044,5.0228C248.6832,95.1387,248.5853,94.9069,248.4939,94.7409Zm3.162-5.9473c.089-.3039.2272-.5669.533-.3941a.739.739,0,0,1,.3815.9755C252.0618,89.4445,251.9369,89.008,251.6559,88.7936Zm.893,2.0437c.2408-.4711.5094-.6619.99-.4652C253.3639,90.8558,253.1354,91.13,252.5489,90.8373Zm.6718-3.9016c-.5742.2155-.5551-.4209-.93-.67-.2556.3389-.4389.6332-.9133.6649-.4992.0333-.38.61-.5239.9739-.4914.2648-1.06.1575-1.5621.343-.11-.2868.0988-.3754.2123-.4991q.74-.8067,1.4973-1.598a1.7329,1.7329,0,0,1,2.0142-.286c.2265.1274.45.26.6843.3948C253.8043,86.6729,253.5274,86.8207,253.2207,86.9357Zm.2186-1.7336a3.0926,3.0926,0,0,1,1.2889-.5272C254.571,85.6691,254.2094,85.8067,253.4393,85.2021Zm.7808,4.2171a1.21,1.21,0,0,1,.8214-.8252C255.241,89.2573,254.9465,89.5447,254.22,89.4192Zm2.0217,1.6882c-.3652-.4158-.9421-.3627-1.4348-.6277.5885-.0932,1.1115-.517,1.7526-.2711A.7991.7991,0,0,1,256.2418,91.1074Zm1.1514-1.679c-.4888-.4026-.618-1.0348-1.0257-1.4634C257.3862,87.9979,257.8338,88.6553,257.3932,89.4284Zm.7452-5.344c.4457.18.4318.53.5525.8952a1.0576,1.0576,0,0,1-1.0836-.1487A1.739,1.739,0,0,1,258.1384,84.0844Zm-.5163,6.6007a.5161.5161,0,0,1,.7514-.3323,1.223,1.223,0,0,0,1.18-.1609.5931.5931,0,0,1,.8788.2057C259.317,91.2075,259.317,91.2075,257.6221,90.6851Zm4.5547.3926c-.2961.1306-.482-.0043-.5689-.3a.632.632,0,0,1,.6858-.266C262.4612,90.7464,262.4473,90.9584,262.1768,91.0777Z" transform="translate(-68.8999 -66.5241)"/><path class="cls-1" d="M93.07,94.4379,96.4341,83.6H99.49l3.3965,10.8215.1468-.0146,3.0969-10.74h3.5717C107.9992,89.1,106.3135,94.479,104.6209,99.88h-3.2031L97.95,88.8963,94.4564,99.8592H91.2441L86.2324,83.702h3.6615l3.0436,10.7413Zm-14.8064,5.6187A7.5935,7.5935,0,0,0,82.89,98.27c2.5749-2.1975,3.2288-7.81-1.3033-10.1273a20.9537,20.9537,0,0,0-4.079-1.4311,9.2888,9.2888,0,0,1-2.9711-1.2266,2.5685,2.5685,0,0,1,.2614-4.4763,3.842,3.842,0,0,1,1.8176-.46,8.0457,8.0457,0,0,1,4.1933,1.1975c.5116.2995,1.0015.6358,1.5335.9759L84.2733,79.89a10.9009,10.9009,0,0,0-9.5768-2.4035,6.1618,6.1618,0,0,0-4.9618,5.6175c-.2241,2.9636,1.0839,5.0056,4.0138,6.2668a25.6847,25.6847,0,0,0,3.5308,1.1019,9.04,9.04,0,0,1,2.6822,1.1051,2.6616,2.6616,0,0,1-.3749,4.7531,5.2618,5.2618,0,0,1-2.6228.39,9.2,9.2,0,0,1-5.1572-2.1525,2.4269,2.4269,0,0,0-.7675-.55L68.9,96.6547A12.4086,12.4086,0,0,0,78.2633,100.0566ZM212.65,90.209l6.1761-6.5669c-1.3831,0-2.5688.02-3.7532-.01a1.1951,1.1951,0,0,0-1.0119.4632q-2.734,3.0645-5.5053,6.096c-.1291.142-.2033.3782-.5338.3672V77.2594h-3.49V99.746H208.03c0-1.3418-.0022-2.6495.0019-3.9571.0009-.2581-.0662-.539.1337-.7566.6685-.7274,1.344-1.4485,2.0465-2.2041.2541.3713.4478.6511.6381.9332q1.8727,2.7765,3.7412,5.5561c.1813.2708.3354.4853.7323.4748,1.1843-.0313,2.37-.0112,3.72-.0112Zm-12.4643,7.0552c-.0014-2.63.03-5.26-.013-7.8885-.0553-3.4059-1.717-6.3479-6.3509-6.0668-1.3141.08-2.6336.0982-3.942.2451a30.3124,30.3124,0,0,0-3.6467.5062V99.7344h3.57V86.7665a21.2781,21.2781,0,0,1,3.6-.2364,2.9244,2.9244,0,0,1,2.7731,1.8609,5.2047,5.2047,0,0,1,.42,2.1466q-.01,4.22.0028,8.4408a1.2393,1.2393,0,0,0,.0918.78h3.4952C200.1857,98.884,200.1861,98.0741,200.1856,97.2642Zm-36.0213-1.3273a7.08,7.08,0,0,1-6.6371,4.1608,49.3812,49.3812,0,0,1-7.9768-.7072V77.2329h3.5084v7.493a.2873.2873,0,0,0,.356-.0437,7.1726,7.1726,0,0,1,11.2568,4.04A9.7117,9.7117,0,0,1,164.1643,95.9369Zm-2.9742-6.18c-1.1173-3.666-5.1441-4.0458-7.5018-2.0176a1.6805,1.6805,0,0,0-.6691,1.3569c.0217,2.4717.0092,4.9437.0092,7.5012a19.3529,19.3529,0,0,0,3.8266.2943,4.3245,4.3245,0,0,0,4.1672-2.8195A6.2715,6.2715,0,0,0,161.19,89.7572Zm-16.217-12.4895V99.3922a42.9667,42.9667,0,0,1-8.6059.6821,7.367,7.367,0,0,1-6.6673-5.99,10.3939,10.3939,0,0,1,.5011-6.3431,7.1593,7.1593,0,0,1,10.6813-3.2322.8138.8138,0,0,0,.5444.2557V77.2677ZM141.528,88.9049a1.3012,1.3012,0,0,0-.4195-.9023c-1.81-1.9436-5.8281-2.3433-7.4462.965a5.946,5.946,0,0,0,.0591,5.5339,4.1233,4.1233,0,0,0,3.7212,2.3833,20.1976,20.1976,0,0,0,4.0835-.275C141.5261,93.9941,141.5244,91.45,141.528,88.9049Zm40.419,10.2706c0,.0462-.0393.0925-.08.1826a17.6279,17.6279,0,0,1-2.6108.3793,46.3545,46.3545,0,0,1-6.0666.3655,5.6584,5.6584,0,0,1-3.9517-1.5152,5.1116,5.1116,0,0,1,1.1034-7.9676,6.61,6.61,0,0,1,2.6284-.7715,13.0375,13.0375,0,0,1,5.0749.471,2.6434,2.6434,0,0,0,.346.0575c.0955-2.2635-1.0927-3.534-3.3517-3.6742a11.1581,11.1581,0,0,0-4.8259.9651c-.4388-.9082-.6457-1.9009-1.0194-2.8922a10.8158,10.8158,0,0,1,3.3273-1.1488,11.5394,11.5394,0,0,1,4.8578.0144,5.52,5.52,0,0,1,4.4921,5.288C182.08,92.3413,181.9381,95.76,181.947,99.1755Zm-3.4463-6.0949a8.9324,8.9324,0,0,0-4.3323-.6648,4.2451,4.2451,0,0,0-1.7109.5558,2.1056,2.1056,0,0,0-1.0539,1.7424,2.3662,2.3662,0,0,0,2.4073,2.5506,16.364,16.364,0,0,0,3.5471-.1021c.3764-.0529.7977.0539,1.1427-.2336Zm-52.3154-.0666H114.9037a4.1463,4.1463,0,0,0,4.0778,3.9425,8.1351,8.1351,0,0,0,5.1335-1.4341c.4175.9546.6853,1.9266,1.0072,2.8977a9.2734,9.2734,0,0,1-4.7293,1.6735,9.7487,9.7487,0,0,1-3.2954-.2224,7.8415,7.8415,0,0,1-5.775-6.8546,9.855,9.855,0,0,1,.9695-5.6644,7.4,7.4,0,0,1,9.424-3.5179,7.3018,7.3018,0,0,1,4.3092,5.4705A8.1711,8.1711,0,0,1,126.1853,93.014Zm-3.5061-2.48a3.9459,3.9459,0,0,0-3.8112-4.1805,4.0967,4.0967,0,0,0-3.9678,4.18Q118.7908,90.5341,122.6792,90.5339Z" transform="translate(-68.8999 -66.5241)"/><path class="cls-1" d="M258.1769,99.0949a.9456.9456,0,0,1-.3249-1.2659c.2353-.2927.7916-.374,1.3372.0674.531.4307.6406.9479.3655,1.2859a.689.689,0,0,1-.554.249,1.3418,1.3418,0,0,1-.8238-.3364m-.5754-1.4743a1.44,1.44,0,0,0,2.2237,1.7617,1.2433,1.2433,0,0,0-.3793-1.7955,1.5142,1.5142,0,0,0-.9586-.3678,1.1386,1.1386,0,0,0-.8858.4016" transform="translate(-68.8999 -66.5241)"/><path class="cls-1" d="M258.9366,99.92a1.741,1.741,0,0,1-1.09-.4267,1.4074,1.4074,0,0,1-.3433-1.9523h0a1.2732,1.2732,0,0,1,.9842-.4475,1.6478,1.6478,0,0,1,1.0378.3954,1.3724,1.3724,0,0,1,.3979,1.9731A1.2588,1.2588,0,0,1,258.9366,99.92ZM257.699,97.7a1.3172,1.3172,0,0,0,2.0285,1.6033,1.1237,1.1237,0,0,0-.361-1.6186,1.4,1.4,0,0,0-.879-.3393,1.019,1.019,0,0,0-.7885.3546Zm1.3018,1.8575a1.4625,1.4625,0,0,1-.9031-.3641h0a1.3344,1.3344,0,0,1-.4813-.7459.83.83,0,0,1,.138-.6978.8021.8021,0,0,1,.5486-.2823,1.3253,1.3253,0,0,1,.9657.3312,1.3757,1.3757,0,0,1,.5534.8855.7679.7679,0,0,1-.1692.5775A.817.817,0,0,1,259.0008,99.5572Zm-.59-1.8439c-.0273,0-.0546.0016-.0818.004a.5538.5538,0,0,0-.3786.19.5815.5815,0,0,0-.0874.4876,1.0761,1.0761,0,0,0,.393.6024h0c.4427.3593.9576.4042,1.2007.1051a.528.528,0,0,0,.1147-.393,1.3248,1.3248,0,0,0-1.1606-.9962Z" transform="translate(-68.8999 -66.5241)"/><g class="cls-3"><polygon class="cls-1" points="188.377 33.757 188.061 30.726 191.303 30.385 191.618 33.418 188.377 33.757"/></g><path class="cls-1" d="M256.3484,102.6805l-.02-.0016a.2019.2019,0,0,1-.1388-.0746l-.1427-.1821a.2625.2625,0,0,1-.04-.2165l.2631-1.1967a3.1657,3.1657,0,0,0,.109-.5422.4369.4369,0,0,0-.3721-.4147c-.0161-.0016-.0313-.0024-.0457-.0024a.4413.4413,0,0,0-.4115.2831,1.2119,1.2119,0,0,0-.0441.2776.23.23,0,0,1-.239.2229h-.0024a2.0247,2.0247,0,0,1-.2543-.0224.2164.2164,0,0,1-.142-.0842.2107.2107,0,0,1-.0328-.17.3517.3517,0,0,0,.0064-.0433,1.1527,1.1527,0,0,1,.4708-.7876h0a.9437.9437,0,0,1,1.1373-.1725A1.1036,1.1036,0,0,1,257,100.567c-.0072.0634-.1949.8607-.2767,1.163l.8181-.6416a.1879.1879,0,0,1,.1428-.0417.2093.2093,0,0,1,.1412.0778l.0986.1259a.2047.2047,0,0,1-.0361.2831l-1.4164,1.1029A.191.191,0,0,1,256.3484,102.6805Zm-.0321-.2422-.004.0024Zm1.3851-1.1542-.004.0032Z" transform="translate(-68.8999 -66.5241)"/><g class="cls-4"><rect class="cls-1" x="186.0395" y="33.0321" width="2.9073" height="3.0077"/></g><path class="cls-1" d="M253.5876,104.1282a.99.99,0,0,1-.2879-.04.7037.7037,0,0,1-.4331-.3393.9264.9264,0,0,1,.0513-.87.767.767,0,0,1-.6208-.3882.7334.7334,0,0,1-.0473-.5639,1.141,1.141,0,0,1,.5663-.6576l.0016-.0009a.9682.9682,0,0,1,1.3073.2439.7736.7736,0,0,1-.0272.7379.8992.8992,0,0,1,.782.4187c.22.417-.0522.9793-.6184,1.28A1.4378,1.4378,0,0,1,253.5876,104.1282Zm-.22-.7291a.3713.3713,0,0,0,.3441.1765h.0024a.6492.6492,0,0,0,.3064-.081.483.483,0,0,0,.2831-.5984.5574.5574,0,0,0-.936.5029Zm-.0882-1.7485a.4957.4957,0,0,0-.23.0586.4752.4752,0,0,0-.223.2526.3584.3584,0,0,0,.0168.2936l.0008.0016a.4291.4291,0,0,0,.57.1283.4191.4191,0,0,0,.2069-.5478A.3791.3791,0,0,0,253.28,101.6506Z" transform="translate(-68.8999 -66.5241)"/><g class="cls-5"><rect class="cls-1" x="183.3237" y="34.7202" width="2.7341" height="2.8575"/></g><path class="cls-1" d="M251.3338,105.0129a.2006.2006,0,0,1-.1933-.1436l-.5686-1.953a.2877.2877,0,0,0-.0209-.0778.9349.9349,0,0,1-.2173.1484.2268.2268,0,0,1-.3241-.0289l-.0794-.1363a.2063.2063,0,0,1-.0216-.1532.2.2,0,0,1,.0938-.1236,5.4187,5.4187,0,0,1,.6216-.385l.2262-.0633h.0064a.2088.2088,0,0,1,.21.1355l.7154,2.4479a.2045.2045,0,0,1-.14.2519l-.2534.0738A.218.218,0,0,1,251.3338,105.0129Zm-1.195-2.2562-.0016.0016Zm.0088-.0626.0008.0016Z" transform="translate(-68.8999 -66.5241)"/><g class="cls-6"><polygon class="cls-1" points="179.988 37.753 181.499 34.999 183.9 36.316 182.389 39.07 179.988 37.753"/></g><path class="cls-1" d="M247.1454,102.731a.2033.2033,0,0,1,.1468.0666.1948.1948,0,0,1,.0514.1444l-.0041.1427a.2031.2031,0,0,1-.2045.1957l-1.42-.0385-.0177.6369,1.2095.0353a.2044.2044,0,0,1,.1957.2037l-.0032.1516a.2033.2033,0,0,1-.2037.1981l-1.2127-.0337-.0177.6489,1.43.0393a.2025.2025,0,0,1,.1957.2085l-.004.1468a.2.2,0,0,1-.0642.1428.1944.1944,0,0,1-.1347.0545h-.008l-1.9049-.0529a.2011.2011,0,0,1-.1428-.0642.1988.1988,0,0,1-.0529-.1452l.0722-2.5369a.1963.1963,0,0,1,.1146-.1765m1.8689,2.772v0Zm.0521-.0481h0Zm-1.856-.0025Zm1.8079-.0978v0Zm-1.3756-.1925v0Zm-.0521-.0489h0Zm.0217-.6489h0Zm.05-.05v0Zm-.0377-.5053h0Zm.02-.6369h0Zm1.4213-.162v0Zm.004-.1468v0Zm-1.8367,0h0Zm-.0016-.1259Z" transform="translate(-68.8999 -66.5241)"/><g class="cls-7"><polygon class="cls-1" points="174.836 37.577 177.322 35.225 179.691 37.729 177.204 40.08 174.836 37.577"/></g><path class="cls-1" d="M242.8311,105.2118a1.9649,1.9649,0,0,1-.4628-.0593,1.5273,1.5273,0,0,1,.3674-3,1.5554,1.5554,0,0,1,.3128.03,1.6475,1.6475,0,0,1,.928.527.4506.4506,0,0,1,.0714.101.2124.2124,0,0,1-.0586.2687l-.1636.1043a.1936.1936,0,0,1-.158.0321.1846.1846,0,0,1-.1227-.0915.94.94,0,0,0-1.26-.26.9724.9724,0,0,0-.33,1.325.9438.9438,0,0,0,.5879.4355,1.0531,1.0531,0,0,0,.6352-.05.1974.1974,0,0,1,.2743.073l.0859.1419a.2073.2073,0,0,1-.0786.2783l-.0281.0169A1.44,1.44,0,0,1,242.8311,105.2118Zm.8558-2.2394-.0024.0024Zm.138-.0457.0016.004Z" transform="translate(-68.8999 -66.5241)"/><g class="cls-8"><polygon class="cls-1" points="171.082 36.507 174.336 34.554 176.31 37.839 173.056 39.793 171.082 36.507"/></g><path class="cls-1" d="M239.4841,104.0737a.1953.1953,0,0,1-.1035-.0289l-.2358-.1291a.29.29,0,0,1-.12-.2142l-.3184-2.0837-.0072-.01c.0024.0105-.012.0233-.0185.0305l-.7547,1.3691a.2106.2106,0,0,1-.2751.08l-.308-.1724a.2015.2015,0,0,1-.0754-.2775l1.2215-2.2025a.2075.2075,0,0,1,.2736-.081l.3063.1724a.26.26,0,0,1,.1268.2062l.324,2.1511c.0241-.05.0553-.12.08-.1805l.6729-1.276a.2048.2048,0,0,1,.2752-.081l.2558.1411a.2017.2017,0,0,1,.0786.2767l-1.2247,2.2049a.1937.1937,0,0,1-.1212.0971A.2.2,0,0,1,239.4841,104.0737Zm-.0465-.2262-.0016.0032Zm.0666-.0225.0032.0016Zm-2.0156-1.0635-.0008.0016Zm3.1745-1.12h0Z" transform="translate(-68.8999 -66.5241)"/><g class="cls-9"><polygon class="cls-1" points="166.97 36.61 169.264 32.474 173.379 34.755 171.086 38.894 166.97 36.61"/></g><path class="cls-1" d="M235.8748,101.6972a.1982.1982,0,0,1-.1347-.0522l-.2519-.22a.2038.2038,0,0,1-.069-.14.199.199,0,0,1,.049-.146l1.6514-1.9025a.2022.2022,0,0,1,.1508-.0658h.008a.19.19,0,0,1,.126.0482l.255.2221a.2027.2027,0,0,1,.0257.2784l-1.6579,1.9073a.2038.2038,0,0,1-.142.07Zm.0321-.2415.0016.0008Zm-.2486-.15Zm1.58-1.896h0Z" transform="translate(-68.8999 -66.5241)"/><g class="cls-10"><polygon class="cls-1" points="165.504 34.074 167.528 31.745 169.842 33.755 167.818 36.084 165.504 34.074"/></g><path class="cls-1" d="M234.4624,100.0184a.627.627,0,0,1-.069-.004,1.1457,1.1457,0,0,1-.9272-.5823,1.7617,1.7617,0,0,1-.3321-.8349l-.0048-.0554a.2116.2116,0,0,1,.1741-.2205l.1764-.0321a.1909.1909,0,0,1,.1476.0385.2018.2018,0,0,1,.0778.1371l.01.0738c.0746.774.539.8638.5583.8671a.26.26,0,0,0,.2374-.07.3636.3636,0,0,0,.0361-.4131l-.012-.0313c-.0121-.0337-.1236-.2687-.2246-.4756a1.3686,1.3686,0,0,1-.1412-.5478.7679.7679,0,0,1,.3914-.681.7415.7415,0,0,1,.3922-.0986,1.2067,1.2067,0,0,1,.3008.04c.7427.1716.95,1.1253.9585,1.1662l.01.0714a.2032.2032,0,0,1-.1732.2278l-.1861.0224a.1932.1932,0,0,1-.1492-.0377.2.2,0,0,1-.0786-.1363l-.0088-.069h0s-.0963-.5214-.442-.6617a.2819.2819,0,0,0-.2943.0329.2621.2621,0,0,0-.0682.2294.8477.8477,0,0,0,.1107.3537,2.8527,2.8527,0,0,1,.2775.6079.8823.8823,0,0,1-.1781.8294A.7527.7527,0,0,1,234.4624,100.0184Zm-1.1077-1.4509-.0032.0008Zm.1612-.0289-.0024.0008Zm-.0609-.0425v0Zm2.431-.085v0Zm-.0569-.0449-.004.0008Z" transform="translate(-68.8999 -66.5241)"/><g class="cls-11"><polygon class="cls-1" points="164.386 30.393 167.488 30.722 167.172 33.709 164.068 33.38 164.386 30.393"/></g></svg>