<svg id="Layer_1" data-name="Layer 1" xmlns="http://www.w3.org/2000/svg" width="200" height="33.3251" viewBox="0 0 200 33.3251"><defs><style>.cls-1{fill:#999b9e;}.cls-2{fill:#ed008c;}</style></defs><title>T-Mobile</title><path id="path3209" class="cls-1" d="M311.005,48.1621a2.57,2.57,0,1,1-5.139.0113v-.0113a2.57,2.57,0,1,1,5.139-.0113Z" transform="translate(-161.5 -44.838)"/><rect id="rect3211" class="cls-1" x="188.6574" y="14.9037" width="6.5403" height="6.6743"/><rect id="rect3213" class="cls-1" x="58.9445" y="14.9037" width="6.5403" height="6.6743"/><rect id="rect3215" class="cls-1" x="39.3273" y="14.9037" width="6.5403" height="6.6743"/><rect id="rect3217" class="cls-1" x="20.0078" y="14.9037" width="6.5403" height="6.6743"/><rect id="rect3219" class="cls-1" y="14.9037" width="6.5403" height="6.6743"/><path id="path3221" class="cls-2" d="M177.2073,46.42h.776c5.0119,0,7.3479,2.6812,8.324,9.8313l1.552-.0686-.2071-11.3442H162.1489l-.2514,11.3442,1.4935.0686a15.8868,15.8868,0,0,1,1.2421-5.569A7.0908,7.0908,0,0,1,171.36,46.42h1.0866V71.101c0,2.6125-.1551,3.4376-.7755,4.0564a4.2674,4.2674,0,0,1-2.7433.6875h-1.19v1.65h14.1789v-1.65h-1.1975a4.2438,4.2438,0,0,1-2.7351-.6875c-.6209-.6188-.776-1.4443-.776-4.0564V46.42" transform="translate(-161.5 -44.838)"/><path id="path3223" class="cls-1" d="M244.67,77.4951l8.2631-28.8321V71.2886c0,2.4692-.1405,3.3369-.7008,3.9375a3.5638,3.5638,0,0,1-2.4765.6675h-.42v1.6015h11.68V75.8936h-.6079a3.57,3.57,0,0,1-2.4757-.6675c-.5611-.6006-.7012-1.4683-.7012-3.9375V52c0-2.47.14-3.4039.7012-4.0045a4.05,4.05,0,0,1,2.4757-.6675h.6079V45.793h-9.0635l-6.8213,23.2927L238.457,45.793H229.44v1.5353h.84c2.4765,0,2.9435.5339,2.9435,3.7377V69.42c0,2.9366-.14,4.1381-.5608,5.0058a2.8771,2.8771,0,0,1-2.4761,1.4683H229.44v1.6015h9.6238V75.8936h-.607a3.05,3.05,0,0,1-2.7632-1.4017c-.5539-.9343-.694-1.8021-.694-5.0724V48.6634l8.2157,28.8321H244.67" transform="translate(-161.5 -44.838)"/><path id="path3225" class="cls-1" d="M271.06,54.9365c-5.7932,0-9.5772,4.5384-9.5772,11.68,0,6.8745,3.784,11.5465,9.431,11.5465,5.6989,0,9.4834-4.672,9.4834-11.6131,0-6.8748-3.7845-11.6135-9.3372-11.6135m-.1868,1.5349a4.3418,4.3418,0,0,1,3.9176,2.87,17.923,17.923,0,0,1,1.0744,7.2082c0,6.7405-1.6352,10.0774-4.9518,10.0774-3.31,0-4.9059-3.3373-4.9059-10.1444a17.7546,17.7546,0,0,1,1.0809-7.1412,4.3656,4.3656,0,0,1,3.7848-2.87" transform="translate(-161.5 -44.838)"/><path id="path3227" class="cls-1" d="M288.1593,45.4592l-6.6344.3338v1.4683h.32c1.9625,0,2.39.6675,2.39,3.8043V72.7564a13.5445,13.5445,0,0,1-.4669,4.7387H285.31c1.1609-1.9357,1.4479-2.269,1.9153-2.269a1.05,1.05,0,0,1,.7878.4c2.2954,1.8687,3.2764,2.269,5.3789,2.269,5.0387,0,8.683-4.8722,8.683-11.8132,0-6.5407-3.3706-10.9456-8.4093-10.9456a5.6339,5.6339,0,0,0-5.506,3.5372V45.4592m4.8454,11.3459c2.997,0,4.5384,3.2038,4.5384,9.4773,0,6.6072-1.5885,10.0112-4.6253,10.0112-3.3637,0-5.1329-3.471-5.1329-9.8111,0-3.2037.4211-5.4057,1.4021-7.0746a4.6383,4.6383,0,0,1,3.8177-2.6028" transform="translate(-161.5 -44.838)"/><path id="path3229" class="cls-1" d="M310.7179,55.27l-6.8143.4v1.4683h.514c1.9552,0,2.3762.6675,2.3762,3.7377V72.1559c0,3.0706-.4206,3.8047-2.3762,3.8047h-.741v1.5345h10.172V75.9606h-.7346c-1.9689,0-2.3957-.6679-2.3957-3.8047V55.27" transform="translate(-161.5 -44.838)"/><path id="path3231" class="cls-1" d="M322.5373,45.4592l-6.8144.3338v1.4683h.508c1.962,0,2.3823.6675,2.3823,3.8043v21.09c0,3.1371-.42,3.8047-2.3823,3.8047h-.741v1.5345h10.1776V75.96H324.92c-1.9689,0-2.3827-.668-2.3827-3.8047V45.4592" transform="translate(-161.5 -44.838)"/><path id="path3233" class="cls-1" d="M344.2558,66.4159c-.2274-7.0746-3.5911-11.4794-8.6765-11.4794-4.9124,0-8.4565,4.8052-8.4565,11.4794,0,7.1413,3.4974,11.7467,8.9169,11.7467,3.5039,0,5.9333-1.869,7.9424-6.0071l-1.4013-.7342c-1.6351,3.4706-3.27,4.8722-5.7935,4.8722-3.6906,0-5.2722-2.9361-5.32-9.8776h12.7882m-12.7411-1.6688c.04-5.0054,1.668-8.1422,4.2911-8.1422,2.6162,0,4.1576,3.07,4.1113,8.1422h-8.4024" transform="translate(-161.5 -44.838)"/><g id="g3235"><g id="g3237"><path id="path3239" class="cls-1" d="M359.1506,54.3924a2.41,2.41,0,0,1,1.156.3037,2.1579,2.1579,0,0,1,.8783.8693,2.3581,2.3581,0,0,1,.0045,2.3474,2.1853,2.1853,0,0,1-.869.871,2.3625,2.3625,0,0,1-2.3405,0,2.1886,2.1886,0,0,1-.8706-.871,2.35,2.35,0,0,1,.0045-2.3474,2.17,2.17,0,0,1,.8795-.8693,2.42,2.42,0,0,1,1.1572-.3037Zm0,.3914a1.9954,1.9954,0,0,0-.9632.2538,1.8228,1.8228,0,0,0-.7333.7248,1.9535,1.9535,0,0,0-.0041,1.9543,1.8438,1.8438,0,0,0,.7264.7252,1.9556,1.9556,0,0,0,1.9483,0,1.83,1.83,0,0,0,.7248-.7252,1.9607,1.9607,0,0,0-.0045-1.9543,1.81,1.81,0,0,0-.7329-.7248,1.9975,1.9975,0,0,0-.9616-.2538Zm-1.0314,3.2577v-2.53h.871a2.13,2.13,0,0,1,.6456.07.6226.6226,0,0,1,.3184.2448.6476.6476,0,0,1,.119.3708.6723.6723,0,0,1-.199.4827.7844.7844,0,0,1-.5263.2307.6868.6868,0,0,1,.2153.134,2.848,2.848,0,0,1,.3743.5014l.309.4954h-.5006l-.2254-.3991a2.091,2.091,0,0,0-.4251-.5876.5213.5213,0,0,0-.3273-.0881h-.24v1.0748h-.4085Zm.4089-1.422h.4978a.8019.8019,0,0,0,.4861-.1063.3657.3657,0,0,0,.067-.4837.373.373,0,0,0-.1738-.1331,1.287,1.287,0,0,0-.4113-.0435h-.4658V56.62Z" transform="translate(-161.5 -44.838)"/></g></g></svg>