<svg id="Livello_1" data-name="Livello 1" xmlns="http://www.w3.org/2000/svg" width="200" height="47.9985" viewBox="0 0 200 47.9985"><defs><style>.cls-1{fill:#06f;}</style></defs><path class="cls-1" d="M14.8227,11.0183A7.1614,7.1614,0,1,0,7.6614,18.18a7.1614,7.1614,0,0,0,7.1613-7.1614" transform="translate(-0.5 -3.857)"/><path class="cls-1" d="M31.6606,11.0183A7.1614,7.1614,0,1,0,24.4992,18.18a7.1614,7.1614,0,0,0,7.1614-7.1614" transform="translate(-0.5 -3.857)"/><path class="cls-1" d="M48.4985,11.0183A7.1614,7.1614,0,1,0,41.3371,18.18a7.1614,7.1614,0,0,0,7.1614-7.1614" transform="translate(-0.5 -3.857)"/><path class="cls-1" d="M31.6606,27.8562a7.1614,7.1614,0,1,0-7.1614,7.1614,7.1614,7.1614,0,0,0,7.1614-7.1614" transform="translate(-0.5 -3.857)"/><path class="cls-1" d="M31.6606,44.6941a7.1614,7.1614,0,1,0-7.1614,7.1613,7.1614,7.1614,0,0,0,7.1614-7.1613" transform="translate(-0.5 -3.857)"/><polygon class="cls-1" points="63.262 18.412 56.6 18.412 56.6 14.438 74.071 14.438 74.071 18.412 67.39 18.412 67.39 36.69 63.262 36.69 63.262 18.412"/><path class="cls-1" d="M85.0349,31.0241a3.9627,3.9627,0,0,0-3.9743-3.6479A4.2856,4.2856,0,0,0,76.76,31.0241Zm3.4943,4.7614a7.5759,7.5759,0,0,1-7.4686,5.0879,8.0539,8.0539,0,0,1-8.2557-8.4286,8.0539,8.0539,0,0,1,8.2557-8.4285,7.9034,7.9034,0,0,1,7.9486,8.1022,8.1044,8.1044,0,0,1-.096,1.1519l-.0576.4416H76.7792A4.2721,4.2721,0,0,0,81.08,37.5327a3.7058,3.7058,0,0,0,3.3407-1.7472Z" transform="translate(-0.5 -3.857)"/><rect class="cls-1" x="90.8899" y="14.4379" width="3.9743" height="22.2521"/><path class="cls-1" d="M109.9749,31.0241a3.9627,3.9627,0,0,0-3.9743-3.6479A4.2856,4.2856,0,0,0,101.7,31.0241Zm3.5135,4.7614a7.5759,7.5759,0,0,1-7.4686,5.0879,8.0539,8.0539,0,0,1-8.2557-8.4286,8.0539,8.0539,0,0,1,8.2557-8.4285,7.9034,7.9034,0,0,1,7.9486,8.1022,8.1044,8.1044,0,0,1-.096,1.1519l-.0576.4416H101.7384a4.272,4.272,0,0,0,4.3006,3.8207,3.7058,3.7058,0,0,0,3.3407-1.7472Z" transform="translate(-0.5 -3.857)"/><path class="cls-1" d="M117.6163,28.1634h-2.7072V24.3427h2.7072V21.962a3.7193,3.7193,0,0,1,3.9742-3.9743h3.4943V21.482h-2.3807a1.0907,1.0907,0,0,0-1.1136,1.1136v1.7471h3.4943v3.8207h-3.4943V40.5662h-3.9742Z" transform="translate(-0.5 -3.857)"/><path class="cls-1" d="M144.5914,24.3427h3.6479l.3264,1.5936h.1536a5.8044,5.8044,0,0,1,1.0751-.96,6.0491,6.0491,0,0,1,3.3791-.96c3.6479,0,6.355,2.7071,6.355,6.835V40.547h-3.9743V31.1777a3.4943,3.4943,0,0,0-6.9886,0V40.547h-3.9742V24.3427Z" transform="translate(-0.5 -3.857)"/><path class="cls-1" d="M184.8333,34.5184a7.5312,7.5312,0,0,1-7.6222,6.355,8.0539,8.0539,0,0,1-8.2557-8.4286,8.0539,8.0539,0,0,1,8.2557-8.4285,7.5152,7.5152,0,0,1,7.6222,6.2014H180.859a3.6852,3.6852,0,0,0-3.6479-2.5343c-2.3807,0-4.3006,1.9007-4.3006,4.7614s1.9007,4.7615,4.3007,4.7615a3.5771,3.5771,0,0,0,3.6478-2.7071h3.9743Z" transform="translate(-0.5 -3.857)"/><path class="cls-1" d="M196.5257,33.5584H193.185c-2.0735,0-3.0143.7872-3.0143,2.0735,0,1.2672.9216,2.0736,2.5344,2.0736,2.4191,0,3.8206-1.4016,3.8206-3.6479Zm.3072,5.4142h-.1536a5.0251,5.0251,0,0,1-1.1135.96,6.38,6.38,0,0,1-3.4943.96c-3.6863,0-5.875-2.2655-5.875-4.9343,0-3.1871,2.2271-5.4142,6.6814-5.4142h3.6478v-.3264a2.7536,2.7536,0,0,0-2.8607-3.0143,2.71,2.71,0,0,0-2.8607,2.0736H186.83c.3456-2.6688,2.5151-5.2415,6.835-5.2415,4.1279,0,6.835,2.7263,6.835,6.2014V40.5662h-3.3407Z" transform="translate(-0.5 -3.857)"/><path class="cls-1" d="M162.5812,24.3427h3.9743V40.547h-3.9743Zm4.3391-4.6846a2.3616,2.3616,0,1,0-2.3615,2.3615,2.36,2.36,0,0,0,2.3615-2.3615" transform="translate(-0.5 -3.857)"/><path class="cls-1" d="M138.2364,32.4448c0-2.8607-1.9007-4.7614-4.3007-4.7614-2.3807,0-4.3006,1.9007-4.3006,4.7614s1.9007,4.7615,4.3006,4.7615,4.3007-1.9007,4.3007-4.7615m3.9743,0a8.2669,8.2669,0,1,1-16.5307,0,8.2669,8.2669,0,1,1,16.5307,0m-6.835-14.9371h4.1279l-3.8207,4.6079h-3.3407Z" transform="translate(-0.5 -3.857)"/></svg>