<svg id="Layer_1" data-name="Layer 1" xmlns="http://www.w3.org/2000/svg" xmlns:xlink="http://www.w3.org/1999/xlink" width="200" height="41.95" viewBox="0 0 200 41.95"><defs><style>.cls-1{fill:#fff;}.cls-1,.cls-2,.cls-4{fill-rule:evenodd;}.cls-2{fill:#00539b;}.cls-3{mask:url(#mask);}.cls-4{fill:#00a160;}</style><mask id="mask" x="0" y="0" width="41.95" height="41.95" maskUnits="userSpaceOnUse"><g transform="translate(-0.34 -0.26)"><g id="b"><path id="a" class="cls-1" d="M.34.26h42v42H.34Z"/></g></g></mask></defs><title>Texas-Health-Resources</title><path class="cls-2" d="M127.9,38.21a7.78,7.78,0,0,0,3.5,1c1.07,0,1.66-.42,1.66-1.22s-.15-.9-1.49-1.47l-1.36-.59c-1.79-.75-2.31-1.36-2.31-2.68,0-1.91,1.24-2.89,3.63-2.89a8,8,0,0,1,2.89.52v1.7a6.71,6.71,0,0,0-3-.67c-1.3,0-1.78.33-1.78,1.24,0,.63.23.9,1.09,1.25l1.87.8c1.61.67,2.2,1.38,2.2,2.66,0,1.76-1.38,2.88-3.54,2.88a7.9,7.9,0,0,1-3.34-.82Z" transform="translate(-0.34 -0.26)"/><g class="cls-3"><path class="cls-4" d="M28.64,4.67l.06.12.12,0a16.11,16.11,0,0,1,5.39,3.57c3.71,3.74,5.45,9.34,4,13a5.2,5.2,0,0,1-1.12,1.78,5.83,5.83,0,0,1-3.95,1.53H29.75v3.55H33.3c4-.18,6.93-2.16,8.24-5.58,1.92-5-.11-12-4.83-16.8A19.18,19.18,0,0,0,25.86.43L24.5.26l1.11.8A9.46,9.46,0,0,1,28.64,4.67ZM41.5,25.53a9.46,9.46,0,0,1-3.61,3l-.13.05,0,.13a16.11,16.11,0,0,1-3.57,5.39c-3.74,3.71-9.33,5.44-13,4-2-.79-3.18-2.54-3.31-5.07V29.67H14.27v3.61c.18,4,2.16,6.87,5.58,8.17,5,1.93,12-.1,16.81-4.82a19.26,19.26,0,0,0,5.46-10.85l.18-1.36ZM4.75,13.91l.12-.05,0-.13A16.26,16.26,0,0,1,8.49,8.34c3.74-3.71,9.33-5.44,13-4,2,.79,3.18,2.54,3.31,5.07v3.41h3.56V9.23c-.19-4-2.17-6.9-5.58-8.21C17.8-.91,10.73,1.12,6,5.84A19.24,19.24,0,0,0,.51,16.7L.34,18.05l.8-1.11a9.46,9.46,0,0,1,3.61-3ZM14,37.8l-.05-.12-.13,0a16.11,16.11,0,0,1-5.39-3.57c-3.71-3.74-5.45-9.33-4-13a5.35,5.35,0,0,1,1.12-1.78,5.85,5.85,0,0,1,4-1.53h3.42V14.19H9.3c-4,.18-6.89,2.16-8.21,5.57-1.91,5,.11,12.06,4.83,16.81A19.24,19.24,0,0,0,16.78,42l1.36.17L17,41.41A9.37,9.37,0,0,1,14,37.8Z" transform="translate(-0.34 -0.26)"/></g><path class="cls-2" d="M19.1,14.19v3.49h14A6,6,0,0,1,36.83,19l.56.48,0-.74a10.88,10.88,0,0,0-.62-3.67l0-.16-.16-.06a11.13,11.13,0,0,0-3.33-.64Zm5.62,20A5.71,5.71,0,0,1,24.1,36a4.36,4.36,0,0,1-.52.75l-.48.56h.74a10.84,10.84,0,0,0,3.66-.61l.16-.05.06-.16a11.19,11.19,0,0,0,.65-3.34V19h-3.5v14a9.08,9.08,0,0,1-.12,1.09l0,.08m-7-11.13c0-11,0-13.51,0-13.67a6,6,0,0,1,1.29-3.71l.47-.56H18.8a10.86,10.86,0,0,0-3.67.61l-.16,0L14.91,6a11.17,11.17,0,0,0-.64,3.34V23.45h3.49V23.1ZM5.89,27.58l.16.06a11.07,11.07,0,0,0,3.34.64H23.53v-3.5h-14a6,6,0,0,1-3.69-1.3L5.25,23l0,.73a11.11,11.11,0,0,0,.61,3.67ZM63.74,2V5.56H58.67V21.4H54.16V5.56H49.21V2Z" transform="translate(-0.34 -0.26)"/><path class="cls-2" d="M65.78,13.19h4.66v-.73a2.07,2.07,0,0,0-2.24-2.24,2.23,2.23,0,0,0-2.42,2.27ZM74,17.91v3l-.35.09-1,.32a12.93,12.93,0,0,1-3.17.35c-5,0-7.84-2.65-7.84-7.43,0-4.34,2.6-7,6.91-7A5.47,5.47,0,0,1,73,9.11c1.14,1.31,1.46,2.45,1.46,5.07v1.28H65.84c.08,2,1.48,3,4.37,3A11.74,11.74,0,0,0,74,17.91ZM75,7.45h4.78l2.62,4.14,2.51-4.14h4.57l-4.87,6.93,5,7H84.77l-2.59-4.16-2.6,4.16H75l5-7Zm23.28,8.3h-2c-1.31,0-2,.53-2,1.52s.59,1.4,1.61,1.4h.72c1.08,0,1.64-.56,1.64-1.72ZM91.35,8.38a11.69,11.69,0,0,1,5.1-1.16,9.33,9.33,0,0,1,3.82.73,2.94,2.94,0,0,1,1.92,3.11v6.5a2.45,2.45,0,0,0,1,2.07l-2.56,2.09c-.09,0-.18-.14-.24-.17-.75-.67-1-.76-1.72-.76a4.13,4.13,0,0,0-1.34.27,7.41,7.41,0,0,1-3.11.61A3.81,3.81,0,0,1,90,17.62c0-2.68,2.1-4.31,5.51-4.31H96.8c1,0,1.49-.44,1.49-1.37,0-1.17-.67-1.61-2.31-1.61a11.54,11.54,0,0,0-4.63,1Zm13.23,9.3a11.66,11.66,0,0,0,4.6,1.22c1.17,0,1.75-.44,1.75-1.31,0-.7-.29-1-1.28-1.43l-1.9-.81c-2.39-1-3.29-2.1-3.29-3.94,0-2.74,2.07-4.19,5.94-4.19a8.15,8.15,0,0,1,3.72.61v2.91a8,8,0,0,0-3.6-.78c-1.28,0-1.89.37-1.89,1.1,0,.58.29.88,1.31,1.28l2.49,1.05a3.67,3.67,0,0,1,2.63,3.73c0,2.8-2.13,4.52-5.62,4.52a11.45,11.45,0,0,1-4.86-.91ZM124,2h4.51V9.61h8.1V2h4.58L141.1,21.4h-4.49V13.07h-8.1V21.4H124Zm22.83,11.22h4.67v-.73a2.07,2.07,0,0,0-2.25-2.24,2.23,2.23,0,0,0-2.42,2.27Zm8.25,4.72v3l-.35.09-1,.32a12.93,12.93,0,0,1-3.17.35c-5,0-7.84-2.65-7.84-7.43,0-4.34,2.59-7,6.9-7a5.5,5.5,0,0,1,4.52,1.89c1.13,1.31,1.45,2.45,1.45,5.07v1.28h-8.65c.09,2,1.49,3,4.37,3a11.84,11.84,0,0,0,3.82-.52Zm10.11-2.16h-2c-1.32,0-2,.53-2,1.52s.59,1.4,1.61,1.4h.73c1.07,0,1.63-.56,1.63-1.72v-1.2Zm-6.94-7.37a11.69,11.69,0,0,1,5.1-1.16,9.33,9.33,0,0,1,3.82.73,3,3,0,0,1,1.92,3.11v6.5a2.45,2.45,0,0,0,1,2.07l-2.56,2.09c-.09,0-.18-.14-.24-.17-.75-.67-1-.76-1.72-.76a4,4,0,0,0-1.33.27,7.45,7.45,0,0,1-3.12.61,3.81,3.81,0,0,1-4.17-4.05c0-2.68,2.1-4.31,5.51-4.31h1.25c1,0,1.49-.44,1.49-1.37,0-1.17-.67-1.61-2.31-1.61a11.54,11.54,0,0,0-4.63,1V8.38ZM175.53,2l0,19.43h-4l0-19.43Zm1.39,5.48h1.9V3.17h4.05V7.45H186V9.84h-3.11v6.79c0,1.28.37,1.69,1.6,1.69H186V21.4h-3.49c-2.39,0-3.67-1.25-3.67-3.58v-8h-1.9V7.45ZM191.63,9a5.65,5.65,0,0,1,4.28-1.8c2.8,0,4.43,1.48,4.43,4.05V21.4h-4.19v-9a1.8,1.8,0,0,0-2-1.86,2.32,2.32,0,0,0-2.48,2.56V21.4h-4.1V2h4.1V9ZM137.94,28.86c.3,0,.56,0,.56-.38s-.29-.32-.53-.32h-.47v.7Zm-.44,1.37h-.4V27.82H138c.59,0,.88.2.88.69a.61.61,0,0,1-.63.66l.68,1.06h-.45l-.62-1h-.37v1Zm.43-3A1.8,1.8,0,1,0,139.59,29a1.69,1.69,0,0,0-1.66-1.79Zm0,4A2.18,2.18,0,1,1,140.06,29,2.1,2.1,0,0,1,137.93,31.16Z" transform="translate(-0.34 -0.26)"/><path class="cls-2" d="M52.65,33.24h3.83c1.77,0,2.69-.86,2.69-2.54a2.36,2.36,0,0,0-2.62-2.6h-3.9Zm0,1.64v5.66H50.86v-14h5.37c1.76,0,2.65.25,3.51,1a3.92,3.92,0,0,1,1.32,3,3.79,3.79,0,0,1-2.9,3.83l.15.21a15.07,15.07,0,0,1,2.12,3.3,16.72,16.72,0,0,1,1.09,2.62H59.67a19.74,19.74,0,0,0-2.26-4.2,12.91,12.91,0,0,0-1.07-1.46Zm11.5-.09H69.7c-.1-1.95-1.11-3.08-2.76-3.08s-2.73,1.18-2.79,3.08Zm6.54,5.33a8.28,8.28,0,0,1-3.21.59,5.06,5.06,0,0,1-3.54-1.34,4.92,4.92,0,0,1-1.49-3.86c0-3.15,1.82-5.18,4.61-5.18a4.12,4.12,0,0,1,4.24,4.46v1.37H64.17a2.54,2.54,0,0,0,.48,1.63,3.11,3.11,0,0,0,3,1.47,7.49,7.49,0,0,0,3.06-.69v1.55Zm2.14-1.91a7.78,7.78,0,0,0,3.5,1C77.4,39.18,78,38.76,78,38s-.15-.9-1.49-1.47l-1.36-.59c-1.79-.75-2.31-1.36-2.31-2.68,0-1.91,1.24-2.89,3.63-2.89a8.05,8.05,0,0,1,2.89.52v1.7a6.71,6.71,0,0,0-3-.67c-1.3,0-1.78.33-1.78,1.24,0,.63.23.9,1.09,1.25l1.86.8c1.62.67,2.21,1.38,2.21,2.66,0,1.76-1.39,2.88-3.55,2.88a7.85,7.85,0,0,1-3.33-.82Zm9.69-2.64c0,2.45,1.07,3.69,3.2,3.69S89,38.06,89,35.57s-1-3.73-3.14-3.73-3.29,1.21-3.29,3.73m-1.72,0c0-3.23,1.86-5.22,4.9-5.22s5,1.88,5,5.2-1.82,5.18-4.92,5.18-5-1.87-5-5.16m11.4-5.06h1.64V37c0,1.62.69,2.39,2.12,2.39a2.48,2.48,0,0,0,2.77-2.62V30.49h1.61V40.54H98.73V39.2a3.7,3.7,0,0,1-3.07,1.51c-2.16,0-3.46-1.39-3.46-3.69Zm10.61,0h1.61v2a3.31,3.31,0,0,1,2.88-2.06,2.41,2.41,0,0,1,1.09.23v1.49a2.42,2.42,0,0,0-1-.17,2.63,2.63,0,0,0-2.92,2.71v5.87h-1.61Zm13.44,8.16v1.47a6.34,6.34,0,0,1-2.77.59c-3,0-4.78-2-4.78-5.16s2-5.22,5-5.22a6,6,0,0,1,2.5.52v1.64a4.58,4.58,0,0,0-2.39-.61c-2.23,0-3.44,1.3-3.44,3.69a4,4,0,0,0,1,3,3.1,3.1,0,0,0,2.16.66,6.48,6.48,0,0,0,2.62-.53m3-3.86h5.58c-.11-1.95-1.12-3.08-2.78-3.08S119.27,32.89,119.2,34.79Zm6.56,5.33a8.28,8.28,0,0,1-3.21.59A5.09,5.09,0,0,1,119,39.37a5,5,0,0,1-1.48-3.86c0-3.15,1.82-5.18,4.61-5.18a4.13,4.13,0,0,1,4.25,4.46v1.37h-7.14a2.48,2.48,0,0,0,.48,1.63,3.11,3.11,0,0,0,3,1.47,7.49,7.49,0,0,0,3.07-.69v1.55Z" transform="translate(-0.34 -0.26)"/></svg>