<svg id="Layer_1" data-name="Layer 1" xmlns="http://www.w3.org/2000/svg" width="200.0001" height="50" viewBox="0 0 200.0001 50"><defs><style>.cls-1{fill:#dd172c;}.cls-1,.cls-2,.cls-3{fill-rule:evenodd;}.cls-2{fill:#fff;}.cls-3,.cls-4{fill:#0b2274;}</style></defs><title>US-Bank</title><path class="cls-1" d="M0,0V38.8L32.8,50,65.7,38.8V0Z"/><path class="cls-2" d="M32.8,37.6H22.7V34.1c-2,2.8-4.8,4.2-8.9,4.2-4.8,0-9.5-3-9.5-9.3V10.3H14.8V24.8c0,3.1.4,5.3,3.5,5.3,1.7,0,4.1-.8,4.1-5.3V10.3H32.9ZM52.2,18.3a2.9747,2.9747,0,0,0-1.2-2,3.4065,3.4065,0,0,0-2.4-.9c-1.3,0-3.1.4-3.1,2.2,0,.8.6,1.2,1.2,1.5,1.8.8,5.7.9,9.2,2.2,3.3,1.1,6.4,3.1,6.4,7.5,0,7.6-7.2,9.7-13.8,9.7-6.5,0-13.5-2.6-13.7-9.7h9.9a3.7543,3.7543,0,0,0,1.4,2.5,4.6617,4.6617,0,0,0,2.8.8c1.3,0,3.5-.5,3.5-2.1s-1-2-5.8-2.8c-7.9-1.4-11.1-4-11.1-8.6,0-6.9,7.5-8.7,12.9-8.7,6,0,13.1,1.6,13.3,8.6Z"/><path class="cls-3" d="M69.4.2H79.8V13.3H80a9.2473,9.2473,0,0,1,7.5-3.6c9.2,0,11.7,7.7,11.7,14.1,0,6.8-3.8,14.5-11.5,14.5-5.1,0-6.7-2-8.1-3.7h-.1v2.9H69.3ZM84,17.3c-3.7,0-4.5,3.5-4.5,6.7s.8,6.8,4.5,6.8c3.8,0,4.6-3.6,4.6-6.8S87.7,17.3,84,17.3Zm44,14.2a12.1413,12.1413,0,0,0,1.2,6.1H118.7a7.4558,7.4558,0,0,1-.4-2.6h-.1c-2.2,2.6-5.5,3.4-8.8,3.4-5.2,0-9.5-2.6-9.5-8.3,0-8.5,10.1-8.3,15.4-9.3,1.4-.2,2.8-.6,2.8-2.4s-1.7-2.6-3.5-2.6c-3.2,0-3.8,1.6-3.8,2.8h-9.7c.2-7.7,7.5-8.9,14-8.9,13.1,0,12.9,5.4,12.9,10.7Zm-9.9-6.1a15.0646,15.0646,0,0,1-4.1,1.3c-2.4.5-3.6,1.2-3.6,3,0,1.2,1.4,2.5,3.2,2.5,2.4,0,4.2-1.3,4.5-4.2Zm13.7-15.1h10v3.5h.2c2-2.7,4.7-4.1,8.9-4.1,4.8,0,9.3,3,9.3,9.2V37.6H149.8V23.4c0-3.2-.4-5.4-3.4-5.4-1.8,0-4.2.9-4.2,5.2V37.6H131.8ZM163.9.2h10.4V18.3l6.6-8h11.8L183,20.6l11.1,17H181.6l-5.5-9.8-1.8,2v7.8H163.9Z"/><path class="cls-4" d="M197.5,37.8a2.4757,2.4757,0,1,1,.0488,0C197.5326,37.8,197.5163,37.8,197.5,37.8Zm0-4.5a2,2,0,1,0,2,2A2,2,0,0,0,197.5,33.3Z"/><path class="cls-4" d="M197.4,35.1a.3673.3673,0,0,0,.3-.1.4542.4542,0,0,0,0-.5.3673.3673,0,0,0-.3-.1h-.3v.7h.3m-.3.4v1h-.7V33.9h1a1.8845,1.8845,0,0,1,.8.2c.2.1.2.3.2.6,0,.2,0,.3-.1.4a.52.52,0,0,1-.4.2.3489.3489,0,0,1,.2.1c.1.1.2.2.2.3l.4.7H198l-.3-.7c0-.1-.1-.2-.2-.3a.3673.3673,0,0,0-.3-.1l-.1.2"/></svg>