<svg id="Layer_1" data-name="Layer 1" xmlns="http://www.w3.org/2000/svg" width="200" height="44.3396" viewBox="0 0 200 44.3396"><defs><style>.cls-1{fill:#d52b1e;}</style></defs><title>Verizon</title><polygon class="cls-1" points="195.587 0 184.662 23.372 180.554 14.516 176.111 14.516 182.867 29.002 186.458 29.002 200 0 195.587 0"/><path d="M378.3219,94.0764h8.7949V77.9778c0-3.6823,2.13-6.269,5.2952-6.269,3.0432,0,4.6256,2.13,4.6256,5.2039V94.0764h8.7949V75.2389c0-6.3907-3.8344-10.8947-10.0426-10.8947a9.9084,9.9084,0,0,0-8.7949,4.8083h-.1826V65.1963h-8.5209l.03,28.88ZM361.0364,64.4051c-9.1905,0-15.3378,6.6038-15.3378,15.3073,0,8.6428,6.1473,15.3074,15.3378,15.3074s15.3378-6.6646,15.3378-15.3074C376.4046,71.0089,370.2269,64.4051,361.0364,64.4051Zm-.0609,24.1022c-4.1692,0-6.3907-3.5-6.3907-8.7949,0-5.356,2.1911-8.7948,6.3907-8.7948,4.1692,0,6.4821,3.4388,6.4821,8.7948C367.488,85.0076,365.1752,88.5073,360.9755,88.5073Zm-40.353,5.5691h24.7109V87.1379H331.3346v-.1826l13.39-15.003V65.1659H320.6225v6.9689h13.5423v.1826L320.6225,87.4422v6.6342Zm-11.29,0h8.8558v-28.88h-8.8558Zm-20.5417,0h8.8253V80.808c0-6.0256,3.6215-8.7036,9.13-7.9428h.1826v-7.608a4.8041,4.8041,0,0,0-1.7955-.213c-3.4389,0-5.7517,1.5824-7.73,4.96H297.22V65.1963h-8.43v28.88Zm-16.19-5.5386c-3.8953,0-6.269-2.5259-6.7255-6.4212h20.8156c.0609-6.2082-1.5825-11.1686-5.0213-14.2727a13.7277,13.7277,0,0,0-9.7079-3.5c-8.7035,0-14.7291,6.6038-14.7291,15.2465,0,8.7036,5.7517,15.3378,15.3074,15.3378a15.2514,15.2514,0,0,0,8.8557-2.5867,11.3586,11.3586,0,0,0,4.8387-6.8168h-8.46C276.9524,87.4118,275.1873,88.5378,272.6006,88.5378Zm-.4565-17.8941c3.1041,0,5.2344,2.3128,5.6,5.6908H265.936C266.6359,72.9261,268.4923,70.6437,272.1441,70.6437ZM239.6426,94.0764h9.2514l10.0426-28.88h-8.8558l-5.63,18.5636h-.1217l-5.63-18.5636H229.6Zm69.69-39.1661h8.8558v7.8514h-8.8558Z" transform="translate(-229.6 -50.6802)"/></svg>