<svg id="Layer_1" data-name="Layer 1" xmlns="http://www.w3.org/2000/svg" width="200" height="54.7534" viewBox="0 0 200 54.7534"><defs><style>.cls-1{fill:#00bfff;}</style></defs><title>Vivo</title><path class="cls-1" d="M410.99,142.4659c-.7375.2951-4.9416,4.8679-4.9416,5.36,0,.32.91,1.4505,2.3848,2.95,3.1469,3.2207,3.0977,3.2207,6.2938,0a10.81,10.81,0,0,0,2.3847-2.9256c0-.6392-4.4745-5.2612-5.2366-5.4087A1.7578,1.7578,0,0,0,410.99,142.4659Z" transform="translate(-342.25 -142.3968)"/><path class="cls-1" d="M496.7675,156.9957c-.6146.1967-1.45.5163-1.893.713a4.1522,4.1522,0,0,1-1.1064.32,5.4888,5.4888,0,0,0-1.4259.7376,6.6553,6.6553,0,0,1-1.3276.7375,13.93,13.93,0,0,0-3.1715,2.6306c-1.2046,1.1555-3.86,4.77-3.86,5.2367a13.3257,13.3257,0,0,1-.6393,1.6226c-1.7455,3.909-1.7209,11.53,0,15.4149a11.6243,11.6243,0,0,1,.6393,1.6472,24.6861,24.6861,0,0,0,3.5894,4.9662,26.6811,26.6811,0,0,0,4.1549,3.3927,17.9917,17.9917,0,0,1,1.6718.713c3.6631,1.6718,2.9993,1.6226,18.7338,1.6226,12.9564,0,14.3577-.0492,15.3657-.418a6.52,6.52,0,0,1,1.4751-.4425,21.763,21.763,0,0,0,4.9416-2.5077,20.54,20.54,0,0,0,2.7044-2.2864c1.3768-1.4013,3.6632-4.6712,3.6632-5.2366a2.2224,2.2224,0,0,1,.295-.8605,20.485,20.485,0,0,0,1.6718-8.1377,29.3331,29.3331,0,0,0-.8605-6.6625c-.1721-.418-.4917-1.1555-.7129-1.6718a6.1114,6.1114,0,0,1-.3934-1.1309c0-.7868-4.4991-6.4168-5.1137-6.4168a1.055,1.055,0,0,1-.5409-.3687,18.6337,18.6337,0,0,0-4.4253-2.6306,26.9756,26.9756,0,0,1-3.1469-1.0818C525.8026,156.3565,498.341,156.4549,496.7675,156.9957Zm29.6743,6.8839a8.84,8.84,0,0,1,1.598.713,2.9709,2.9709,0,0,0,.8851.4425,16.432,16.432,0,0,1,4.4007,4.1795c.1967.3933.6146,1.18.9342,1.7209a3.9548,3.9548,0,0,1,.6147,1.721,14.1167,14.1167,0,0,0,.3933,2.3847,5.1185,5.1185,0,0,1,.123,2.95c-.1721.713-.3934,1.8685-.5163,2.5815a11.2929,11.2929,0,0,1-2.9257,5.31c-1.2784,1.3522-3.7861,3.1223-4.4007,3.1223a2.03,2.03,0,0,0-.91.32c-1.1064.7375-3.7124.91-14.6528.91-8.5556,0-11.2846-.0737-12.6122-.3442a7.2855,7.2855,0,0,1-1.9422-.6146,1.3145,1.3145,0,0,0-.7867-.27,3.8673,3.8673,0,0,1-1.5489-.7376,4.7365,4.7365,0,0,0-1.2538-.7375,7.9831,7.9831,0,0,1-1.5735-1.4751c-1.4013-1.5489-2.8764-4.032-2.8764-4.8187a5.8988,5.8988,0,0,0-.3688-1.4505,13.8912,13.8912,0,0,1,0-6.1463,6.1775,6.1775,0,0,0,.3688-1.4505,13.66,13.66,0,0,1,2.2618-4.1549,19.1687,19.1687,0,0,1,4.1057-3.319,12.3284,12.3284,0,0,1,1.9668-.7867c1.2785-.418,2.4094-.4672,14.4069-.4672C524.1062,163.437,525.2863,163.4616,526.4418,163.88Z" transform="translate(-342.25 -142.3968)"/><path class="cls-1" d="M343.7743,157.7579a3.0626,3.0626,0,0,0-1.5243,3.0977,3.91,3.91,0,0,0,.9834,2.9011c.5409.7867,1.1063,1.6226,1.2293,1.8438.1475.2213.5408.8114.9342,1.3031a4.4881,4.4881,0,0,1,.6638,1.0817,5.5673,5.5673,0,0,0,.7376,1.1063,4.5669,4.5669,0,0,1,.7375,1.1064,5.5673,5.5673,0,0,0,.7376,1.1063,4.5692,4.5692,0,0,1,.7375,1.1063,3.4862,3.4862,0,0,0,.6884.9834,19.7863,19.7863,0,0,1,2.0652,3.1469,3.11,3.11,0,0,0,.6392.8851,40.3588,40.3588,0,0,1,2.5076,3.5894c.1967.32,1.0326,1.5489,1.8439,2.7044.8113,1.18,1.6472,2.3847,1.8439,2.7043,5.31,8.1377,7.1789,9.7358,12.6368,10.67a12.1472,12.1472,0,0,0,6.0479-1.2293c1.2047-.6392,5.1629-4.499,5.1629-5.04a2.8869,2.8869,0,0,1,.7375-1.1555,4.6041,4.6041,0,0,0,.7376-1.0326,4.0512,4.0512,0,0,1,.6638-1.0817c.3934-.4917,2.2618-3.27,4.2041-6.1709s3.6385-5.335,3.7615-5.36a.3768.3768,0,0,0,.2212-.295,11.7661,11.7661,0,0,1,1.1555-1.893c1.8193-2.6307,3.6141-5.2613,4.0074-5.8759.1967-.32,1.1063-1.6472,2.016-2.9748,1.9176-2.8027,2.2127-3.8844,1.5734-5.6054a2.9556,2.9556,0,0,0-1.2784-1.5734,4.0579,4.0579,0,0,0-3.86-.0492,14.904,14.904,0,0,0-3.024,3.8353,6.3359,6.3359,0,0,1-.5655.86,3.4535,3.4535,0,0,0-.3933.5409c-.123.2213-.91,1.3522-1.721,2.5323-.8113,1.1555-1.5734,2.311-1.721,2.5323-.1229.2212-.5408.8113-.91,1.303a4.11,4.11,0,0,0-.6884,1.0817,4.4859,4.4859,0,0,1-.6638,1.0818c-.3933.4917-.7867,1.0571-.9342,1.2784a24.1069,24.1069,0,0,1-2.4339,3.3927,1.0268,1.0268,0,0,0-.3934.5655,4.3352,4.3352,0,0,1-.7376,1.18,4.5692,4.5692,0,0,0-.7375,1.1063,4.5677,4.5677,0,0,1-.7376,1.1063,6.711,6.711,0,0,0-.7375,1.0818,11.9851,11.9851,0,0,1-1.0326,1.598c-.59.8113-1.45,2.0406-1.9176,2.729-1.8193,2.7289-3.5649,4.1794-4.9908,4.1794-1.3276,0-2.7536-1.008-4.2532-3.0485-1.3768-1.8439-4.5729-6.5151-5.1383-7.4739a12.9134,12.9134,0,0,0-.8605-1.2784c-.3442-.4671-.713-1.0326-.8605-1.2785-.1229-.2212-.91-1.3767-1.721-2.5322s-1.6472-2.36-1.8438-2.68c-.1967-.3442-.91-1.4014-1.5981-2.4093-.6638-.9834-1.2784-1.8931-1.3276-2.0406-.0491-.1229-.6638-1.008-1.3767-1.9668-1.4751-2.0406-4.0812-5.8513-4.4008-6.4659C348.0521,157.3891,345.0773,156.8728,343.7743,157.7579Z" transform="translate(-342.25 -142.3968)"/><path class="cls-1" d="M409.6378,157.7579a5.1539,5.1539,0,0,0-1.1555,1.1555c-.4425.6884-.4671,1.4751-.4671,18.2176,0,16.2016.0246,17.5537.4426,18.2421a4.4289,4.4289,0,0,0,3.1223,1.7456,4.2639,4.2639,0,0,0,2.8273-1.3522l.6146-.6638.0737-17.603c.0738-19.5943.1475-18.66-1.5488-19.7172A4.2248,4.2248,0,0,0,409.6378,157.7579Z" transform="translate(-342.25 -142.3968)"/><path class="cls-1" d="M422.9384,157.7579a3.7633,3.7633,0,0,0-.91,5.3841,6.09,6.09,0,0,1,.7376,1.18,6.711,6.711,0,0,0,.7375,1.0818,5.2659,5.2659,0,0,1,.7376,1.0817,42.5459,42.5459,0,0,0,2.4339,3.4911,6.4442,6.4442,0,0,1,.5163.8605,3.0443,3.0443,0,0,0,.4917.7129c.1229.0984,1.6472,2.2865,2.3356,3.3682.1475.2213.8113,1.2293,1.5243,2.2618.6884,1.0326,2.5814,3.7861,4.1795,6.1217,1.598,2.36,3.0731,4.5237,3.27,4.8433,3.9582,6.0725,6.0233,7.8181,10.3257,8.7277a6.6984,6.6984,0,0,0,3.8107,0,15.7883,15.7883,0,0,0,3.1223-.9588c1.303-.6392,5.1137-4.2041,5.1137-4.7941a7.857,7.857,0,0,1,.7376-1.18c.4179-.59,1.721-2.5077,2.901-4.2532,1.2047-1.77,3.0732-4.5237,4.18-6.1463s2.1635-3.1469,2.3356-3.4173c.1475-.2459.7621-1.1064,1.3522-1.8931a15.0123,15.0123,0,0,0,1.0326-1.5734,24.7191,24.7191,0,0,1,1.7209-2.5815c.1475-.1475,2.95-4.2532,3.319-4.8678.1475-.2213.5409-.8113.91-1.303,1.6226-2.1389,1.45-4.8925-.32-6.0234a3.8766,3.8766,0,0,0-4.0812-.0492,26.297,26.297,0,0,0-3.1715,4.13c-1.303,1.9669-2.95,4.3762-3.6386,5.3842s-1.4259,2.0651-1.6226,2.3847c-1.77,2.68-5.31,7.7689-5.5808,7.99a.9263.9263,0,0,0-.32.4671,16.221,16.221,0,0,1-1.2784,2.0652c-.713,1.0326-1.4014,2.09-1.5489,2.311a12.9074,12.9074,0,0,1-.8605,1.2784c-.3442.4671-.7129,1.0326-.8605,1.2538-1.7455,2.8519-3.8107,4.6466-5.3841,4.6466a6.0525,6.0525,0,0,1-3.4911-1.9668,30.7381,30.7381,0,0,1-1.9668-2.7043c-.6884-1.008-1.77-2.6061-2.3848-3.5157a17.0738,17.0738,0,0,1-1.1555-1.8193,5.4068,5.4068,0,0,0-.7129-1.0326c-.3688-.4917-1.8439-2.606-3.27-4.6957-2.4586-3.6632-4.45-6.5643-7.2527-10.6208a23.4549,23.4549,0,0,1-1.303-2.0406,17.4628,17.4628,0,0,0-2.901-3.614A4.2444,4.2444,0,0,0,422.9384,157.7579Z" transform="translate(-342.25 -142.3968)"/></svg>