<svg id="Layer_1" data-name="Layer 1" xmlns="http://www.w3.org/2000/svg" width="200" height="49.3187" viewBox="0 0 200 49.3187"><defs><style>.cls-1{fill:#ee3023;}.cls-2{fill:#fff;}</style></defs><title>Vodafone</title><g id="g3721"><path id="path2333-2" class="cls-1" d="M67.303,31.9012A24.6594,24.6594,0,1,1,42.6457,7.24h0A24.6581,24.6581,0,0,1,67.303,31.899v.0022" transform="translate(-17.9843 -7.2398)"/><path id="path2337-8" class="cls-2" d="M42.8408,45.6524c-6.7736.0231-13.8237-5.7591-13.8554-15.047a20.9331,20.9331,0,0,1,7.5258-15.559,24.6658,24.6658,0,0,1,14.92-5.6323,6.2086,6.2086,0,0,1,1.776.1992,10.2422,10.2422,0,0,0-8.0422,9.841,2.189,2.189,0,0,0,.0315.4033c7.5077,1.83,10.9148,6.3613,10.9375,12.6275A13.1983,13.1983,0,0,1,42.9048,45.6522l-.0641,0" transform="translate(-17.9843 -7.2398)"/><path id="path2339-2" class="cls-1" d="M83.229,42.1138,75.69,24.1217h4.925l4.703,11.948,4.5581-11.948h4.703L87.2614,42.1138Z" transform="translate(-17.9843 -7.2398)"/><path id="path2341-0" class="cls-1" d="M107.7,33.0249a8.3874,8.3874,0,0,0-.2628-2.134,5.11,5.11,0,0,0-.7838-1.74,3.9642,3.9642,0,0,0-1.2686-1.16,3.7515,3.7515,0,0,0-3.5069,0,3.9173,3.9173,0,0,0-1.2687,1.16,5.11,5.11,0,0,0-.7838,1.74,8.8856,8.8856,0,0,0,0,4.2907,5.6254,5.6254,0,0,0,.7612,1.74,3.7389,3.7389,0,0,0,1.2731,1.1826,3.5633,3.5633,0,0,0,1.7717.4307,3.47,3.47,0,0,0,1.7534-.4307,3.99,3.99,0,0,0,1.2691-1.1826,5.3606,5.3606,0,0,0,.7838-1.74,8.3436,8.3436,0,0,0,.2628-2.1567m4.5536.02a11.3992,11.3992,0,0,1-.5393,3.457,9.494,9.494,0,0,1-1.6089,3.04,7.9135,7.9135,0,0,1-2.6868,2.1655,9.1579,9.1579,0,0,1-7.5756,0,7.9743,7.9743,0,0,1-2.6913-2.1658,9.5771,9.5771,0,0,1-1.6039-3.04,11.4022,11.4022,0,0,1-.5392-3.457,11.2378,11.2378,0,0,1,.5392-3.4344,9.3972,9.3972,0,0,1,1.6039-3.0039,7.8679,7.8679,0,0,1,2.6913-2.125,8.4343,8.4343,0,0,1,3.7878-.8064,8.3427,8.3427,0,0,1,3.77.8064,8.0723,8.0723,0,0,1,2.6869,2.125,9.11,9.11,0,0,1,1.6265,3.0039,11.2378,11.2378,0,0,1,.5392,3.4344" transform="translate(-17.9843 -7.2398)"/><path id="path2343-6" class="cls-1" d="M126.159,28.0817a6.8769,6.8769,0,0,0-2.492-.5255,4.33,4.33,0,0,0-2.0388.453,4.024,4.024,0,0,0-1.4137,1.2143,5.5463,5.5463,0,0,0-.8337,1.7263,6.9711,6.9711,0,0,0-.28,1.9663,9.303,9.303,0,0,0,.2447,2.1522,5.55,5.55,0,0,0,.743,1.7987,3.9552,3.9552,0,0,0,1.26,1.237,3.4135,3.4135,0,0,0,1.8029.4666,3.7714,3.7714,0,0,0,1.7444-.4666,3.0841,3.0841,0,0,0,1.2641-1.1056Zm.3715,14.0324-.1857-1.3773a5.7177,5.7177,0,0,1-1.6765,1.246,5.2352,5.2352,0,0,1-2.4557.5437,6.6418,6.6418,0,0,1-3.2712-.7839,7.3254,7.3254,0,0,1-2.3833-2.0887,9.56,9.56,0,0,1-1.4724-3.0267,12.8251,12.8251,0,0,1-.499-3.5842,11.62,11.62,0,0,1,.5166-3.4344,9.0854,9.0854,0,0,1,1.5813-3.0039,7.896,7.896,0,0,1,2.6642-2.125,8.2816,8.2816,0,0,1,3.756-.8065,10.2085,10.2085,0,0,1,3.0538.5208V17.2166h4.6261V42.1139Z" transform="translate(-17.9843 -7.2398)"/><path id="path2345-7" class="cls-1" d="M143.8158,33.6773c-.4984.0263-1.015.0727-1.5405.1315-.5256.0635-1.024.145-1.5.2446a3.4552,3.4552,0,0,0-2.0887,1.0241,2.5132,2.5132,0,0,0-.58,1.59,1.77,1.77,0,0,0,.657,1.4363,2.8632,2.8632,0,0,0,1.8577.5392,4.2726,4.2726,0,0,0,1.7489-.3715,5.1936,5.1936,0,0,0,1.4453-.9334Zm.3716,8.4235-.1813-1.3458a5.1316,5.1316,0,0,1-1.912,1.3,6.737,6.737,0,0,1-2.5463.4708,6.3657,6.3657,0,0,1-2.2293-.3942,5.8027,5.8027,0,0,1-1.8938-1.1191,5.4877,5.4877,0,0,1-1.835-4.2,5.1,5.1,0,0,1,.5255-2.37,5.172,5.172,0,0,1,1.4223-1.7353,7.9079,7.9079,0,0,1,2.0616-1.1554,12.95,12.95,0,0,1,2.433-.6751,17.7461,17.7461,0,0,1,1.9665-.2766c.7111-.0635,1.3049-.1177,1.78-.1676V30.17a2.61,2.61,0,0,0-.77-2.1295,3.2381,3.2381,0,0,0-2.1159-.6343,5.8242,5.8242,0,0,0-1.5043.19,6.5412,6.5412,0,0,0-1.2731.4622,11.3286,11.3286,0,0,0-.9968.5619,7.0027,7.0027,0,0,0-.6932.5029L134.8941,25.88a6.575,6.575,0,0,1,.9152-.6342,10.2394,10.2394,0,0,1,1.4952-.73,12.5816,12.5816,0,0,1,1.9755-.5981,10.9342,10.9342,0,0,1,2.37-.2446,8.9142,8.9142,0,0,1,2.7276.3942,5.5191,5.5191,0,0,1,2.13,1.232,5.76,5.76,0,0,1,1.4,2.1249,8.5529,8.5529,0,0,1,.5029,3.1127V42.1Z" transform="translate(-17.9843 -7.2398)"/><path id="path2347-3" class="cls-1" d="M162.71,21.3217a7.2955,7.2955,0,0,0-.8744-.3173,6.0366,6.0366,0,0,0-1.74-.2038,2.3652,2.3652,0,0,0-1.6221.58,2.405,2.405,0,0,0-.6524,1.8848v.8564h3.883v3.7334h-3.8468V42.1138h-4.63V27.8551h-2.3877V24.1217h2.3877v-.97a8.612,8.612,0,0,1,.4486-2.9676,5.1333,5.1333,0,0,1,1.25-1.9755,4.8891,4.8891,0,0,1,1.8848-1.1236,7.5707,7.5707,0,0,1,2.3561-.3534,10.1541,10.1541,0,0,1,2.7774.3172,8.35,8.35,0,0,1,1.2867.4307Z" transform="translate(-17.9843 -7.2398)"/><path id="path2349-9" class="cls-1" d="M175.328,33.0249a8.602,8.602,0,0,0-.2628-2.134,5.11,5.11,0,0,0-.7838-1.74,3.9635,3.9635,0,0,0-1.2687-1.16,3.7513,3.7513,0,0,0-3.5068,0,3.98,3.98,0,0,0-1.2733,1.16,5.2891,5.2891,0,0,0-.7838,1.74,9.041,9.041,0,0,0,0,4.2907,5.7454,5.7454,0,0,0,.7658,1.74,3.766,3.766,0,0,0,1.2686,1.1826,3.5925,3.5925,0,0,0,1.7761.4307,3.47,3.47,0,0,0,1.7535-.4307,3.9884,3.9884,0,0,0,1.2686-1.1826,5.3606,5.3606,0,0,0,.7838-1.74,8.5509,8.5509,0,0,0,.2629-2.1567m4.5534.02a11.27,11.27,0,0,1-.5436,3.457,9.4008,9.4008,0,0,1-1.604,3.04,7.9119,7.9119,0,0,1-2.6868,2.1657,9.1572,9.1572,0,0,1-7.5756,0,7.9732,7.9732,0,0,1-2.6914-2.1657,9.5771,9.5771,0,0,1-1.6039-3.04,11.2675,11.2675,0,0,1-.5392-3.457,11.1023,11.1023,0,0,1,.5392-3.4344,9.3972,9.3972,0,0,1,1.6039-3.0039,7.8688,7.8688,0,0,1,2.691-2.1253,8.4336,8.4336,0,0,1,3.7877-.8064,8.3431,8.3431,0,0,1,3.77.8064,8.0706,8.0706,0,0,1,2.6867,2.125,9.0145,9.0145,0,0,1,1.6226,3.0039,11.1079,11.1079,0,0,1,.5437,3.4344" transform="translate(-17.9843 -7.2398)"/><path id="path2351-6" class="cls-1" d="M194.2489,42.1138V31.8514a5.1431,5.1431,0,0,0-.8563-3.1761A2.854,2.854,0,0,0,191,27.5562a3.715,3.715,0,0,0-1.9931.5618,8.4146,8.4146,0,0,0-1.59,1.2324V42.1139h-4.626V24.1218h4.2183l.222,1.4182a8.318,8.318,0,0,1,5.1883-1.8621,7.6954,7.6954,0,0,1,2.6142.4259,5.1227,5.1227,0,0,1,2.0524,1.3637,6.2853,6.2853,0,0,1,1.3275,2.4239,12.22,12.22,0,0,1,.4668,3.5839V42.1139Z" transform="translate(-17.9843 -7.2398)"/><path id="path2353-4" class="cls-1" d="M213.2786,30.9543a4.74,4.74,0,0,0-.3942-1.6221,3.437,3.437,0,0,0-.7884-1.1191,3.06,3.06,0,0,0-2.12-.8427,3.5447,3.5447,0,0,0-2.288.8971,3.834,3.834,0,0,0-1.2777,2.6868Zm-6.9775,3.3212a4.3131,4.3131,0,0,0,1.4222,3.2852,5.1557,5.1557,0,0,0,3.294,1.01,9.0541,9.0541,0,0,0,1.7628-.1676,8.1324,8.1324,0,0,0,1.4634-.4307,8.8194,8.8194,0,0,0,1.0875-.5208,3.627,3.627,0,0,0,.675-.4893l1.232,3.7742q-.2651.1835-.8428.5029a8.6966,8.6966,0,0,1-1.4363.5981,15.7425,15.7425,0,0,1-2.0162.4847,14.6622,14.6622,0,0,1-2.5372.2039,10.0211,10.0211,0,0,1-3.3439-.5572,7.474,7.474,0,0,1-2.7774-1.74,8.4865,8.4865,0,0,1-1.903-2.927,11.08,11.08,0,0,1-.7112-4.182,11.5278,11.5278,0,0,1,.6525-4.0324,8.5623,8.5623,0,0,1,1.79-2.95,7.9259,7.9259,0,0,1,2.6507-1.8305,8.2993,8.2993,0,0,1,3.23-.6343,8.8309,8.8309,0,0,1,3.1762.5619,6.5079,6.5079,0,0,1,2.5191,1.7352,8.3724,8.3724,0,0,1,1.6765,3.0449,14.1646,14.1646,0,0,1,.6162,4.44v.82Z" transform="translate(-17.9843 -7.2398)"/></g></svg>