<svg id="VW" xmlns="http://www.w3.org/2000/svg" width="200" height="200" viewBox="0 0 200 200"><defs><style>.cls-1{fill:#001e50;}</style></defs><path class="cls-1" d="M512.6091,602.1365c-49.8,0-90.6-41-90.6-90.8a88.8218,88.8218,0,0,1,5.8-31.8l53,106.6c.6,1.4,1.6,2.6,3.2,2.6s2.6-1.2,3.2-2.6l24.4-54.6c.2-.6.6-1.2,1.2-1.2s.8.6,1.2,1.2l24.4,54.6c.6,1.4,1.6,2.6,3.2,2.6s2.6-1.2,3.2-2.6l53-106.6a88.824,88.824,0,0,1,5.8,31.8C603.2092,561.1365,562.4092,602.1365,512.6091,602.1365Zm0-111.4c-.6,0-.8-.6-1.2-1.2l-28.4-64a86.8464,86.8464,0,0,1,59.2,0l-28.4,64C513.4092,490.3365,513.2092,490.7365,512.6091,490.7365Zm-29,65.8c-.6,0-.8-.6-1.2-1.2l-46-92.8a92.0359,92.0359,0,0,1,32.6-30.6l33.2,73.8a2.33,2.33,0,0,0,2.4,1.6h16a2.34,2.34,0,0,0,2.6-1.6l33.2-73.8a93.7334,93.7334,0,0,1,32.6,30.6l-46.4,92.8c-.2.6-.6,1.2-1.2,1.2s-.8-.6-1.2-1.2l-17.4-39.6a2.34,2.34,0,0,0-2.6-1.6h-16a2.34,2.34,0,0,0-2.6,1.6l-16.8,39.6C484.6091,555.9365,484.2091,556.5365,483.6091,556.5365Zm29,54.8a100,100,0,1,0-100-100A99.7812,99.7812,0,0,0,512.6091,611.3365Z" transform="translate(-412.6091 -411.3365)"/></svg>