<svg id="Layer_1" data-name="Layer 1" xmlns="http://www.w3.org/2000/svg" width="200" height="27.5165" viewBox="0 0 200 27.5165"><defs><style>.cls-1{fill:#0d3896;fill-rule:evenodd;}</style></defs><title>Volvo</title><g id="Layer_1-2" data-name="Layer 1"><g id="Camada_1" data-name="Camada 1"><g id="g10"><polygon id="polygon12" class="cls-1" points="0 1.181 0 4.832 5.99 4.832 17.712 26.815 32.136 26.815 43.857 4.796 49.846 4.758 49.859 1.181 31.94 1.181 31.94 4.771 36.712 4.771 28.435 20.399 19.483 4.825 26.013 4.796 26.001 1.181 0 1.181"/><polygon id="polygon14" class="cls-1" points="115.601 1.181 115.601 4.832 121.589 4.832 133.311 26.815 147.736 26.815 159.458 4.796 165.447 4.758 165.458 1.181 147.542 1.181 147.542 4.771 152.312 4.771 144.035 20.399 135.083 4.825 141.614 4.796 141.602 1.181 115.601 1.181"/><path id="path16" class="cls-1" d="M386.1288,42.4555v3.6518h5.9887l.01,17.9469h-6.3137v4l6.318.0358h29.903V56.1578H418.14a7.9908,7.9908,0,0,1-8.0025,7.905c-2.1152,0-6.2138-.0083-6.2138-.0083V46.1l5.8988-.0295-.008-3.6152H386.1288Z" transform="translate(-300 -41.2748)"/><path id="path18" class="cls-1" d="M365.702,64.8073c-3.5887,0-6.4965-4.2988-6.4965-9.6043s2.9078-9.6087,6.4965-9.6087,6.4965,4.302,6.4965,9.6087-2.9088,9.6043-6.4965,9.6043Zm.264-23.0883c-10.18,0-18.4323,6.0618-18.4323,13.5363s8.2521,13.536,18.4323,13.536,18.4328-6.061,18.4328-13.536S376.1452,41.719,365.966,41.719Z" transform="translate(-300 -41.2748)"/><path id="path20" class="cls-1" d="M481.3038,64.739c-3.5876,0-6.4951-4.37-6.4951-9.7632,0-5.3913,2.9078-9.7623,6.4951-9.7623s6.495,4.371,6.495,9.7623c0,5.393-2.907,9.7632-6.495,9.7632Zm.2652-23.4642c-10.1823,0-18.432,6.16-18.432,13.757s8.25,13.7555,18.432,13.7555c10.1785,0,18.431-6.1593,18.431-13.7555s-8.2525-13.757-18.431-13.757Z" transform="translate(-300 -41.2748)"/></g></g></g></svg>