<svg id="Layer_1" data-name="Layer 1" xmlns="http://www.w3.org/2000/svg" width="200" height="200" viewBox="0 0 200 200"><defs><style>.cls-1{fill:#b31e30;}.cls-2{fill:#ffcc02;}</style></defs><title>Wells-Fargo</title><path id="path16" class="cls-1" d="M51.1811,251.1811h200v-200h-200Z" transform="translate(-51.1811 -51.1811)"/><path id="path20" class="cls-2" d="M123.263,114.1326v9.8279h2.2477c2.8367,0,4.1234-1.38,4.1234-5.2395v-.6045h3.3018V133.37h-3.3018v-.651c0-3.8289-1.2867-5.2861-4.1234-5.2861H123.263v10.9906h9.4248c4.294,0,5.8441-2.8368,6.3557-8.2623h3.4258v11.7656H111.5129v-3.5033h2.62c1.6277,0,2.4957-.45,2.4957-3.2863V116.7988c0-2.0462-.93-2.6662-3.1158-2.6662h-.961c-2.2478,0-3.3174.527-4.1079,2.8678l-8.5413,24.9263H93.4071l-4.9449-16.2455h-.0929l-5.4876,16.2455H76.3091l-8.8668-26.12c-.3877-1.2866-1.0541-1.6741-2.8523-1.6741h-.651v-3.4878H77.6113v3.4878H75.6271c-1.0386,0-1.4572.62-1.4572,1.24a5.2155,5.2155,0,0,0,.4186,1.7052L80.51,134.5325h.0929l5.6426-16.416-.7906-2.2323c-.48-1.3951-1.4261-1.7516-2.8058-1.7516H81.533v-3.4878H95.6548v3.4878H93.1591c-.9611,0-1.3331.4185-1.3331,1.0386a5.72,5.72,0,0,0,.3877,1.5966l5.1775,17.4547h.0928l6.0146-17.0516a4.8586,4.8586,0,0,0,.3564-1.6122c0-.7441-.3564-1.4261-2.0152-1.4261H99.5611v-3.4878h42.908v10.696H138.95c-.7131-4.5265-1.1161-7.2082-7.3942-7.2082Zm51.4184,27.7941V130.1611H171.07c-.4805,5.379-1.4571,8.2623-6.3556,8.2623h-7.1152V116.3028c0-1.7362.7131-2.17,2.79-2.17H163.04v-3.4878H145.7556v3.4878h2.7283c1.8912,0,2.5267.62,2.5267,2.0462v20.1519c0,1.6431-.8991,2.0927-2.2322,2.0927h-3.0228v3.5033Zm32.1035,0V130.1611h-3.6273c-.4806,5.379-1.4882,8.2623-6.3246,8.2623h-7.1307V116.3028c0-1.7362.713-2.17,2.79-2.17h2.6353v-3.4878h-17.3v3.4878h2.7438c1.9067,0,2.5423.62,2.5423,2.0462v20.1519c0,1.6431-.9146,2.0927-2.2323,2.0927h-3.0538v3.5033Zm23.81-28.9257a12.1968,12.1968,0,0,0-8.8049-3.2863c-5.906,0-11.8741,2.9918-11.8741,9.4094,0,5.813,4.6349,8.4638,9.9674,9.6109,1.7672.372,2.8213.5735,4.4335.9146,3.9993.8525,6.6656,2.0617,6.6656,4.8364,0,2.1082-2.2322,4.3714-6.65,4.3714-6.1695,0-9.8279-3.4413-10.5874-8.6963h-3.6274v11.7656h3.2088l1.0386-2.8058a13.3035,13.3035,0,0,0,9.4869,3.7359c7.2857,0,12.7887-3.24,12.7887-9.6419,0-6.2006-5.131-8.8669-11.3936-10.1225-1.1161-.279-2.1392-.45-3.2863-.713-3.8908-.8371-6.3866-1.7982-6.3866-4.5885,0-2.4182,2.5577-4.0769,6.4021-4.0769,5.7821,0,8.0143,3.6739,9.2079,7.6268h3.5188v-10.696h-2.5422ZM87.0205,190.6943v-3.5188H84.6643c-2.1857,0-2.9918-.6511-2.9918-2.4182v-8.5258H83.61c2.93,0,4.2009,1.2711,4.2009,4.5884v1.0386h3.2863V167.4576H87.8111v.62c0,2.4337-.8836,4.6659-3.9219,4.6659H81.6725v-9.8589h6.1541c6.9292,0,7.6577,3.4878,8.1228,7.1927h3.3793V159.3969H69.7209v3.4878h3.1313c1.4106,0,2.2012.6356,2.2012,1.7672v20.2139a2.1334,2.1334,0,0,1-2.3872,2.31H69.7209v3.5189Zm131.003-32.243c-10.262,0-17.0516,7.1772-17.0516,16.5866,0,9.3938,6.79,16.633,17.0516,16.633,10.231,0,17.0361-7.2391,17.0361-16.633,0-9.4094-6.8051-16.5866-17.0361-16.5866m0,3.6893c7.41,0,9.6264,6.1541,9.6264,12.8973s-2.2167,12.9127-9.6264,12.9127c-7.4563,0-9.6574-6.17-9.6574-12.9127s2.2011-12.8973,9.6574-12.8973m-28.8638-.186a13.1538,13.1538,0,0,0-9.3938-3.5033c-9.2545,0-15.0675,7.0532-15.0675,16.5866,0,9.6109,5.9061,16.6331,15.0675,16.6331,5.8905,0,9.0838-2.6973,9.8124-3.3639l1.7516,2.3873h3.2088V179.8433c0-1.8446.6821-2.3407,2.5113-2.3407h.868v-3.5033H183.4707v3.5033H185.61c1.55,0,2.4957.6976,2.4957,2.2167v1.8292c0,3.5808-2.2012,6.0766-6.9911,6.0766-5.9991,0-9.0064-5.3945-9.0064-12.5872,0-7.0842,3.0073-12.51,8.82-12.51,6.0611,0,8.1228,5.6425,8.82,7.5492h3.8753V159.3969h-3.3018Zm-26.0269,21.3921v.8526c0,5.3945-2.5733,7.4717-6.48,7.4717-4.573,0-6.1077-2.2012-6.1077-6.4642v-1.6276c0-5.379-2.2941-7.5492-7.5336-7.5492h-2.48v9.4559c0,1.2556.5736,1.69,1.9377,1.69h3.4413v3.5189H114.66v-3.5189h3.4723c.9611,0,1.3176-.2325,1.3176-.7905a4.1884,4.1884,0,0,0-.279-1.2867c-.1706-.4185-1.6431-4.4489-1.6431-4.4489H106.3664s-1.38,3.72-1.6121,4.34a4.0059,4.0059,0,0,0-.279,1.3022c0,.6665.558.8835,1.4881.8835h3.3174v3.5189H94.5544v-3.5189c2.4957,0,4.0768-.3565,4.96-2.5422l9.983-25.2364h5.999l10.231,25.2364c.8526,2.2167,2.4647,2.5422,4.96,2.5422h1.2711c1.3486,0,1.9532-.434,1.9532-1.69V164.59c0-1.2556-.4806-1.7052-1.9532-1.7052h-3.2863v-3.4878H149.228c6.8207,0,10.0295,3.2243,10.0295,8.1073,0,6.0611-6.03,7.2547-8.8513,7.41v.0775c3.3018.248,6.092,1.6121,6.092,6.4331v1.8292c0,3.2088.6821,3.9218,1.8137,3.9218,1.1161,0,1.7051-.8835,1.7051-2.9762v-.8526Zm-46.892-6.17-4.2164-11.3936h-.1393l-4.2164,11.3936Zm36.444-9.4714c0-2.7438-1.9687-4.821-6.34-4.821h-5.8131v9.6574h5.8131c4.03,0,6.34-1.8136,6.34-4.8364" transform="translate(-51.1811 -51.1811)"/></svg>