<svg width="110" height="105" viewBox="0 0 110 105" fill="none" xmlns="http://www.w3.org/2000/svg">
<path d="M87.8012 104.807C87.4413 104.807 87.0901 104.706 86.7829 104.513L54.9991 84.7565L23.2153 104.518C22.5437 104.935 21.6877 104.895 21.0556 104.426C20.4192 103.956 20.1382 103.148 20.3402 102.385L29.9574 66.5577L0.683997 41.9634C0.0782566 41.4498 -0.154382 40.6202 0.104596 39.8652C0.363575 39.1146 1.05711 38.601 1.84723 38.566L39.5169 37.1174L53.1991 1.24225C53.4844 0.491651 54.1999 0 54.9988 0C55.7977 0 56.5132 0.491618 56.7985 1.24225L70.4762 37.1174L108.15 38.566C108.945 38.5967 109.638 39.1147 109.897 39.8652C110.152 40.6202 109.924 41.4542 109.314 41.9677L80.0446 66.5576L89.6619 102.384C89.8155 102.964 89.6926 103.578 89.3283 104.052C88.964 104.527 88.3982 104.807 87.8012 104.807ZM54.9994 80.5558C55.3593 80.5558 55.7104 80.6568 56.0177 80.8455L84.6765 98.6707L76.0029 66.3734C75.8097 65.6491 76.0512 64.881 76.6262 64.3982L103.024 42.2231L69.0626 40.9239C68.29 40.8932 67.6096 40.4059 67.3375 39.686L54.9993 7.3404L42.6645 39.6815C42.3923 40.4014 41.7119 40.8886 40.9394 40.9194L6.97334 42.2231L33.3713 64.3982C33.9463 64.881 34.1877 65.6492 33.9946 66.3734L25.321 98.6707L53.9797 80.85C54.287 80.6613 54.6382 80.5603 54.9981 80.5559L54.9994 80.5558Z" fill="#00C64D"/>
</svg>
