<svg width="110" height="85" viewBox="0 0 110 85" fill="none" xmlns="http://www.w3.org/2000/svg">
<path d="M39.9625 15.9885C43.951 14.6015 49.254 11.9778 54.3726 9.43761C59.5141 6.88629 66.583 3.41034 68.1093 3.56635C70.3207 3.88387 82.4865 10.925 90.4195 15.8214C90.7036 15.9996 91.0267 16.0888 91.3554 16.0888H109.994V12.5237H91.8616C87.7562 9.99476 72.2209 0.552854 68.6159 0.0347761C66.8835 -0.215892 63.9032 0.898196 59.3021 3.0651C57.631 2.029 53.8988 0.00140786 50.2001 0.00140786H50.1165C40.3014 0.0849648 22.6768 10.6353 19.5908 12.5237H0V16.0888H20.0985C20.4327 16.0888 20.7614 15.9941 21.0455 15.8158C21.2404 15.6933 40.5921 3.64434 50.1451 3.56647H50.2064C51.9889 3.56647 53.8773 4.25164 55.3646 4.96466C54.5402 5.37131 53.6879 5.79465 52.7855 6.24029C47.761 8.73584 42.5693 11.3094 38.7926 12.6241C34.6482 14.0612 34.9768 16.9802 35.1773 17.8379C36.219 22.2943 44.3518 26.3106 50.7139 25.5195C57.3204 24.6951 63.8212 22.6062 66.3561 21.7317L93.3109 49.2C94.1131 50.0021 94.5587 51.0772 94.5587 52.2192C94.5587 53.3611 94.1131 54.4306 93.3109 55.2384C91.6453 56.904 88.9326 56.904 87.267 55.2384C86.5707 54.542 85.44 54.5476 84.7436 55.2384C84.0473 55.9347 84.0473 57.0654 84.7436 57.7617L86.5819 59.5945C87.3896 60.4022 87.8297 61.4772 87.8297 62.6192C87.8297 63.7556 87.3896 64.8307 86.5763 65.6384C84.9665 67.2538 82.1478 67.2538 80.5324 65.6384L78.6997 63.8057C78.0033 63.1094 76.8726 63.1094 76.1763 63.8057C75.48 64.502 75.48 65.6327 76.1763 66.329C76.984 67.1312 77.4241 68.2063 77.4241 69.3482C77.4241 70.4902 76.984 71.5653 76.1763 72.373C74.5051 74.0386 71.7979 74.0386 70.1323 72.373L68.3109 70.546C68.3053 70.546 68.2997 70.5404 68.2997 70.5348C67.6034 69.8441 66.4727 69.8385 65.7764 70.5348C65.08 71.2311 65.08 72.3619 65.7764 73.0582C67.442 74.7238 67.442 77.4365 65.7764 79.1021C64.1107 80.7677 61.398 80.7677 59.7324 79.1021L57.6769 77.0467L62.9967 71.7268C64.4283 70.2952 65.2193 68.3902 65.2193 66.3625C65.2193 64.3404 64.4339 62.4354 62.9967 61.0038C61.8771 59.8841 60.4678 59.1711 58.9414 58.9092C59.5875 57.7562 59.9608 56.4694 59.9608 55.1101C59.9608 53.0156 59.1475 51.0492 57.6601 49.5676C56.1783 48.0858 54.212 47.2725 52.1176 47.2725C51.8446 47.2725 51.5828 47.3227 51.3154 47.3505C51.3433 47.0831 51.3934 46.8157 51.3934 46.5428C51.3934 44.4482 50.5801 42.4819 49.0928 41.0002C47.611 39.524 45.6447 38.7052 43.5502 38.7052C43.2773 38.7052 43.0155 38.7553 42.7481 38.7831C42.7759 38.5158 42.8261 38.254 42.8261 37.981C42.8261 35.8864 42.0128 33.9201 40.531 32.4384C39.0492 30.9567 37.0829 30.1434 34.9885 30.1434C32.8941 30.1434 30.922 30.9567 29.4459 32.4384L13.4087 48.4756C13.1971 48.6873 13.0355 48.9268 12.8573 49.1552L0.000713985 49.1608V52.7259H11.253C10.8519 55.1434 11.5593 57.7058 13.4254 59.5664C14.6397 60.7807 16.1883 61.5161 17.8539 61.7556C16.3332 64.708 16.7677 68.4124 19.2354 70.88C20.7172 72.3618 22.6836 73.1806 24.778 73.1806C26.048 73.1806 27.2624 72.8408 28.3653 72.2726C28.5992 73.9382 29.3401 75.4867 30.5545 76.6956C32.0363 78.1774 34.0027 78.9906 36.0971 78.9906C37.356 78.9906 38.5537 78.6676 39.6455 78.1049C39.8906 79.6312 40.5758 81.0963 41.7456 82.2717C43.1828 83.7033 45.088 84.4887 47.1099 84.4887C49.1319 84.4887 51.0371 83.7033 52.4687 82.2717L55.1647 79.5756L57.2202 81.6255C58.7465 83.1574 60.7575 83.9206 62.7628 83.9206C64.7681 83.9206 66.7791 83.1574 68.3053 81.6255C69.6645 80.2663 70.4166 78.5283 70.5669 76.7514C73.3243 77.7095 76.505 77.0911 78.7053 74.8964C80.031 73.5762 80.8165 71.8661 80.9724 70.0278C81.7912 70.3119 82.6658 70.4623 83.5626 70.4623C85.6572 70.4623 87.6291 69.6434 89.1052 68.1672C90.587 66.6854 91.4002 64.719 91.4002 62.6246C91.4002 61.7278 91.2498 60.8532 90.9657 60.0288C92.7427 59.8784 94.4806 59.1264 95.8399 57.7673C97.1992 56.4081 97.9623 54.6311 98.0848 52.726H110V49.1609H97.5111C97.1211 48.2529 96.5697 47.4117 95.851 46.6931L68.1047 18.4235C67.6089 17.9221 66.8625 17.7606 66.2108 18.0057C66.1328 18.0335 58.1336 21.0082 50.2735 21.9886C44.9314 22.657 39.1214 19.0307 38.6536 17.0364C38.5366 16.5629 39.4222 16.1779 39.9625 15.9885ZM15.9424 50.9991L31.9796 34.9562C32.7873 34.1485 33.8624 33.7084 35.0043 33.7084C36.1407 33.7084 37.2158 34.1485 38.0235 34.9562C38.8312 35.7639 39.2769 36.839 39.2769 37.9809C39.2769 39.1229 38.8312 40.1924 38.0235 41.0001L21.9864 57.0373C20.3709 58.6527 17.5578 58.6527 15.9424 57.0373C14.2768 55.3717 14.2768 52.6647 15.9424 50.9991ZM21.7579 68.3567C20.0923 66.6911 20.0923 63.9784 21.7579 62.3128L40.5473 43.5234C41.355 42.7156 42.4245 42.27 43.5721 42.27C44.714 42.27 45.7836 42.7156 46.5968 43.5234C47.4045 44.3311 47.8502 45.4006 47.8502 46.5426C47.8502 47.6845 47.4045 48.7596 46.5968 49.5673L27.8074 68.3567C26.1864 69.9721 23.3733 69.9721 21.7579 68.3567ZM33.0715 74.1722C32.2638 73.3645 31.8181 72.2894 31.8181 71.1475C31.8181 70.0055 32.2638 68.936 33.0715 68.1283L49.1086 52.0854C49.9164 51.2777 50.9914 50.8376 52.1334 50.8376C53.2753 50.8376 54.3449 51.2777 55.1582 52.0854C55.9659 52.8931 56.4115 53.9682 56.4115 55.1102C56.4115 56.2521 55.9659 57.3217 55.1582 58.1294L39.121 74.1722C37.5 75.7876 34.6869 75.7876 33.0715 74.1722ZM49.9443 79.7426C48.4236 81.2633 45.7831 81.2578 44.2624 79.7426C42.6971 78.1773 42.6971 75.6261 44.2624 74.0607L54.8017 63.5215C55.5648 62.7639 56.5675 62.3461 57.6426 62.3461C58.7177 62.3461 59.7259 62.7639 60.4835 63.5215C61.2467 64.2846 61.6589 65.2929 61.6589 66.3624C61.6589 67.4375 61.2411 68.4457 60.4835 69.2034L49.9443 79.7426Z" fill="#00C64D"/>
</svg>
