<svg width="110" height="110" viewBox="0 0 110 110" fill="none" xmlns="http://www.w3.org/2000/svg">
<path fill-rule="evenodd" clip-rule="evenodd" d="M53.2253 76.2277L53.0124 76.2188H52.9414C50.3156 75.9704 47.7253 75.4382 45.206 74.6221C43.077 73.9124 41.0899 72.8834 39.2802 71.535C38.8899 71.2511 38.6415 70.8253 38.5705 70.3641C38.4995 69.9028 38.6415 69.4415 38.9254 69.0512C39.2092 68.661 39.5995 68.4125 40.0962 68.3416C40.5575 68.3061 41.0188 68.4125 41.4091 68.6964C42.8994 69.7964 44.5316 70.648 46.3058 71.2512C48.5768 71.9609 50.8831 72.4576 53.2606 72.706L55.1057 72.7769C57.9798 72.8479 60.8185 71.9253 63.0894 70.1512C64.7927 68.8738 65.8572 66.8867 65.9281 64.7577C65.9281 63.5157 65.5023 62.3448 64.7927 61.3512C63.5153 59.719 61.9185 58.4416 60.0379 57.6255C57.8734 56.5965 55.6025 55.7094 53.296 55.0353C51.4509 54.4321 49.6411 53.7579 47.8671 53.0128C46.1639 52.3386 44.6026 51.345 43.2898 50.0676C41.5866 48.3644 40.664 46.0935 40.6284 43.716C40.6639 41.516 41.48 39.387 42.9348 37.7194C44.6735 35.7677 46.9444 34.3839 49.4638 33.6742C50.6791 33.2928 51.9476 33.0222 53.225 32.8936V26.6131C53.225 26.1518 53.4025 25.6905 53.7573 25.3711C54.0766 25.0163 54.5379 24.8388 54.9993 24.8388C55.4606 24.8388 55.9218 25.0163 56.2412 25.3711C56.5961 25.6904 56.7735 26.1517 56.7735 26.6131V32.8626C57.1727 32.8981 57.5807 32.938 57.9799 33.0001C59.5412 33.213 61.1025 33.6033 62.5928 34.171C64.3314 34.8452 66.0346 35.6613 67.667 36.6193C68.0573 36.8677 68.3412 37.258 68.4831 37.7193C68.5896 38.1806 68.5186 38.6419 68.2702 39.0677C68.0218 39.458 67.6315 39.7418 67.1702 39.8483C66.7444 39.9902 66.2477 39.9193 65.8574 39.6709C64.4026 38.8193 62.9122 38.0742 61.3509 37.5064C60.0735 37.0452 58.7961 36.6903 57.4833 36.5129C56.3124 36.3355 55.1058 36.3 53.9349 36.4064C52.7285 36.4774 51.593 36.7258 50.4575 37.0806C48.577 37.5774 46.8738 38.6419 45.5608 40.0967C44.7092 41.0902 44.2124 42.3676 44.1769 43.716C44.2124 45.1353 44.7801 46.5192 45.7736 47.5128C46.7671 48.4708 47.938 49.216 49.2155 49.7483C50.8832 50.458 52.6219 51.0967 54.3605 51.6289C56.8088 52.374 59.1863 53.2967 61.5282 54.3966C63.9056 55.4611 65.9991 57.1288 67.6313 59.1869C68.8022 60.8192 69.4765 62.7707 69.4765 64.7933C69.37 68.0224 67.8087 71.0384 65.2539 72.9545C62.7833 74.8618 59.8338 76.015 56.7688 76.2634C56.7733 76.2767 56.7733 76.2811 56.7733 76.29V83.3867C56.7733 83.848 56.5959 84.3093 56.241 84.6287C55.9217 84.9835 55.4604 85.1609 54.999 85.1609C54.5377 85.1609 54.0765 84.9835 53.7571 84.6287C53.4022 84.3093 53.2248 83.8481 53.2248 83.3867V76.29L53.2253 76.2277ZM3.54835 55C3.54835 41.3743 8.97727 28.2812 18.6286 18.6297C28.2798 8.97818 41.3732 3.54949 54.9989 3.54949C68.6245 3.54949 81.7177 8.9784 91.3692 18.6297C101.021 28.281 106.449 41.3743 106.449 55C106.449 68.6257 101.02 81.7188 91.3692 91.3703C81.7179 101.022 68.6245 106.451 54.9989 106.451C41.3732 106.451 28.2801 101.022 18.6286 91.3703C8.97704 81.719 3.54835 68.6257 3.54835 55ZM0 55C0 40.416 5.78387 26.4361 16.1101 16.1101C26.4363 5.7841 40.416 0 55 0C69.584 0 83.5639 5.78387 93.8899 16.1101C104.216 26.4363 110 40.416 110 55C110 69.584 104.216 83.5639 93.8899 93.8899C83.5637 104.216 69.584 110 55 110C40.416 110 26.4361 104.216 16.1101 93.8899C5.7841 83.5637 0 69.584 0 55Z" fill="#00C64D"/>
</svg>
