<svg width="110" height="85" viewBox="0 0 110 85" fill="none" xmlns="http://www.w3.org/2000/svg">
<path fill-rule="evenodd" clip-rule="evenodd" d="M34.2542 13.158C33.0253 12.5435 33.0253 10.7905 34.2542 10.176L54.2566 0.177243C54.725 -0.0590809 55.275 -0.0590809 55.7434 0.177243L75.7457 10.176C76.9747 10.7905 76.9747 12.5435 75.7457 13.158L55.7434 23.1568C55.275 23.3931 54.725 23.3931 54.2566 23.1568L34.2542 13.158ZM38.7273 11.667L54.9995 19.8052L71.2718 11.667L54.9995 3.53301L38.7273 11.667ZM109.059 26.8348C109.334 26.968 109.57 27.1743 109.768 27.4837C109.923 27.7415 110 28.038 110 28.3344V55.0006C110 55.6323 109.643 56.2081 109.08 56.4917L89.0781 66.4904C87.9695 67.0447 86.6675 66.2412 86.6675 64.9994V39.3639L67.5892 29.8248C66.3603 29.2104 66.3603 27.4573 67.5892 26.8428L87.5872 16.8441C88.0555 16.6077 88.6098 16.6077 89.0782 16.8441L109.059 26.8348ZM88.335 36.4727L104.607 28.3345L88.335 20.1962L72.0583 28.3345L88.335 36.4727ZM89.9979 39.3645V62.305L106.665 53.9691V31.0319L89.9979 39.3645ZM23.3324 39.3645V65C23.3324 66.2417 22.0305 67.0453 20.9219 66.491L0.919533 56.4922C0.356642 56.2086 0 55.6329 0 55.0012V28.335C0 28.0385 0.0773431 27.742 0.262108 27.437C0.429682 27.1749 0.666016 26.9686 0.941016 26.8354L20.9214 16.8452C21.3898 16.6089 21.9441 16.6089 22.4124 16.8452L42.4104 26.844C43.6393 27.4584 43.6393 29.2115 42.4104 29.826L23.3324 39.3645ZM21.6653 20.1959L5.39301 28.3341L21.6653 36.4724L37.942 28.3341L21.6653 20.1959ZM3.33491 53.9692L20.0021 62.3051V39.3646L3.33491 31.033V53.9692ZM31.6687 45.0102C31.6644 44.7009 31.746 44.3958 31.9093 44.1251C32.1199 43.8114 32.3734 43.6051 32.6613 43.4762L54.3004 33.4861C54.7473 33.2841 55.2543 33.2841 55.7012 33.4861L77.3403 43.4762C77.6282 43.6052 77.8818 43.8114 78.0579 44.0778C78.2556 44.3958 78.3372 44.7009 78.3329 45.0102V71.6676C78.3329 72.2821 77.9978 72.8449 77.4564 73.1328L55.7996 84.7983C55.5633 84.9229 55.2968 84.996 55.0261 85.0002C54.7039 84.9959 54.4375 84.9229 54.2011 84.7983L32.5444 73.1328C32.003 72.8449 31.6678 72.282 31.6678 71.6676L31.6687 45.0102ZM55.0008 36.8376L37.0609 45.1176L55.0008 54.7726L72.9406 45.1176L55.0008 36.8376ZM75.0031 47.7902L56.6684 57.6645V80.5456L75.0031 70.6713V47.7902ZM34.9995 70.6713L53.3343 80.5456V57.6645L34.9995 47.7902V70.6713Z" fill="#00C64D"/>
</svg>
