<svg width="110" height="110" viewBox="0 0 110 110" fill="none" xmlns="http://www.w3.org/2000/svg">
<path fill-rule="evenodd" clip-rule="evenodd" d="M55 0C24.6466 0 0 24.6466 0 55C0 85.3534 24.6466 110 55 110C85.3534 110 110 85.3534 110 55C110 24.6466 85.3534 0 55 0ZM55 4.78401C82.7135 4.78401 105.216 27.2865 105.216 55C105.216 82.7135 82.7135 105.216 55 105.216C27.2865 105.216 4.78401 82.7135 4.78401 55C4.78401 27.2865 27.2865 4.78401 55 4.78401Z" fill="#00C64D"/>
<path fill-rule="evenodd" clip-rule="evenodd" d="M27.9465 56.6907L44.8535 73.5977C45.7861 74.5348 47.3015 74.5348 48.2386 73.5977L82.0537 39.7825C82.9863 38.85 82.9863 37.3345 82.0537 36.4019C81.1212 35.4649 79.6057 35.4649 78.6731 36.4019L46.5441 68.5264L31.3266 53.309C30.3941 52.3764 28.8786 52.3764 27.946 53.309C27.0135 54.2415 27.0135 55.757 27.946 56.6896L27.9465 56.6907Z" fill="#00C64D"/>
</svg>
