<svg width="110" height="90" viewBox="0 0 110 90" fill="none" xmlns="http://www.w3.org/2000/svg">
<path d="M36.0927 74.765C38.9372 74.765 41.2489 72.4532 41.2489 69.6087C41.2489 66.7643 38.9372 64.4525 36.0927 64.4525C33.2482 64.4525 30.9365 66.7643 30.9365 69.6087C30.9365 72.4532 33.2482 74.765 36.0927 74.765ZM36.0927 67.89C37.0423 67.89 37.8114 68.6591 37.8114 69.6087C37.8114 70.5584 37.0423 71.3275 36.0927 71.3275C35.1431 71.3275 34.3739 70.5584 34.3739 69.6087C34.3739 68.6591 35.1431 67.89 36.0927 67.89Z" fill="#00C64D"/>
<path d="M23.1512 52.2239L34.3877 46.6078L37.5159 53.3883L39.0241 53.4485L42.5217 53.5903L54.3687 3.44583L67.8909 6.67707L67.1691 9.7278L62.7648 8.67507C61.841 8.45592 60.9128 9.02312 60.6937 9.94688C60.4746 10.8706 61.0418 11.7988 61.9655 12.018L66.3784 13.0707L65.5921 16.405L63.6799 15.9495C62.7518 15.7304 61.828 16.2976 61.6089 17.2213C61.3897 18.1452 61.9569 19.0733 62.8807 19.2924L64.8014 19.7522L64.0108 23.0865L59.6065 22.0338C58.6827 21.8146 57.7545 22.3818 57.5354 23.3056C57.3163 24.2294 57.8835 25.1575 58.8072 25.3767L63.2201 26.4294L62.4338 29.7637L60.5216 29.3082C59.5978 29.0891 58.6697 29.6563 58.4506 30.58C58.2315 31.5038 58.7986 32.432 59.7224 32.6511L61.6431 33.1109L60.8568 36.4452L56.4525 35.3925C55.5287 35.1733 54.6005 35.7405 54.3814 36.6643C54.1623 37.588 54.7295 38.5162 55.6532 38.7354L60.0661 39.7924L59.2798 43.1267L57.3676 42.6712C56.4438 42.4521 55.5157 43.0193 55.2966 43.943C55.0775 44.8668 55.6446 45.795 56.5684 46.0141L58.4891 46.4739L58.3817 46.9208L54.2696 48.9918L53.2942 48.7598C52.3703 48.5407 51.4422 49.1078 51.2231 50.0316C51.1801 50.2035 51.1715 50.3754 51.1844 50.5472L44.9411 53.6883L52.0223 53.9719L90.7884 34.4513L102.415 34.0002L95.0677 42.2373L69.3894 54.6727L76.6726 54.9649L97.1776 45.0349L105.87 35.2896L106.063 35.0275C106.648 34.0521 106.717 32.9779 106.257 32.0841C105.793 31.1861 104.869 30.6146 103.722 30.5243L103.619 30.5157L89.9071 31.0485L62.3895 44.8975L71.2325 7.46792C71.6708 5.62454 70.5364 3.77259 68.7017 3.33435L55.1365 0.0945299C54.8701 0.0300778 54.6037 0 54.3416 0C52.7948 0 51.3939 1.06132 51.0244 2.64252L39.8012 50.1404L36.9008 43.8541C36.8707 43.7295 36.8278 43.6092 36.7719 43.4889C36.7332 43.4072 36.6817 43.3385 36.6301 43.2654L17.7927 2.44128C17.2255 1.20807 16.0309 0.486253 14.7848 0.486253C14.3079 0.486253 13.8223 0.593676 13.3625 0.817111L1.90277 6.39442C0.239906 7.20653 -0.464751 9.24319 0.321526 10.9491L3.44101 17.7123C3.4539 17.94 3.50976 18.172 3.61718 18.3869C3.70742 18.5631 3.82773 18.7135 3.96093 18.8424L22.046 58.0341C22.6948 56.947 23.537 55.9931 24.5338 55.224L23.1512 52.2239ZM3.44149 9.50879C3.4372 9.4959 3.4372 9.48301 3.4372 9.47012L14.7166 3.97872L17.3162 9.6162L6.08412 15.2322L3.44149 9.50879ZM7.52347 18.3561L18.7599 12.7357L21.3467 18.3389L10.1102 23.9549L7.52347 18.3561ZM11.5497 27.083L22.7861 21.467L25.3729 27.0701L14.1364 32.6862L11.5497 27.083ZM15.5802 35.8099L26.8166 30.1939L29.24 35.4489L18.0036 41.0649L15.5802 35.8099ZM21.7075 49.1001L19.443 44.1931L30.6795 38.5771L32.9439 43.4841L21.7075 49.1001Z" fill="#00C64D"/>
<path d="M109.999 66.6008C109.999 62.8196 106.91 59.6012 103.129 59.4508L31.5133 56.5848C31.5133 56.5848 30.3231 56.5633 30.1555 56.5719C26.7394 56.8297 24.0625 59.6442 24.0625 63.1633V82.9292C24.0625 86.5041 26.8167 89.2154 30.2972 89.2154C30.4992 89.2154 30.7054 89.2068 30.9074 89.1896L103.151 82.6884C106.919 82.3447 110 78.9759 110 75.1947V72.6165C110 72.4661 109.987 72.32 109.979 72.1697C109.987 72.0322 110 71.8947 110 71.7572L109.999 66.6008ZM102.845 79.2596L30.6016 85.7608C30.4985 85.7694 30.3997 85.7737 30.2965 85.7737C28.6766 85.778 27.4992 84.5792 27.4992 82.9292V81.8292C28.4145 82.3147 29.4673 82.594 30.5844 82.594C30.6961 82.594 30.8121 82.5897 30.9282 82.5854L103.133 78.9761C103.52 78.9589 103.894 78.8988 104.263 78.8172C103.82 79.0535 103.343 79.2166 102.845 79.2596ZM106.562 71.7573C106.562 73.7123 104.912 75.444 102.961 75.5428L30.7562 79.1521C30.7003 79.1564 30.6401 79.1564 30.5843 79.1564C28.8527 79.1564 27.4991 77.7943 27.4991 76.0541V63.1632C27.4991 61.3886 28.887 59.9965 30.6573 59.9922C30.7046 59.9922 102.991 62.8839 102.991 62.8839C104.929 62.9656 106.562 64.6629 106.562 66.6007L106.562 71.7573Z" fill="#00C64D"/>
</svg>
