<svg width="110" height="107" viewBox="0 0 110 107" fill="none" xmlns="http://www.w3.org/2000/svg">
<path d="M109.987 22.8055C109.981 22.7434 109.969 22.6813 109.956 22.6254C109.95 22.6068 109.95 22.5882 109.937 22.5695C109.937 22.5261 109.913 22.4826 109.9 22.4391L109.875 22.377C109.857 22.3274 109.838 22.2901 109.813 22.2404V22.2466C109.813 22.228 109.801 22.2156 109.795 22.2031C109.764 22.141 109.733 22.0852 109.695 22.0355L109.677 22.0106L109.571 21.8802L109.422 21.7312L109.385 21.7001H109.391C109.348 21.6567 109.298 21.6194 109.248 21.5884C109.192 21.5511 109.136 21.52 109.074 21.489L109.018 21.4641L108.919 21.4145L55.6249 0.125755C55.2088 -0.0419185 54.7493 -0.0419185 54.327 0.125755L22.506 12.8316H22.4874L1.06192 21.3766L0.950138 21.4263L0.912879 21.4449L0.906667 21.4512C0.844567 21.476 0.788676 21.5133 0.726578 21.5505C0.676898 21.5816 0.633426 21.6188 0.583745 21.6623L0.546486 21.6933L0.397444 21.8424L0.291872 21.9728L0.273243 21.9976H0.279453C0.248403 22.0473 0.211142 22.1032 0.180092 22.1653V22.1591C0.173882 22.1777 0.167672 22.1902 0.16146 22.2088C0.13662 22.2523 0.117992 22.2957 0.0993611 22.3454L0.0745208 22.4075C0.0745208 22.451 0.0496798 22.4944 0.0372589 22.5379V22.5255V22.5876C0.0248396 22.6435 0.0124193 22.7056 0 22.7615V22.9664V82.2286C0 82.9303 0.416078 83.5637 1.06192 83.8369L54.3322 106.771V106.777C54.3943 106.802 54.4626 106.827 54.5247 106.839H54.5495C54.6116 106.852 54.68 106.87 54.7483 106.877H54.8042V106.883C54.8787 106.895 54.9532 106.895 55.0277 106.901C55.1022 106.895 55.1768 106.895 55.2513 106.883H55.3134C55.3755 106.877 55.4376 106.858 55.4997 106.846H55.5369C55.599 106.827 55.6611 106.802 55.7232 106.777L108.944 83.8368C109.59 83.5635 110.006 82.9301 110 82.2284V23.0028C110 22.9407 110 22.8676 109.987 22.8055ZM54.9777 3.64075L103.522 23.0281L88.6422 28.965L43.4702 8.23585L54.9777 3.64075ZM74.9739 35.3123L27.6526 14.5466L38.9735 10.0256L86.8401 31.9836V50.1914L76.016 54.6004V36.9014C76.0098 36.2121 75.6011 35.5918 74.9739 35.3123ZM54.9777 42.3979L6.43379 23.0281L23.0899 16.3833L69.4732 36.7404L54.9777 42.3979ZM3.45932 25.6004L53.2273 45.4726V102.519L3.45932 81.0931V25.6004ZM106.496 81.0931L56.728 102.519V45.4853L72.514 39.3001V57.2105C72.514 57.7943 72.8059 58.3408 73.2903 58.6637C73.7684 58.9928 74.3832 59.0549 74.9235 58.8376L89.2563 53.0001C89.9207 52.7268 90.3492 52.0872 90.3492 51.3731V32.0477L106.495 25.6017L106.496 81.0931Z" fill="#00C64D"/>
</svg>
