<svg width="110" height="111" viewBox="0 0 110 111" fill="none" xmlns="http://www.w3.org/2000/svg">
<path d="M67.8332 33.3378C67.4779 32.9825 66.9919 32.7787 66.4851 32.7787C65.9782 32.7787 65.4923 32.9773 65.137 33.3378L1.45778 97.0223C0.517245 97.9629 0 99.2117 0 100.539C0 101.866 0.522529 103.115 1.45778 104.05L6.19188 108.784C7.15856 109.751 8.43353 110.237 9.70324 110.237C10.9782 110.237 12.2479 109.756 13.2198 108.784L61.6363 60.3678C61.8767 60.2738 62.1066 60.1379 62.2947 59.9394C62.488 59.7408 62.6291 59.5214 62.7232 59.281L76.8943 45.1045C77.6363 44.3625 77.6363 43.1555 76.8943 42.4083L67.8332 33.3378ZM10.5226 106.084C10.0627 106.538 9.33121 106.533 8.88178 106.084L4.14767 101.35C3.92822 101.13 3.81326 100.843 3.80803 100.534C3.80803 100.221 3.93344 99.9283 4.15289 99.7088L51.7655 52.0962L58.135 58.4762L10.5226 106.084ZM60.8305 55.7757L54.4558 49.4009L66.4843 37.3724L72.859 43.7472L60.8305 55.7757Z" fill="#00C64D"/>
<path d="M91.9525 20.1913C92.4436 20.1913 92.9244 20.0032 93.3006 19.6322L98.6668 14.2607C99.4088 13.5187 99.4088 12.3117 98.6668 11.5645C97.9196 10.8173 96.7179 10.8225 95.9707 11.5645L90.6044 16.936C89.8624 17.678 89.8624 18.885 90.6044 19.6322C90.9806 20.0032 91.4613 20.1913 91.9525 20.1913Z" fill="#00C64D"/>
<path d="M108.098 37.3615H100.506C99.4502 37.3615 98.6037 38.2132 98.6037 39.2635C98.6037 40.319 99.4554 41.1655 100.506 41.1655H108.098C109.153 41.1655 110 40.3138 110 39.2635C110 38.2184 109.148 37.3615 108.098 37.3615Z" fill="#00C64D"/>
<path d="M93.06 58.8055C92.3181 58.0635 91.1111 58.0635 90.3639 58.8055C89.6219 59.5474 89.6219 60.7544 90.3639 61.5016L95.7301 66.8731C96.1011 67.2441 96.5871 67.4322 97.0782 67.4322C97.5694 67.4322 98.0501 67.2441 98.4263 66.8731C99.1683 66.1311 99.1683 64.9242 98.4263 64.177L93.06 58.8055Z" fill="#00C64D"/>
<path d="M70.7278 66.7993C69.6724 66.7993 68.8258 67.651 68.8258 68.7013V76.2936C68.8258 77.349 69.6775 78.1956 70.7278 78.1956C71.7833 78.1956 72.6299 77.3439 72.6299 76.2936V68.7013C72.6351 67.6562 71.7834 66.7993 70.7278 66.7993Z" fill="#00C64D"/>
<path d="M33.7015 40.8407H41.2938C42.3492 40.8407 43.1958 39.989 43.1958 38.9387C43.1958 37.8832 42.3441 37.0367 41.2938 37.0367H33.7015C32.646 37.0367 31.7995 37.8884 31.7995 38.9387C31.7942 39.9837 32.6459 40.8407 33.7015 40.8407Z" fill="#00C64D"/>
<path d="M48.7341 19.3967C49.1051 19.7677 49.591 19.9558 50.0822 19.9558C50.5733 19.9558 51.0541 19.7677 51.4303 19.3967C52.1723 18.6547 52.1723 17.4478 51.4303 16.7005L46.064 11.3343C45.322 10.5923 44.115 10.5923 43.3678 11.3343C42.6258 12.0762 42.6258 13.2832 43.3678 14.0304L48.7341 19.3967Z" fill="#00C64D"/>
<path d="M71.0676 11.4015C72.1231 11.4015 72.9696 10.5498 72.9696 9.49951L72.9749 1.90202C72.9749 0.846523 72.1231 0 71.0728 0C70.0174 0 69.1708 0.851713 69.1708 1.90202V9.48908C69.1604 10.5446 70.0173 11.4015 71.0676 11.4015Z" fill="#00C64D"/>
</svg>
